<svg id="PRINT_1" xmlns="http://www.w3.org/2000/svg" xmlns:xlink="http://www.w3.org/1999/xlink" viewBox="0 0 595.3 841.9"><style>.st0{fill:#f9f1ea}.st1{clip-path:url(#SVGID_2_)}.st2{fill:none;stroke:#e5d6ca;stroke-linecap:round;stroke-linejoin:round;stroke-miterlimit:10}.st3{fill:#ddddb6}.st4{fill:#e8d7d1}.st5{fill:#f4e4d7}.st6{fill:#d3bbb4}.st7{fill:#ccca9e}.st8{fill:#d6c0b2}.st9{fill:#d8c3bc}</style><path class="st0" d="M-8.5-8.5h612.3v858.9H-8.5z"/><defs><path id="SVGID_1_" d="M-8.5-8.5h612.3v858.9H-8.5z"/></defs><clipPath id="SVGID_2_"><use xlink:href="#SVGID_1_" overflow="visible"/></clipPath><g class="st1"><path class="st2" d="M329.7 142.8c-9-5.1-6.1-.4-3.6 2.3.1.1.1.2.2.2l.2.2c7.3 7.8 13.1 17.3 17.7 27 8.3 17.5 13.5 36.4 22.4 53.5 8.9 17.2 22.7 33.2 41.3 38.5-6.5-50.6-35.4-95.6-78.2-121.7zm128.7 32.7c-6.3-8.2-5.5-2.7-4.2.8 0 .1.1.2.1.3 0 .1.1.2.1.3 3.8 10 5.5 21 6.1 31.7 1 19.3-1.4 38.8.3 58.1 1.7 19.3 8.3 39.3 23.4 51.4 13.3-49.5 3.7-102.1-25.8-142.6zm60.3 59.8c-7.7-6.9-5.9-1.7-4 1.5.1.1.1.2.2.3 0 .1.1.2.1.2 5.4 9.2 9.1 19.7 11.4 30.2 4.3 18.9 5.3 38.4 10.2 57.1 5 18.7 14.9 37.3 31.9 46.6 4.7-50.9-13.8-101.1-49.8-135.9zm101.4 58.6c-6-8.4-5.4-2.9-4.3.6 0 .1.1.2.1.3 0 .1.1.2.1.3 3.4 10.1 4.7 21.2 4.8 31.9.2 19.4-3 38.7-2 58 .9 19.3 6.8 39.6 21.4 52.3 15.2-48.8 7.8-101.8-20.1-143.4zm-336.2-50.3c-5.5-8.8-.6-6.1 2.2-3.7.1.1.2.1.2.2l.2.2c8.1 7 17.8 12.4 27.7 16.6 17.8 7.6 36.9 12 54.4 20.2s34.1 21.3 40.2 39.7c-50.9-4.4-97.1-31.5-124.9-73.2zm47.9 108.6c-7.4-7.3-2-5.8 1.3-4.1.1 0 .2.1.3.1.1 0 .2.1.2.1 9.5 4.9 20.2 8 30.8 9.8 19.1 3.2 38.7 3.1 57.6 7.1 19 4 38.1 12.9 48.3 29.3-50.6 7.4-101.7-8.3-138.5-42.3zm79.7 110.2c-8.9-5.2-3.4-5.1.2-4.3.1 0 .2 0 .3.1.1 0 .2 0 .3.1 10.4 2.4 21.5 2.6 32.2 1.7 19.3-1.7 38.2-6.7 57.5-7.7 19.3-.9 40.1 2.9 54.1 16.2-47 19.8-100.5 17.6-144.6-6.1z"/><path class="st2" d="M377.3 216C442 338.1 566.4 414.1 671.1 504.5c19.5 16.8 38.5 34.4 55.8 53.5M356.6 286.7s65.7 46.5 108.2 44.1m7.8-73.4s19 79.3 11.4 92m-66 30.1s92.2 31 124.5 20.7m7.7-80s34.8 80.9 24 105.6m-74.7 41.4s70.6 11.3 106.7-16m26.6-71.3s15 69.2 2.7 94.9M327 410.7c3.8-9.3-.4-5.9-2.7-3.2-.1.1-.1.2-.2.2l-.2.2c-6.6 8.1-15 14.9-23.7 20.6-15.8 10.3-33.3 17.8-48.8 28.7-15.4 10.9-29 26.3-31.8 44.9 48.1-12.8 87.7-46.7 107.4-91.4zm-14.7 128.6c7-7.2 1.9-5.6-1.3-4-.1 0-.2.1-.3.1-.1 0-.2.1-.2.1-9.2 5-19.5 8.1-29.8 10-18.5 3.5-37.6 3.7-56 7.8-18.4 4.2-36.9 13.2-46.5 29.4 49.2 6.5 98.8-9.6 134.1-43.4zm-49.9 66c5.7-8.3.9-5.9-2-3.7-.1.1-.2.1-.2.2l-.2.2c-8.2 6.5-17.9 11.3-27.6 15-17.7 6.6-36.4 10.1-53.8 17.4-17.4 7.3-34.1 19.3-40.8 36.9 49.6-2.3 95.7-26.7 124.6-66zm-43.3 105.6c7.3-6.9 2.1-5.6-1.1-4-.1 0-.2.1-.3.1-.1 0-.2.1-.2.1-9.3 4.6-19.8 7.3-30.2 8.8-18.7 2.7-37.7 2.2-56.3 5.7-18.5 3.4-37.4 11.7-47.7 27.5 49 8.3 99.2-5.9 135.8-38.2zm4.5-331.2c7.7-6.4 5.8-1.4 3.9 1.6-.1.1-.1.2-.2.3-.1.1-.1.2-.2.2-5.7 8.7-9.7 18.8-12.4 28.9-5 18.2-6.8 37.2-12.4 55.2-5.7 18-16.2 35.7-33.1 44-2.3-49.8 17.8-97.9 54.4-130.2zm-98.5 60.5c6-8 5.3-2.7 4.1.7 0 .1-.1.2-.1.3 0 .1-.1.2-.1.3-3.5 9.8-5.1 20.5-5.4 31-.6 18.9 2 37.7.7 56.6-1.3 18.8-7.5 38.4-22 50.4-13.7-47.9-5.3-99.4 22.8-139.3zm-96 91.3c3.8-9.3 4.5-3.9 4.2-.4v.6c-.9 10.4.3 21.1 2.6 31.3 4.2 18.4 11.5 36 14.9 54.6 3.4 18.5 2.5 39.1-8.6 54.4-25.4-42.9-30.2-94.8-13.1-140.5z"/><path class="st2" d="M262.5 466.2C153 544.7 96 674.8 22.4 787.7c-13.7 21-28.2 41.7-44.4 60.8m213.5-393S155.2 525 163 565.8m72-2.1s-74.1 28.7-87.4 23M110 526.9s-17.8 93.1-3.7 122.9m78.2-2.9s-73.6 44.2-98.8 37M36 617.1S34.3 686.7 65.4 718m72.3 16.4s-64.9 23.5-91.3 15.1M242.2 769c-5.9 6.5-1.4 5 1.2 3.4.1 0 .2-.1.2-.1.1 0 .1-.1.2-.1 7.8-4.6 16.7-7.6 25.6-9.6 16-3.6 32.6-4.4 48.5-8.6 15.9-4.2 31.7-12.6 39.5-27-43-4-85.6 11.5-115.2 42zm51.1-100.3c-7.9 3.7-3.2 4-.2 3.6h.5c9-1.3 18.4-.7 27.3.9 16.2 2.8 31.8 8.4 48.1 10.6 16.3 2.2 34.1.5 46.9-9.8-38.3-20.2-83.7-22.2-122.6-5.3zM354 630c-7.2 5-2.5 4.5.5 3.6.1 0 .2-.1.3-.1.1 0 .2-.1.2-.1 8.6-2.8 18-3.8 27.1-3.8 16.4 0 32.8 2.8 49.2 2.2 16.4-.6 33.6-5.4 44.5-17.7-41.3-13.3-86.3-7.4-121.8 15.9zm67.4-72.9c-8.1 3.4-3.4 3.9-.3 3.6h.5c9-.9 18.4.1 27.3 2 16 3.4 31.4 9.7 47.6 12.5 16.2 2.8 34 1.8 47.2-8-37.5-21.7-82.7-25.4-122.3-10.1zM317.1 825.7c-8.3 2.9-5.1-.6-2.7-2.5l.2-.2c.1 0 .1-.1.2-.1 7.3-5.4 13.6-12.4 18.9-19.8 9.6-13.3 16.8-28.3 26.9-41.2 10.1-12.9 24-24.2 40.3-25.8-13.2 41.3-44.2 74.4-83.8 89.6zm98.7-19.4c-7.4 4.7-5.1.6-3.2-1.8l.2-.2.2-.2c5.8-6.9 10.4-15.2 13.8-23.6 6.2-15.2 9.8-31.4 16.6-46.3 6.8-14.9 17.8-29.1 33.3-34.4-3.4 43.1-25.9 82.5-60.9 106.5zm106-45.3c-5.9 6.4-4.8 1.9-3.5-1 0-.1.1-.2.1-.2 0-.1.1-.1.1-.2 3.9-8.2 6.2-17.3 7.4-26.3 2.2-16.3 1.6-32.8 4.4-49 2.8-16.2 9.8-32.6 23.5-41.7 7.6 42.6-4.2 86.4-32 118.4z"/><path class="st2" d="M311.6 743.3C424.7 712.6 510.8 623.9 605 554.2c17.5-13 35.6-25.4 54.6-36.1M366.3 773.7S417 728 423 692.4m-59.3-20.2s69.1-.9 78.2 7.7m12.5 60.3s42.8-70.5 40.3-99.1m-64.6-21.3s73.4-13.7 91.8-.2m20.2 69.5s22.5-56.2 6.7-91.2m-54-35.3s60 .5 79 15.4M243.1 46.8c-7.7-2.9-3.3-3.5-.4-3.4h.4c8.5.5 17.2-.7 25.5-2.8 14.9-3.8 29.1-10.2 44.1-13.4 15-3.2 31.8-2.9 44.5 5.8-34.2 21.6-76.4 26.7-114.1 13.8zm85.3 62.2c-8.2.3-4.4-2-1.7-3 .1 0 .2-.1.2-.1.1 0 .1 0 .2-.1 8-2.8 15.6-7.3 22.5-12.4 12.3-9.2 23-20.5 35.6-29.3 12.7-8.7 28.3-14.9 43.3-11.7-23.4 33.2-60.4 54.1-100.1 56.6zm67.1 6.5c-8.1-1.2-4-2.7-1.1-3.2h.4c8.4-1.3 16.7-4.5 24.3-8.3 13.7-7 26.2-16.3 40.2-22.7 14-6.4 30.4-9.8 44.7-4.1-28.8 28.5-68.9 42.7-108.5 38.3zm87.3 32.3c-8.2.6-4.5-1.8-1.8-2.9.1 0 .2-.1.2-.1.1 0 .1-.1.2-.1 7.9-3.1 15.3-7.9 22-13.2 11.9-9.7 22.2-21.4 34.5-30.6 12.3-9.2 27.7-16 42.8-13.4-22.1 34-58.3 56.3-97.9 60.3zM281.6-32.4c-8.1 1.1-4 2.7-1.2 3.2h.4c8.4 1.4 16.6 4.6 24.2 8.5 13.7 7.1 26 16.5 40 23 13.9 6.5 30.3 10 44.7 4.4-28.6-28.7-68.5-43.2-108.1-39.1zm90.7-25.7c-8.2-.8-4.5 1.7-1.9 2.9.1 0 .2.1.2.1.1 0 .1.1.2.1 7.8 3.3 15.1 8.3 21.6 13.9 11.7 10 21.5 22.1 33.6 31.6 12 9.6 27.2 16.8 42.4 14.6-21.1-34.6-56.6-58-96.1-63.2zm107.8-7.2c-7.7-2.9-4.8.5-2.5 2.3.1 0 .1.1.2.2.1 0 .1.1.2.1 6.7 5.2 12.5 11.9 17.4 18.9C504-31.2 510.6-17 519.8-4.7s22.1 23.1 37.4 24.9c-11.7-38.9-40.2-70.5-77.1-85.5z"/><path class="st2" d="M312 38.8C419.6 16.4 529.1 54 637.5 72.2c20.2 3.4 40.6 6.1 61 7m-353.7-89S406.5 6.8 426.7 34m-41 42.1s58.1-28.6 62.1-39.7m-15.1-55.6s65.7 40.7 75.8 65.7m-45 45.2s67.1-19.7 76.8-38.9m-12.6-66.6s42.7 37.4 44.3 73.4M541.8 112s50-25.9 59.4-46.4M-56.6 427.5c-2.7 10.7 1.3 6.4 3.4 3.1.1-.1.1-.2.2-.3.1-.1.1-.2.2-.3 6-9.8 14.1-18.5 22.8-25.9 15.7-13.5 33.8-24.2 49-38.3 15.2-14.1 27.8-32.8 28.1-53.6-50.5 21.1-88.8 63.7-103.7 115.3zm-2.6-142.2c-6.6 8.9-1.2 6.4 2 4.2.1-.1.2-.1.3-.2.1-.1.2-.1.2-.2 9.3-6.7 20.1-11.6 31-15.2 19.7-6.5 40.5-9.5 59.9-16.7 19.4-7.2 38.3-19.7 46.5-38.8-54.7.2-106.4 24.9-139.9 66.9zm44.7-79.2c-5 9.9-.1 6.5 2.7 3.7l.2-.2.2-.2c8-8.2 17.8-14.9 27.9-20.3 18.3-9.8 38.2-16.3 56.1-26.7 17.9-10.4 34.3-26 39.1-46.2C58 125.8 11.3 159-14.5 206.1zm32-121.3c-7 8.6-1.5 6.4 1.8 4.2.1-.1.2-.1.3-.2.1-.1.2-.1.3-.2 9.5-6.4 20.6-10.9 31.6-14 19.9-5.7 40.8-7.9 60.5-14.3 19.7-6.4 39-18.2 47.9-36.9-54.7-1.9-107.3 20.8-142.4 61.4zm43.1 361.6c-7.5 8.1-6.1 2.4-4.4-1.2 0-.1.1-.2.1-.3 0-.1.1-.2.1-.3 4.9-10.3 7.8-21.9 9.3-33.3 2.8-20.6 2-41.5 5.5-61.9 3.6-20.4 12.4-41.2 29.7-52.7 9.8 53.8-5.2 109.1-40.3 149.7zm98.5-80.3c-5.4 9.6-5.4 3.7-4.6-.1 0-.1 0-.2.1-.3 0-.1 0-.2.1-.3 2.4-11.2 2.5-23.1 1.4-34.5-2.1-20.6-7.7-40.8-9-61.5-1.3-20.7 2.5-43 16.7-58.2 21.9 50 20.2 107.3-4.7 154.9zm91.4-113.4c-2.8 10.7-4.3 4.9-4.5 1v-.6c-.5-11.4-3.4-23-7.4-33.8-7.2-19.4-17.7-37.6-24.2-57.3-6.4-19.7-8.4-42.2 1.5-60.5 33.8 43 46.6 98.9 34.6 151.2z"/><path class="st2" d="M5.6 357.7c107.9-101.4 151.2-251.4 215-385.1 11.9-24.9 24.7-49.5 39.5-72.7M84.6 359.1s29.4-81 15-124.3m-78.1 12.6s76.6-42 91.9-37.8m49.6 59.8s5.9-104.1-13.8-134.4m-84.8 14.5s73.7-58.8 102.3-54.7m63.9 65.6s-8.2-76.1-46.7-105.7m-81.2-7.4S170 12.2 200 17.6"/></g><path class="st3" d="M603.8-8.5H57.2C49.9 18.8 80.6 53.9 109 65.4c31.6 12.8 66.8 11.6 100.2 9.9 34.8-1.7 70.6-3.8 103.5 7.7 38.7 13.5 68.8 44.5 94 76.8 25.2 32.4 47.6 67.5 78.1 94.9s72 46.5 112.3 38.5c2.3-.4 4.5-1 6.7-1.6V-8.5z"/><path class="st4" d="M283 119.6c-29.8-17.6-66.2-21-100.5-16.2-67.4 9.4-147.3 35.5-191.1 91.2v202.6c6.6 6.9 14.4 12.4 23.5 15.6 17.8 6.3 37.7 2.7 55.2-4.4 17.5-7.1 33.4-17.5 50.6-25.4 40.6-18.7 87.8-22.7 131-11 15.9 4.3 31.6 10.7 48 10.9 40.3.5 73-38.3 77.9-78.3 4.9-40-11.4-79.7-31.8-114.5-15.8-27.6-35.3-54.3-62.8-70.5z"/><path class="st5" d="M339.2 502.2c-23.1-23.3-50.5-40.1-79.2-55.1-56.5-28.7-97.4-19.8-107.5-17.6-18 4.3-35.2 10.7-48.8 16.8-35 15.8-65.9 45-74.7 82.4-8.7 37.4 10.4 81.9 46.8 94 16.6 5.5 34.8 4.2 51.4 9.7 33.3 11.1 51.7 46 79.3 67.5 29.9 23.3 72 30 107.7 17 35.6-13 63.6-45.2 71.5-82.3 10.2-47.7-12.2-97.8-46.5-132.4z"/><path class="st3" d="M408.7 833.5c-15.1-11.4-34.3-15.9-53.2-17.1-18.9-1.2-37.8.5-56.7-.1-56.8-1.7-112.8-24.5-154.6-63-21.7-20-39.9-44.2-64.9-59.9-25.8-16.2-58-21.7-87.8-15.8v172.8h432.1c-3.8-6.5-9-12.3-14.9-16.9z"/><path class="st4" d="M603.8 609.9c-4.7-2-9.9-3.8-15.7-5.3-67.5-17.7-145.2 18.9-174.5 82.3-10.3 22.4-14.7 49.4-3.2 71.2 15.1 28.5 52.1 38.1 84.2 35 42.7-4.2 82.2-27.2 109.3-60.1V609.9z"/><path class="st6" d="M337.4 294.6c12.3 7.2 25.5 12.8 39.3 16.8.1-.3.1-.7.2-1-13.6-3.9-26.8-9.5-38.9-16.7-21.5-12.6-40-30-53.6-50.4-2.8-4.5-2.4-5.2-2.4-5.3.3-.1 1.8.5 3.8 2.2l.4.4s.1 0 .1.1c7.4 6.4 16.7 12 27.7 16.6 8 3.4 16.5 6.2 24.6 9 9.9 3.3 20.2 6.8 29.8 11.3 3.7 1.7 7.1 3.5 10.1 5.4 0-.4 0-.8-.1-1.2-3.3-2-6.6-3.7-9.6-5.1-9.7-4.5-19.9-8-29.9-11.3-8.1-2.7-16.5-5.5-24.6-8.9-11-4.6-20.2-10.2-27.5-16.5h-.1l-.4-.3c-1.2-1-4-3.2-5.1-2.2-.6.5-.8 1.7 2.2 6.5 13.8 20.4 32.4 37.9 54 50.6zm-5.2 57.2c-3.8-3.7-3.5-4.5-3.5-4.6.2-.2 1.9 0 4.2 1.3l.5.3h.1c6.1 3.2 13.1 5.7 20.8 7.7.2-.3.5-.6.7-.8-7.9-1.9-15-4.5-21.2-7.7h-.1l-.5-.2c-1.4-.7-4.6-2.2-5.5-1-.5.7-.4 1.9 3.7 5.9 4.6 4.3 9.5 8.3 14.7 12.1.3-.2.5-.5.8-.7-5.1-3.9-10.1-8-14.7-12.3z"/><path class="st6" d="M356.8 286.3c-.2-.2-.5-.1-.7.1-.2.2-.1.5.1.7.2.2 8.9 6.3 21.9 13.9 0-.4.1-.7.1-1.1-12.6-7.5-21.1-13.4-21.4-13.6z"/><path class="st7" d="M461 230.3c.2-7.2.3-14.6-.1-21.9-.6-12-2.6-22.6-6.1-31.8v-.1l-.2-.5c-.9-2.5-1-4.1-.8-4.3 0 0 .9-.1 4.1 4 14.4 19.8 24.4 43.2 28.8 67.7.9 4.9 1.5 9.8 2 14.8.4.3.7.6 1.1.9-.4-5.3-1.1-10.6-2.1-15.8-4.5-24.6-14.5-48.2-29-68.1-3.5-4.5-4.7-4.7-5.4-4.3-1.3.7-.2 4.1.3 5.6l.2.5v.1c3.4 9 5.4 19.6 6 31.5.3 6.9.3 13.9.1 20.7.5.3.8.7 1.1 1zm65.9 37c-2.6-11.7-6.5-21.8-11.4-30.2v-.1l-.3-.5c-1.3-2.3-1.7-3.9-1.5-4.1 0 0 .8-.3 4.8 3.3 16.5 15.9 29.6 35.6 38.3 57.2.4.1.8.2 1.2.2-8.7-22-22-42-38.8-58.1-4.2-3.8-5.4-3.8-6.1-3.3-1.2.9.5 4.1 1.3 5.4l.3.4v.1c4.9 8.3 8.7 18.4 11.4 30 1.2 5.3 2.2 10.8 3 16.2.4.2.7.3 1.1.5-1.1-5.7-2.1-11.4-3.3-17z"/><path class="st8" d="M29.5 531.7c2-4.8 2.8-4.9 2.8-4.9.3.2.6 1.9.4 4.3l-.1.6v.1c-.8 9.5 0 20 2.6 31.4 1.9 8.3 4.4 16.6 6.9 24.6 1.5 4.9 3 9.8 4.4 14.8.5.6 1 1.1 1.5 1.7-1.5-5.7-3.3-11.3-5-16.8-2.5-8-5-16.2-6.9-24.5-2.6-11.3-3.4-21.8-2.6-31.2v-.6c.1-1.5.2-5-1.2-5.3-.8-.2-1.8.3-3.9 5.5-.1.3-.2.7-.4 1-.3 1.7-.6 3.5-.8 5.3.9-2.1 1.6-4.1 2.3-6zm286.6 2.1c-.9-1.2-4 .3-5.4 1l-.4.2h-.1c-8.3 4.5-18.3 7.8-29.7 10-8.3 1.6-16.9 2.5-25.2 3.4-10.2 1.1-20.7 2.2-30.8 4.5-27.8 6.3-40.8 19.4-46.8 29.4-13 3.5-24.4 5.7-29.3 4.2 21.4-30.1 44.6-58.6 71-83.8h.3c23.6-6.4 45.9-18.1 64.5-34 1.9-1.6 3.7-3.2 5.5-4.9-.3-.2-.6-.4-.9-.5-1.7 1.6-3.5 3.2-5.3 4.7-18.1 15.4-39.7 26.9-62.7 33.4 13.1-12.4 27-24.1 41.9-34.7.2-.2.3-.5.1-.7-.2-.2-.5-.3-.7-.1-14.8 10.6-28.7 22.2-41.8 34.6 2.1-11.3 9.4-27.3 31.3-42.7 4.1-2.9 8.5-5.6 12.9-8.2-.3-.2-.7-.4-1-.5-4.2 2.5-8.4 5.1-12.4 7.9-23 16.2-30 33.2-31.9 44.7-20.3 19.4-38.7 40.6-55.9 63.1-2.7-15.9 1.1-36 6.7-54.7 10.4-5.3 24.3-17.2 32.7-44 3.1-9.9 5.1-20.3 7-30.3l1.2-6c-.3-.1-.7-.1-1-.2l-1.2 6c-1.9 10-3.9 20.4-7 30.2-8.1 25.7-21.2 37.5-31.4 42.9 8.7-28.1 21.2-52.5 21.5-52.9.1-.2 0-.5-.2-.7-.2-.1-.5 0-.7.2-.2.4-12.7 24.6-21.4 52.6-.8-23.7 3.5-47.7 12.6-69.5 1.7-4 3.5-7.9 5.5-11.8-.4 0-.7 0-1.1-.1-1.9 3.7-3.7 7.5-5.3 11.4-9.4 22.5-13.8 47.3-12.7 71.8 0 .2.1.3.2.4-5.7 19-9.5 39.5-6.4 55.5-5.2 6.8-10.2 13.7-15.1 20.6-.1.1-.2.1-.2.2v.1c-10 14.1-19.6 28.6-28.9 43.2.4.1.7.2 1.1.2 9.2-14.5 18.7-28.8 28.6-42.8 1.2.4 2.8.6 4.7.6 6.1 0 15.4-1.9 25.7-4.7 7 .9 14 1.3 21 1.3 17.4 0 34.9-2.7 51.4-8.1 23.2-7.5 44.7-20.3 62-36.9 3.9-3.6 4-4.8 3.5-5.5zm-4.2 5.1c-17.2 16.5-38.5 29.2-61.6 36.7-22.2 7.2-46.2 9.6-69.5 7 24.3-6.8 52.5-17.7 54.3-18.4.3-.1.4-.4.3-.6-.1-.3-.4-.4-.6-.3-.5.2-30.6 11.8-55.6 18.7 6.1-9.7 19-22.1 45.6-28.1 10.1-2.3 20.6-3.4 30.7-4.5 8.3-.9 16.9-1.8 25.3-3.4 11.5-2.1 21.5-5.5 29.9-10h.1l.5-.3c2.1-1.1 3.8-1.5 4.1-1.3-.1.1.1.9-3.5 4.5zm-51.8 62.3l-.4.3h-.1c-7.4 5.8-16.6 10.9-27.5 14.9-7.9 3-16.3 5.3-24.3 7.6-9.8 2.8-20 5.7-29.6 9.7-10.2 4.3-18.1 9.2-24.1 14.2.3.2.5.4.8.7 5.9-4.9 13.6-9.8 23.7-14 9.5-4 19.7-6.9 29.5-9.7 8.1-2.3 16.4-4.7 24.4-7.7 10.9-4.1 20.2-9.1 27.7-15 0 0 .1 0 .1-.1l.4-.4c2-1.6 3.5-2.1 3.8-2 0 0 .4.8-2.5 5-14.1 19.2-32.9 35.4-54.4 46.7-11.2 5.9-23.1 10.5-35.5 13.7.3.3.5.6.8.8 12.2-3.2 24-7.8 35.2-13.7 21.6-11.4 40.5-27.7 54.7-47 3.2-4.6 3-5.8 2.4-6.3-1-.6-3.9 1.4-5.1 2.3zm-38.9 108.3c2.3-2.4 2.3-3.3 1.9-3.9-.8-1.2-4 .2-5.4.8l-.4.2h-.1c-.2.1-.3.1-.5.2.3.2.7.4 1 .6l.4-.2c2.3-1.1 3.9-1.3 4.1-1.1 0 0 .1.6-2 2.8.4.2.7.4 1 .6z"/><path class="st8" d="M185 646.6c-.1-.2-.4-.3-.7-.2-.1.1-8.2 4.9-19.8 11.1l.7.7c11.5-6.1 19.5-10.9 19.6-11 .2-.1.3-.4.2-.6zm-83.2-67.1c0 .1.1.2.3.3-1.8 19.3-2.2 35.2-1.2 47.6.4 0 .7.1 1.1.1-1-12.6-.7-28.8 1.2-48.2 8.9-7.5 19.7-22.3 21.7-50.4.7-10.4.3-20.9-.2-31.1-.4-8.3-.8-17-.5-25.5.4-11.6 2.2-22 5.4-30.8v-.1l.2-.5c.4-1.3 1.3-4.1.5-5.1-1 .3-2.1.7-3.1 1-.7.7-1.5 1.6-2.5 2.9-13.8 19.7-23.2 42.8-27.2 66.9-3.9 24.2-2.4 49.4 4.3 72.9zm23.7-139c3.1-4.1 3.9-4 3.9-4 .2.2.2 1.8-.7 4.2l-.2.5v.1c-3.2 8.9-5 19.4-5.4 31-.3 8.5.1 17.2.5 25.5.5 10.2.9 20.7.2 31-1.9 26.8-12 41.4-20.5 49 0-.2 0-.4.1-.6 2.7-26.7 7.1-50 7.1-50.2.1-.3-.1-.5-.4-.6-.3 0-.5.1-.6.4 0 .2-4.5 23.6-7.2 50.3v.4c-6.3-22.9-7.6-47.3-3.8-70.6 3.9-23.9 13.3-46.9 27-66.4z"/><path class="st7" d="M-8.5 831v1.6c9.9-12.9 20.1-27.5 31.4-44.7 8.1-12.4 16-25.1 23.8-37.9 3.9 1.2 8.6 1.8 14.3 1.8 6.3 0 13.7-.7 22.3-2.2 9.1 1.5 18.4 2.3 27.7 2.3 9.8 0 19.5-.9 29.1-2.6l-.9-.9c-17.4 3-35.4 3.2-52.9.6 5-.9 10.2-2.1 15.9-3.5 10.4-2.6 20-5.5 26.6-7.6l-.8-.8c-10.2 3.3-27 8.2-43.5 11.2 5.3-7.6 14.9-16.8 32.5-22.6l-.8-.8c-18.2 6.2-28 15.8-33.2 23.7-13.6 2.3-26.8 3.2-35.8.6 9.3-15.2 18.4-30.6 27.4-45.6 1.9-3.2 3.8-6.3 5.7-9.5-.3-.2-.6-.4-.8-.6l-5.7 9.6c-2.8 4.7-5.6 9.4-8.4 14.2-9.8-10-16.2-24-20.5-38.4-.4-.1-.7-.2-1.1-.3 4.3 14.8 11 29.2 21.1 39.5-13.8 23.2-28.1 46.8-42.7 69.3-11.1 16.7-21 31-30.7 43.6zm321.1-3.6c.9 0 2.3-.3 4.6-1.1 7.3-2.8 14.4-6.3 21.1-10.3h-2c-6.2 3.6-12.7 6.7-19.4 9.3-3.9 1.4-4.6 1.1-4.7 1.1 0-.3.8-1.4 2.5-2.7l.4-.3s.1 0 .1-.1c2.8-2.1 5.5-4.5 8.2-7.1H322c-2.4 2.4-4.9 4.5-7.4 6.3l-.1.1-.3.3c-1 .8-3.4 2.8-2.8 3.9.1.3.4.6 1.2.6z"/><path class="st8" d="M363.7 671.7c-.3 0-.5.2-.5.5s.2.5.5.5h5.9c.2-.3.4-.7.7-1h-6.6z"/><path class="st8" d="M293 668.2c-4.4 2.1-4.8 3-4.6 3.7.4 1.3 3.4 1 4.7.8l.4-.1h.1c8.1-1.1 17.2-.8 27.2.9 7.3 1.3 14.5 3.1 21.6 4.9 6.3 1.6 12.8 3.3 19.4 4.5.2-.3.5-.6.7-.9-6.7-1.3-13.4-3-19.9-4.6-7.1-1.8-14.4-3.7-21.7-4.9-6.1-1.1-11.8-1.6-17.3-1.6-3.5 0-6.9.2-10.2.7h-.2l.1.5-.2-.5h-.2c-2.1.3-3.5.1-3.6-.1 0-.1.2-.8 4.1-2.6 26-11.2 55.2-14 83.1-8.5.2-.3.3-.6.5-.9-28.1-5.4-57.7-2.6-84 8.7.1 0 0 0 0 0zm60.7-38.6c-4 2.8-4.2 3.8-3.9 4.5.2.5.8.6 1.6.6 1.1 0 2.5-.4 3.3-.6l.4-.1h.1c7.8-2.5 16.8-3.8 26.9-3.8h.1c1.5 0 3 0 4.5.1.1-.3.1-.7.2-1-1.5 0-3.1-.1-4.6-.1h-.1c-10.2 0-19.3 1.3-27.2 3.8h-.1l-.5.2c-2 .6-3.4.7-3.6.5 0-.1.1-.8 3.6-3.2 10.5-6.9 21.9-12.3 33.9-16v-1.1c-12.3 3.7-23.9 9.2-34.6 16.2z"/><path class="st9" d="M495.2 641.4c14.2-11.1 28.3-22.4 42.2-33.6l9.3-7.5c-.6 0-1.1.1-1.7.1-2.8 2.2-5.5 4.4-8.3 6.7-5 4-10 8-15 12.1-5.5-3.8-15.8-5.8-30.7-5.9-.8.3-1.6.7-2.3 1 13.6-.1 25.9 1.2 32.2 5.5-25.7 20.6-51.9 41.1-79.1 59.6-3.2-2.6-11.4-4.3-21.5-5.4l-.6.9c9.8 1.1 18 2.7 21.2 5-10.8 7.3-21.7 14.3-32.9 20.9-.1.5-.3.9-.4 1.4 4.9-2.9 9.8-5.8 14.6-8.8-2.3 12.2-9.9 25.6-18.7 37.9 0 .5 0 1.1.1 1.6 9.4-13 17.6-27.2 19.8-40.2 6.3-3.9 12.4-8 18.6-12.2.1 0 .2-.1.3-.1 0 0 0-.1.1-.1 17.7-12 35-24.9 51.9-38.1.7 13.9-8.6 37.1-18.5 57.4-17 6.2-27.3 22.1-32.9 34.5-3.8 8.2-6.6 17-9.3 25.4-1.9 6-3.9 12.1-6.2 18.1.3.2.6.4.8.6 2.4-6.1 4.4-12.3 6.3-18.4 2.7-8.4 5.5-17.2 9.3-25.3 3.7-8.1 8.2-15 13.3-20.7 5.5-6 11.5-10.3 18.1-12.9-10.3 21.1-21 38.7-21.2 39.1-.1.2-.1.5.2.7.1 0 .2.1.3.1.2 0 .3-.1.4-.2.1-.2 10.8-17.9 21.1-38.8-2.8 31.1-15.9 60.4-36.3 83.1.3.1.6.3.9.4 20.9-23.3 34.1-53.5 36.5-85.4 0-.1 0-.2-.1-.3 13-27 19.2-46.6 18.2-58.2zm57.9 1c-8.4 5.7-19.1 17.6-23.3 41.8-1.6 8.9-2.1 18.1-2.6 27-.4 7.3-.8 14.8-1.8 22.1-1.4 10-3.8 18.8-7.4 26.2v.1l-.2.4c-.6 1.2-1.7 4-.6 4.8.1.1.3.2.5.2.7 0 1.9-.7 4.4-3.4 27.8-32 39.8-76.4 32.1-118.9 0-.1-.1-.2-.1-.3 1.6-14.2 1.2-29.4-3.9-42.1h-1.1c5.2 12.5 5.6 27.8 4 42.1zm-31.7 118.3c-2.9 3.1-3.6 3.1-3.6 3.1-.2-.3.1-1.7.9-3.5l.2-.4v-.1c3.6-7.5 6-16.3 7.4-26.4 1-7.3 1.4-14.9 1.8-22.2.5-8.8 1-18 2.6-26.8 4-23.2 14.1-34.8 22.2-40.6-2.9 24-11.1 44.9-11.3 45.2-.1.3 0 .5.3.6h.2c.2 0 .4-.1.5-.3.1-.3 8-20.4 11.1-43.9 6.6 41.4-5.4 84.2-32.3 115.3z"/><path class="st7" d="M603.8 66.5v-1c-10.5-2.1-21-4.2-31.4-6.4-.7-13.4-7.1-27-14.8-38.8V20c-3-10-7.2-19.6-12.3-28.5h-1.2c4.8 8.2 8.7 16.9 11.7 26.1C548.1 6.4 539.5-2.9 534-8.5h-1.4c5.7 5.7 15.2 15.8 23.4 28-9.2-1.4-22.5-6.9-35.7-24.5-.9-1.1-1.7-2.3-2.5-3.5h-1.2c.9 1.4 1.9 2.7 2.9 4.1 13.8 18.4 27.8 23.8 37.2 25 7.7 11.7 14 25.1 14.8 38.3-4.4-.9-8.7-1.8-13.1-2.7-16.4-3.5-33-7-49.6-10.2-4.2-10.1-17.6-23.9-39.9-40.8 0-.1 0-.2-.1-.3-2.8-4.7-6-9.1-9.3-13.4h-1.3c3.1 3.9 6 8 8.7 12.2-6-4.5-11.9-8.7-17-12.2h-1.8c5.5 3.8 12 8.3 18.6 13.3-15.1 1.4-29-6.1-38.6-13.3h-1.6C441.2 3 453.8 6 463 6c1.8 0 3.4-.1 4.9-.3 16.8 12.8 34.5 28.2 39.8 40.1-19.8-3.8-39.6-7.2-59.5-9.8 0 0-.1 0-.1-.1h-.3c-6.9-.9-13.8-1.7-20.7-2.3C419 23 404.7 13.9 390.2 6.9c0-.1 0-.3-.1-.4-5.5-5.5-11.5-10.5-17.8-15h-1.8c6.1 4.2 11.9 9 17.3 14.2-14.7-6.9-29.1-11.8-36.9-14.2h-3.4C354-6.6 370.9-1.2 388 6.9c-8.8 3-23.1 4.3-42.8-5-6.5-3-12.7-6.7-18.7-10.5h-1.9c6.5 4 13.2 8.1 20.2 11.4 11.6 5.4 21.3 7.3 29.2 7.3 6.2 0 11.3-1.2 15.3-2.6 14.2 6.9 28.3 15.7 36.4 26-22.9-2.1-45.7-2.8-68.5-1.3-8-5.3-22-10.4-44.5-5.5-8.3 1.8-16.5 4.6-24.3 7.2-6.5 2.2-13.1 4.5-19.8 6.2-9.2 2.3-17.7 3.3-25.3 2.8h-.5c-1.2-.1-4.1-.1-4.4 1.2-.1.7.3 1.6 4.6 3.2 13.6 4.7 27.9 7 42.3 7 25.2 0 50.6-7.1 72.4-20.8.1 0 .1-.1.2-.2 29.7-1.9 59.5-.1 89.3 3.7-1.9 3.8-9.4 9.3-18.6 15.1-9.3-1.9-24.4-1.4-43.5 11.8-7 4.8-13.5 10.5-19.7 16-5.1 4.5-10.4 9.1-15.9 13.3-2.3 1.7-4.5 3.2-6.7 4.6l.9.6c2.1-1.4 4.3-2.8 6.4-4.4 5.6-4.2 10.9-8.8 16-13.3 6.2-5.5 12.7-11.1 19.6-15.9 18.1-12.5 32.5-13.5 41.7-11.9-18 11.2-41.4 22.7-41.7 22.9-.2.1-.3.4-.2.7.1.2.3.3.4.3.1 0 .1 0 .2-.1 1.5-.7 23.2-11.5 40.7-22.2-18.3 24.8-44.8 42.6-74.1 50.2.3.3.7.5 1 .8 29.9-8 57-26.6 75.3-52.4 9.6-6 17.4-11.9 19.2-15.9 30.6 3.9 61.1 9.9 91.4 16.2-4.6 8.2-19.9 16.5-35.6 23.3-8.9-3.5-23.8-5.5-44.8 4.2-7.7 3.5-15.1 8-22.2 12.4-5.8 3.5-11.8 7.2-18 10.3-8.4 4.3-16.5 7.1-24.1 8.3h-.1l-.4.1c-1.2.2-4.1.8-4 2.1 0 .7.6 1.5 5.2 2.1 4.7.5 9.4.8 14 .8 34.9 0 69.5-14.2 94.8-39.3 20.1-8.7 32.3-16.8 36.2-24 5.9 1.2 11.8 2.5 17.6 3.7 13.9 2.9 28.1 5.9 42.4 8.8-3.4 6.8-11.2 14.2-20 21-9.4-1.5-24.4-.3-42.9 13.5-6.8 5.1-13 11-19.1 16.8-4.9 4.7-10 9.5-15.4 13.9-7.3 6-14.7 10.4-21.8 13.1h-.1l-.4.1c-1.2.5-3.8 1.7-3.5 2.9.1.6.7 1.1 3.3 1.1.6 0 1.4 0 2.2-.1 39.5-4 76.2-26.7 98.3-60.6 10.5-8.1 17.4-15.4 20.4-21.6.7 0 1.4.1 2.2.2zM243.3 46.3c-3.6-1.4-3.9-2-4-2 .2-.2 1.5-.5 3.4-.4h.6c7.7.5 16.3-.5 25.6-2.8 6.7-1.7 13.4-4 19.9-6.2 7.9-2.7 16-5.4 24.2-7.2 21.1-4.5 34.6-.2 42.6 4.7-14.6 1-29.1 2.9-43.6 5.9-.3.1-.4.3-.4.6.1.3.3.4.6.4 14.5-3 29-4.9 43.6-5.9-33.8 20.7-75.7 25.5-112.5 12.9zM463 91.9c.1.2.3.4.5.4h.1c.2 0 17-5 34.8-12.3 1.1-.5 2.2-.9 3.3-1.4-28.4 27.1-67.8 40.7-106.1 36.4-3.9-.6-4.3-1.2-4.3-1.1.1-.3 1.3-.8 3.2-1.1l.5-.1h.1c7.7-1.2 15.8-4 24.3-8.3 6.2-3.1 12.2-6.8 18.1-10.4 7.1-4.3 14.4-8.8 22.1-12.3 20-9.2 34.3-7.7 43.1-4.5-19.4 8.2-38.9 14-39.2 14.1-.5 0-.6.3-.5.6zm78.4 20.3c.1.2.3.3.4.3.1 0 .2 0 .2-.1.1-.1 12.7-6.6 26.2-15.6 3.8-2.5 7.2-4.9 10.4-7.3-22 32.3-57.7 53.8-95.9 57.7-3.8.3-4.4-.2-4.5-.2.1-.3 1.1-1.1 2.9-1.8l.4-.2h.1c7.2-2.8 14.6-7.3 22-13.3 5.4-4.4 10.5-9.2 15.5-14 6-5.7 12.2-11.6 19-16.7 9.9-7.4 25-15.7 41.2-13.5-17.1 12.9-37.5 23.6-37.8 23.8-.2.4-.3.7-.1.9zM199.6 17.1c-10.3-1.7-24.9 1.2-39.6 5.8h-.1c-26.9-.9-54.1 4.2-78.8 14.8-2.1.9-4.2 1.9-6.3 2.9.2.3.5.5.7.8 2-.9 4-1.9 6-2.7 23.7-10.2 49.7-15.3 75.6-14.8-27.3 8.9-54.3 22.8-54.7 23.1-.2.1-.3.4-.2.7.1.2.3.3.4.3.1 0 .2 0 .2-.1.4-.2 28.3-14.7 56-23.5-5.7 11.3-18.5 26.2-47.1 35.5-3 1-6 1.8-9 2.6.4.2.9.5 1.3.7 2.7-.7 5.3-1.5 8-2.4 29.7-9.7 42.5-25.4 48.1-36.9 14.5-4.5 28.9-7.4 39-5.8-7.9 18-15.6 36-23.2 53.8-.6 1.5-1.3 3-1.9 4.4h1.1c.6-1.3 1.2-2.7 1.7-4 2.4-5.6 4.8-11.1 7.2-16.7 6.9 5.4 12.8 12.4 17.9 20.1.4 0 .8 0 1.2-.1-5.2-8.1-11.4-15.4-18.6-21.1 9-21 18.2-42.2 27.8-63.1h-1.1c-3.9 8.6-7.8 17.2-11.6 25.7z"/><path class="st6" d="M159.6 366.4c0-.1 0-.1 0 0 12.2-23.4 19.1-50 19.9-76.8.8-26.8-4.5-54-15.2-78.7l-.3-.3c-1.4-37.8-6.2-63.3-14.2-75.7 4.2-9.4 8.3-18.8 12.4-28.2-.4.1-.8.2-1.2.2-14.9 34.5-30.5 68.9-48 102.1-5.7-1.2-18.4 2.9-32.5 8.9-26.8.1-53.8 6.3-77.9 17.8-3.8 1.8-7.4 3.7-11.1 5.8v1.1c3.8-2.1 7.6-4.2 11.5-6 23.3-11.1 49.1-17.2 75-17.7-25.5 10.9-54.8 27-56.8 28-.2.1-.3.4-.2.7.1.2.3.3.4.3.1 0 .2 0 .2-.1.5-.3 31.7-17.3 58-28.5-5.3 11.5-17.4 26.9-45.7 37.4-10.7 4-21.9 6.7-32.8 9.3-3.2.8-6.5 1.6-9.8 2.4v1c3.3-.9 6.7-1.7 10-2.5 10.9-2.7 22.2-5.4 32.9-9.4 29.4-10.9 41.6-27.1 46.7-38.9 13.7-5.7 25.9-9.8 31.4-8.8-19 35.9-40.2 70.4-65.3 101.8h-.3c-20.4 8.6-39.3 20.9-55.4 36.2v1.4c15.8-15.1 34.4-27.5 54.5-36.1-12.5 15.5-26 30.3-40.7 44.1-.2.2-.2.5 0 .7.1.1.2.2.4.2.1 0 .2 0 .3-.1 14.6-13.8 28.1-28.5 40.6-43.9-.6 12.6-6.2 31.2-27.9 51.3C10.3 373.1 1 380-8.1 386.6c-.1.1-.3.2-.4.3v1.2c.3-.2.7-.5 1-.7 9.1-6.6 18.4-13.5 26.8-21.2 22.7-21 27.9-40.5 28.2-53.3C66.8 288.8 83.9 263 99.3 236c5.3 16.9 4.1 39.5.6 60.8-10.6 7.3-24 22.2-29.3 52.6-2 11.3-2.6 22.8-3.2 34.1-.5 8.8-1 18-2.2 26.9.4-.1.7-.3 1.1-.4 1.1-8.8 1.6-17.7 2.1-26.4.6-11.2 1.3-22.7 3.2-33.9 5.1-29.3 17.8-44.1 28.1-51.4-5.3 32-15.5 60.4-15.7 60.9-.1.3 0 .5.3.6h.2c.2 0 .4-.1.5-.3.2-.5 10.3-28.8 15.7-60.8 4.4 25.8 3.1 52.7-3.7 77.9-2.1 7.9-4.8 15.6-8 23 .5-.2.9-.5 1.4-.7 3-7.2 5.5-14.5 7.5-22.1 7-25.9 8.2-53.6 3.4-80.1 0-.2-.1-.3-.3-.4 3.4-21.5 4.6-44.4-1-61.5 4.6-8.1 9.1-16.4 13.5-24.7.1-.1.2-.2.2-.3v-.1c12.6-24 24.3-48.7 35.4-73.6 7.6 12.4 12.3 38.4 13.7 75.3-8.6 9.5-18.2 27.2-16.3 58 .7 11.4 2.7 22.8 4.7 33.9 1.6 9 3.3 18.4 4.2 27.7 1.3 12.7.8 24.3-1.4 34.4v.1l-.1.5c-.2 1-.7 4.1 0 5.4.9-.2 1.9-.5 2.8-.7.9-1 1.7-2.3 2.9-4.3zm-4.7 4.4c-.3-.1-.5-1.9.1-4.8l.1-.6v-.1c2.2-10.2 2.7-21.8 1.4-34.6-.9-9.3-2.6-18.7-4.2-27.8-2-11-4-22.4-4.7-33.8-1.8-29.6 7.1-47 15.4-56.5v.8c1 29.5-.5 55.5-.5 55.8 0 .3.2.5.5.5s.5-.2.5-.5 1.5-26.4.5-55.9v-.7c10.3 24.1 15.3 50.6 14.5 76.7-.8 26.7-7.6 53.1-19.8 76.3-2.9 5.3-3.8 5.2-3.8 5.2zm96-197.3c-6-26-17.9-50.9-34.4-72-.5 0-1 0-1.4-.1 0 .1.1.2.1.3-6 11.3-10.9 30.9-1.2 60.4 3.6 10.9 8.4 21.4 13.1 31.6 3.9 8.3 7.8 17 11.1 25.7 4.4 12 6.9 23.3 7.3 33.6v.7c.1 1.3.4 5.4 2 5.6h.1c.8 0 1.9-.9 3.3-6.5 6-25.8 6-53.2 0-79.3zm-.9 79.1c-1.5 5.6-2.4 5.7-2.4 5.8-.3-.1-1-1.7-1.1-4.6v-.7c-.5-10.4-2.9-21.8-7.4-33.8-3.3-8.8-7.2-17.4-11.1-25.8-4.7-10.2-9.6-20.7-13.1-31.5-9.3-28.5-4.9-47.6.8-58.9 11.1 28.6 14.3 57 14.4 57.4 0 .3.2.4.5.4h.1c.3 0 .5-.3.4-.6 0-.5-3.2-28.1-14-56.4 15.7 20.6 27 44.6 32.8 69.8 6 26 6 53.3.1 78.9zM-8.5 197c2.9-4.6 6-9 9.4-13.3-2.5 2.7-4.9 5.5-7.3 8.3-.7 1.1-1.4 2.1-2.1 3.2v1.8zm72.9-47c.1 0 .2 0 .3-.1.4-.3 18.3-14.5 39.8-28.4-1.4.5-2.7.9-4.1 1.4C80.5 136.1 64.2 149 64 149.1c-.2.2-.3.5-.1.7.2.2.3.2.5.2zm-22.2 27.6c10.3-4.5 20.9-9.1 30.8-14.9 25.1-14.7 34.9-31.3 38.5-43.6-.4.1-.8.2-1.2.4-3.8 12-13.5 28.1-37.9 42.3-9.8 5.7-20.4 10.4-30.7 14.8-8.4 3.7-17.2 7.5-25.4 11.9-9.8 5.2-18.1 11-24.9 17.3v1.4c6.8-6.5 15.3-12.5 25.3-17.8 8.4-4.3 17.1-8.1 25.5-11.8z"/></svg>