<svg data-name="Camada 1" xmlns="http://www.w3.org/2000/svg" viewBox="0 0 198.33 125.05"><g data-name="7"><path d="M121.74 109.45a6.58 6.58 0 0 1-1.6.82 5.72 5.72 0 0 1-1.11.27h-.42a.51.51 0 0 0 0 1 .59.59 0 0 0 .19 0l.4-.15a12.37 12.37 0 0 0 1.16-.51 15.64 15.64 0 0 0 3.6-2.5 26.24 26.24 0 0 0 3.9-4.77c.63-.92 1.24-1.88 1.86-2.84s1.25-1.91 1.94-2.85 1.37-1.86 2.08-2.76 1.46-1.72 2.23-2.52a20.23 20.23 0 0 1 2.33-2.08 15.64 15.64 0 0 1 2.37-1.49 9.45 9.45 0 0 1 2.21-.8 7.74 7.74 0 0 1 1.77-.22 6.78 6.78 0 0 1 1.13.11l.39.08a.81.81 0 0 0 1-.63.82.82 0 0 0-.64-1 1 1 0 0 0-.3 0l-.46.08c-.3 0-.73.13-1.26.24a18.5 18.5 0 0 0-4.15 1.51 26.67 26.67 0 0 0-5.08 3.45c-.84.71-1.72 1.52-2.54 2.36a27.78 27.78 0 0 0-2.37 2.69 30.58 30.58 0 0 0-2 3c-.6 1-1.12 2-1.62 3s-1 1.9-1.54 2.74a13.89 13.89 0 0 1-1.67 2.24 10.56 10.56 0 0 1-1.8 1.53z" fill="#58595b"/><circle cx="131.62" cy="88.74" r="1" fill="#58595b"/><circle cx="135.62" cy="87.24" r="1.12" fill="#58595b"/><path d="M165.83 94.6a4.88 4.88 0 0 0-.43-1.43 7.07 7.07 0 0 0-5-3.78 14.69 14.69 0 0 0-6.94.62 34.43 34.43 0 0 0-6.71 2.82 43.56 43.56 0 0 0-6.24 4.14c-2 1.54-3.83 3.2-5.62 4.84s-3.5 3.3-5.23 4.77a32 32 0 0 1-5.29 3.74 18.7 18.7 0 0 1-5.33 2 14.35 14.35 0 0 1-4.79.2 12 12 0 0 1-3.55-1l-.22-.11a11 11 0 0 0 4.23-.42 9.16 9.16 0 0 0 1.61-.64 13.37 13.37 0 0 0 1.5-.92 16.26 16.26 0 0 0 2.69-2.37 16.58 16.58 0 0 0 3.78-6.46 12.17 12.17 0 0 0 .44-1.92 6.52 6.52 0 0 0 .1-1 6.74 6.74 0 0 0 0-1 10.69 10.69 0 0 0-.88-4 10.83 10.83 0 0 0-5.74-5.6 12 12 0 0 0-1.91-.67c-.32-.09-.6-.14-.9-.21a9.79 9.79 0 0 0-1-.17 13.07 13.07 0 0 0-3.85 0 10 10 0 0 0-6.27 3.64 7.88 7.88 0 0 0-1.63 6.1 6.34 6.34 0 0 0 2.92 4.33 5.71 5.71 0 0 0 4.09.77 6.31 6.31 0 0 0 2.61-1.16 7 7 0 0 0 .62-.53l.17-.16a1 1 0 1 0-1.31-1.4.9.9 0 0 0-.2.28l-.11.21a3 3 0 0 1-.27.47 3.91 3.91 0 0 1-1.77 1.34 4.14 4.14 0 0 1-1.63.25 4.57 4.57 0 0 1-1.9-.56 5.18 5.18 0 0 1-2.59-3.94 6.45 6.45 0 0 1 2-5.14 9.06 9.06 0 0 1 5.56-2.42 13 13 0 0 1 3.29.09c.27 0 .59.09.81.14s.61.13.88.21a14.61 14.61 0 0 1 1.57.54 9.4 9.4 0 0 1 4.89 4.42 9.22 9.22 0 0 1 .92 3.29 4.42 4.42 0 0 1 0 .87 4.89 4.89 0 0 1 0 .85 9.09 9.09 0 0 1-.29 1.72 15 15 0 0 1-3.3 6 14.78 14.78 0 0 1-2.48 2.22 11.52 11.52 0 0 1-1.35.84 7.46 7.46 0 0 1-1.43.59 10.21 10.21 0 0 1-5.69.06c-.19-.05-.37-.13-.56-.19l-.1-.08a.48.48 0 0 0-.46-.1 10.76 10.76 0 0 1-3.18-1.86 12.1 12.1 0 0 1-2.4-2.9 24.2 24.2 0 0 1-1.18-2.18l-.39-.8a.68.68 0 0 0-.73-.37.66.66 0 0 0-.72.37l-.38.8c-.26.52-.63 1.28-1.18 2.18a12.17 12.17 0 0 1-2.41 2.9 10.51 10.51 0 0 1-3.18 1.86.49.49 0 0 0-.46.1l-.09.08c-.19.06-.37.14-.56.19a10.24 10.24 0 0 1-5.7-.06 7.38 7.38 0 0 1-1.42-.59 11.52 11.52 0 0 1-1.35-.84 14.84 14.84 0 0 1-2.49-2.22 15.21 15.21 0 0 1-3.3-6 10 10 0 0 1-.29-1.72 6.09 6.09 0 0 1 0-.85 5.27 5.27 0 0 1 0-.87 9.06 9.06 0 0 1 5.85-7.71 15.55 15.55 0 0 1 1.58-.54c.27-.08.59-.14.88-.21s.54-.1.8-.14a13 13 0 0 1 3.29-.09 9.06 9.06 0 0 1 5.57 2.42 6.45 6.45 0 0 1 2 5.14 5.2 5.2 0 0 1-2.56 3.94 4.57 4.57 0 0 1-1.91.56 4.2 4.2 0 0 1-1.63-.25 3.81 3.81 0 0 1-1.76-1.34 3.24 3.24 0 0 1-.28-.47l-.1-.21a1.1 1.1 0 0 0-.2-.28 1 1 0 0 0-1.32 1.4l.17.16a7.38 7.38 0 0 0 .63.53 6.2 6.2 0 0 0 2.6 1.16 5.69 5.69 0 0 0 4.09-.77 6.31 6.31 0 0 0 2.92-4.33 7.83 7.83 0 0 0-1.62-6.1 10 10 0 0 0-6.28-3.57 13.14 13.14 0 0 0-3.86 0c-.33 0-.61.09-1 .17s-.59.12-.9.21a12 12 0 0 0-1.91.67 10.62 10.62 0 0 0-6.63 9.55 6.83 6.83 0 0 0 0 1 6.52 6.52 0 0 0 .1 1 12.16 12.16 0 0 0 .43 1.92 16.6 16.6 0 0 0 3.79 6.46 16.26 16.26 0 0 0 2.69 2.37 13.37 13.37 0 0 0 1.5.92 9.37 9.37 0 0 0 1.6.64 11.11 11.11 0 0 0 4.24.42l-.22.11a12.11 12.11 0 0 1-3.55 1 14.34 14.34 0 0 1-4.79-.2 18.86 18.86 0 0 1-5.34-2 32.85 32.85 0 0 1-5.29-3.74c-1.72-1.47-3.43-3.14-5.23-4.77s-3.64-3.3-5.61-4.84a44.12 44.12 0 0 0-6.24-4.14 34.69 34.69 0 0 0-6.71-2.82 14.69 14.69 0 0 0-6.94-.62 7.07 7.07 0 0 0-5 3.78 5.23 5.23 0 0 0-.44 1.43 5.41 5.41 0 0 0 0 1.45 4.73 4.73 0 0 0 1.07 2.43 4 4 0 0 0 2 1.28 4.2 4.2 0 0 0 2.1 0 4.1 4.1 0 0 0 2.45-1.72 3.09 3.09 0 0 0 .36-.82l.08-.3a.87.87 0 0 0-.78-1 .89.89 0 0 0-1 .77 1.79 1.79 0 0 1-.1.55 2.32 2.32 0 0 1-1.44 1.19 2.93 2.93 0 0 1-1.42.18 2.61 2.61 0 0 1-1.51-.85 3.72 3.72 0 0 1-.47-4.15 5.5 5.5 0 0 1 4.33-2.83 14.34 14.34 0 0 1 6.14 1 37.82 37.82 0 0 1 6.38 2.69 43.07 43.07 0 0 1 6 3.93c1.92 1.48 3.75 3.1 5.54 4.72s3.53 3.25 5.35 4.74a34.31 34.31 0 0 0 5.66 3.8 19.5 19.5 0 0 0 5.81 2.06 15.6 15.6 0 0 0 5.23 0 13.27 13.27 0 0 0 3.86-1.24 12.18 12.18 0 0 0 2.2-1.46l.2-.19a12.14 12.14 0 0 0 4.16-2.23 14.2 14.2 0 0 0 2.72-3.11 22.13 22.13 0 0 0 1.23-2.12c.28.53.67 1.25 1.24 2.12a14.13 14.13 0 0 0 2.71 3.11 12.28 12.28 0 0 0 4.17 2.23l.2.19a12.18 12.18 0 0 0 2.2 1.46 13.2 13.2 0 0 0 3.85 1.24 15.66 15.66 0 0 0 5.24 0 19.5 19.5 0 0 0 5.81-2.06 33.82 33.82 0 0 0 5.62-3.82c1.82-1.49 3.56-3.12 5.36-4.74s3.62-3.24 5.53-4.72a43.66 43.66 0 0 1 6-3.93 38.16 38.16 0 0 1 6.38-2.69 14.38 14.38 0 0 1 6.15-1 5.5 5.5 0 0 1 4.33 2.83 3.74 3.74 0 0 1-.47 4.15 2.67 2.67 0 0 1-1.52.85 3 3 0 0 1-1.42-.18 2.32 2.32 0 0 1-1.42-1.24 1.24 1.24 0 0 1-.1-.55.891.891 0 0 0-1.77.21l.08.3a3.18 3.18 0 0 0 .37.82 4.07 4.07 0 0 0 2.45 1.72 4.19 4.19 0 0 0 2.1 0 4 4 0 0 0 2-1.28 4.73 4.73 0 0 0 1.07-2.43 5 5 0 0 0-.02-1.38z" fill="#58595b"/><circle cx="128.25" cy="93.49" r="1.75" fill="#58595b"/><circle cx="63.69" cy="87.24" r="1.12" fill="#58595b"/><circle cx="71.06" cy="93.49" r="1.75" fill="#58595b"/><path d="M53.06 88.24l.39-.08a6.55 6.55 0 0 1 1.13-.11 7.8 7.8 0 0 1 1.77.22 9.61 9.61 0 0 1 2.21.8 16.15 16.15 0 0 1 2.37 1.49 20.16 20.16 0 0 1 2.35 2.09c.78.8 1.5 1.63 2.23 2.52s1.42 1.82 2.09 2.76 1.32 1.88 1.94 2.85 1.23 1.92 1.86 2.84a25.83 25.83 0 0 0 3.9 4.77 15.43 15.43 0 0 0 3.6 2.5 12.37 12.37 0 0 0 1.16.51l.4.15a.53.53 0 0 0 .18 0 .51.51 0 0 0 .53-.49.5.5 0 0 0-.48-.53h-.43a5.49 5.49 0 0 1-1.1-.27 6.62 6.62 0 0 1-1.61-.82 10.52 10.52 0 0 1-1.77-1.54 14.53 14.53 0 0 1-1.68-2.24c-.52-.84-1-1.77-1.53-2.74s-1-2-1.63-3a28.79 28.79 0 0 0-2-3 29.2 29.2 0 0 0-2.38-2.68c-.83-.84-1.7-1.65-2.54-2.36a26.67 26.67 0 0 0-5.12-3.42 18.67 18.67 0 0 0-4.15-1.51c-.54-.11-1-.2-1.26-.24l-.46-.08a1 1 0 0 0-.3 0 .82.82 0 1 0 .33 1.6z" fill="#58595b"/><circle cx="67.69" cy="88.74" r="1" fill="#58595b"/><path d="M0 81.83l8.52-.38 9.76-.38 6-.23c2.12-.08 4.34 0 6.67 0h136.39c2.33 0 4.55-.08 6.67 0l6 .23 9.78.38 8.52.37-8.52.37-9.78.38-6 .23c-2.12.1-4.34 0-6.67 0H30.99c-2.33 0-4.55.07-6.67 0l-6-.24-9.8-.32z" fill="#58595b"/><path d="M98.61 106.3a3.58 3.58 0 0 0-1.88 1.63v.14c-1.3 1.74-2 3.6-1.17 5.77.39 1-.16 2.05 0 3.09s.6 1.76.78 2.67 1.15 1.41 1.47 2.28c.53.24.43 1 .95 1.21a2.32 2.32 0 0 1 1 1.19c.43 0 .28 1 1 .55l1.32-4.73c.22-.44.4-.91.64-1.34.28-.87 1.05-1.55 1-2.55-.52-.39-.39-1-.44-1.5a20.1 20.1 0 0 0-1.53-5.26c-.66-1.46-1.96-2.21-3.14-3.15z" fill="#cbe8d8"/><path d="M98.61 106.3c.06.26-.39.62 0 .77 2.74.92 2.94 3.51 3.74 5.68a5.42 5.42 0 0 1 .38 2.63c-.07.51.1 1 .85.83l.43-1.21c-.21-1-.36-2.07-.57-3.1-.07-.73-.34-1.42-.42-2.15.07-.77-.74-1.25-.69-2-.31-.61-.62-1.23-.94-1.84-.6-.32-.47-1.19-1.12-1.47a5.74 5.74 0 0 0-1.66 1.86z" fill="#c3e3d1"/><path d="M96.28 119.6c.94-.72-.18-1.21-.28-1.78-.28-1.49.29-3-.07-4.42-.1-.36.15-.85-.19-1.13-.71-.58-.42-1.1 0-1.68s.88-1.45 1.31-2.17c.22-.38.35-.7-.32-.49-.93.41-1.15 1.5-2 2a5.5 5.5 0 0 0-.66 3.37c0 .55.15 1.08.16 1.63.18.8.35 1.6.53 2.4a2.78 2.78 0 0 0 1.34 2z" fill="#c6e4d3"/><path d="M94.11 113.33l.66-3.37a3.08 3.08 0 0 0-.66 3.37zm9.37-1.43a6.24 6.24 0 0 0 .57 3.1 5.65 5.65 0 0 0-.57-3.1zm-7.34 7.46c-.35-.73-1.12-1.19-1.34-2 .09.88.08 1.88 1.34 2z" fill="#feebeb"/><path d="M103.06 109.76a3.37 3.37 0 0 0 .42 2.15 2.82 2.82 0 0 0-.42-2.15zm-.69-2.02c-.17.81.46 1.35.69 2 .22-.81-.46-1.32-.69-2zm-2.09-3.31c.4.47.44 1.22 1.12 1.47-.33-.5-.3-1.3-1.12-1.47zm2.32 14.33a1.38 1.38 0 0 0-.64 1.34 1.41 1.41 0 0 0 .64-1.34zm-8.32-3.81a1.94 1.94 0 0 0-.16-1.63 1.64 1.64 0 0 0 .16 1.63zm4.46 8.14c-.28-.43-.34-1-.95-1.21.29.43.31 1.06.95 1.21zm1.9 1.74l-1-.55c.34.24.2 1.2 1 .55z" fill="#feebeb"/><path d="M100.99 103.8a7.68 7.68 0 0 0-1.45-.36 8.49 8.49 0 0 1-1.26 1.8 14.32 14.32 0 0 0-3.27 4.81c-.67 1.94-1.11 4-.24 6a20 20 0 0 0 3.11 5.59c.74.85 1.47 1.72 2.22 2.56.11.12.35.25.46.21a.57.57 0 0 0 .24-.46 7.5 7.5 0 0 1 1.19-3.44 11.24 11.24 0 0 0 1.07-2.81c.29-1.28.41-2.61.59-3.92a8.68 8.68 0 0 0-1.15-5.4 11 11 0 0 1-1.51-4.58zm2.13 9.62a29.84 29.84 0 0 1-.92 5.26 31.8 31.8 0 0 1-2.11 4.47 17.08 17.08 0 0 1-3.72-4.9c-.71-1.64-1.69-3.2-1.39-5.13a8.82 8.82 0 0 1 1.19-4l3.3-4.54c-.38 2.11-.89 4-1.06 6s.65 5.29 1.28 5.71a52.13 52.13 0 0 1-.68-5.86 14.36 14.36 0 0 1 1.36-5.72c.17.43.3.79.45 1.14.57 1.28 1.14 2.55 1.72 3.82a6.91 6.91 0 0 1 .58 3.75zm43.16-77.27l-.39.08a6.78 6.78 0 0 1-1.13.11 8.34 8.34 0 0 1-1.77-.22 9.93 9.93 0 0 1-2.21-.8 15.64 15.64 0 0 1-2.37-1.49 20.34 20.34 0 0 1-2.33-2.09c-.77-.8-1.5-1.62-2.23-2.52s-1.41-1.81-2.08-2.75-1.32-1.88-1.94-2.85-1.23-1.92-1.86-2.85a26.5 26.5 0 0 0-3.9-4.76 15 15 0 0 0-3.6-2.5 10.17 10.17 0 0 0-1.16-.51l-.4-.15a.41.41 0 0 0-.19-.05.51.51 0 0 0 0 1 3.2 3.2 0 0 1 .42 0 5.72 5.72 0 0 1 1.11.27 6.87 6.87 0 0 1 1.6.81 10.65 10.65 0 0 1 1.78 1.55 14.24 14.24 0 0 1 1.67 2.23c.53.85 1 1.77 1.54 2.75s1 2 1.62 3a30.58 30.58 0 0 0 2 3 29 29 0 0 0 2.37 2.69c.82.83 1.7 1.65 2.54 2.35a26.21 26.21 0 0 0 5.12 3.42 18.61 18.61 0 0 0 4.15 1.52c.53.11 1 .2 1.26.24l.46.07a.76.76 0 0 0 .3 0 .822.822 0 0 0-.33-1.61z" fill="#58595b"/><path d="M165.84 28.36a4.73 4.73 0 0 0-1.07-2.43 3.87 3.87 0 0 0-4.12-1.23 4.07 4.07 0 0 0-2.45 1.72 3.31 3.31 0 0 0-.37.81l-.08.31a.89.89 0 0 0 1.77.2 1.25 1.25 0 0 1 .1-.55 2.35 2.35 0 0 1 1.42-1.24 3 3 0 0 1 1.42-.17 2.67 2.67 0 0 1 1.52.85 3.74 3.74 0 0 1 .47 4.15 5.52 5.52 0 0 1-4.33 2.83 14.38 14.38 0 0 1-6.15-1 38.16 38.16 0 0 1-6.38-2.69 42.83 42.83 0 0 1-6-3.94c-1.91-1.48-3.74-3.09-5.53-4.71s-3.54-3.25-5.36-4.74a33.22 33.22 0 0 0-5.62-3.82 19.81 19.81 0 0 0-5.8-2.05 15.9 15.9 0 0 0-5.24 0 13.2 13.2 0 0 0-3.85 1.24 12.18 12.18 0 0 0-2.2 1.46l-.2.19a12 12 0 0 0-4.17 2.23 14.13 14.13 0 0 0-2.71 3.11c-.57.87-1 1.59-1.24 2.11a23.53 23.53 0 0 0-1.23-2.11 14.2 14.2 0 0 0-2.72-3.11 11.81 11.81 0 0 0-4.16-2.23l-.2-.19a12.18 12.18 0 0 0-2.2-1.46 13.27 13.27 0 0 0-3.88-1.27 15.84 15.84 0 0 0-5.23 0 19.81 19.81 0 0 0-5.77 2.1 33.69 33.69 0 0 0-5.63 3.82c-1.82 1.49-3.56 3.11-5.35 4.74s-3.62 3.23-5.54 4.71a42.26 42.26 0 0 1-6 3.94 37.82 37.82 0 0 1-6.38 2.69 14.34 14.34 0 0 1-6.14 1 5.52 5.52 0 0 1-4.33-2.83 3.72 3.72 0 0 1 .47-4.15 2.61 2.61 0 0 1 1.51-.85 2.92 2.92 0 0 1 1.42.17 2.35 2.35 0 0 1 1.38 1.27 1.83 1.83 0 0 1 .1.55.89.89 0 0 0 1 .78.87.87 0 0 0 .78-1l-.1-.33a3.2 3.2 0 0 0-.36-.81 4.1 4.1 0 0 0-2.45-1.72 3.87 3.87 0 0 0-4.12 1.23 4.73 4.73 0 0 0-1.07 2.43 5.41 5.41 0 0 0 0 1.45 5.06 5.06 0 0 0 .44 1.42 7.06 7.06 0 0 0 5 3.79 14.57 14.57 0 0 0 6.94-.63 34 34 0 0 0 6.71-2.81 45 45 0 0 0 6.24-4.14c2-1.54 3.82-3.2 5.61-4.84s3.51-3.3 5.23-4.77a32.24 32.24 0 0 1 5.29-3.74 18.86 18.86 0 0 1 5.34-2 14.34 14.34 0 0 1 4.79-.2 12.11 12.11 0 0 1 3.55 1l.22.11a11.11 11.11 0 0 0-4.24.42 9.37 9.37 0 0 0-1.6.64 13.37 13.37 0 0 0-1.5.92 15.82 15.82 0 0 0-2.69 2.37 16.6 16.6 0 0 0-3.79 6.46 12.16 12.16 0 0 0-.43 1.92 6.52 6.52 0 0 0-.1 1 6.83 6.83 0 0 0 0 1 10.62 10.62 0 0 0 6.65 9.5 14.34 14.34 0 0 0 1.91.67l.9.21c.37.08.65.12 1 .17a13.86 13.86 0 0 0 3.86 0 10.09 10.09 0 0 0 6.28-3.57 7.83 7.83 0 0 0 1.62-6.1 6.35 6.35 0 0 0-2.92-4.34 5.74 5.74 0 0 0-4.09-.77 6.32 6.32 0 0 0-2.6 1.17 7.38 7.38 0 0 0-.63.53l-.17.16a1 1 0 0 0 1.32 1.4 1.1 1.1 0 0 0 .2-.28l.1-.21a3.24 3.24 0 0 1 .28-.47 3.75 3.75 0 0 1 1.76-1.34 4.39 4.39 0 0 1 1.61-.23 4.75 4.75 0 0 1 1.91.57 5.2 5.2 0 0 1 2.56 3.94 6.45 6.45 0 0 1-2 5.14 9.12 9.12 0 0 1-5.57 2.42 13.49 13.49 0 0 1-3.24-.07l-.8-.14-.88-.21c-.51-.15-1.05-.33-1.58-.54a9.37 9.37 0 0 1-4.92-4.42 9.5 9.5 0 0 1-.93-3.29 5.39 5.39 0 0 1 0-.88 6 6 0 0 1 0-.84 10 10 0 0 1 .29-1.72 15.21 15.21 0 0 1 3.3-6.05 14.41 14.41 0 0 1 2.49-2.22 11.52 11.52 0 0 1 1.35-.84 7.38 7.38 0 0 1 1.42-.59 10.15 10.15 0 0 1 5.7-.06c.19 0 .37.12.56.18l.09.09a.52.52 0 0 0 .46.1 10.51 10.51 0 0 1 3.18 1.86 12.33 12.33 0 0 1 2.41 2.89c.55.91.92 1.67 1.18 2.19l.38.8a.68.68 0 0 0 .72.37.7.7 0 0 0 .73-.37l.39-.8c.25-.52.63-1.28 1.18-2.19a12.27 12.27 0 0 1 2.4-2.89 10.76 10.76 0 0 1 3.18-1.86.51.51 0 0 0 .46-.1l.1-.09c.19-.06.37-.13.56-.18a10.12 10.12 0 0 1 5.69.06 7.46 7.46 0 0 1 1.43.59 11.52 11.52 0 0 1 1.35.84 14.36 14.36 0 0 1 2.48 2.22 15 15 0 0 1 3.3 6.05 9.09 9.09 0 0 1 .29 1.72 4.82 4.82 0 0 1 0 .84 4.52 4.52 0 0 1 0 .88 9.28 9.28 0 0 1-.92 3.29 9.4 9.4 0 0 1-4.93 4.42c-.52.21-1.06.39-1.57.54l-.88.21-.81.14a13.48 13.48 0 0 1-3.29.09 9.11 9.11 0 0 1-5.5-2.45 6.45 6.45 0 0 1-2-5.14 5.18 5.18 0 0 1 2.56-3.94 4.75 4.75 0 0 1 1.9-.57 4.33 4.33 0 0 1 1.63.26 3.84 3.84 0 0 1 1.77 1.34 3 3 0 0 1 .27.47l.11.21a.9.9 0 0 0 .2.28 1 1 0 0 0 1.36-.05 1 1 0 0 0 0-1.35l-.17-.16a7 7 0 0 0-.62-.53 6.44 6.44 0 0 0-2.61-1.17 5.76 5.76 0 0 0-4.09.77 6.38 6.38 0 0 0-2.92 4.34 7.88 7.88 0 0 0 1.61 6.1 10.09 10.09 0 0 0 6.28 3.57 13.79 13.79 0 0 0 3.85 0c.34 0 .62-.09 1-.17l.9-.21a14.34 14.34 0 0 0 1.87-.69 10.63 10.63 0 0 0 6.62-9.55 6.74 6.74 0 0 0 0-1 6.52 6.52 0 0 0-.1-1 12.17 12.17 0 0 0-.44-1.92 16.58 16.58 0 0 0-3.78-6.46 15.82 15.82 0 0 0-2.69-2.37 13.37 13.37 0 0 0-1.5-.92 9.16 9.16 0 0 0-1.61-.64 11 11 0 0 0-4.23-.42l.22-.11a12 12 0 0 1 3.55-1 14.35 14.35 0 0 1 4.79.2 18.7 18.7 0 0 1 5.33 2 31.41 31.41 0 0 1 5.29 3.74c1.73 1.47 3.44 3.14 5.23 4.77s3.65 3.3 5.62 4.84a44.41 44.41 0 0 0 6.24 4.14 33.78 33.78 0 0 0 6.71 2.81 14.57 14.57 0 0 0 6.94.63 7.06 7.06 0 0 0 5-3.79 4.73 4.73 0 0 0 .43-1.42 5 5 0 0 0 .04-1.41z" fill="#58595b"/><circle cx="135.62" cy="37.17" r="1.12" fill="#58595b"/><circle cx="128.25" cy="30.92" r="1.75" fill="#58595b"/><circle cx="131.62" cy="35.67" r="1" fill="#58595b"/><circle cx="71.06" cy="30.92" r="1.75" fill="#58595b"/><circle cx="67.69" cy="35.67" r="1" fill="#58595b"/><circle cx="63.69" cy="37.17" r="1.12" fill="#58595b"/><path d="M77.56 14.95a6.92 6.92 0 0 1 1.61-.81 5.49 5.49 0 0 1 1.1-.27 3.4 3.4 0 0 1 .43 0 .5.5 0 0 0 .48-.53.51.51 0 0 0-.53-.49.37.37 0 0 0-.18.05l-.4.15a10.17 10.17 0 0 0-1.16.51 14.84 14.84 0 0 0-3.6 2.5 26.08 26.08 0 0 0-3.9 4.76c-.63.93-1.24 1.89-1.86 2.85s-1.27 1.87-1.94 2.81-1.33 1.86-2.09 2.76-1.45 1.71-2.24 2.51a20.27 20.27 0 0 1-2.32 2.09 16.15 16.15 0 0 1-2.37 1.49 10.11 10.11 0 0 1-2.21.8 8.41 8.41 0 0 1-1.77.22 6.55 6.55 0 0 1-1.12-.11l-.39-.08a.822.822 0 1 0-.33 1.61.76.76 0 0 0 .3 0l.46-.07c.29 0 .72-.13 1.26-.24a18.78 18.78 0 0 0 4.15-1.52 26.21 26.21 0 0 0 5.12-3.42c.84-.7 1.71-1.52 2.54-2.35a30.57 30.57 0 0 0 2.37-2.69 28.79 28.79 0 0 0 2-3c.61-1 1.13-2 1.63-3s1-1.9 1.53-2.75a14.92 14.92 0 0 1 1.68-2.23 10.61 10.61 0 0 1 1.75-1.55zM0 41.83l8.52-.38 9.76-.38 6-.23c2.12-.08 4.34 0 6.67 0h136.39c2.33 0 4.55-.08 6.67 0l6 .23 9.78.38 8.52.37-8.52.37-9.78.38-6 .23c-2.12.1-4.34 0-6.67 0H30.99c-2.33 0-4.55.07-6.67 0l-6-.24-9.8-.32z" fill="#58595b"/><path d="M100.99 18.75a3.59 3.59 0 0 0 1.89-1.63v-.14c1.29-1.74 2-3.6 1.17-5.76-.4-1 .15-2.06 0-3.09s-.59-1.77-.78-2.68-1.15-1.41-1.47-2.28c-.53-.24-.43-1-1-1.21a2.32 2.32 0 0 1-1-1.19c-.43 0-.27-1-.94-.55-.45 1.58-.89 3.15-1.33 4.73-.21.45-.4.91-.64 1.34-.28.88-1 1.55-1 2.55.52.39.4 1 .45 1.5a19.6 19.6 0 0 0 1.52 5.26c.66 1.47 1.95 2.26 3.13 3.15z" fill="#cbe8d8"/><path d="M100.99 18.75c-.06-.26.4-.62 0-.77-2.74-.92-2.94-3.51-3.74-5.68a5.39 5.39 0 0 1-.37-2.63c.06-.5-.11-1-.86-.83l-.42 1.21c.2 1 .35 2.07.56 3.1.07.74.34 1.43.42 2.16-.07.77.74 1.25.69 2l.94 1.85c.6.31.47 1.18 1.12 1.46a5.45 5.45 0 0 0 1.66-1.87z" fill="#c3e3d1"/><path d="M103.28 5.45c-.94.72.18 1.22.29 1.79.28 1.48-.3 2.95.07 4.41.09.37-.16.85.18 1.13.71.58.42 1.1 0 1.69s-.87 1.44-1.31 2.16c-.22.38-.35.7.33.49.92-.41 1.14-1.5 2-2a5.5 5.5 0 0 0 .66-3.37c0-.55-.15-1.08-.16-1.63-.17-.8-.35-1.59-.53-2.39a2.77 2.77 0 0 0-1.34-2 1.88 1.88 0 0 0-.19-.28z" fill="#c6e4d3"/><path d="M105.49 11.73l-.66 3.37a3.08 3.08 0 0 0 .66-3.37zm-9.37 1.42a6.35 6.35 0 0 0-.56-3.1 5.54 5.54 0 0 0 .56 3.1zm7.34-7.46c.35.74 1.12 1.19 1.34 2-.08-.9-.07-1.87-1.34-2z" fill="#feebeb"/><path d="M96.54 15.3a3.33 3.33 0 0 0-.42-2.16 2.84 2.84 0 0 0 .42 2.16zm.74 2.01c.17-.81-.46-1.35-.69-2-.31.82.42 1.33.69 2zm2 3.31c-.4-.47-.43-1.22-1.12-1.46.37.49.34 1.29 1.12 1.46zM97 6.29a1.38 1.38 0 0 0 .64-1.34A1.41 1.41 0 0 0 97 6.29zm8.33 3.81a2 2 0 0 0 .16 1.63 1.65 1.65 0 0 0-.16-1.63zm-4.47-8.14c.28.43.34 1 1 1.21-.34-.42-.36-1.06-1-1.21zM98.97.24l.94.55c-.29-.25-.15-1.22-.94-.55z" fill="#feebeb"/><path d="M98.61 21.24a8.77 8.77 0 0 0 1.45.36 8.34 8.34 0 0 1 1.22-1.75 14.4 14.4 0 0 0 3.26-4.8c.67-1.94 1.11-4 .24-6a20 20 0 0 0-3.1-5.59c-.74-.86-1.47-1.72-2.23-2.57-.11-.12-.35-.25-.46-.2s-.23.29-.24.45a7.46 7.46 0 0 1-1.19 3.44 10.85 10.85 0 0 0-1.06 2.81c-.3 1.28-.42 2.61-.6 3.92a8.68 8.68 0 0 0 1.15 5.4 11 11 0 0 1 1.56 4.53zm-2.13-9.61a30.5 30.5 0 0 1 .92-5.25 32.52 32.52 0 0 1 2.11-4.48 17.22 17.22 0 0 1 3.72 4.9c.71 1.65 1.69 3.2 1.39 5.14a8.78 8.78 0 0 1-1.19 4c-1.07 1.49-2.16 3-3.3 4.54.39-2.11.89-4 1.06-6s-.65-5.3-1.28-5.72a54.61 54.61 0 0 1 .69 5.86 14.54 14.54 0 0 1-1.32 5.76c-.17-.43-.29-.79-.45-1.14-.57-1.27-1.13-2.55-1.72-3.81a7 7 0 0 1-.63-3.8z" fill="#58595b"/></g><path d="M60.96 48.46a1.21 1.21 0 0 1 .31.46 1.92 1.92 0 0 1 .11.54v1.55c1.25.67 2.59 1.36 4 2a41 41 0 0 1 4 2.25 18.86 18.86 0 0 1 3.3 2.65 6.9 6.9 0 0 1 1.83 3.2 8.28 8.28 0 0 1-.23 4.23 10.1 10.1 0 0 1-2.21 3.58 13.18 13.18 0 0 1-3.67 2.7 17.2 17.2 0 0 1-4.66 1.62 6.55 6.55 0 0 1-1.75.11 5.11 5.11 0 0 1-1.55-.38 3.58 3.58 0 0 1-1.2-.85 3.05 3.05 0 0 1-.72-1.26 1.27 1.27 0 0 1 .12-.74 1.32 1.32 0 0 1 .34-.43.38.38 0 0 1 .29-.09c.07 0 .06.13 0 .33a2.22 2.22 0 0 0 .28 1.2 2.18 2.18 0 0 0 .72.7 3.52 3.52 0 0 0 .9.38c.31.09.58.15.8.2q-.18-1.11-.33-2.79c-.09-1.12-.2-2.32-.3-3.6s-.21-2.6-.31-4-.19-2.66-.29-3.92-.2-2.42-.3-3.46-.21-1.89-.31-2.54c-.65-.29-1.17-.53-1.55-.74l-1-.54c-.27-.15-.54-.29-.81-.41a7.54 7.54 0 0 0-1-.36c-.19-.24-.24-.43-.16-.58a1.74 1.74 0 0 0 .2-.61 12.85 12.85 0 0 1 1.44.42 7.72 7.72 0 0 1 .92.39l.75.36a6.51 6.51 0 0 0 1 .31v-.76a1.77 1.77 0 0 1 0-.2 1.65 1.65 0 0 1 0-.27c.01-.56.36-.77 1.04-.65zm1.26 12.63c0 .41.11.93.17 1.57s.12 1.32.18 2 .12 1.48.19 2.25.14 1.49.18 2.16.1 1.27.15 1.8.08.91.11 1.15a5.93 5.93 0 0 0 2.25-.29 11.26 11.26 0 0 0 3-1.35 13.09 13.09 0 0 0 2.83-2.41 10.35 10.35 0 0 0 2.07-3.67 6.54 6.54 0 0 0-.18-3 7.22 7.22 0 0 0-1.32-2.4 10.13 10.13 0 0 0-2.14-1.9 28.85 28.85 0 0 0-2.64-1.59c-.93-.49-1.87-1-2.83-1.37s-1.86-.84-2.7-1.27c0 .21 0 .56.07 1s.1 1 .15 1.62.09 1.22.14 1.87.09 1.25.14 1.8.09 1 .13 1.37.05.61.05.66zm16.06-3.6c.24 0 .38.1.43.43a.94.94 0 0 1-.14.76 1.88 1.88 0 0 0-.51.56.62.62 0 0 1-.5.3 1.23 1.23 0 0 0-.38 0q-.16 0-.27-.6a3.18 3.18 0 0 1 .45-.79 2.26 2.26 0 0 1 .92-.66zm.11 4.68c.12 1.15.2 2.42.25 3.8s.13 2.83.25 4.34c.1.77.19 1.37.29 1.8s.17.84.22 1.22a1.64 1.64 0 0 1-.9 0 3.54 3.54 0 0 1-.62-.3c0-.39-.1-1-.16-1.91s-.12-1.88-.18-2.88-.12-2.06-.18-3-.11-1.76-.16-2.34a.54.54 0 0 0 .23-.22 1.69 1.69 0 0 1 .2-.25.9.9 0 0 1 .29-.18.75.75 0 0 1 .47-.08zm13.39-8.1h-.56a.5.5 0 0 1-.21 0s-.06 0-.06-.05a.36.36 0 0 0 0-.11s-.12-.11-.2-.34a7.68 7.68 0 0 0-.34-.74 3.52 3.52 0 0 0-.56-.74 1.14 1.14 0 0 0-.81-.34 1.81 1.81 0 0 0-1.66.27 3.81 3.81 0 0 0-1.1 1.49 9.54 9.54 0 0 0-.61 2.29c-.13.86-.23 1.73-.29 2.61s-.1 1.72-.1 2.52v2l1.14-.05h2.25a.68.68 0 0 1 .36.21 1.9 1.9 0 0 1 .3.4 1.38 1.38 0 0 1 .18.4v.18c-.44.07-.82.12-1.16.14l-1 .07c-.31 0-.63 0-.95.06l-1.12-.1c0 1.22.07 2.32.14 3.29s.14 1.9.2 2.78.12 1.73.18 2.57.1 1.73.13 2.66a.32.32 0 0 1-.38.27h-.77c-.02 0 0-.13-.06-.32s0-.52 0-1 0-1.11-.08-1.95-.09-1.92-.16-3.24-.18-3-.32-4.89l-1.33.11-.89.05h-1.63c-.17 0-.26 0-.26-.12a.86.86 0 0 1 .09-.33 2.77 2.77 0 0 1 .22-.37 2.05 2.05 0 0 0 .16-.26q.22-.06 1.26-.18l2.31-.25a38.56 38.56 0 0 1 0-5.78 20 20 0 0 1 .68-3.76 6.55 6.55 0 0 1 1-2.14 3.08 3.08 0 0 1 1.08-.92 2.8 2.8 0 0 1 2.25 0 4.68 4.68 0 0 1 1.64 1.2 5 5 0 0 1 .92 1.53c.25.48.26.79.12.88z" fill="#af6b09"/><path d="M90.92 71.75c.16.12.44-.09.82-.61a10.54 10.54 0 0 0 1.12-2 17.8 17.8 0 0 0 .9-2.64 6.6 6.6 0 0 0 .22-2.45.24.24 0 0 1 .18-.27 1.27 1.27 0 0 1 .41-.06 3.73 3.73 0 0 1 .47 0 2.42 2.42 0 0 1 .34.07c0 .53-.11 1.2-.2 2s-.14 1.6-.16 2.39a14.6 14.6 0 0 0 .09 2.16 1.63 1.63 0 0 0 .59 1.26.85.85 0 0 0 .92 0 5.2 5.2 0 0 0 1-.72l.88-.78c.27-.22.43-.3.51-.23a3 3 0 0 1-.62 1.19 4.64 4.64 0 0 1-1.06 1 4 4 0 0 1-1.26.56 1.87 1.87 0 0 1-1.2-.06c-.15 0-.26-.16-.35-.41a7.16 7.16 0 0 1-.24-.91q-.09-.51-.15-1.08c0-.39-.07-.73-.12-1-.19.39-.41.82-.65 1.3s-.48.94-.72 1.37-.47.8-.68 1.11-.4.5-.54.54a1.51 1.51 0 0 1-1.12.13 1 1 0 0 1-.54-.45c-.14-.07-.25-.32-.31-.74s-.1-.95-.14-1.6 0-1.38 0-2.2v-5.1c0-.83-.06-1.59-.11-2.28a4.36 4.36 0 0 1 .51 0l.43.09a.72.72 0 0 1 .36.24 12 12 0 0 1 0 2.91c-.08 1.39-.15 3.07-.2 5v.42c0 .21 0 .42.07.66a3.88 3.88 0 0 0 .18.69.78.78 0 0 0 .37.5zm11.44-9.76a6.72 6.72 0 0 1 1.5.4 3.22 3.22 0 0 1 .93.56 2.59 2.59 0 0 1 .54.63c.14.21.26.42.38.61s-.14.08-.34 0l-.59-.36a4.35 4.35 0 0 0-1.91-.61 6.08 6.08 0 0 0-2.07.13 3 3 0 0 0-1.53.81 1.24 1.24 0 0 0-.29 1.4 3.19 3.19 0 0 0 1 1.44 10.1 10.1 0 0 0 1.63 1.1c.6.32 1.2.62 1.8.88a9 9 0 0 1 1.48.79l1.22-.66q.51-.27.9-.51c.27-.15.54-.3.81-.43l1-.45h.12v.09a1.36 1.36 0 0 1-.28.29l-.74.56-.94.61-1.47.94a3.7 3.7 0 0 1 .68.83 3 3 0 0 1 .31.84 1.34 1.34 0 0 1-.17.92 6.22 6.22 0 0 1-1.62 1.8 6.52 6.52 0 0 1-1.65.9 2 2 0 0 1-1.12 0 1.75 1.75 0 0 1-1-.58 1.28 1.28 0 0 1-.2-1.17 3.49 3.49 0 0 1 .67-1.15 7.76 7.76 0 0 1 1.08-1.06l1.08-.9a5.45 5.45 0 0 0-1.26-.89c-.63-.34-1.27-.73-1.93-1.15a13.18 13.18 0 0 1-1.76-1.36 2.28 2.28 0 0 1-.86-1.44 2.52 2.52 0 0 1 .19-1.53 3.78 3.78 0 0 1 1-1.29 4.3 4.3 0 0 1 1.55-.83 4.25 4.25 0 0 1 1.86-.16zm-.32 12.35a1.17 1.17 0 0 0 .9 0 3.4 3.4 0 0 0 1-.52 4.82 4.82 0 0 0 .8-.76 2.66 2.66 0 0 0 .45-.74.63.63 0 0 0-.2-.63 3.87 3.87 0 0 0-.63-.55 9.35 9.35 0 0 0-.9.73 7.51 7.51 0 0 0-.88.92 3.46 3.46 0 0 0-.56.9c-.17.29-.15.55.02.65z" fill="#af6b09"/><path d="M108.16 62.53a11.44 11.44 0 0 1 1.51.2 12.88 12.88 0 0 1 1.62.43 11.66 11.66 0 0 1 1.46.61 4.48 4.48 0 0 1 1.1.78 1.76 1.76 0 0 1 .5 1.2 6.59 6.59 0 0 1-.07 1.79 12.41 12.41 0 0 1-.55 2 13.45 13.45 0 0 1-.85 1.86 6.32 6.32 0 0 1-1 1.37 1.5 1.5 0 0 1-1 .54 2.29 2.29 0 0 1-1.33-.38 2.9 2.9 0 0 1-.86-.92 4.5 4.5 0 0 1-.49-1.13 6.34 6.34 0 0 1-.2-1 32.32 32.32 0 0 1 0-3.38 19.23 19.23 0 0 1 .25-2.45 2.7 2.7 0 0 0-.22-.33l-.21-.27a1.84 1.84 0 0 0-.25-.23 1.08 1.08 0 0 0 .28-.22 1.13 1.13 0 0 0 .31-.47zm1.3 8.57a1.91 1.91 0 0 0 .28.31 1.39 1.39 0 0 0 .45.25 1.06 1.06 0 0 0 .56 0 1.36 1.36 0 0 0 .61-.4 6.73 6.73 0 0 0 1.3-1.85 7.1 7.1 0 0 0 .56-1.8 3.89 3.89 0 0 0 0-1.5 1.67 1.67 0 0 0-.52-.93l-.49-.31a2.62 2.62 0 0 0-.5-.23c-.2-.08-.46-.15-.77-.24l-1.23-.34a12.81 12.81 0 0 0-.5 2.3 14.62 14.62 0 0 0-.13 2.11 9.72 9.72 0 0 0 .15 1.66 3.18 3.18 0 0 0 .23.97zm6.62-9.14c0-.22.09-.27.34-.17l.78.35c.09.55.16 1 .21 1.31s.08.63.11.92.05.6.07.93.06.78.11 1.34a7.87 7.87 0 0 1 .79-1.53 4.35 4.35 0 0 1 1.21-1.21 5.11 5.11 0 0 1 1.76-.74 9.39 9.39 0 0 1 2.47-.16.7.7 0 0 1-.2.49 1.81 1.81 0 0 1-.92.3 4.8 4.8 0 0 0-1.82.7 6.17 6.17 0 0 0-1.33 1.21 6.54 6.54 0 0 0-.9 1.46c-.23.51-.41 1-.56 1.42 0 .22 0 .52-.09.92s-.06.81-.07 1.26v1.29a4.09 4.09 0 0 0 0 1 .24.24 0 0 1-.16.27 1.57 1.57 0 0 1-.45.13 1 1 0 0 1-.47 0 .26.26 0 0 1-.22-.25 54.18 54.18 0 0 0-.19-6.39c-.16-1.84-.33-3.44-.47-4.85zm9.83 1.18l.61-.19a1.36 1.36 0 0 1 .83-.06 2.05 2.05 0 0 1 1.6.54c.37.39.4 1.13.09 2.23a9 9 0 0 1-1.82 3.06 17.77 17.77 0 0 1-2.68 2.34 1.42 1.42 0 0 0 1.08 1.05 2.75 2.75 0 0 0 1.51-.24 7.29 7.29 0 0 0 1.55-.91c.5-.39.91-.72 1.22-1 .51-.43.91-.8 1.21-1.1a11.28 11.28 0 0 0 .95-1.1c.07-.05.12 0 .13 0a.94.94 0 0 1 0 .27c0 .12-.06.29-.11.5a4.85 4.85 0 0 1-.21.45 3.28 3.28 0 0 1-.31.44c-.13.15-.31.34-.52.55s-.48.51-.79.87l-1 1a7 7 0 0 1-1.06.84 3.76 3.76 0 0 1-1.22.51 4.35 4.35 0 0 1-1.53 0 5.52 5.52 0 0 1-1.16-.54 2.6 2.6 0 0 1-.66-.6 2.5 2.5 0 0 1-.34-.55 2.29 2.29 0 0 1-.15-.44 7.16 7.16 0 0 1-.14-1.94 10.79 10.79 0 0 1 .72-3.17 9.08 9.08 0 0 1 1-1.71 4.1 4.1 0 0 1 1.2-1.1zm-1.63 6.38a11.44 11.44 0 0 0 1.1-.71 7.71 7.71 0 0 0 1.19-1 7.41 7.41 0 0 0 1-1.31 3.23 3.23 0 0 0 .45-1.52 1 1 0 0 0 0-.75c0-.07-.09-.11-.14-.11a1.11 1.11 0 0 0-1.22.18 4.58 4.58 0 0 0-1.12 1.33 9.71 9.71 0 0 0-.85 1.93 6.77 6.77 0 0 0-.41 1.96z" fill="#af6b09"/><path d="M135.63 61.99a6.62 6.62 0 0 1 1.49.4 3.29 3.29 0 0 1 .94.56 3.12 3.12 0 0 1 .54.63l.37.61c0 .09-.13.08-.34 0l-.59-.36a4.35 4.35 0 0 0-1.91-.61 6.12 6.12 0 0 0-2.07.13 3 3 0 0 0-1.53.81 1.26 1.26 0 0 0-.29 1.4 3.27 3.27 0 0 0 1 1.44 10.2 10.2 0 0 0 1.64 1.1c.6.32 1.2.62 1.8.88a8.87 8.87 0 0 1 1.47.79l1.23-.66.9-.51c.26-.15.53-.3.81-.43l.95-.45a.38.38 0 0 1 .13 0v.09a1.88 1.88 0 0 1-.29.29c-.16.13-.4.32-.74.56l-.86.58-1.47.94a3.45 3.45 0 0 1 .68.83 2.74 2.74 0 0 1 .31.84 1.39 1.39 0 0 1-.16.92 6.22 6.22 0 0 1-1.62 1.8 6.56 6.56 0 0 1-1.66.9 2 2 0 0 1-1.12 0 1.78 1.78 0 0 1-1-.58 1.28 1.28 0 0 1-.2-1.17 3.67 3.67 0 0 1 .67-1.15 7.76 7.76 0 0 1 1.08-1.06l1.08-.9a5.45 5.45 0 0 0-1.26-.89c-.62-.34-1.27-.73-1.93-1.15a13.18 13.18 0 0 1-1.8-1.33 2.37 2.37 0 0 1-.86-1.44 2.45 2.45 0 0 1 .2-1.53 3.75 3.75 0 0 1 1-1.29 4.33 4.33 0 0 1 3.41-1zm-.35 12.35a1.17 1.17 0 0 0 .9 0 3.45 3.45 0 0 0 1-.52 4.75 4.75 0 0 0 .79-.76 2.25 2.25 0 0 0 .45-.74.63.63 0 0 0-.2-.63 3.19 3.19 0 0 0-.63-.55c-.26.19-.56.43-.9.73a7.51 7.51 0 0 0-.88.92 3.76 3.76 0 0 0-.56.9c-.14.29-.12.55.03.65z" fill="#af6b09"/></svg>