<svg id="Camada_1" xmlns="http://www.w3.org/2000/svg" xmlns:xlink="http://www.w3.org/1999/xlink" viewBox="0 0 1683.1 2467.4"><style>.st0{clip-path:url(#SVGID_2_)}.st1{fill:#58595b}</style><defs><path id="SVGID_1_" d="M1464.6 1225.6c-244.1-122 89.8-420.3 66.4-675.5s-238.2-185.7-226.5-108.9 150.3-56.3 52.7-152-167.9-20.6-179.6-9.4c-5.8-107-449-305.9-661.8-13.1-125-159.5-312 201.3-152.3 180.1 120.6-16-253.8-257-210.8 142.6s214.8 427.8 64.4 636.1c167.9 212-162.1 566.7-41 767.5s226.4 58.2 195.2 22.5-140.5 82.6-40.9 178.3 169.2 16 193.2-24.4c-43 198.9 566.2 287.1 654.1 16.9 140.6 114.5 321.8-154.9 144.5-178.3-152.4-20.1 126.9 244 191.3-18.8s-305.9-535.1-48.9-763.6"/></defs><clipPath id="SVGID_2_"><use xlink:href="#SVGID_1_" overflow="visible"/></clipPath><image width="2953" height="2953" xlink:href="EE6F0507.png" transform="translate(-675.078 -292.307)" overflow="visible" class="st0"/><path class="st1" d="M1498.4 1227.7c-123.8-52.9-116-166-74.9-274.4 41.7-112.9 103.8-218.4 128.9-336.8 16.4-80.1 11.6-172.5-37.8-240.6-33.5-46.1-102.4-60.3-149.8-27.5-12.2 8.4-23.2 20.5-26 35.5-2.9 16.7 5.6 36.3 24.9 25.7 45.8-25.5 65.8-90.1 42.2-137-22.7-42-69.4-78.8-117.7-83-25.1-1.7-49.9 7.2-70 21.9-6.9 5-13.3 10.4-19.4 16.5-1.3 1.2-3.4 1.2-4.6-.1-.5-.5-.8-1.2-.9-2-9.2-47.9-62.9-78.3-102.2-100.9-73.9-38.8-156.6-60.7-239.9-64.5-129.8-7.3-244.7 40.8-333.2 135.4-2 2.5-11.3 10.8-13.5 13.4-2.9 2-6.3 8.9-9.8 4.5C444 147.6 374.3 170 328.2 228c-29.8 38.1-63.3 98.2-45.2 147.2 8.1 18.4 30 22.7 48.2 20.4 22.5-1.6 31.1-10.8 13.9-29.4-25.5-26.6-61.7-41.7-97.8-46.5-75.5-10.3-117 47.7-125 116.3-7.1 50.3-2.1 101.4 4.7 151.5 13.2 101.6 39.5 201.1 76.8 296.5 56.1 137.9 84.1 216.4-19.6 342.7l-.1-3.9C348.9 1439 77.2 1740 121.2 1974.6c12.6 57.5 64.6 130.6 117.8 156.8 40.2 21.2 93-1.4 103.1-46.3 5-20.5-9.7-31.7-27.9-20.7-14 7.8-24.8 20.3-33 34-43.4 72.9 7.7 147.2 75.6 180.3 56.9 29.3 114.8-9.6 145.6-58.2 1.9-3.1 6.7-1.2 6 2.4-1.6 8.5-2.1 17.2-1.5 25.8 12.4 96.2 143.2 135.5 224.8 151.5 147.6 24.8 338.5 13.5 436.2-115.3 10.1-14.3 18.6-29.7 25.3-45.9.5-2.2 3.5-3.2 5.1-1.5 135.6 112.8 324.3-148.4 155.6-178-89-14.7-24.4 54.5 14.2 72 97.4 49.3 159.5-17.1 177.5-111 45.2-233.7-196.9-432.9-138.7-665.6 10.2-34.8 28.8-66.8 52.3-94.2 7.9-9.4 47.7-53.4 42.4-33.2-269.9 240.8 142.1 543.8 52.5 822.7-29.8 109.5-122.8 146.8-216.7 80.1-53.6-36.9-66.7-99.7 18.7-84.5 191.9 38.9-17.3 322.5-162.1 196.8l5.2-1.5c-68.2 287.3-742.6 210.8-697.3-19.5l6 2.4c-25.8 52.1-85.2 95.4-144.6 73.5-25.8-8.6-48.1-25.3-67.6-43.9-53.8-47.4-61.7-131.9-10.7-184.5 27.4-32.4 79.5-34.4 71.3 19.2-9.3 42.2-54.1 72.7-96.8 64.6-61.1-12.4-100.1-68.5-130.4-118.5-120.1-233.6 223.4-577.7 49.8-807.1-1-1.1-1-2.8-.1-3.9 15.9-25.2 30.9-50.8 41.9-78.4 45.5-102.4-22.1-205.6-52.9-302.2-44.1-128.7-159.6-561.2 81.7-539.1 40.1 5.1 114.4 34.8 119.7 80.3-2.5 35.1-72.9 31.6-89.8 9.2C213.9 312.7 391 62.9 499.9 209.7l-5.2.1c32-62.4 91-106.7 154.1-134.6 111.8-48.6 240.9-42.3 354.8-3.8 64.7 22.5 186.5 78.7 196.2 154l-5.5-2.2c30-32.9 77.1-52.4 121.1-38.6 57.7 19 115.8 70.5 114.4 135.4-1.3 43.4-28.4 98.7-74.3 108-31.5 3.1-40.1-38.7-28.4-61.3 10.1-21.8 30.8-36.9 52.8-45.4 128.7-43 194.5 83.3 200.5 193.4 25.6 261.5-321.7 577.8-79 707.1 3.8 1.8.8 7.7-3 5.9z"/></svg>