<svg id="Camada_1" xmlns="http://www.w3.org/2000/svg" xmlns:xlink="http://www.w3.org/1999/xlink" viewBox="0 0 1544.2 2479.7"><style>.st0{clip-path:url(#SVGID_2_)}.st1{fill:#58595b}</style><defs><path id="SVGID_1_" d="M1407.5 1247.4c-244.1-122 89.8-420.3 66.4-675.5S1235.7 386.1 1247.4 463s150.3-56.3 52.7-152-167.9-20.6-179.6-9.4c-5.8-107-449-305.9-661.8-13.1-125-159.5-312 201.3-152.3 180.1C427 452.7 52.6 211.6 95.6 611.3s214.8 427.8 64.4 636.1c167.9 212-162.1 566.7-41 767.5s226.4 58.2 195.2 22.5-140.5 82.6-40.9 178.3 169.2 16 193.2-24.4c-43 198.9 566.2 287.1 654.1 16.9 140.6 114.5 321.8-154.9 144.5-178.3-152.4-20.1 126.9 244 191.3-18.8s-305.9-535.2-48.9-763.7"/></defs><clipPath id="SVGID_2_"><use xlink:href="#SVGID_1_" overflow="visible"/></clipPath><image width="2953" height="2953" xlink:href="EE385EE6.jpeg" transform="translate(-732.149 -270.532)" overflow="visible" class="st0"/><path class="st1" d="M1441.4 1249.7c-16.2-7-31.5-15.9-45.6-26.7-7.1-5.5-13.7-11.6-19.7-18.2l-2.2-2.6-2.2-2.6c-1.5-1.7-2.8-3.5-4.2-5.3-2.7-3.6-5.3-7.4-7.6-11.3-1.2-1.9-2.3-4-3.4-5.9l-1.6-3c-.5-1-1-2-1.5-3.1-2-4.1-3.7-8.4-5.2-12.7-3-8.6-5.3-17.5-6.7-26.5-1.4-9-2.2-18-2.3-27.1-.1-9 .4-18 1.3-26.9 2-17.7 5.3-35.1 10-52.3 4.5-17 10-33.8 16-50.2 12-32.9 25.9-64.7 39.9-96.4s28.1-63.1 41.3-94.8 25.4-63.7 35.2-96.3c4.9-16.3 9.2-32.7 12.6-49.3 3.5-16.5 6-33.2 7.4-50 1.5-16.7 1.6-33.5.4-50.2-.3-4.1-.7-8.4-1.2-12.6l-1.5-12.6c-1.2-8.4-2.6-16.6-4.3-24.9s-3.8-16.3-6.1-24.3c-2.4-8-5.1-15.8-8.3-23.5-6.1-15.2-14.3-29.6-24.3-42.5-9.8-12.8-22.1-23.4-36.1-31.5-13.9-7.9-29.4-12.5-45.4-13.7-16-1.2-32.1 1.1-47.2 6.8-7.5 2.8-14.6 6.4-21.2 10.9-6.4 4.3-12.1 9.6-16.9 15.8-4.6 5.7-7.7 12.5-9.1 19.7-.6 3.5-.7 7-.2 10.5.4 3.5 1.3 6.9 2.7 10.1.6 1.4 1.4 2.6 2.3 3.8.8 1 1.7 1.9 2.8 2.5 2.3 1.4 5 1.9 7.6 1.6 3.4-.4 6.7-1.3 9.8-2.8 3.4-1.6 6.7-3.6 9.7-5.9 6.4-4.8 12.1-10.4 17-16.7 5.1-6.4 9.5-13.2 13.1-20.5 7.4-14.5 11.7-30.5 12.4-46.8.6-16.3-2.8-32.4-10-47.1-3.6-7.4-8-14.3-13.1-20.8-2.6-3.2-5.3-6.4-8.1-9.4-1.4-1.5-2.9-3-4.4-4.5-1.5-1.5-3-3-4.6-4.4-6.1-5.8-12.6-11.2-19.3-16.3-3.3-2.5-6.8-4.9-10.3-7.2s-7.1-4.4-10.8-6.4c-14.7-7.9-30.7-13.2-47.2-14.2-8.3-.5-16.5 0-24.7 1.6s-16.1 4.2-23.7 7.6c-7.6 3.5-14.9 7.7-21.7 12.7-3.4 2.5-6.7 5.1-10 7.8s-6.3 5.6-9.4 8.6c-1.3 1.2-3.4 1.2-4.6-.1-.5-.5-.8-1.2-.9-2-.7-7.8-3.6-15.4-7.6-22.4-4.1-7.1-9-13.7-14.5-19.7-11-12.3-23.9-22.9-37.4-32.6-13.6-9.6-27.9-18.4-42.6-26.2-14.7-7.9-29.9-14.9-45.4-21.3s-31.2-12-47.2-17-32-9.4-48.3-13c-32.5-7.3-65.7-11.7-99-13.2-33.2-1.5-66.5.5-99.3 5.9-16.3 2.8-32.4 6.5-48.3 11.1-15.8 4.7-31.3 10.3-46.4 17-30.2 13.3-58.4 30.6-83.9 51.5-6.4 5.2-12.7 10.5-18.9 15.9-6.2 5.4-12.3 11-18.4 16.7s-12 11.5-18 17.4l-9 8.9-4.5 4.5c-1.5 1.5-3 3-4.6 4.4l-.9.8c-1.1 1-2.9 1-4-.1-.2-.2-.3-.4-.4-.6-5.2-6.6-11-12.7-17.3-18.2-6.2-5.5-13.1-10.2-20.4-14.1-7.3-3.7-15.1-6.3-23.2-7.6-8.1-1.3-16.3-1.2-24.3.1-8.1 1.4-16 3.8-23.5 7.2-7.5 3.4-14.7 7.6-21.5 12.4-13.6 9.8-25.8 21.4-36.3 34.4-10.7 13-20 27-27.8 41.9-7.9 14.8-14 30.4-18.3 46.5-2.1 8-3.5 16.1-4.1 24.3-.7 7.9-.2 15.9 1.4 23.8.8 3.7 2 7.3 3.7 10.7 4.7 10 14 17.2 24.9 19.4 7.7 1.6 15.5 2 23.3 1.1 2-.2 4-.5 5.9-.8 1.9-.3 3.7-.7 5.6-1.2 3.2-.8 6.2-2.2 8.9-4.1.9-.7 1.7-1.6 2.2-2.7.5-.9.7-2 .7-3 0-2.4-1-5.5-2.7-8.6-1.9-3.2-4.1-6.3-6.6-9-2.7-3-5.5-5.7-8.5-8.3-6.2-5.3-12.9-10.1-19.9-14.2-7.1-4.2-14.4-7.9-22-11.2-15.1-6.5-31.1-10.8-47.4-12.8-16.2-1.9-32.6-1-47.8 3.5-15.2 4.5-29 12.8-39.9 24.3-11 11.4-19.2 25.5-25.2 40.7-5.9 15.4-9.9 31.5-12.1 47.9-2.3 16.6-3.4 33.4-3.4 50.1-.1 16.9.8 33.8 2.3 50.6.7 8.4 1.7 16.9 2.7 25.4s2 17 3.2 25.4c2.3 16.9 4.9 33.8 7.8 50.6 5.8 33.6 12.9 67 21.5 100s18.6 65.6 29.9 97.8C134.9 874 140.9 890 147 906l18.6 48.1c6.2 16.1 12.3 32.3 17.6 49 5.5 16.8 9.6 34 12.3 51.5 1.3 8.9 2 17.8 2.2 26.8.2 9-.3 18-1.5 26.9-2.3 17.7-7 35.1-13.9 51.6-6.7 16.2-14.9 31.8-24.4 46.6-9.3 14.6-19.5 28.7-30.6 42.1l-.1-3.9c11.1 13.7 20.5 28.6 28.2 44.4 7.7 15.9 13.5 32.5 17.5 49.7 4 17.1 6.3 34.6 7.1 52.2.8 17.5.4 35-1.2 52.5-3.1 34.9-10 69.2-18.6 102.9s-18.8 67-29.5 100-21.8 65.7-32.2 98.7-20.1 66.1-27.5 99.6c-3.7 16.8-6.8 33.6-9 50.6-2.2 16.9-3.3 33.9-3.2 50.9.1 16.9 1.9 33.7 5.5 50.2 3.5 16.4 9.2 32.2 16.9 47.1 1 1.9 2 3.7 3 5.5l3.2 5.4c2.2 3.6 4.5 7.3 6.8 10.9 4.6 7.2 9.4 14.2 14.4 21.1 9.9 13.7 21 26.5 33.1 38.3 12.1 11.5 25.6 21.7 40.4 28.4 7.3 3.4 15 5.8 22.9 7.1 7.8 1.3 15.7 1.3 23.5 0 15.4-2.6 29.8-11 40.3-22.8 5.3-5.9 9.6-12.5 12.8-19.8 1.5-3.5 2.7-7.2 3.5-10.9.8-3.5 1-7.1.7-10.7-.2-3.1-1.2-6.1-2.9-8.8-.8-1.1-1.8-2.2-2.9-3-1.1-.8-2.3-1.5-3.5-1.9-3-.9-6.1-.9-9.1-.2-3.5.8-7 2.1-10.1 3.8-6.9 3.9-13.1 8.8-18.5 14.6-5.5 5.9-10.4 12.4-14.5 19.4-8.3 14-13.6 29.7-15.3 45.9-1.7 16.2.3 32.5 6 47.8 5.6 15.3 14.7 29.3 25.7 41.6 2.8 3.1 5.6 6.1 8.6 8.9l4.6 4.3 4.7 4.2c6.3 5.5 12.9 10.6 19.8 15.3 1.7 1.2 3.4 2.3 5.2 3.4.9.5 1.8 1.1 2.6 1.6l2.7 1.6c1.8 1.1 3.6 2 5.4 3s3.7 1.9 5.5 2.7c3.7 1.7 7.5 3.3 11.3 4.6 3.8 1.3 7.7 2.4 11.7 3.3 7.8 1.7 15.9 2.4 23.9 2.1 8-.4 16-1.9 23.6-4.4 15.4-5.1 29.6-14.2 42.1-25.3 12.6-11.4 23.6-24.3 33-38.4.9-1.5 2.9-2.1 4.5-1.1 1.2.7 1.8 2 1.5 3.3v.1c-1.6 8.5-2.1 17.2-1.5 25.8.1 2.1.5 4.3.7 6.4s.7 4.2 1.2 6.3c.9 4.2 2.2 8.3 3.7 12.3 3.1 8 7.1 15.6 12 22.7s10.5 13.8 16.7 19.9c12.3 12.3 26.5 22.7 41.5 31.7 15.1 9 30.9 16.8 47.2 23.3 16.4 6.6 33.1 12.3 50.1 17 17 4.8 34.2 8.8 51.7 11.9 17.4 3.2 34.9 5.7 52.5 7.4 17.6 1.7 35.3 2.8 53 3.2 35.3.8 70.7-1.4 105.6-6.7 17.4-2.6 34.7-6.1 51.8-10.6 17-4.4 33.6-9.9 49.9-16.4 16.2-6.5 31.8-14.3 46.8-23.2 14.9-8.9 28.9-19.1 41.9-30.6s24.6-24.4 34.7-38.5c10.1-14.3 18.6-29.7 25.3-45.9l.2-.5c.7-1.6 2.5-2.3 4.1-1.6.3.1.6.3.9.6 13.7 10.8 29.1 19.2 45.7 23.8 16.6 4.6 34 5.4 50.9 2.2s33.1-9.5 47.8-18.6c14.7-9.1 28-20.2 39.5-33.2 11.5-12.8 20.9-27.3 28-43 3.5-7.7 6.2-15.8 8-24.1 1.8-8.1 2.5-16.4 2-24.7-.5-8.1-2.5-16-6-23.2-3.5-7.2-8.6-13.5-14.8-18.6-6.3-5.2-13.5-9.3-21.1-12.2-7.9-3-16-5.2-24.3-6.5-8.2-1.5-16.6-2.1-25-1.8-3.8.2-7.6.8-11.3 1.9-3.3 1.1-6 2.8-7.3 4.7-.7 1-1.2 2.1-1.4 3.3-.3 1.4-.3 2.9-.1 4.3.6 3.6 1.8 7 3.5 10.2 3.6 6.9 8.8 13.5 14.7 19.5 5.9 6 12.4 11.6 19.3 16.5 6.9 5 14.2 9.4 21.8 13.3 15 7.9 31.2 13.1 48 15.5 16.6 2.2 33.5.9 48.8-5 7.7-2.9 14.9-6.8 21.5-11.6 6.7-4.9 12.8-10.6 18.2-16.9 10.9-12.7 19.3-27.7 25.9-43.5 3.3-8 6.2-16.1 8.7-24.4 2.5-8.3 4.6-16.7 6.4-25.2 7-33.9 7.2-69 2.6-103.5s-13.9-68.6-25.2-102-24.8-66.1-38.7-98.8-28.2-65.3-41.5-98.4-25.4-67-34.1-101.9c-4.4-17.5-7.7-35.3-9.8-53.2-2.1-18-2.6-36.2-1.5-54.3 1.2-18.1 4.4-36.1 9.5-53.5s12.3-34.2 21.2-50c8.9-15.7 19.3-30.5 31.1-44.2 11.7-13.6 24.4-26.4 38.1-38.1 1.4-1.1 3.4-1 4.6.4 1.1 1.3 1 3.2-.2 4.4-13 11.8-25.2 24.6-36.4 38.2-11.1 13.5-21 28.1-29.3 43.5-16.6 30.8-26.1 64.9-27.8 99.8-.8 17.4-.1 34.9 2.2 52.2 2.3 17.4 5.7 34.6 10.2 51.5 8.9 34 21.3 67.2 34.7 99.9 26.9 65.5 58.4 129.6 81.9 197.4 11.7 33.9 21.4 68.8 26.3 104.8 2.5 18 3.7 36.2 3.4 54.4-.3 18.3-2.3 36.5-6 54.4-1.9 9-4.1 17.8-6.7 26.5-2.6 8.8-5.7 17.4-9.2 25.9-7.1 16.9-16.2 33.4-28.6 47.7-6.2 7.2-13.2 13.7-20.9 19.3-7.8 5.6-16.3 10.2-25.3 13.6-9 3.3-18.4 5.5-27.9 6.3-9.4.9-19 .6-28.3-.7-18.5-2.7-36.4-8.5-52.9-17.3-8.2-4.3-16.1-9.2-23.6-14.6-7.6-5.5-14.6-11.6-21.1-18.3-6.5-6.8-12.5-14.3-17.1-23.2-2.5-4.7-4.1-9.8-4.8-15-.4-3-.3-6 .3-8.9.6-3.2 1.9-6.2 3.8-8.9 1.9-2.5 4.2-4.7 6.8-6.4 2.4-1.5 5-2.7 7.7-3.5 4.9-1.5 9.9-2.3 15-2.5 4.8-.2 9.5-.1 14.3.4 4.7.4 9.2 1 13.8 1.8 9.2 1.5 18.3 4.1 27 7.5 9 3.5 17.3 8.4 24.7 14.6 7.5 6.4 13.6 14.2 17.9 23.1 4.1 8.8 6.5 18.4 7 28.1.5 9.5-.4 19-2.6 28.2-2.1 9.1-5.2 17.9-9.1 26.4-7.8 16.7-18.2 32.1-30.7 45.6-12.4 13.5-26.7 25.2-42.5 34.5-15.8 9.2-33.2 16-51.5 18.9-18.3 3-37 1.7-54.7-3.6-17.5-5.5-33.7-14.5-47.6-26.4l5.2-1.5c-4.3 17.9-11.3 35-20.8 50.8-9.5 15.9-21.1 30.5-34.4 43.4-13.3 12.8-28.1 24.1-43.9 33.7-15.7 9.5-32.2 17.7-49.3 24.5-17 6.8-34.4 12.5-52.1 17-17.6 4.5-35.5 8.1-53.5 10.8-18 2.7-36.1 4.4-54.2 5.4s-36.3 1.2-54.4.6-36.2-1.9-54.2-3.9-35.9-4.8-53.7-8.4c-35.5-7.2-70.5-17.3-103.9-31.7-16.8-7.2-32.9-15.6-48.4-25.3-15.4-9.8-30-21.1-42.7-34.5-6.4-6.7-12.1-14-17.2-21.8-2.5-3.9-4.8-8-6.9-12.1-2.1-4.2-3.8-8.5-5.3-12.9s-2.7-8.9-3.6-13.5c-.5-2.3-.7-4.6-1.1-6.9s-.5-4.6-.5-7c-.4-9.3.5-18.6 2.7-27.6l6 2.4c-4.1 7.9-8.8 15.4-14 22.6-5.2 7.2-11 14-17.3 20.3-6.4 6.4-13.3 12.2-20.7 17.3-7.6 5.2-15.7 9.4-24.3 12.7-8.7 3.3-17.8 5.3-27.1 6-9.3.7-18.6.1-27.8-1.8-4.5-.9-9-2.1-13.4-3.6-4.3-1.4-8.6-3.1-12.8-5-8.3-3.8-16.2-8.3-23.7-13.4-7.4-5-14.5-10.5-21.3-16.5l-5-4.4-4.9-4.6c-3.2-3.1-6.4-6.4-9.4-9.7-12.1-13.4-22.2-29-28.6-46.4-6.4-17.4-8.8-36-6.8-54.4 2-18.4 8-36.1 17.4-52 4.7-7.9 10.2-15.3 16.6-22 6.4-6.9 13.9-12.8 22.2-17.4 4.4-2.4 9.2-4.2 14.1-5.3 5.5-1.2 11.2-1 16.6.7 2.8.9 5.5 2.3 7.9 4.2 2.3 1.8 4.3 3.9 6 6.4 3.1 4.7 4.9 10 5.4 15.6.4 5.1.1 10.1-.9 15.1-1 4.7-2.5 9.4-4.5 13.8-3.8 8.7-9 16.6-15.4 23.6s-13.8 13-22 17.6c-8.3 4.7-17.3 7.9-26.7 9.6-9.3 1.6-18.9 1.6-28.2 0-9.2-1.6-18.1-4.4-26.5-8.3-16.7-7.7-31.2-18.9-44.1-31.2-12.7-12.4-24.3-25.9-34.6-40.3-5.2-7.1-10.1-14.4-14.8-21.8-2.4-3.7-4.7-7.4-6.9-11.2l-3.4-5.8c-1.1-2-2.2-3.9-3.2-5.9-8.1-16-14.1-33-17.8-50.5-3.6-17.4-5.5-35.1-5.5-52.9 0-17.6 1.1-35.2 3.5-52.7 2.3-17.4 5.6-34.6 9.4-51.7 7.7-34.1 17.8-67.4 28.4-100.5s22-65.8 32.9-98.6 21.4-65.8 30.2-99.1 15.9-67.1 19.3-101.2c1.8-17 2.3-34.2 1.8-51.3-.6-17.1-2.7-34.1-6.3-50.7-3.7-16.7-9.1-32.9-16.3-48.3-7.3-15.5-16.2-30.1-26.7-43.5-.9-1-1-2.5-.3-3.6l.2-.3c9.2-14.5 17.9-29.1 25.9-44.1 4-7.5 7.7-15.1 11.1-22.8 1.7-3.8 3.4-7.7 4.9-11.6s3-7.8 4.4-11.7c5.5-15.6 9.1-31.8 10.6-48.2 1.4-16.4.7-32.8-2-49-2.9-16.4-7-32.6-12.3-48.5-5.2-16-11.1-32-17.2-48L129 913c-6.1-16.1-12.1-32.3-17.8-48.7C99.7 831.7 89.7 798.6 81 765s-15.9-67.5-21.6-101.7c-2.9-17.1-5.4-34.2-7.6-51.3-1.1-8.6-2.1-17.2-3.1-25.7s-1.9-17.2-2.6-25.9c-1.4-17.3-2.2-34.8-2.1-52.3.1-17.6 1.4-35.2 3.9-52.6 2.7-17.5 6.8-34.9 13.5-51.7 3.3-8.5 7.4-16.6 12.2-24.4 4.8-7.9 10.5-15.2 17-21.8 13.1-13.4 29.4-23.2 47.4-28.3 17.8-5.2 36.5-5.8 54.4-3.6 17.8 2.4 35.2 7.3 51.6 14.5 8.2 3.6 16.2 7.7 23.8 12.3 7.7 4.7 15 10 21.9 16 3.5 3.1 6.7 6.3 9.8 9.8 3.2 3.6 6 7.6 8.4 11.9 1.2 2.3 2.2 4.8 3 7.3.9 2.8 1.3 5.7 1.3 8.6-.1 3.3-.9 6.5-2.3 9.4-1.5 2.8-3.5 5.2-6 7.2-2.2 1.7-4.6 3.2-7.1 4.3-2.3 1-4.7 1.9-7.2 2.5-2.3.6-4.7 1.1-7 1.4-2.4.4-4.6.6-6.9.8-9.3 1-18.8.4-27.9-1.7-4.8-1.2-9.4-3-13.7-5.4-4.4-2.5-8.3-5.6-11.7-9.3-3.3-3.7-6.1-7.9-8.2-12.4-2-4.4-3.5-8.9-4.5-13.6-1.8-9.1-2.2-18.3-1.3-27.5.8-8.9 2.5-17.8 4.9-26.4 4.8-17 11.5-33.4 20.1-48.9 8.4-15.4 18.4-30 29.8-43.4 11.4-13.5 24.5-25.5 39-35.5 7.3-5 15.2-9.3 23.3-12.9 8.2-3.6 16.9-6.1 25.8-7.4 9-1.3 18.1-1.2 27 .4 8.9 1.7 17.4 4.7 25.4 9 7.8 4.3 15.1 9.5 21.6 15.6 6.5 6 12.4 12.5 17.7 19.5l-5.2.1c2-3.9 4-7.7 6.2-11.4s4.5-7.4 6.9-11a264.952 264.952 0 0 1 33-40.2c6.1-6.2 12.6-12 19.2-17.6 13.5-11.1 27.7-21.2 42.6-30.3 14.8-9.1 30.3-17.1 46.3-24.1 16-6.9 32.4-12.8 49.1-17.6 16.7-4.8 33.7-8.5 50.8-11.2 17.1-2.7 34.4-4.4 51.7-5.2 17.3-.8 34.5-.6 51.8.3 34.4 2 68.5 7.2 102 15.5 16.7 4.1 33.2 8.9 49.5 14.5 16.3 5.5 32.3 11.8 47.9 18.8 15.7 7 31 14.8 45.9 23.3 15 8.5 29.3 18.1 43 28.5 13.6 10.6 26.6 22.2 37.6 35.7 5.6 6.7 10.5 14.1 14.5 21.9 4 7.9 6.9 16.6 7.2 25.8l-5.5-2.2c3-3 6.1-6.2 9.4-9.1s6.7-5.8 10.2-8.5c7.1-5.4 14.6-10.1 22.6-14 8.1-4 16.6-6.9 25.3-8.9 8.8-1.9 17.9-2.8 26.9-2.4 9 .4 18 1.8 26.7 4.3 8.6 2.5 17 5.8 25 9.9 4 2 7.9 4.2 11.7 6.5s7.5 4.8 11.1 7.4c7.2 5.2 14.1 10.7 20.7 16.7 1.7 1.5 3.3 3 4.9 4.5s3.2 3.1 4.8 4.7c3.2 3.2 6.2 6.5 9.1 10 5.8 7 10.8 14.6 14.9 22.7 4.2 8.2 7.3 16.8 9.4 25.8 2.1 9 3 18.1 2.9 27.3-.4 18.4-4.9 36.4-13 52.9-4 8.2-8.8 16-14.4 23.3-5.6 7.4-12.2 14-19.6 19.8-3.8 3-8 5.5-12.3 7.7-4.7 2.3-9.8 3.8-15 4.4-2.9.3-5.8.2-8.7-.4-3-.6-6-1.7-8.6-3.3-2.6-1.6-4.9-3.6-6.9-6-1.8-2.2-3.3-4.6-4.5-7.2-2.1-4.7-3.6-9.6-4.2-14.7-.7-5.1-.7-10.3.1-15.3.8-5 2.3-9.9 4.4-14.5 2-4.5 4.6-8.7 7.5-12.7 5.8-7.6 12.7-14.3 20.6-19.7 7.7-5.3 16-9.7 24.7-13.1 17.4-6.7 36-9.6 54.6-8.5 18.7 1.2 36.8 6.5 53.2 15.5 16.2 9.1 30.4 21.2 41.9 35.8 11.2 14.3 20.4 30.1 27.3 46.9 3.5 8.3 6.5 16.7 9.1 25.3 2.6 8.6 4.8 17.2 6.7 25.9 1.9 8.7 3.4 17.4 4.7 26.2.6 4.4 1.2 8.8 1.7 13.1.5 4.4.9 8.8 1.3 13.2 1.4 17.8 1.3 35.6-.2 53.4-2.8 35.4-10.4 70-20.4 103.6s-22.4 66.3-35.6 98.4-27.4 63.8-41.4 95.3-27.6 63.1-39.7 95c-6 16-11.5 32.1-16.2 48.3-4.8 16.1-8.4 32.5-10.8 49.2-2.2 16.5-3 33.1-1 49.4.9 8.1 2.6 16.1 4.9 23.9 2.4 7.8 5.5 15.4 9.3 22.6 1.9 3.6 4 7.1 6.2 10.6 1.2 1.7 2.3 3.4 3.5 5.1l1.8 2.5 1.9 2.4c5.2 6.5 10.9 12.6 17.1 18.1 12.4 11.3 26.5 20.9 41.4 29.3 1.6.8 2.3 2.8 1.5 4.4s-3 2.1-4.6 1.3z"/></svg>