<svg id="Camada_1" xmlns="http://www.w3.org/2000/svg" xmlns:xlink="http://www.w3.org/1999/xlink" viewBox="0 0 1635 2477"><style>.st0{clip-path:url(#SVGID_2_)}.st1{clip-path:url(#SVGID_4_)}.st2{fill:#58595b}</style><defs><path id="SVGID_1_" d="M1441.7 1229.1c-244.1-122 89.8-420.3 66.4-675.5-23.4-255.2-238.2-185.7-226.5-108.8 11.7 76.9 150.3-56.3 52.7-152-97.6-95.7-167.9-20.6-179.6-9.4-5.8-107-449-305.9-661.8-13.1-125-159.5-312 201.3-152.3 180.1 120.5-16-253.8-257.1-210.8 142.6 42.9 399.7 214.7 427.8 64.4 636.1 167.9 212-162.1 566.7-41 767.5 121 200.8 226.4 58.2 195.2 22.5-31.2-35.6-140.5 82.6-40.9 178.3 99.6 95.7 169.2 16 193.2-24.4-43 198.9 566.2 287.1 654.1 16.9 140.6 114.5 321.8-154.9 144.5-178.3-152.4-20.1 126.9 243.9 191.3-18.8 64.4-262.6-305.9-535.2-48.9-763.7"/></defs><clipPath id="SVGID_2_"><use xlink:href="#SVGID_1_" overflow="visible"/></clipPath><g class="st0"><defs><path id="SVGID_3_" d="M1559.7 1265.9c-257.4-128.6 94.7-443.3 70-712.4s-251.2-195.9-238.8-114.8c12.4 81.1 158.5-59.4 55.6-160.3-103-100.9-177.1-21.8-189.4-9.9-6.2-112.8-473.5-322.6-698-13.9C427.3 86.5 230 467 398.5 444.7 525.6 427.8 130.8 173.5 176.1 595s226.5 451.2 67.9 670.9c177.1 223.6-171 597.7-43.3 809.4 127.7 211.8 238.8 61.3 205.9 23.7-32.9-37.6-148.1 87.1-43.1 188.1 105 100.9 178.4 16.9 203.8-25.8-45.3 209.7 597.1 302.8 689.8 17.8 148.3 120.7 339.4-163.4 152.4-188-160.7-21.2 133.9 257.3 201.8-19.8 67.9-277-322.6-564.4-51.6-805.4"/></defs><clipPath id="SVGID_4_"><use xlink:href="#SVGID_3_" overflow="visible"/></clipPath></g><image width="2953" height="2953" xlink:href="../../../../../Users/Carol/Downloads/IMG_2733.JPG" transform="translate(-698 -288.777)" overflow="visible" class="st0"/><path class="st2" d="M1475.5 1231.5c-16-7-31.5-15.7-45.6-26.7-7-5.5-13.7-11.5-19.7-18.2l-2.3-2.5-2.2-2.6c-1.5-1.7-2.8-3.5-4.2-5.3-2.7-3.7-5.3-7.4-7.6-11.3-1.2-1.9-2.3-4-3.4-5.9l-1.6-3c-.5-1-1-2-1.5-3.1-2-4.1-3.7-8.4-5.2-12.7-3-8.6-5.3-17.5-6.7-26.5-1.5-9-2.1-18.1-2.3-27.1-.1-9 .4-18 1.3-26.9 1.9-17.8 5.5-35.2 10-52.3 4.5-17.1 10-33.8 16-50.2 12-32.9 25.9-64.7 39.9-96.4 14-31.6 28.1-63.1 41.3-94.8 13.1-31.7 25.4-63.7 35.2-96.3 4.9-16.3 9.2-32.7 12.6-49.3 3.5-16.6 6-33.3 7.5-50 1.4-16.7 1.7-33.5.4-50.2-.3-4.1-.7-8.4-1.2-12.6l-1.5-12.6c-1.1-8.3-2.5-16.6-4.3-24.9-1.7-8.2-3.7-16.3-6.1-24.3-2.4-8-5.1-15.9-8.3-23.5-6.3-15.3-14.3-29.8-24.3-42.5s-22.2-23.6-36.1-31.5c-13.9-7.9-29.5-12.5-45.4-13.7-15.9-1.2-32.2 1.1-47.2 6.8-7.5 2.8-14.6 6.4-21.1 10.9-6.5 4.4-12.3 9.7-16.9 15.8-4.6 6-7.9 12.8-9.1 19.7-.6 3.5-.7 7-.2 10.5.5 3.6 1.4 7.2 2.7 10.1.7 1.5 1.4 2.8 2.3 3.8.9 1.1 1.8 1.9 2.8 2.5 2 1.3 4.5 1.8 7.6 1.6 3.1-.2 6.5-1.3 9.8-2.8 3.3-1.5 6.6-3.6 9.7-5.9 6.3-4.7 12-10.4 17-16.7 5.1-6.3 9.5-13.2 13.1-20.5 7.4-14.5 11.8-30.6 12.4-46.8.6-16.2-2.9-32.4-10-47.1-3.6-7.3-8-14.3-13.1-20.8-2.5-3.2-5.3-6.4-8.1-9.4-1.4-1.5-2.9-3-4.4-4.5-1.5-1.5-3-3-4.6-4.4-6.2-5.8-12.6-11.2-19.3-16.3-3.4-2.5-6.8-4.9-10.3-7.2-3.5-2.2-7.1-4.4-10.8-6.4-14.7-7.9-30.7-13.2-47.2-14.2-8.2-.5-16.5 0-24.6 1.6-8.1 1.6-16.1 4.2-23.7 7.6-7.6 3.4-14.9 7.8-21.7 12.7-3.4 2.5-6.7 5.1-9.9 7.8-3.2 2.8-6.3 5.6-9.5 8.6-1.3 1.2-3.4 1.2-4.6-.1-.5-.6-.8-1.3-.9-2-.7-7.8-3.6-15.4-7.6-22.4-4-7-9-13.6-14.5-19.7-11-12.3-23.9-22.9-37.4-32.6-13.6-9.7-27.9-18.3-42.6-26.2-14.7-7.9-29.9-14.9-45.4-21.3s-31.2-12-47.2-17c-16-5-32.1-9.3-48.4-12.9-32.6-7.3-65.8-11.8-99-13.2-33.2-1.4-66.6.4-99.2 5.9-16.3 2.8-32.5 6.5-48.3 11.1-15.8 4.7-31.4 10.3-46.4 17-30.2 13.3-58.4 30.7-83.9 51.5-6.4 5.2-12.7 10.5-18.9 15.9-6.2 5.4-12.3 11-18.4 16.7-6.1 5.7-12 11.5-18 17.4l-9 8.9-4.5 4.5c-1.5 1.5-3 3-4.6 4.5l-.9.8c-1.1 1.1-2.9 1-4-.1-.2-.2-.3-.4-.4-.6-5.3-6.5-11-12.7-17.3-18.2-6.3-5.5-13.1-10.3-20.4-14.1-7.3-3.7-15.1-6.4-23.2-7.6-8-1.3-16.2-1.2-24.3.1-8.1 1.3-15.9 3.8-23.4 7.2-7.5 3.4-14.7 7.6-21.5 12.4-13.6 9.6-25.7 21.5-36.3 34.4-10.7 13-20 27.1-27.8 41.9-7.8 14.9-14.2 30.5-18.3 46.6-2.1 8-3.5 16.2-4.1 24.3-.6 8.1-.3 16.2 1.4 23.7.8 3.8 2.1 7.4 3.7 10.7 1.6 3.3 3.7 6.4 6.1 9 4.9 5.2 11.4 8.7 18.8 10.4 7.4 1.7 15.3 1.9 23.3 1.1 2-.2 4.1-.5 5.9-.8 1.9-.3 3.8-.7 5.6-1.2 3.5-1 6.8-2.4 8.8-4.1 1-.9 1.7-1.8 2.2-2.7.4-.9.7-1.9.7-3.1 0-2.4-1-5.5-2.7-8.6-1.7-3.1-4-6.2-6.6-9.1-2.6-2.9-5.5-5.7-8.5-8.3-6.1-5.3-12.8-10-19.9-14.2-7.1-4.2-14.4-7.9-22-11.2-15.2-6.4-31.2-10.9-47.4-12.8-16.2-1.9-32.6-1-47.8 3.5-7.6 2.3-14.9 5.4-21.6 9.5-6.7 4.1-12.9 9-18.4 14.7-11 11.4-19.2 25.5-25.1 40.7-5.9 15.2-9.7 31.4-12.1 47.9-2.4 16.5-3.4 33.3-3.4 50.1-.1 16.8.8 33.8 2.3 50.6.7 8.4 1.7 16.9 2.7 25.4 1 8.5 2 16.9 3.2 25.4 2.3 16.9 4.9 33.8 7.8 50.6 5.8 33.6 12.9 67 21.5 100 8.5 33 18.6 65.6 29.9 97.8 5.6 16.1 11.6 32.1 17.7 48.1l18.6 48.1c6.2 16.1 12.3 32.3 17.6 49 5.3 16.7 9.8 33.8 12.3 51.5 1.3 8.8 2 17.8 2.2 26.8.1 9-.3 18-1.5 26.9-2.2 17.9-7.2 35.2-13.9 51.6s-15.1 31.9-24.4 46.6c-9.3 14.7-19.6 28.7-30.6 42.1l-.1-3.9c11 13.7 20.5 28.6 28.2 44.4 7.7 15.8 13.5 32.6 17.5 49.7s6.3 34.6 7.1 52.2c.9 17.5.3 35.1-1.2 52.5-3.1 34.9-10 69.2-18.6 102.9-8.6 33.7-18.8 67-29.5 100s-21.8 65.8-32.2 98.8c-10.4 33-20.1 66.1-27.5 99.6-3.7 16.8-6.8 33.6-9 50.6-2.2 16.9-3.4 34-3.2 50.9.2 16.9 1.9 33.8 5.5 50.2 3.6 16.4 9.2 32.3 16.9 47.1 1 1.9 2 3.7 3 5.5l3.2 5.4c2.2 3.6 4.5 7.3 6.8 10.9 4.6 7.2 9.4 14.2 14.4 21.1 10 13.7 21 26.7 33.1 38.3 12.2 11.5 25.6 21.7 40.4 28.4 7.4 3.4 15.1 5.9 22.9 7.1 7.8 1.3 15.8 1.3 23.5 0 15.4-2.6 29.7-11 40.3-22.8 5.3-5.9 9.7-12.6 12.8-19.7 1.5-3.6 2.8-7.2 3.5-10.9.7-3.7 1-7.3.7-10.7-.3-3.4-1.3-6.4-2.9-8.8-.8-1.1-1.8-2.2-2.9-3-1.1-.8-2.2-1.4-3.5-1.9-2.6-.9-5.7-.9-9.1-.2-3.3.7-6.8 2.1-10.1 3.8-6.7 3.6-12.9 8.8-18.5 14.6-5.5 5.8-10.4 12.4-14.5 19.4-8.3 14-13.6 29.8-15.3 45.9-1.7 16.1.4 32.5 6 47.8 5.6 15.3 14.7 29.3 25.7 41.6 2.8 3.1 5.7 6.1 8.6 8.9l4.6 4.3 4.7 4.2c6.3 5.5 12.9 10.7 19.8 15.3 1.7 1.2 3.4 2.3 5.2 3.4.9.5 1.8 1.1 2.6 1.6l2.7 1.6c1.8 1.1 3.6 2 5.4 3 1.8.9 3.7 1.9 5.5 2.7 3.7 1.8 7.5 3.2 11.3 4.6 3.8 1.3 7.7 2.4 11.7 3.3 7.9 1.7 15.9 2.5 23.9 2.1 8-.4 15.9-1.9 23.6-4.4 15.4-5.1 29.6-14.2 42.1-25.3 12.5-11.1 23.5-24.3 33-38.4.9-1.6 2.9-2.1 4.4-1.2 1.2.7 1.8 2.1 1.6 3.4v.2c-1.6 8.5-2.2 17.2-1.5 25.8.1 2.1.5 4.3.7 6.4.4 2.1.7 4.2 1.2 6.3.9 4.2 2.2 8.3 3.7 12.3 3 8 7.2 15.6 12 22.7 4.9 7.1 10.5 13.7 16.7 19.8 12.3 12.3 26.5 22.7 41.5 31.7s30.9 16.7 47.2 23.3c16.3 6.6 33.1 12.3 50.1 17 17 4.8 34.3 8.7 51.7 11.9 17.4 3.2 34.9 5.7 52.5 7.4 17.6 1.7 35.3 2.8 53 3.2 35.3.7 70.8-1.3 105.6-6.7 17.4-2.6 34.7-6.2 51.7-10.6 17-4.5 33.7-9.9 49.9-16.4 16.2-6.5 31.9-14.3 46.8-23.2 14.9-8.9 29-19.1 41.9-30.6 12.9-11.5 24.6-24.3 34.7-38.5 10.1-14.1 18.5-29.5 25.3-45.8l.2-.5c.7-1.6 2.5-2.3 4-1.6.3.1.7.4.9.6 13.7 10.8 29.1 19.2 45.7 23.8 16.5 4.7 34.1 5.3 50.9 2.2 16.9-3.1 33.1-9.7 47.8-18.6 14.7-9 28-20.3 39.5-33.2 11.4-12.9 21.1-27.4 28-43 3.4-7.8 6.2-15.9 8-24.1 1.8-8.2 2.5-16.6 2-24.7-.6-8.2-2.5-16.1-6-23.2-3.5-7.1-8.5-13.5-14.7-18.6-6.2-5.1-13.4-9.1-21.1-12.2-7.7-3-15.9-5.1-24.3-6.5-8.4-1.4-17-2.2-25-1.8-4 .2-7.9.8-11.2 1.9-3.4 1.1-6 2.8-7.3 4.7-.7 1-1.1 2-1.4 3.3-.2 1.3-.3 2.7-.1 4.3.4 3.2 1.7 6.7 3.5 10.2 3.6 6.9 8.9 13.5 14.7 19.5 5.8 6 12.4 11.5 19.3 16.5s14.2 9.4 21.8 13.3c15.1 7.8 31.4 13.3 48 15.5 16.6 2.2 33.5.9 48.8-5 7.7-2.9 14.9-6.8 21.6-11.6 6.7-4.8 12.7-10.5 18.2-16.9 10.9-12.7 19.3-27.7 25.9-43.5 3.3-7.9 6.2-16.1 8.7-24.4 2.5-8.3 4.6-16.7 6.4-25.2 7-33.9 7.2-69 2.6-103.5-4.7-34.6-13.9-68.6-25.2-102-11.4-33.4-24.8-66.1-38.7-98.8-13.9-32.7-28.2-65.3-41.5-98.4-13.2-33.2-25.4-67-34.1-101.9-4.3-17.5-7.8-35.2-9.8-53.2-2-18-2.7-36.1-1.5-54.3 1.2-18.1 4.3-36.1 9.5-53.5 5.1-17.4 12.3-34.2 21.2-50 8.9-15.8 19.4-30.5 31.1-44.2 11.7-13.7 24.5-26.3 38.1-38.1 1.4-1.2 3.4-1 4.6.3 1.2 1.3 1 3.3-.2 4.5-13 11.9-25.3 24.6-36.4 38.2-11.1 13.6-21 28.1-29.3 43.5-8.3 15.4-14.9 31.6-19.5 48.4-4.7 16.8-7.4 34.1-8.2 51.4-.9 17.4 0 34.9 2.2 52.2 2.2 17.3 5.8 34.5 10.2 51.5 8.9 34 21.3 67.2 34.7 99.9 26.9 65.5 58.4 129.6 81.9 197.4 11.7 33.9 21.4 68.8 26.3 104.8 2.5 18 3.7 36.1 3.4 54.4-.3 18.2-2.3 36.5-6 54.4-1.9 9-4.1 17.8-6.7 26.5-2.6 8.7-5.6 17.4-9.2 25.9-7.1 16.9-16.2 33.4-28.6 47.7-6.2 7.1-13.1 13.7-20.9 19.3-7.7 5.6-16.3 10.2-25.3 13.6-9 3.4-18.4 5.4-27.9 6.3-9.5.9-19 .6-28.3-.7-18.7-2.5-36.5-8.8-52.9-17.3-8.2-4.3-16.1-9.2-23.6-14.6-7.5-5.5-14.6-11.5-21.1-18.3-6.5-6.8-12.5-14.2-17-23.2-2.2-4.5-4.1-9.4-4.9-15-.3-2.8-.4-5.8.3-8.9.6-3.1 1.9-6.2 3.8-8.9s4.3-4.8 6.8-6.4c2.5-1.6 5.1-2.7 7.7-3.5 5.1-1.6 10.1-2.3 15-2.5 4.9-.2 9.6 0 14.3.4 4.7.4 9.2 1 13.8 1.8 9.1 1.6 18.2 4 27 7.5s17.3 8.3 24.7 14.6c7.4 6.3 13.7 14.2 17.9 23.1 4.3 8.9 6.4 18.6 7 28.1.5 9.6-.5 19.1-2.6 28.2-2.1 9.1-5.2 17.9-9.1 26.4-7.7 16.8-18.3 32.1-30.7 45.6-12.4 13.5-26.7 25.2-42.5 34.5-15.8 9.2-33.2 16-51.5 18.9-18.2 2.9-37.1 1.8-54.7-3.6s-33.7-14.8-47.6-26.4l5.2-1.5c-4.2 17.7-11.3 34.9-20.8 50.8-9.4 15.9-21.1 30.5-34.5 43.4-13.3 12.9-28.2 24.1-43.9 33.7-15.7 9.6-32.3 17.6-49.3 24.5-17 6.8-34.4 12.5-52.1 17-17.7 4.6-35.5 8.1-53.5 10.8-18 2.7-36.1 4.4-54.2 5.4s-36.3 1.2-54.4.6-36.2-1.9-54.2-3.9c-18-2.1-35.9-4.8-53.7-8.4-35.5-7.2-70.5-17.3-103.9-31.7-16.7-7.2-33-15.5-48.4-25.3-15.4-9.8-30-21.1-42.7-34.5-6.4-6.7-12.1-14-17.2-21.8-2.5-3.9-4.8-8-6.8-12.1-2-4.2-3.9-8.5-5.3-12.9-1.5-4.4-2.7-8.9-3.6-13.5-.5-2.3-.7-4.6-1.1-6.9-.2-2.3-.5-4.6-.5-7-.5-9.3.6-18.6 2.7-27.6l6 2.4c-4.1 7.8-8.8 15.3-14.1 22.5-5.2 7.2-11 14-17.3 20.3-6.3 6.3-13.2 12.2-20.7 17.3-7.5 5.1-15.6 9.4-24.3 12.7-8.6 3.2-17.8 5.3-27.1 6-9.3.8-18.7 0-27.8-1.8-4.5-.9-9-2.1-13.4-3.6-4.3-1.5-8.6-3.1-12.8-5-8.3-3.7-16.2-8.4-23.7-13.4s-14.5-10.6-21.2-16.5l-5-4.5-4.9-4.6c-3.2-3.1-6.4-6.4-9.4-9.7-12.1-13.4-22.2-29-28.6-46.4-6.4-17.3-8.8-36.1-6.8-54.4 1.9-18.4 8-36.1 17.4-51.9 4.7-7.9 10.2-15.3 16.6-22 6.4-6.7 13.6-12.8 22.2-17.4 4.3-2.3 9-4.2 14.1-5.3 5.1-1 10.9-1.2 16.6.7 2.8.9 5.5 2.4 7.9 4.2 2.4 1.8 4.3 4 6 6.4 3.3 4.8 4.9 10.3 5.4 15.6.5 5.2 0 10.3-.9 15.1-1 4.8-2.5 9.4-4.4 13.8-3.8 8.7-9.1 16.6-15.4 23.6-6.3 7-13.7 13-22 17.6-8.2 4.7-17.3 7.9-26.7 9.5-9.4 1.6-19 1.5-28.2 0-9.3-1.5-18.2-4.5-26.5-8.3-16.7-7.7-31.2-18.9-44.1-31.2-12.9-12.4-24.3-26-34.6-40.3-5.2-7.1-10.1-14.4-14.8-21.8-2.4-3.7-4.7-7.4-6.9-11.2l-3.4-5.8c-1.1-2-2.2-3.9-3.2-5.9-8.2-16-14.1-33.1-17.8-50.5-3.7-17.5-5.4-35.2-5.5-52.9-.1-17.7 1.2-35.3 3.5-52.7 2.3-17.4 5.6-34.6 9.4-51.7 7.7-34.1 17.8-67.4 28.4-100.5 10.7-33 22-65.8 32.9-98.6 10.9-32.8 21.4-65.8 30.2-99.1s15.9-67.1 19.3-101.2c1.7-17.1 2.4-34.2 1.8-51.3-.6-17.1-2.6-34.1-6.3-50.7-3.7-16.6-9.1-32.9-16.3-48.3-7.2-15.4-16.3-30-26.7-43.5-.9-1-1-2.5-.3-3.6l.2-.3c9.2-14.5 17.9-29.1 25.9-44.1 4-7.5 7.7-15.1 11.1-22.8 1.7-3.8 3.4-7.7 4.9-11.6 1.6-3.9 3-7.8 4.4-11.7 5.4-15.8 9.2-31.9 10.6-48.2 1.5-16.3.6-32.7-2.1-49-2.7-16.3-7.1-32.4-12.3-48.5-5.2-16-11.1-32-17.2-48l-18.5-48.1c-6.1-16.1-12.1-32.3-17.8-48.7-11.4-32.7-21.5-65.8-30.1-99.4-8.6-33.5-15.8-67.5-21.5-101.6-2.9-17.1-5.4-34.2-7.6-51.3-1.1-8.6-2.1-17.2-3.1-25.7-.9-8.6-1.9-17.2-2.6-25.9-1.5-17.4-2.2-34.8-2.1-52.3.2-17.5 1.3-35.1 3.9-52.6 2.6-17.5 6.8-34.9 13.5-51.7 3.4-8.4 7.4-16.6 12.2-24.3 4.8-7.8 10.5-15.2 17-21.8 6.5-6.6 13.9-12.5 21.9-17.3 8-4.8 16.6-8.5 25.5-11 17.8-5.2 36.5-5.8 54.4-3.6 17.9 2.3 35.3 7.3 51.6 14.5 8.2 3.6 16.1 7.7 23.8 12.4 7.6 4.7 15 9.9 21.8 16 3.4 3 6.7 6.3 9.8 9.8 3.1 3.6 6 7.4 8.4 11.9 1.2 2.2 2.3 4.6 3.1 7.3.8 2.6 1.3 5.5 1.3 8.6-.1 3.1-.8 6.4-2.3 9.3-1.5 2.9-3.7 5.4-6 7.2-2.3 1.9-4.7 3.2-7.1 4.3-2.4 1.1-4.8 1.9-7.2 2.5-2.4.6-4.7 1.1-7 1.4-2.4.4-4.6.6-6.8.8-9.1.8-18.5.6-27.9-1.7-4.7-1.2-9.3-2.9-13.7-5.4-4.4-2.4-8.3-5.6-11.7-9.3-3.4-3.7-6.1-7.9-8.2-12.4-2.1-4.4-3.5-9-4.5-13.7-1.9-9.3-2.1-18.5-1.3-27.5s2.5-17.8 4.9-26.4c4.7-17.2 11.6-33.5 20.1-48.9 8.4-15.4 18.4-30 29.8-43.4 11.4-13.4 24.3-25.5 39-35.5 7.3-5 15.1-9.4 23.3-12.9 8.2-3.5 16.9-6.1 25.8-7.4 8.9-1.3 18.1-1.2 27 .4 8.9 1.6 17.5 4.7 25.4 9 7.9 4.3 15.1 9.6 21.6 15.6 6.5 5.9 12.3 12.6 17.7 19.5l-5.2.1c2-3.9 4-7.7 6.2-11.4 2.1-3.8 4.5-7.4 6.9-11a264.952 264.952 0 0 1 33-40.2c6.1-6.1 12.6-12 19.2-17.6 13.4-11.1 27.7-21.2 42.6-30.3 14.9-9.1 30.4-17.2 46.3-24.1 16-7 32.4-12.8 49.1-17.6 16.7-4.8 33.7-8.5 50.8-11.2 17.1-2.7 34.4-4.4 51.6-5.2 17.3-.8 34.6-.6 51.8.3 34.4 2 68.6 7.3 102 15.5 16.7 4.1 33.2 8.9 49.5 14.5 16.3 5.5 32.3 11.8 47.9 18.8 15.7 7 31 14.7 45.9 23.3 14.9 8.6 29.3 18 43 28.5 13.6 10.6 26.6 22.2 37.6 35.7 5.5 6.7 10.5 14 14.5 21.9 4 7.9 6.9 16.6 7.2 25.8l-5.5-2.2c3-3 6.1-6.2 9.4-9.1 3.3-3 6.7-5.8 10.2-8.5 7-5.4 14.6-10.1 22.6-14 8-3.9 16.5-7 25.3-8.9 8.8-2 17.9-2.8 26.9-2.4 9 .3 18 1.9 26.6 4.3 8.7 2.5 17 5.8 25 9.9 4 2 7.9 4.2 11.7 6.5 3.8 2.4 7.5 4.8 11.1 7.4 7.2 5.2 14.1 10.8 20.7 16.7 1.7 1.5 3.3 3 4.9 4.5 1.6 1.5 3.2 3.1 4.8 4.7 3.2 3.2 6.2 6.5 9 10 5.7 7 10.8 14.6 14.9 22.7s7.3 16.8 9.4 25.7c2.1 8.9 3 18.2 2.9 27.3-.3 18.4-5 36.5-13 52.9-4 8.2-8.8 16-14.4 23.3-5.6 7.3-12 14-19.6 19.8-3.8 2.9-7.8 5.5-12.3 7.7-4.5 2.1-9.4 3.9-15 4.4-2.8.3-5.7.2-8.7-.3-3-.6-6-1.6-8.6-3.3-2.7-1.6-5-3.7-6.9-6-1.9-2.3-3.3-4.7-4.5-7.2-2.3-4.9-3.5-9.8-4.2-14.7-.8-5.1-.7-10.3.1-15.3.8-5.1 2.3-9.9 4.4-14.5 2.1-4.5 4.6-8.8 7.5-12.7 5.8-7.8 12.9-14.3 20.6-19.7 7.7-5.4 16-9.7 24.7-13.1 17.3-6.7 36-9.6 54.6-8.5 18.5 1.1 36.9 6.5 53.2 15.5 16.3 9 30.5 21.5 41.9 35.8 11.5 14.3 20.4 30.3 27.4 46.9 3.5 8.3 6.5 16.8 9.1 25.3 2.6 8.6 4.8 17.2 6.7 25.9 1.9 8.7 3.4 17.4 4.7 26.2.6 4.4 1.2 8.8 1.7 13.2.5 4.4.9 8.8 1.3 13.2 1.4 17.8 1.2 35.7-.2 53.4-2.8 35.4-10.5 70-20.4 103.6-10 33.6-22.4 66.3-35.6 98.4-13.3 32.1-27.4 63.7-41.4 95.3-13.9 31.6-27.6 63.1-39.7 95-6 16-11.5 32.1-16.2 48.3-4.7 16.2-8.5 32.7-10.8 49.2-2.2 16.5-3 33.1-1 49.4 1 8.1 2.6 16.1 4.9 23.9 2.4 7.8 5.4 15.4 9.3 22.6 1.9 3.6 4 7.1 6.2 10.6 1.2 1.7 2.3 3.4 3.5 5.1l1.8 2.5 1.9 2.4c5.1 6.5 10.9 12.5 17.1 18.1 12.4 11.3 26.5 20.9 41.4 29.3 1.6.9 2.1 2.9 1.2 4.4-1.2 1.4-3 2-4.5 1.3z"/></svg>