<svg id="Camada_1" xmlns="http://www.w3.org/2000/svg" viewBox="0 0 480 320"><style>.st0{fill:none;stroke:#000;stroke-width:0;stroke-linecap:round;stroke-linejoin:round}.st1{fill:#010202}</style><path d="M117.5 168.8h2.9V96.9c0-8.3-2.4-14.7-7.2-19.2s-12-6.7-21.5-6.7-16.7 2.2-21.5 6.7S63 88.6 63 96.9v71.9h3v-46.4h51.5v46.4zm-51.5-49V100c0-4.3.4-8 1.3-11.2.8-3.2 2.3-5.9 4.3-8.2 2.1-2.2 4.7-3.9 8-5.1 3.3-1.1 7.3-1.7 12.2-1.7 4.7 0 8.8.6 12.1 1.7 3.4 1.1 6 2.8 8 5s3.4 4.9 4.3 8.2c.9 3.3 1.3 7.1 1.3 11.3v19.8H66zm173.8-39.3c2 2.2 3.4 4.9 4.3 8.2.9 3.3 1.3 7.1 1.3 11.3v68.8h3V96.9c0-8.3-2.4-14.7-7.2-19.2s-12-6.7-21.5-6.7c-7.4 0-13.3 1.3-17.9 4-4.6 2.7-7.7 6.6-9.4 11.7-1.7-5.1-4.8-9-9.4-11.7-4.6-2.7-10.6-4-17.9-4-9.5 0-16.7 2.2-21.5 6.7s-7.2 10.9-7.2 19.2v72h3V100c0-4.2.5-8 1.3-11.2.8-3.2 2.3-5.9 4.3-8.2 2.1-2.2 4.7-3.9 8-5.1 3.3-1.1 7.3-1.7 12.2-1.7 4.7 0 8.8.6 12.1 1.7 3.4 1.1 6 2.8 8 5s3.4 4.9 4.3 8.2c.9 3.3 1.3 7.1 1.3 11.3v68.9h3V100c0-4.2.5-8 1.3-11.2.8-3.2 2.3-5.9 4.3-8.2 2.1-2.2 4.7-3.9 8-5.1 3.3-1.1 7.3-1.7 12.2-1.7 4.7 0 8.8.6 12.1 1.7 3.4 1.1 6 2.8 8 5zm81.7 74.1c1.9-3.3 2.9-7.2 2.9-11.8 0-3.3-.7-6.4-2-9.5-1.3-2.8-3.1-5.3-5.4-7.4-2.3-2.1-5-3.8-8.1-5-3.1-1.2-6.5-1.9-10.3-2 3.3-.2 6.3-.9 9-2.1 2.8-1.2 5.1-2.8 7.1-4.8s3.6-4.2 4.7-6.8c1.1-2.5 1.7-5.3 1.7-8.2 0-4-.8-7.4-2.3-10.4-1.5-2.9-3.7-5.4-6.4-7.4-2.7-1.9-5.9-3.4-9.5-4.4-3.6-1-7.5-1.5-11.7-1.5h-26.8v95.5h25c4.5 0 8.9-.5 13.2-1.5 4.3-.9 8-2.5 11.2-4.6 3.2-2.1 5.8-4.8 7.7-8.1zM267.3 76h23.8c3.8 0 7.3.5 10.6 1.3s6.2 2.1 8.6 3.9c2.4 1.7 4.3 3.9 5.7 6.6 1.4 2.6 2.1 5.8 2.1 9.4h-.1c0 3.4-.7 6.4-2.2 9-1.5 2.5-3.5 4.7-6 6.4s-5.3 3-8.6 3.9c-3.3.9-6.6 1.3-10.1 1.3h-23.8V76zm35.1 89c-3.7.9-7.6 1.3-11.7 1.3h-23.4v-45.8h23.8c4 0 7.8.4 11.5 1.3 3.7.8 6.9 2.2 9.7 4 2.8 1.8 5 4.1 6.6 7 1.7 2.9 2.5 6.3 2.5 10.3s-.8 7.4-2.5 10.5c-1.6 2.9-3.9 5.3-6.7 7.2-2.8 1.9-6.1 3.3-9.8 4.2zm35.5-91.7h3v95.5h-3zm47.8-22.9L401 66.7h3l-17-18.4h-2.2L368 66.7h3zM360 166.3v-43.8h51.2v-2.7H360V76h55.2v-2.7H357V169h58.8v-2.7zm-248.5 15.2c-5.1 0-9 1.2-11.6 3.6-2.6 2.4-3.9 5.8-3.9 10.3v38.7h1.6v-25h27.9v25h1.5v-38.7c0-4.5-1.3-7.9-3.9-10.3-2.6-2.4-6.4-3.6-11.6-3.6zm14 15.6l.1 10.5H97.7V197c0-2.3.2-4.3.7-6a9.8 9.8 0 0 1 2.3-4.4c1.1-1.2 2.5-2.1 4.3-2.7 1.8-.6 4-.9 6.6-.9 2.6 0 4.8.3 6.6.9 1.8.6 3.2 1.5 4.3 2.7 1 1.2 1.8 2.6 2.3 4.4s.7 3.8.7 6.1zm42.7-1c0-2.5-.4-4.6-1-6.2-.9-1.7-2.1-3.1-3.6-4.1s-3.4-1.7-5.5-2.2c-2.2-.5-4.6-.7-7.2-.7H136v51.3h1.6v-24.3h13c2.9 0 5.3.2 7.2.6 2 .4 3.5 1.2 4.7 2.2 1.1 1 2 2.4 2.5 4.1.5 1.6.8 3.7.8 6.2v11h1.6v-10.9c0-1.9-.2-3.7-.4-5.3-.3-1.6-.8-3-1.6-4.2-.8-1.2-2-2.2-3.5-3-1.5-.8-3.5-1.3-6-1.6 3.7-.8 6.6-2.2 8.9-4.4 2.3-2.2 3.4-5 3.4-8.5zm-6.5 9.2c-1.6 1.1-3.3 1.8-5.3 2.3s-4 .7-6.1.7h-12.9v-24.2h13.7c5.4 0 9.4 1 11.8 3 2.4 2.1 3.6 4.9 3.7 8.5 0 2.3-.5 4.2-1.3 5.7-.9 1.6-2.1 3-3.6 4zm58.7-15.7c-2.2-2.5-5-4.4-8.3-5.9-3.3-1.5-7.2-2.2-11.5-2.2-4.4 0-8.2.7-11.5 2.2-3.3 1.5-6.1 3.5-8.3 5.9-2.2 2.5-3.9 5.3-5 8.6-1.1 3.2-1.7 6.7-1.7 10.2s.6 6.9 1.7 10.2c1.1 3.3 2.8 6.2 5 8.6 2.2 2.5 5 4.4 8.3 5.9 3.3 1.5 7.2 2.2 11.5 2.2 4.4 0 8.2-.7 11.5-2.2 3.3-1.5 6.1-3.5 8.3-5.9 2.2-2.5 3.9-5.3 5-8.6 1.1-3.2 1.7-6.6 1.7-10.2 0-3.6-.5-7-1.7-10.2-1.1-3.3-2.8-6.2-5-8.6zm3.5 28.5c-1.1 3-2.6 5.7-4.7 8.1-2.1 2.4-4.7 4.2-7.8 5.6-3.1 1.4-6.8 2.1-10.9 2.1-4.2 0-7.8-.7-10.9-2.1-3.1-1.4-5.7-3.2-7.8-5.6-2.1-2.3-3.7-5-4.7-8.1-1.1-3.1-1.6-6.3-1.6-9.7 0-3.4.6-6.6 1.6-9.7 1.1-3 2.6-5.7 4.7-8.1 2.1-2.4 4.7-4.2 7.8-5.6 3.1-1.4 6.8-2.1 10.9-2.1 4.2 0 7.8.7 10.9 2.1 3.1 1.4 5.7 3.2 7.8 5.6 2.1 2.3 3.7 5 4.7 8.1 1.1 3.1 1.6 6.3 1.6 9.7 0 3.4-.5 6.6-1.6 9.7z"/><path class="st0" d="M293.4 233.9v.2"/><path d="M279.7 181.3c-4 0-7.2.7-9.7 2.2-2.5 1.4-4.2 3.5-5.1 6.3-.9-2.7-2.6-4.8-5.1-6.3s-5.7-2.2-9.7-2.2c-5.1 0-9 1.2-11.6 3.6-2.6 2.4-3.9 5.8-3.9 10.3v38.7h1.6v-37c0-2.3.2-4.3.7-6a9.8 9.8 0 0 1 2.3-4.4c1.1-1.2 2.5-2.1 4.3-2.7 1.8-.6 4-.9 6.6-.9 2.6 0 4.8.3 6.6.9s3.2 1.5 4.3 2.7c1 1.2 1.8 2.6 2.3 4.4.5 1.8.7 3.8.7 6.1v37h1.6v-37c0-2.3.2-4.3.7-6a9.8 9.8 0 0 1 2.3-4.4c1.1-1.2 2.5-2.1 4.3-2.7 1.8-.6 4-.9 6.6-.9 2.6 0 4.8.3 6.6.9 1.8.6 3.2 1.5 4.3 2.7 1 1.2 1.8 2.6 2.3 4.4s.7 3.8.7 6.1v36.8h1.8v-38.7c0-4.5-1.3-7.9-3.9-10.3-2.6-2.4-6.4-3.6-11.6-3.6zm39.4.2c-5.1 0-9 1.2-11.6 3.6-2.6 2.4-3.9 5.8-3.9 10.3v38.7h1.6v-25h27.9v25h1.5v-38.7c0-4.5-1.3-7.9-3.9-10.3-2.6-2.4-6.4-3.6-11.6-3.6zm14 15.6l.1 10.5h-27.9V197c0-2.3.2-4.3.7-6a9.8 9.8 0 0 1 2.3-4.4c1.1-1.2 2.5-2.1 4.3-2.7 1.8-.6 4-.9 6.6-.9 2.6 0 4.8.3 6.6.9 1.8.6 3.2 1.5 4.3 2.7 1 1.2 1.8 2.6 2.3 4.4s.7 3.8.7 6.1zm48.3 30.6c1.1-1.7 1.6-3.8 1.6-6.2 0-2.7-.5-4.8-1.6-6.2-1-1.6-2.4-2.9-4.2-3.9-1.7-1-3.8-1.7-6.2-2.3-2.4-.6-4.9-1.1-7.6-1.7l-7.2-1.5c-2.3-.5-4.4-1.1-6.3-2-1.8-.9-3.3-2-4.5-3.4-1.1-1.4-1.7-3.2-1.7-5.5s.6-4.2 1.7-5.7 2.6-2.7 4.3-3.6c1.7-.9 3.7-1.5 5.8-1.9 2.1-.4 4.2-.6 6.2-.6 2.5 0 4.9.2 7.2.7 2.2.5 4.2 1.3 5.8 2.4 1.6 1.1 2.9 2.6 3.9 4.4.9 1.8 1.5 4 1.6 6.6h1.6c-.2-2.9-.8-5.3-1.9-7.3-1.1-1.9-2.5-3.6-4.3-4.8-1.8-1.3-3.9-2.2-6.3-2.7s-5-.8-7.8-.8c-2.3 0-4.7.2-7 .6-2.3.5-4.4 1.2-6.3 2.2-1.8 1-3.3 2.4-4.5 4.1-1.1 1.7-1.7 3.8-1.7 6.3 0 2.6.6 4.6 1.7 6.1 1.2 1.5 2.6 2.8 4.5 3.7 1.9.9 3.9 1.7 6.2 2.2s4.6 1 7 1.5c2.2.4 4.5.9 6.9 1.4 2.4.4 4.5 1.1 6.5 2 1.9.9 3.5 2.1 4.8 3.6s1.9 3.5 1.9 6.1c0 2.2-.5 4-1.4 5.6-.9 1.6-2.2 2.9-3.8 3.9-1.6 1-3.4 1.7-5.5 2.2-2.1.5-4.2.7-6.5.7-3.1 0-6-.3-8.7-.9s-5.1-1.6-7.1-2.9c-2-1.3-3.6-3.1-4.8-5.2-1.2-2.2-1.8-4.8-1.8-7.8h-1.6c0 3.2.6 6 1.8 8.3 1.2 2.3 2.9 4.2 5.1 5.7 2.1 1.4 4.7 2.5 7.6 3.2 2.9.7 6 1 9.3 1 2.5 0 4.8-.3 7.1-.8s4.3-1.4 6-2.5c1.8-1.1 3.2-2.6 4.2-4.3z"/><path class="st1" d="M384 240c-4 3.5-.7 9 .4 10.5-1.4-1.9-7.4-9.3-9.8-2.7 1 12.7 18.8 11.8 18.8 11.8-.2-7.7-4.7-23.6-9.4-19.6zm-289.2 8.8c1.1-1.5 4.4-7 .4-10.5-4.6-4.1-9.2 11.8-9.4 19.6 0 0 17.8.9 18.8-11.8-2.4-6.6-8.4.8-9.8 2.7z"/></svg>