<svg version="1" xmlns="http://www.w3.org/2000/svg" width="225.333" height="173.333" viewBox="0 0 169.000000 130.000000"><path d="M125.9 21.7c-1.1 1.5-1.1 1.6.1.5 1.2-1 1.8-.7 3.8 1.5l2.4 2.8-2.2-3.3c-2.5-3.7-2.4-3.7-4.1-1.5zm-90.8 8.9c-1.9 2.4-2.1 3.9-1.9 15.8.1 8.1.3 10.3.5 5.8l.4-7.2h14.8l.4 7.2c.2 4.5.4 2.3.5-5.8.2-11.9 0-13.4-1.9-15.8-1.6-2.1-2.9-2.6-6.4-2.6-3.5 0-4.8.5-6.4 2.6zm12.3.6c1 1.4 1.6 4.4 1.6 7.5V44H34v-5.3c0-7.3 1.9-9.7 7.5-9.7 3.4 0 4.7.5 5.9 2.2zM57 30c-1.1 1.1-1.9 3.2-1.9 4.7.2 2.7.2 2.8.6.3.7-4 3.2-6 7.3-6 4.2 0 7 2.4 7.1 6.1.1 2.1.2 2 1.6-1.1 1.9-4.3 2.8-5 7.4-5 6.1 0 6.8 1.7 7.2 17l.3 13.5.2-13.8c.2-12.5 0-13.9-1.8-15.7-1.3-1.3-3.3-2-6-2s-4.7.7-6 2l-2 2-2-2c-1.3-1.3-3.3-2-6-2s-4.7.7-6 2zm35.7-1.3c-.4.3-.7 7.5-.7 16V60l5.8-.2 5.7-.2-5.2-.3-5.3-.4V44h5.3c5.4.1 7.5 1.1 9.5 4.5.6 1.1 1.2 1.4 1.2.7s-1.1-2.3-2.5-3.6c-2.5-2.3-2.5-2.3-.5-4.1 1.1-1 2-2.3 2-2.8s-.9.2-2.1 1.7c-1.8 2.2-2.8 2.6-7.5 2.6H93V29.1l4.3-.4 4.2-.4-4.1-.1c-2.2-.1-4.4.1-4.7.5zm27 0c-.4.3-.7 7.5-.7 16V60l8.8-.2 8.7-.2-8.2-.3-8.3-.4V45.1l7.3-.4 7.2-.3-7.3-.2-7.3-.2.3-7.3.3-7.2 7.5-.6 7.5-.5-7.6-.2c-4.2-.1-7.9.1-8.2.5zm-16.1 1.5c1.2.5 2.7 2 3.2 3.2.8 1.5 1.1 1.7 1.1.5.1-1.9-3-4.9-5-4.8-.8 0-.5.5.7 1.1zm9.8 14.3c0 8.8.2 12.3.3 7.7.2-4.6.2-11.8 0-16-.1-4.2-.3-.5-.3 8.3zm-5.4 9.3c0 .7-.9 2.1-2 3.2s-1.6 2-1 2c1.3 0 4.4-4.9 3.6-5.7-.3-.3-.6-.1-.6.5zM91.5 68c.3.5.8 1 1.1 1 .2 0 .4-.5.4-1 0-.6-.5-1-1.1-1-.5 0-.7.4-.4 1zM20 73.9c0 2.5.6 2.7 1.3.6.4-.8.2-1.7-.3-2-.6-.4-1 .3-1 1.4zm127.1 1.7c0 1.1.3 1.4.6.6.3-.7.2-1.6-.1-1.9-.3-.4-.6.2-.5 1.3zm-1.9 4.4c-1.8 2.9-1.5 3.8.4 1.2.9-1.3 1.4-2.5 1.2-2.7-.2-.2-.9.5-1.6 1.5zM22 81c0 .5.5 1 1.1 1 .5 0 .7-.5.4-1-.3-.6-.8-1-1.1-1-.2 0-.4.4-.4 1zm114.3 3.5c-1.8 2-1.6 3.3.8 4 2.7.9 3.3.2 2.5-3-.7-2.8-1.5-3.1-3.3-1zM27.9 86.1c-1.5 2.9.1 4.3 2.9 2.3 1.9-1.3 2-1.7.8-3-1.9-1.9-2.3-1.8-3.7.7zm93.6 5.8c-.2.5.4 1.1 1.5 1.4 1.1.3 2 .2 2-.3 0-1.2-2.8-2.1-3.5-1.1zm8.1.3c.3.4.9.8 1.5.8.5 0 .9-.4.9-.8 0-.5-.7-.9-1.5-.9s-1.2.4-.9.9zm-87.8 1.5c.6.2 1.8.2 2.5 0 .6-.3.1-.5-1.3-.5-1.4 0-1.9.2-1.2.5zm12.7.2c-.6 1.1 3.3 4.1 5.4 4.1 1 0 .8-.7-.9-2.5-2.5-2.7-3.5-3-4.5-1.6zm55.5 1.6c-1.7 1.8-1.9 2.5-.9 2.5 2.1 0 6-3 5.4-4.1-1-1.4-2-1.1-4.5 1.6zm-46.8.1c.2 1.1-.7 2.8-2.2 4.1l-2.5 2.3h3.1c3.8 0 5.5-1.7 4.4-4.6-1.1-2.9-3.3-4.3-2.8-1.8z"/><path d="M104.3 95.2c-3.2 4.1-1.5 7.3 3.4 6.5 2.7-.4 2.7-.5.6-1.2-1.3-.4-2-1.1-1.7-1.6.3-.5.1-.9-.4-.9-.6 0-.8-.9-.5-2 .6-2.3 0-2.6-1.4-.8zm-25.1 1c-2.1 2.1-1.3 5.6 1.9 9l3.1 3.3-2.6-3.3c-2.7-3.5-3.4-7.6-1.4-8.8.6-.4 1.6 0 2.3.9 1.5 2.1 2.1 2.1 2.8.3.4-1 .1-1.3-.7-1-.8.3-1.7.1-2.1-.5-.8-1.4-1.8-1.4-3.3.1zm-11.3 1.5c.7 1.4.4 2.4-1.1 4l-2.1 2.3h2.5c3.7 0 5.4-2.4 4-5.5-.7-1.4-1.9-2.5-2.7-2.5-1.2 0-1.4.4-.6 1.7z"/><path d="M97.8 98.5c-1.4 3.1.3 5.5 4 5.5 2.5 0 2.5 0 .6-2.1-1-1.2-1.8-3-1.6-4 .5-2.7-1.6-2.3-3 .6zm-11.4 7.7l-1.9 2.3 2.3-1.9c2.1-1.8 2.7-2.6 1.9-2.6-.2 0-1.2 1-2.3 2.2z"/></svg>