<svg id="Camada_1" data-name="Camada 1" xmlns="http://www.w3.org/2000/svg" viewBox="0 0 408.66 140.84"><defs><style>.cls-1{fill:#4c4948}.cls-2{fill:#80a626}.cls-3{fill:#d1d600}.cls-4{fill:#9ed4d9}.cls-5{fill:#f39600}.cls-6{fill:#c11f21}.cls-7{fill:#72311d}</style></defs><path class="cls-1" d="M133.73 111l6.71-13.47-13.32-6.63-6.71 13.47-.77-.38L130 83.1a8.63 8.63 0 0 1 4.64-4.63c1.89-.68 4.06-.4 6.53.82s4 2.8 4.59 4.72a8.61 8.61 0 0 1-.9 6.49l-10.36 20.86zm10-20a15.62 15.62 0 0 0 1.27-3.44 6.68 6.68 0 0 0 .07-2.94 5.33 5.33 0 0 0-1.33-2.49 11.29 11.29 0 0 0-6.33-3.13 5.55 5.55 0 0 0-2.8.46 6.47 6.47 0 0 0-2.3 1.83 15.82 15.82 0 0 0-1.95 3.09l-2.86 5.74 13.32 6.63zm31.05 30.55l3.8-22a16 16 0 0 0 .24-3.67 6.88 6.88 0 0 0-.78-2.83 5.39 5.39 0 0 0-2-2 11.41 11.41 0 0 0-6.93-1.19 5.55 5.55 0 0 0-2.55 1.24 6.63 6.63 0 0 0-1.68 2.42 16.37 16.37 0 0 0-1 3.51l-3.79 22-.85-.15 3.8-22a16 16 0 0 0 .24-3.67 6.93 6.93 0 0 0-.78-2.84 5.37 5.37 0 0 0-2-2 11.23 11.23 0 0 0-6.93-1.19 5.45 5.45 0 0 0-2.55 1.24 6.59 6.59 0 0 0-1.68 2.41 15.78 15.78 0 0 0-1 3.52l-3.8 22-.84-.14 4-23a8.56 8.56 0 0 1 3.11-5.77c1.61-1.19 3.78-1.55 6.49-1.08a9.14 9.14 0 0 1 4.86 2.17 6.55 6.55 0 0 1 2 4.21 6.6 6.6 0 0 1 3.32-3.29 9.17 9.17 0 0 1 5.31-.42c2.71.47 4.63 1.53 5.75 3.2a8.56 8.56 0 0 1 1 6.47l-4 23zm28.29-15.88a8.07 8.07 0 0 1 .14 3.91 7.77 7.77 0 0 1-1.49 3.1 9.06 9.06 0 0 1-2.75 2.26 15.42 15.42 0 0 1-3.59 1.41l-7 1.8-7.72-30 7.5-1.93a11.4 11.4 0 0 1 3.38-.38 8 8 0 0 1 3 .7 6.77 6.77 0 0 1 2.46 1.9 8.07 8.07 0 0 1 1.49 3.1 7.36 7.36 0 0 1-.58 5.19 6.71 6.71 0 0 1-1.59 2 6.41 6.41 0 0 1-2.34 1.32A7.91 7.91 0 0 1 197 100a7.29 7.29 0 0 1 2.68 1 7.59 7.59 0 0 1 2.1 1.94 7.9 7.9 0 0 1 1.29 2.73zm-5.44-13.88a7.17 7.17 0 0 0-1.34-2.8 6.14 6.14 0 0 0-2.14-1.67 6.73 6.73 0 0 0-2.71-.61 11 11 0 0 0-3.06.36l-6.66 1.72 3.37 13.11 6.67-1.71a9.77 9.77 0 0 0 2.72-1.19 7.4 7.4 0 0 0 2.1-1.85 6 6 0 0 0 1-5.44zm4.63 14.21a7.24 7.24 0 0 0-1.52-3 6.29 6.29 0 0 0-2.42-1.73 8.55 8.55 0 0 0-3-.58 13.07 13.07 0 0 0-3.32.31l-6.66 1.72L189 117.1l6.53-1.68a12.8 12.8 0 0 0 3.17-1.26 7.94 7.94 0 0 0 2.41-2 6.71 6.71 0 0 0 1.29-2.75 7.45 7.45 0 0 0-.14-3.41zm7.6 6.21l-9.37-29.51.82-.26 9.37 29.56zm5.96-1.85l-10.51-29.13 15.82-5.7.29.81-15 5.41 4.81 13.35 13.91-5 .3.81-13.92 5 4.81 13.34 15.17-5.47.29.81zm.74-35.47l-6-3.47-2.21 6.42-.81.29 2.54-7.27.61-.22 6.64 4zm45.28 17.41L256 78.42l-13.72 5.75 5.81 13.88-.79.33-9-21.49a8.59 8.59 0 0 1-.47-6.54q1.08-2.8 4.89-4.4t6.57-.4a8.62 8.62 0 0 1 4.32 4.92l9 21.5zm-8.62-20.58a15.36 15.36 0 0 0-1.77-3.22 6.64 6.64 0 0 0-2.18-2 5.29 5.29 0 0 0-2.75-.62 9.82 9.82 0 0 0-3.45.84 9.54 9.54 0 0 0-3 1.88 5.45 5.45 0 0 0-1.52 2.4 6.54 6.54 0 0 0-.12 2.94 16.33 16.33 0 0 0 1.07 3.5l2.5 5.94 13.73-5.75zm20.56-9.42a7.31 7.31 0 0 1 .35 5.42 8.84 8.84 0 0 1-3.35 4.28 8.4 8.4 0 0 1 3.3-.36 5 5 0 0 1 2.41.93 6.64 6.64 0 0 1 1.78 2 25.07 25.07 0 0 1 1.45 2.89l2.59 6.05-.79.34-2.64-6.17a15 15 0 0 0-1.86-3.3 5.34 5.34 0 0 0-2.22-1.74 5.22 5.22 0 0 0-2.81-.24 16.19 16.19 0 0 0-3.71 1.16l-6.41 2.74 5.77 13.48-.79.34-12.18-28.43 7.33-3.13a16.69 16.69 0 0 1 3.68-1.13 7.62 7.62 0 0 1 3.24.09 6.23 6.23 0 0 1 2.74 1.54 9.37 9.37 0 0 1 2.12 3.24zm-.91.07a6.78 6.78 0 0 0-3.82-3.91c-1.67-.61-3.84-.34-6.53.81l-6.72 2.87 5.73 13.4 6.33-2.7a12.37 12.37 0 0 0 2.83-1.68 8 8 0 0 0 2.05-2.38 6.76 6.76 0 0 0 .84-3 7.7 7.7 0 0 0-.71-3.41zM306 57.08a21 21 0 0 1 1.47 6.06 15.25 15.25 0 0 1-.56 5.8 13.26 13.26 0 0 1-2.77 4.94 14.79 14.79 0 0 1-11.37 4.59 13.11 13.11 0 0 1-5.43-1.63 15.3 15.3 0 0 1-4.43-3.77 21.52 21.52 0 0 1-4.62-11.45 15.22 15.22 0 0 1 .56-5.79 13.15 13.15 0 0 1 2.78-4.94 13.62 13.62 0 0 1 16.79-3 15.36 15.36 0 0 1 4.43 3.78 21.31 21.31 0 0 1 3.15 5.41zm-.8.33a19.86 19.86 0 0 0-3-5.09 14.74 14.74 0 0 0-4.15-3.61 12 12 0 0 0-5.05-1.58 14.13 14.13 0 0 0-10.76 4.35 12 12 0 0 0-2.59 4.69 14.85 14.85 0 0 0-.47 5.48 20.62 20.62 0 0 0 4.36 10.8 14.88 14.88 0 0 0 4.15 3.61 12 12 0 0 0 5.11 1.58 13 13 0 0 0 5.85-1 12.89 12.89 0 0 0 4.92-3.33 12 12 0 0 0 2.58-4.69 15.07 15.07 0 0 0 .48-5.48 20.24 20.24 0 0 0-1.46-5.73zm39.48 6.69l-3.68-22a15 15 0 0 0-1-3.54 6.81 6.81 0 0 0-1.67-2.42 5.4 5.4 0 0 0-2.54-1.23 9.64 9.64 0 0 0-3.55 0 9.84 9.84 0 0 0-3.38 1.14 5.53 5.53 0 0 0-2 2 6.76 6.76 0 0 0-.78 2.84 15.87 15.87 0 0 0 .25 3.64l3.72 22-.84.15-3.73-22a15.55 15.55 0 0 0-1-3.54 6.62 6.62 0 0 0-1.68-2.42 5.36 5.36 0 0 0-2.54-1.23 9.64 9.64 0 0 0-3.55 0 9.92 9.92 0 0 0-3.38 1.14 5.42 5.42 0 0 0-2 2 6.58 6.58 0 0 0-.79 2.84 16.45 16.45 0 0 0 .25 3.64l3.73 22-.85.15-3.89-23a8.62 8.62 0 0 1 1-6.48c1.12-1.66 3.05-2.72 5.76-3.17a9.08 9.08 0 0 1 5.31.43 6.62 6.62 0 0 1 3.3 3.3 6.59 6.59 0 0 1 2-4.21 9.12 9.12 0 0 1 4.87-2.15q4.06-.69 6.48 1.1a8.6 8.6 0 0 1 3.1 5.78l3.89 23zm20.17.4l-.13-15-14.87.12.15 15h-.86l-.19-23.31a8.58 8.58 0 0 1 2-6.23q2.07-2.19 6.19-2.22c2.76 0 4.83.68 6.24 2.12a8.6 8.6 0 0 1 2.13 6.19l.2 23.31zm-.19-22.32a15.26 15.26 0 0 0-.42-3.65 6.66 6.66 0 0 0-1.24-2.66 5.33 5.33 0 0 0-2.31-1.61 11.31 11.31 0 0 0-7 .06 5.5 5.5 0 0 0-2.35 1.68 6.54 6.54 0 0 0-1.22 2.68 15.38 15.38 0 0 0-.33 3.63v6.41l14.88-.12zm26.77 15.97a8 8 0 0 1-1 3.71 7.54 7.54 0 0 1-2.43 2.45 9.76 9.76 0 0 1-3.28 1.33 14.06 14.06 0 0 1-3.8.28A19.05 19.05 0 0 1 376 65a11.57 11.57 0 0 1-4-2.18 9.28 9.28 0 0 1-2.54-3.56 11.35 11.35 0 0 1-.67-5.06l.86.05a10.57 10.57 0 0 0 .69 4.73 8.53 8.53 0 0 0 2.38 3.28 10.91 10.91 0 0 0 3.68 2 18.67 18.67 0 0 0 4.59.81 14.29 14.29 0 0 0 3.48-.24 9.18 9.18 0 0 0 3-1.17 6.47 6.47 0 0 0 2.17-2.21 7.25 7.25 0 0 0 .94-3.35 6.19 6.19 0 0 0-.81-3.75 7.18 7.18 0 0 0-2.42-2.35 15.23 15.23 0 0 0-3.41-1.41c-1.25-.36-2.46-.71-3.62-1.06s-2.46-.73-3.66-1.13a14.21 14.21 0 0 1-3.24-1.51 6.83 6.83 0 0 1-2.26-2.34 6.63 6.63 0 0 1-.7-3.7 7.31 7.31 0 0 1 1.14-3.77 7.09 7.09 0 0 1 2.56-2.34 10.39 10.39 0 0 1 3.44-1.12 18.14 18.14 0 0 1 3.74-.18 16.73 16.73 0 0 1 4.13.72 9.26 9.26 0 0 1 3.29 1.84 8.14 8.14 0 0 1 2.13 3 11.38 11.38 0 0 1 .75 4.43h-.86a9.87 9.87 0 0 0-.66-4 7.26 7.26 0 0 0-2-2.76 8.34 8.34 0 0 0-3-1.63 16 16 0 0 0-3.84-.67 17.32 17.32 0 0 0-3.35.16 10.43 10.43 0 0 0-3.15 1 6.7 6.7 0 0 0-2.42 2 6.21 6.21 0 0 0-1.09 3.39 5.58 5.58 0 0 0 .74 3.38 6.82 6.82 0 0 0 2.29 2.17 14.53 14.53 0 0 0 3.31 1.41l3.82 1.12c1.41.43 2.75.84 4 1.26a12.29 12.29 0 0 1 3.25 1.58 6.68 6.68 0 0 1 2.13 2.44 7.66 7.66 0 0 1 .62 3.87z" transform="translate(-11.17 -7.87)"/><path class="cls-2" d="M59.76 96.75s-13.9-9.3-22.23-4.3c-14 8.38-16.31 27.24-16.31 27.24a44.14 44.14 0 0 1 9.54-1.33c4.2 0 19.54-.9 25.84-14.71l3.16-6.9z" transform="translate(-11.17 -7.87)"/><path class="cls-3" d="M100.43 81.87S89 60.15 97.55 48.75c14.4-19.14 42.3-19.64 42.3-19.64s-2.85 7.59-3.42 13.73-4.3 28.41-25.43 35.49l-10.57 3.54z" transform="translate(-11.17 -7.87)"/><path class="cls-4" d="M92.58 94s-23.74-2.4-30.89 9.47c-12 19.93-2.29 45.25-2.29 45.25a62.35 62.35 0 0 1 11.12-8.07c5.32-2.75 24-14.22 22.71-35.84-.62-10.25-.65-10.81-.65-10.81z" transform="translate(-11.17 -7.87)"/><path class="cls-5" d="M88.25 52.36s-15.89-5.22-17.08-14.87C69.17 21.31 82.6 7.87 82.6 7.87a44.31 44.31 0 0 0 4.82 8.34c2.58 3.27 11.33 15.95 4.33 29.42-3.32 6.37-3.5 6.73-3.5 6.73z" transform="translate(-11.17 -7.87)"/><path class="cls-6" d="M88.43 84.74s-2.27-30.81-19-37.26c-28.13-10.82-58.24 7.25-58.24 7.25s8.1 6.2 12.8 12.37S47.51 94.54 74.79 88l13.64-3.27z" transform="translate(-11.17 -7.87)"/><path class="cls-7" d="M419.83 71.86S350 61.54 318 72.24c-37.4 12.54-92.58 42.46-136.66 49.88-39.74 6.7-87.22-32.42-87.22-32.42s39.9 62.43 107.17 46.1S310 88.79 374.61 96.65c31.28 3.8 45.22 6.53 45.22 6.53V71.86z" transform="translate(-11.17 -7.87)"/></svg>