<svg id="Camada_1" xmlns="http://www.w3.org/2000/svg" viewBox="0 0 480 320"><style>.st0{fill:#010202}.st1{fill:none;stroke:#010202;stroke-width:1.6165;stroke-linecap:round;stroke-linejoin:round;stroke-miterlimit:10}</style><path d="M117.5 168.8v-46.4H66v46.4h-3V96.9c0-8.3 2.4-14.7 7.2-19.2 4.8-4.5 12-6.7 21.5-6.7s16.7 2.2 21.5 6.7c4.8 4.5 7.2 10.9 7.2 19.2v71.9h-2.9zm0-68.8c0-4.2-.4-8-1.3-11.3-.9-3.3-2.3-6-4.3-8.2-2-2.2-4.6-3.9-8-5-3.3-1.1-7.4-1.7-12.1-1.7-4.9 0-8.9.6-12.2 1.7-3.3 1.2-5.9 2.9-8 5.1-2 2.3-3.5 5-4.3 8.2C66.4 92 66 95.7 66 100v19.8h51.5V100zm127.9 68.8V100c0-4.2-.4-8-1.3-11.3-.9-3.3-2.3-6-4.3-8.2-2-2.2-4.6-3.9-8-5-3.3-1.1-7.4-1.7-12.1-1.7-4.9 0-8.9.6-12.2 1.7-3.3 1.2-5.9 2.9-8 5.1-2 2.3-3.5 5-4.3 8.2-.8 3.2-1.3 7-1.3 11.2v68.9h-3V100c0-4.2-.4-8-1.3-11.3-.9-3.3-2.3-6-4.3-8.2-2-2.2-4.6-3.9-8-5-3.3-1.1-7.4-1.7-12.1-1.7-4.9 0-8.9.6-12.2 1.7-3.3 1.2-5.9 2.9-8 5.1-2 2.3-3.5 5-4.3 8.2-.8 3.2-1.3 7-1.3 11.2v68.9h-3v-72c0-8.3 2.4-14.7 7.2-19.2 4.8-4.5 12-6.7 21.5-6.7 7.3 0 13.3 1.3 17.9 4 4.6 2.7 7.7 6.6 9.4 11.7 1.7-5.1 4.8-9 9.4-11.7 4.6-2.7 10.5-4 17.9-4 9.5 0 16.7 2.2 21.5 6.7 4.8 4.5 7.2 10.9 7.2 19.2v71.9h-3zm79-26c0 4.6-1 8.5-2.9 11.8-1.9 3.3-4.5 6-7.7 8.1-3.2 2.1-6.9 3.7-11.2 4.6-4.3 1-8.7 1.5-13.2 1.5h-25V73.3h26.8c4.2 0 8.1.5 11.7 1.5 3.6 1 6.8 2.5 9.5 4.4 2.7 2 4.9 4.5 6.4 7.4 1.5 3 2.3 6.4 2.3 10.4 0 2.9-.6 5.7-1.7 8.2-1.1 2.6-2.7 4.8-4.7 6.8s-4.3 3.6-7.1 4.8c-2.7 1.2-5.7 1.9-9 2.1 3.8.1 7.2.8 10.3 2 3.1 1.2 5.8 2.9 8.1 5s4.1 4.6 5.4 7.4c1.3 3.1 2 6.2 2 9.5zm-6.3-45.6c0-3.6-.7-6.8-2.1-9.4-1.4-2.7-3.3-4.9-5.7-6.6-2.4-1.8-5.3-3.1-8.6-3.9-3.3-.8-6.8-1.3-10.6-1.3h-23.8v41.8h23.8c3.5 0 6.8-.4 10.1-1.3s6.1-2.2 8.6-3.9c2.5-1.7 4.5-3.9 6-6.4 1.5-2.6 2.2-5.6 2.2-9zm3.3 45.9c0-4-.8-7.4-2.5-10.3-1.6-2.9-3.8-5.2-6.6-7-2.8-1.8-6-3.2-9.7-4-3.7-.9-7.5-1.3-11.5-1.3h-23.8v45.8h23.4c4.1 0 8-.4 11.7-1.3 3.7-.9 7-2.3 9.8-4.2 2.8-1.9 5.1-4.3 6.7-7.2 1.7-3.1 2.5-6.5 2.5-10.5zm16.5 25.7V73.3h3v95.5h-3zm19.1 0V73.3h58.2V76H360v43.8h51.2v2.7H360v43.8h55.8v2.7H357zm44-102.1l-15.3-16.3L371 66.7h-3l16.8-18.4h2.2l17 18.4h-3zM125.5 234.1v-25H97.6v25H96v-38.7c0-4.5 1.3-7.9 3.9-10.3 2.6-2.4 6.5-3.6 11.6-3.6 5.2 0 9 1.2 11.6 3.6 2.6 2.4 3.9 5.8 3.9 10.3v38.7h-1.5zm0-37c0-2.3-.2-4.3-.7-6.1-.5-1.8-1.3-3.2-2.3-4.4-1.1-1.2-2.5-2.1-4.3-2.7-1.8-.6-4-.9-6.6-.9-2.6 0-4.8.3-6.6.9-1.8.6-3.2 1.5-4.3 2.7a9.8 9.8 0 0 0-2.3 4.4c-.5 1.7-.7 3.7-.7 6v10.6h27.9v-10.5zm42.7-1c0 3.5-1.1 6.3-3.4 8.5s-5.2 3.6-8.9 4.4c2.5.3 4.5.8 6 1.6s2.7 1.8 3.5 3c.8 1.2 1.3 2.6 1.6 4.2.2 1.6.4 3.4.4 5.3V234h-1.6v-11c0-2.5-.3-4.6-.8-6.2-.5-1.7-1.4-3.1-2.5-4.1-1.2-1-2.7-1.8-4.7-2.2-1.9-.4-4.3-.6-7.2-.6h-13v24.3H136v-51.3h14.9c2.6 0 5 .2 7.2.7 2.1.5 4 1.2 5.5 2.2 1.5 1 2.7 2.4 3.6 4.1.6 1.6 1 3.7 1 6.2zm-1.6-.5c-.1-3.6-1.3-6.4-3.7-8.5-2.4-2-6.4-3-11.8-3h-13.7v24.2h12.9c2.1 0 4.1-.2 6.1-.7 2-.5 3.7-1.2 5.3-2.3 1.5-1 2.7-2.4 3.6-4 .8-1.5 1.3-3.4 1.3-5.7zm60.5 12.8c0 3.6-.6 7-1.7 10.2-1.1 3.3-2.8 6.1-5 8.6-2.2 2.4-5 4.4-8.3 5.9-3.3 1.5-7.1 2.2-11.5 2.2-4.3 0-8.2-.7-11.5-2.2-3.3-1.5-6.1-3.4-8.3-5.9-2.2-2.4-3.9-5.3-5-8.6s-1.7-6.7-1.7-10.2.6-7 1.7-10.2c1.1-3.3 2.8-6.1 5-8.6 2.2-2.4 5-4.4 8.3-5.9 3.3-1.5 7.1-2.2 11.5-2.2 4.3 0 8.2.7 11.5 2.2 3.3 1.5 6.1 3.4 8.3 5.9 2.2 2.4 3.9 5.3 5 8.6 1.2 3.2 1.7 6.6 1.7 10.2zm-1.6 0c0-3.4-.5-6.6-1.6-9.7-1-3.1-2.6-5.8-4.7-8.1-2.1-2.4-4.7-4.2-7.8-5.6-3.1-1.4-6.7-2.1-10.9-2.1-4.1 0-7.8.7-10.9 2.1-3.1 1.4-5.7 3.2-7.8 5.6-2.1 2.4-3.6 5.1-4.7 8.1-1 3.1-1.6 6.3-1.6 9.7 0 3.4.5 6.6 1.6 9.7 1 3.1 2.6 5.8 4.7 8.1 2.1 2.4 4.7 4.2 7.8 5.6 3.1 1.4 6.7 2.1 10.9 2.1 4.1 0 7.8-.7 10.9-2.1 3.1-1.4 5.7-3.2 7.8-5.6 2.1-2.4 3.6-5.1 4.7-8.1 1.1-3.1 1.6-6.3 1.6-9.7zm67.9 25.7v-37c0-2.3-.2-4.3-.7-6.1-.5-1.8-1.3-3.2-2.3-4.4-1.1-1.2-2.5-2.1-4.3-2.7-1.8-.6-4-.9-6.6-.9-2.6 0-4.8.3-6.6.9-1.8.6-3.2 1.5-4.3 2.7a9.8 9.8 0 0 0-2.3 4.4c-.5 1.7-.7 3.7-.7 6v37H264v-37c0-2.3-.2-4.3-.7-6.1-.5-1.8-1.3-3.2-2.3-4.4-1.1-1.2-2.5-2.1-4.3-2.7-1.8-.6-4-.9-6.6-.9-2.6 0-4.8.3-6.6.9-1.8.6-3.2 1.5-4.3 2.7a9.8 9.8 0 0 0-2.3 4.4c-.5 1.7-.7 3.7-.7 6v37h-1.6v-38.7c0-4.5 1.3-7.9 3.9-10.3 2.6-2.4 6.5-3.6 11.6-3.6 4 0 7.2.7 9.7 2.2 2.5 1.5 4.2 3.6 5.1 6.3.9-2.8 2.6-4.9 5.1-6.3 2.5-1.5 5.7-2.2 9.7-2.2 5.2 0 9 1.2 11.6 3.6 2.6 2.4 3.9 5.8 3.9 10.3v38.7h-1.8zm39.7 0v-25h-27.9v25h-1.6v-38.7c0-4.5 1.3-7.9 3.9-10.3 2.6-2.4 6.5-3.6 11.6-3.6 5.2 0 9 1.2 11.6 3.6 2.6 2.4 3.9 5.8 3.9 10.3v38.7h-1.5zm0-37c0-2.3-.2-4.3-.7-6.1-.5-1.8-1.3-3.2-2.3-4.4-1.1-1.2-2.5-2.1-4.3-2.7-1.8-.6-4-.9-6.6-.9-2.6 0-4.8.3-6.6.9-1.8.6-3.2 1.5-4.3 2.7a9.8 9.8 0 0 0-2.3 4.4c-.5 1.7-.7 3.7-.7 6v10.6h27.9v-10.5zm49.9 24.4c0 2.4-.5 4.5-1.6 6.2-1 1.7-2.4 3.2-4.2 4.3-1.7 1.1-3.7 2-6 2.5s-4.6.8-7.1.8c-3.3 0-6.4-.3-9.3-1-2.9-.7-5.5-1.8-7.6-3.2-2.2-1.5-3.9-3.4-5.1-5.7-1.2-2.3-1.8-5.1-1.8-8.3h1.6c0 3 .6 5.6 1.8 7.8 1.2 2.1 2.8 3.9 4.8 5.2 2 1.3 4.4 2.3 7.1 2.9 2.7.6 5.6.9 8.7.9 2.3 0 4.4-.2 6.5-.7 2.1-.5 3.9-1.2 5.5-2.2 1.6-1 2.9-2.3 3.8-3.9.9-1.6 1.4-3.4 1.4-5.6 0-2.6-.6-4.6-1.9-6.1-1.3-1.5-2.9-2.7-4.8-3.6-2-.9-4.1-1.6-6.5-2-2.4-.5-4.7-1-6.9-1.4-2.4-.5-4.7-1-7-1.5s-4.3-1.3-6.2-2.2c-1.9-.9-3.3-2.2-4.5-3.7-1.1-1.5-1.7-3.5-1.7-6.1 0-2.5.6-4.6 1.7-6.3 1.2-1.7 2.7-3.1 4.5-4.1 1.9-1 4-1.7 6.3-2.2 2.3-.4 4.7-.6 7-.6 2.8 0 5.4.3 7.8.8 2.4.5 4.5 1.4 6.3 2.7 1.8 1.2 3.2 2.9 4.3 4.8 1.1 2 1.7 4.4 1.9 7.3h-1.6c-.1-2.6-.7-4.8-1.6-6.6-1-1.8-2.3-3.3-3.9-4.4-1.6-1.1-3.6-1.9-5.8-2.4-2.3-.5-4.7-.7-7.2-.7-2 0-4.1.2-6.2.6-2.1.4-4.1 1-5.8 1.9-1.7.9-3.2 2.1-4.3 3.6-1.1 1.5-1.7 3.4-1.7 5.7 0 2.3.6 4.1 1.7 5.5 1.2 1.4 2.7 2.5 4.5 3.4 1.9.9 4 1.5 6.3 2l7.2 1.5c2.7.6 5.2 1.1 7.6 1.7 2.4.6 4.5 1.3 6.2 2.3 1.8 1 3.2 2.3 4.2 3.9 1.1 1.4 1.6 3.5 1.6 6.2z"/><path class="st0" d="M393.4 259.6s-17.8.9-18.8-11.8c2.7-7.5 10.1 3.1 10.1 3.1s-5.4-6.8-.7-10.9c4.7-4 9.2 11.9 9.4 19.6z"/><path class="st1" d="M400.2 244.7s21.2-18.5 16.7-46.2m.2-.2s-12.3-13.1-4.9-19.1c6.5-5.2 10 9.2 4.9 19.1z"/><path class="st1" d="M415.9 218.7s-17-5.9-13.2-14.6c3.3-7.7 13.1 3.4 13.2 14.6z"/><path class="st1" d="M415.8 218.2s5.8-17.1 14.6-13.3c7.6 3.3-3.4 13.2-14.6 13.3zm-9.2 19.9s-15.8-8.7-10.5-16.7c4.5-6.9 12.3 5.7 10.5 16.7z"/><path class="st1" d="M406.6 237.7s8.7-15.8 16.6-10.6c7 4.5-5.6 12.4-16.6 10.6zm-34.5 26.6s-24.7 13.6-49.1-.1m-.2.1s-8.1-16.1-16.3-11.2c-7.1 4.4 5.2 12.7 16.3 11.2z"/><path class="st1" d="M342.4 270.2s.3-18-9.2-17.4c-8.4.5-1.3 13.5 9.2 17.4z"/><path class="st1" d="M342 270s-18-.4-17.5 9.2c.4 8.2 13.5 1.2 17.5-9.2zm21.8-1.9s-2.8-17.8-12.1-15.6c-8.1 1.9 1.1 13.6 12.1 15.6z"/><path class="st1" d="M363.4 267.9s-17.8 2.7-15.7 12c1.9 8.2 13.6-1 15.7-12z"/><path class="st0" d="M85.8 257.9s17.8.9 18.8-11.8c-2.7-7.5-10.1 3.1-10.1 3.1s5.4-6.8.7-10.9c-4.6-4.1-9.2 11.8-9.4 19.6z"/><path class="st1" d="M79 242.9s-21.2-18.5-16.7-46.2m-.2-.2s12.3-13.1 4.9-19.1c-6.5-5.2-10 9.2-4.9 19.1z"/><path class="st1" d="M63.3 217s17-5.9 13.2-14.6c-3.3-7.7-13.1 3.4-13.2 14.6z"/><path class="st1" d="M63.4 216.5s-5.8-17.1-14.6-13.3c-7.6 3.3 3.5 13.2 14.6 13.3zm9.3 19.9s15.8-8.7 10.5-16.7c-4.6-6.9-12.4 5.7-10.5 16.7zm-.1-.5s-8.7-15.8-16.6-10.6c-7 4.6 5.6 12.4 16.6 10.6zm34.5 26.7s24.7 13.6 49.1-.1m.3.1s8.1-16.1 16.3-11.2c7.1 4.4-5.3 12.6-16.3 11.2z"/><path class="st1" d="M136.9 268.4s-.3-18 9.2-17.4c8.3.5 1.2 13.6-9.2 17.4z"/><path class="st1" d="M137.3 268.2s18-.4 17.5 9.2c-.5 8.3-13.6 1.3-17.5-9.2zm-21.9-1.9s2.8-17.8 12.1-15.6c8.1 2-1.1 13.6-12.1 15.6z"/><path class="st1" d="M115.9 266.2s17.8 2.7 15.7 12c-2 8.1-13.7-1-15.7-12z"/></svg>