<svg data-name="Camada 1" xmlns="http://www.w3.org/2000/svg" width="356.25" height="233.22" viewBox="0 0 356.25 233.22"><title>logo_ambie</title><path d="M315.89 208.99s-17.76.93-18.8-11.83c2.67-7.46 10.09 3.13 10.09 3.13s-5.44-6.81-.72-10.89 9.26 11.82 9.43 19.59z" fill="#f4a416"/><g fill="none" stroke="#000100" stroke-linecap="round" stroke-linejoin="round" stroke-width="1.62"><path d="M322.7 194.03s21.25-18.5 16.66-46.2m.26-.18s-12.35-13.15-4.91-19.12c6.48-5.21 10.05 9.22 4.91 19.12z"/><path d="M338.39 168.07s-17-5.91-13.22-14.65c3.33-7.63 13.18 3.45 13.22 14.65z"/><path d="M338.33 167.61s5.82-17.07 14.58-13.29c7.65 3.28-3.43 13.19-14.58 13.29zm-9.25 19.91s-15.78-8.74-10.52-16.7c4.58-6.95 12.39 5.69 10.52 16.7z"/><path d="M329.1 187.05s8.65-15.82 16.64-10.61c6.97 4.55-5.63 12.43-16.64 10.61z"/></g><g fill="none" stroke="#000100" stroke-linecap="round" stroke-linejoin="round" stroke-width="1.62"><path d="M294.63 213.68s-24.65 13.65-49.11-.14m-.26.18s-8.13-16.1-16.28-11.16c-7.11 4.31 5.22 12.6 16.28 11.16z"/><path d="M264.87 219.55s.27-18-9.24-17.44c-8.31.52-1.23 13.58 9.24 17.44z"/><path d="M264.46 219.33s-18-.36-17.48 9.16c.48 8.31 13.57 1.29 17.48-9.16zm21.87-1.87s-2.82-17.82-12.09-15.59c-8.09 1.91 1.11 13.57 12.09 15.59z"/><path d="M285.89 217.31s-17.83 2.72-15.66 12c1.89 8.11 13.59-1.04 15.66-12z"/></g><path d="M40.35 208.24s17.77.93 18.81-11.83c-2.67-7.45-10.09 3.14-10.09 3.14s5.43-6.82.72-10.89-9.26 11.81-9.44 19.58z" fill="#f3a315"/><g fill="none" stroke="#000100" stroke-linecap="round" stroke-linejoin="round" stroke-width="1.62"><path d="M33.55 193.28s-21.25-18.5-16.66-46.2m-.26-.21s12.38-13.11 4.91-19.08c-6.53-5.21-10.05 9.21-4.91 19.08z"/><path d="M17.85 167.32s17-5.91 13.23-14.65c-3.33-7.62-13.18 3.5-13.23 14.65z"/><path d="M17.92 166.87s-5.83-17.06-14.58-13.29c-7.65 3.29 3.43 13.18 14.58 13.29zm9.24 19.9s15.78-8.74 10.53-16.69c-4.58-6.95-12.39 5.69-10.53 16.69z"/><path d="M27.15 186.31s-8.66-15.82-16.64-10.61c-6.97 4.55 5.63 12.41 16.64 10.61z"/></g><g fill="none" stroke="#000100" stroke-linecap="round" stroke-linejoin="round" stroke-width="1.62"><path d="M61.62 212.94s24.65 13.64 49.11-.15m.28.18s8.11-16.1 16.26-11.1c7.11 4.26-5.26 12.54-16.26 11.1z"/><path d="M91.38 218.8s-.27-18 9.24-17.43c8.31.5 1.23 13.58-9.24 17.43z"/><path d="M91.79 218.59s18-.37 17.48 9.15c-.48 8.31-13.57 1.29-17.48-9.15zm-21.87-1.88s2.81-17.84 12.09-15.6c8.09 1.92-1.12 13.58-12.09 15.6z"/><path d="M70.36 216.56s17.83 2.72 15.66 12c-1.89 8.11-13.59-1.04-15.66-12z"/></g><path d="M74.87 120.87V74.35h-46v46.52h-2.68V48.81q0-12.49 6.45-19.22t19.22-6.72q12.78 0 19.22 6.71t6.45 19.22v72.07zm0-69a48.51 48.51 0 0 0-1.19-11.3 21 21 0 0 0-3.86-8.25 16.63 16.63 0 0 0-7.12-5.05 30.09 30.09 0 0 0-10.84-1.73 29.94 29.94 0 0 0-10.85 1.73 16.83 16.83 0 0 0-7.12 5.12 20.36 20.36 0 0 0-3.88 8.24 50.17 50.17 0 0 0-1.16 11.24v19.82h46zm114.39 69v-69a47.94 47.94 0 0 0-1.2-11.3 20.9 20.9 0 0 0-3.86-8.25 16.54 16.54 0 0 0-7.11-5.05 35 35 0 0 0-21.75 0 16.83 16.83 0 0 0-7.12 5.12 20.34 20.34 0 0 0-3.85 8.24 49.6 49.6 0 0 0-1.13 11.24v69h-2.66v-69a47.94 47.94 0 0 0-1.2-11.3 20.9 20.9 0 0 0-3.86-8.25 16.54 16.54 0 0 0-7.11-5.05 30.12 30.12 0 0 0-10.84-1.73 30 30 0 0 0-10.91 1.73 16.83 16.83 0 0 0-7.12 5.12 20.34 20.34 0 0 0-3.85 8.24 49.6 49.6 0 0 0-1.13 11.24v69H91.9V48.81q0-12.49 6.45-19.22t19.22-6.72q9.84 0 16 4a20.5 20.5 0 0 1 8.38 11.78 20.46 20.46 0 0 1 8.38-11.78q6.1-4.05 16-4 12.76 0 19.22 6.71T192 48.8v72.07zm70.62-26a25.06 25.06 0 0 1-2.59 11.84 24 24 0 0 1-6.85 8.12 28 28 0 0 1-10 4.65 47.33 47.33 0 0 1-11.81 1.39h-22.35V25.14h23.94a36.14 36.14 0 0 1 10.44 1.46 24.42 24.42 0 0 1 8.52 4.46 20.7 20.7 0 0 1 5.71 7.45 24.56 24.56 0 0 1 2.12 10.44 22.14 22.14 0 0 1-1.53 8.24 22.86 22.86 0 0 1-4.19 6.85 21.27 21.27 0 0 1-6.37 4.83 20.31 20.31 0 0 1-8.05 2.13 24.2 24.2 0 0 1 9.25 2 22.81 22.81 0 0 1 7.25 5.06 23.4 23.4 0 0 1 4.78 7.44 24.6 24.6 0 0 1 1.73 9.37zm-5.58-45.75a22.17 22.17 0 0 0-1.87-9.44 18.58 18.58 0 0 0-5.12-6.65 21.24 21.24 0 0 0-7.64-3.93 34.16 34.16 0 0 0-9.45-1.26h-21.28v41.9h21.28a31.32 31.32 0 0 0 9-1.33 23.6 23.6 0 0 0 7.79-3.97 18.84 18.84 0 0 0 7.32-15.49zm2.92 46a22.6 22.6 0 0 0-2.21-10.33 19.68 19.68 0 0 0-5.92-7 25.94 25.94 0 0 0-8.65-4.05 38.91 38.91 0 0 0-10.24-1.33h-21.26v45.88h20.88a40.15 40.15 0 0 0 10.44-1.42 24.91 24.91 0 0 0 8.78-4.19 20.34 20.34 0 0 0 6-7.24 23 23 0 0 0 2.18-10.34zm14.79 25.75V25.14h2.66v95.73zm17 0V25.14h52v2.66h-49.34v43.89h45.75v2.66h-45.75v43.89h49.88v2.63zm39.37-102.38l-13.7-16.36-13.17 16.36h-2.66l15-18.49h2l15.16 18.49zM80.75 184.35v-25.2H55.84v25.2H54.4v-39q0-6.77 3.49-10.4t10.4-3.64q6.91 0 10.41 3.64t3.49 10.4v39zm0-37.36a26.05 26.05 0 0 0-.65-6.12 11.3 11.3 0 0 0-2.09-4.47 8.9 8.9 0 0 0-3.85-2.73 16.13 16.13 0 0 0-5.87-.94 16 16 0 0 0-5.9.94 9 9 0 0 0-3.85 2.77 10.91 10.91 0 0 0-2.09 4.43 26.9 26.9 0 0 0-.61 6.09v10.72h24.91zm38.26-.94a12.25 12.25 0 0 1-3 8.57 14.72 14.72 0 0 1-8 4.39 14.17 14.17 0 0 1 5.32 1.62 8.49 8.49 0 0 1 3.1 3 11.25 11.25 0 0 1 1.4 4.29 40.56 40.56 0 0 1 .33 5.4v11h-1.44v-11.2a24.62 24.62 0 0 0-.71-6.25 9 9 0 0 0-2.26-4.14 8.82 8.82 0 0 0-4.18-2.23 27.38 27.38 0 0 0-6.48-.65H91.41v24.55h-1.4v-51.89h13.32a27.48 27.48 0 0 1 6.4.69 12.7 12.7 0 0 1 4.94 2.27 10.6 10.6 0 0 1 3.2 4.17 15.77 15.77 0 0 1 1.14 6.41zm-1.44-.5q-.08-5.48-3.31-8.54t-10.58-3.06H91.41v24.41h11.52a20.9 20.9 0 0 0 5.47-.72 13.36 13.36 0 0 0 4.71-2.3 11.23 11.23 0 0 0 3.24-4 12.89 12.89 0 0 0 1.19-5.79zm54.11 12.88a35 35 0 0 1-1.51 10.34 25.76 25.76 0 0 1-4.5 8.64 22.28 22.28 0 0 1-7.41 5.94 24.72 24.72 0 0 1-20.52 0 22.21 22.21 0 0 1-7.42-5.94 25.76 25.76 0 0 1-4.5-8.64 36.12 36.12 0 0 1 0-20.67 25.57 25.57 0 0 1 4.5-8.64 22.21 22.21 0 0 1 7.42-5.94 22.83 22.83 0 0 1 27.93 5.94 25.57 25.57 0 0 1 4.5 8.64 35 35 0 0 1 1.51 10.33zm-1.44 0a33.36 33.36 0 0 0-1.4-9.75 25.07 25.07 0 0 0-4.18-8.21 19.87 19.87 0 0 0-6.94-5.65 23.65 23.65 0 0 0-19.44 0 19.9 19.9 0 0 0-7 5.65 25.07 25.07 0 0 0-4.18 8.21 34.69 34.69 0 0 0 0 19.51 25.07 25.07 0 0 0 4.18 8.21 20 20 0 0 0 7 5.65 23.65 23.65 0 0 0 19.44 0 20 20 0 0 0 6.94-5.65 25.07 25.07 0 0 0 4.18-8.21 33.43 33.43 0 0 0 1.4-9.76zm60.7 25.92v-37.36a26.05 26.05 0 0 0-.65-6.12 11.3 11.3 0 0 0-2.09-4.47 8.9 8.9 0 0 0-3.85-2.73 18.89 18.89 0 0 0-11.77 0 9 9 0 0 0-3.85 2.77 10.91 10.91 0 0 0-2.09 4.46 26.9 26.9 0 0 0-.61 6.09v37.36h-1.44v-37.36a26.05 26.05 0 0 0-.65-6.12 11.3 11.3 0 0 0-2.09-4.47 8.9 8.9 0 0 0-3.84-2.73 18.89 18.89 0 0 0-11.77 0 9 9 0 0 0-3.85 2.77 10.91 10.91 0 0 0-2.09 4.46 26.9 26.9 0 0 0-.61 6.09v37.36h-1.44v-39q0-6.77 3.49-10.4t10.4-3.64a15.34 15.34 0 0 1 8.64 2.2 11.06 11.06 0 0 1 4.53 6.36 11 11 0 0 1 4.53-6.37 15.34 15.34 0 0 1 8.64-2.2q6.92 0 10.41 3.64t3.49 10.4v39zm35.57 0v-25.2h-24.92v25.2h-1.44v-39q0-6.77 3.5-10.4t10.4-3.64q6.91 0 10.41 3.64t3.49 10.4v39zm0-37.36a26.05 26.05 0 0 0-.65-6.12 11.3 11.3 0 0 0-2.09-4.47 8.9 8.9 0 0 0-3.85-2.73 18.89 18.89 0 0 0-11.77 0 9 9 0 0 0-3.85 2.77 10.78 10.78 0 0 0-2.09 4.43 26.87 26.87 0 0 0-.62 6.09v10.72h24.92zm44.64 24.62a13.14 13.14 0 0 1-1.41 6.3 12.5 12.5 0 0 1-3.74 4.32 16.41 16.41 0 0 1-5.37 2.52 23.88 23.88 0 0 1-6.33.83 32.09 32.09 0 0 1-8.32-1.05 19.21 19.21 0 0 1-6.84-3.27 15.39 15.39 0 0 1-4.57-5.73 18.76 18.76 0 0 1-1.58-8.38h1.44a17.65 17.65 0 0 0 1.58 7.84 14.24 14.24 0 0 0 4.28 5.26 18 18 0 0 0 6.34 3 30.63 30.63 0 0 0 7.74.94 23 23 0 0 0 5.8-.72 15.39 15.39 0 0 0 4.93-2.23 11 11 0 0 0 3.42-3.89 12 12 0 0 0 1.26-5.69 10.28 10.28 0 0 0-1.69-6.19 12 12 0 0 0-4.32-3.64 25 25 0 0 0-5.84-2q-3.19-.72-6.15-1.44-3.16-.72-6.23-1.55a23.51 23.51 0 0 1-5.54-2.23 11.41 11.41 0 0 1-4-3.71 11 11 0 0 1-1.51-6.12 12.25 12.25 0 0 1 1.51-6.51 12.1 12.1 0 0 1 4.06-4.14 17.48 17.48 0 0 1 5.66-2.19 30.71 30.71 0 0 1 6.22-.65 28.26 28.26 0 0 1 7 .83 15.2 15.2 0 0 1 5.65 2.7 13.34 13.34 0 0 1 3.85 4.89 19.42 19.42 0 0 1 1.66 7.35h-1.44a16.69 16.69 0 0 0-1.48-6.7 12.26 12.26 0 0 0-3.53-4.43 14 14 0 0 0-5.22-2.44 26.29 26.29 0 0 0-6.48-.76 27.7 27.7 0 0 0-5.58.58 17.51 17.51 0 0 0-5.18 1.9 11.17 11.17 0 0 0-3.85 3.64 10.29 10.29 0 0 0-1.51 5.76 9.29 9.29 0 0 0 1.54 5.58 11.43 11.43 0 0 0 4 3.42 24.37 24.37 0 0 0 5.65 2l6.48 1.55c2.4.58 4.67 1.15 6.8 1.73a20.28 20.28 0 0 1 5.58 2.34 10.92 10.92 0 0 1 3.78 3.89 12.68 12.68 0 0 1 1.48 6.49z" fill="#1d1d1b"/></svg>