<svg data-name="Camada 1" xmlns="http://www.w3.org/2000/svg" viewBox="0 0 198.33 129.63"><g data-name="6"><path d="M146.22 39.77l-.39.08a6.78 6.78 0 0 1-1.13.11 8.5 8.5 0 0 1-1.78-.22 10 10 0 0 1-2.2-.8 15.64 15.64 0 0 1-2.37-1.49 19.53 19.53 0 0 1-2.33-2.09c-.78-.8-1.5-1.62-2.23-2.52s-1.42-1.81-2.09-2.75-1.31-1.88-1.94-2.85-1.22-1.92-1.85-2.85a26.11 26.11 0 0 0-3.91-4.76 15 15 0 0 0-3.59-2.5 12 12 0 0 0-1.16-.51l-.4-.15a.41.41 0 0 0-.19 0 .51.51 0 1 0 0 1 3.2 3.2 0 0 1 .42 0 5.72 5.72 0 0 1 1.11.27 6.87 6.87 0 0 1 1.6.81 11.06 11.06 0 0 1 1.78 1.55 14.89 14.89 0 0 1 1.65 2.25c.53.85 1 1.77 1.54 2.75s1 2 1.62 3a30.47 30.47 0 0 0 2 3 30.68 30.68 0 0 0 2.38 2.69c.82.83 1.7 1.65 2.54 2.35a26.21 26.21 0 0 0 5.12 3.42 18.43 18.43 0 0 0 4.15 1.52c.53.11 1 .2 1.26.24l.46.07a.76.76 0 0 0 .3 0 .822.822 0 0 0-.33-1.61z" fill="#58595b"/><path d="M165.84 31.98a4.73 4.73 0 0 0-1.07-2.43 3.87 3.87 0 0 0-4.12-1.23 4.07 4.07 0 0 0-2.43 1.72 3.31 3.31 0 0 0-.37.81l-.08.31a.89.89 0 0 0 1.77.2 1.25 1.25 0 0 1 .1-.55 2.35 2.35 0 0 1 1.42-1.24 3 3 0 0 1 1.42-.17 2.61 2.61 0 0 1 1.51.85 3.73 3.73 0 0 1 .48 4.15 5.52 5.52 0 0 1-4.33 2.83 14.38 14.38 0 0 1-6.15-1 37.82 37.82 0 0 1-6.38-2.69 42.83 42.83 0 0 1-6-3.94c-1.92-1.48-3.74-3.09-5.53-4.71s-3.54-3.25-5.36-4.74a32.89 32.89 0 0 0-5.63-3.82 19.66 19.66 0 0 0-5.8-2.07 15.9 15.9 0 0 0-5.24 0 13.2 13.2 0 0 0-3.83 1.23 12.18 12.18 0 0 0-2.2 1.46l-.2.19a11.86 11.86 0 0 0-4.17 2.23 13.87 13.87 0 0 0-2.71 3.11c-.57.87-1 1.59-1.24 2.11-.28-.52-.66-1.24-1.23-2.11a14.2 14.2 0 0 0-2.72-3.11 11.9 11.9 0 0 0-4.16-2.23l-.21-.19a12 12 0 0 0-2.19-1.46 13.27 13.27 0 0 0-3.86-1.24 15.84 15.84 0 0 0-5.23 0 19.62 19.62 0 0 0-5.88 2.1 33.69 33.69 0 0 0-5.63 3.82c-1.82 1.49-3.56 3.11-5.35 4.74s-3.62 3.23-5.54 4.71a42.26 42.26 0 0 1-6 3.94 37.82 37.82 0 0 1-6.38 2.69 14.38 14.38 0 0 1-6.15 1 5.56 5.56 0 0 1-4.33-2.83 3.74 3.74 0 0 1 .48-4.15 2.61 2.61 0 0 1 1.51-.85 2.94 2.94 0 0 1 1.42.17 2.35 2.35 0 0 1 1.43 1.27 1.72 1.72 0 0 1 .11.55.89.89 0 1 0 1.76-.2l-.08-.35a3.2 3.2 0 0 0-.36-.81 4.1 4.1 0 0 0-2.46-1.72 3.86 3.86 0 0 0-4.11 1.23 4.65 4.65 0 0 0-1.07 2.43 5 5 0 0 0 0 1.45 5.38 5.38 0 0 0 .43 1.42 7.06 7.06 0 0 0 5 3.79 14.53 14.53 0 0 0 6.93-.63 34.11 34.11 0 0 0 6.72-2.81 45 45 0 0 0 6.24-4.14c2-1.54 3.82-3.2 5.61-4.84s3.51-3.3 5.23-4.77a32.24 32.24 0 0 1 5.29-3.74 18.86 18.86 0 0 1 5.34-2 14.33 14.33 0 0 1 4.79-.2 12.11 12.11 0 0 1 3.55 1l.22.11a11.11 11.11 0 0 0-4.24.42 9.05 9.05 0 0 0-1.6.64 13.37 13.37 0 0 0-1.5.92 15.44 15.44 0 0 0-2.69 2.37A16.6 16.6 0 0 0 75 27.44a12.16 12.16 0 0 0-.43 1.92 6.51 6.51 0 0 0-.11 1 8.45 8.45 0 0 0 0 1 10.74 10.74 0 0 0 .88 4 10.9 10.9 0 0 0 5.78 5.5 14.85 14.85 0 0 0 1.91.67l.91.21c.37.08.65.12 1 .17a13.79 13.79 0 0 0 3.85 0 10.11 10.11 0 0 0 6.29-3.57 7.87 7.87 0 0 0 1.62-6.1 6.35 6.35 0 0 0-2.92-4.34 5.74 5.74 0 0 0-4.09-.77 6.44 6.44 0 0 0-2.61 1.17c-.26.2-.48.4-.62.53l-.17.16a1 1 0 0 0 1.32 1.4 1.1 1.1 0 0 0 .2-.28l.1-.21a2.51 2.51 0 0 1 .28-.47 3.75 3.75 0 0 1 1.76-1.34 4.39 4.39 0 0 1 1.63-.26 4.75 4.75 0 0 1 1.91.57 5.17 5.17 0 0 1 2.55 3.94 6.44 6.44 0 0 1-1.94 5.14 9.17 9.17 0 0 1-5.57 2.42 13.48 13.48 0 0 1-3.31-.04l-.81-.14-.88-.21c-.51-.15-1-.33-1.57-.54a9.37 9.37 0 0 1-4.92-4.42 9.5 9.5 0 0 1-.93-3.29 6.93 6.93 0 0 1 0-.88 4.82 4.82 0 0 1 0-.84 10 10 0 0 1 .29-1.72 15 15 0 0 1 3.3-6 14.36 14.36 0 0 1 2.52-2.3 12.52 12.52 0 0 1 1.36-.84 7.38 7.38 0 0 1 1.42-.59 10.12 10.12 0 0 1 5.69-.06c.2 0 .38.12.56.18l.1.09a.51.51 0 0 0 .46.1 10.63 10.63 0 0 1 3.18 1.86 12.27 12.27 0 0 1 2.4 2.89c.56.91.93 1.67 1.19 2.19l.38.8a.68.68 0 0 0 .72.37.7.7 0 0 0 .73-.37l.38-.8c.26-.52.64-1.28 1.19-2.19a12.27 12.27 0 0 1 2.4-2.89 10.76 10.76 0 0 1 3.18-1.86.51.51 0 0 0 .46-.1l.1-.09c.19-.06.37-.13.56-.18a10.12 10.12 0 0 1 5.69.06 7.73 7.73 0 0 1 1.43.59 11.52 11.52 0 0 1 1.35.84 14.36 14.36 0 0 1 2.48 2.22 15 15 0 0 1 3.3 6 10 10 0 0 1 .29 1.72 4.82 4.82 0 0 1 0 .84 5.47 5.47 0 0 1 0 .88 9.06 9.06 0 0 1-5.85 7.71c-.52.21-1.06.39-1.57.54l-.88.21-.81.14a13.48 13.48 0 0 1-3.29.09 9.11 9.11 0 0 1-5.6-2.37 6.45 6.45 0 0 1-2-5.14 5.17 5.17 0 0 1 2.55-3.94 4.79 4.79 0 0 1 1.91-.57 4.36 4.36 0 0 1 1.63.26 3.84 3.84 0 0 1 1.77 1.34 3 3 0 0 1 .27.47l.1.21a.94.94 0 0 0 .21.28 1 1 0 0 0 1.31-1.4l-.17-.16a7 7 0 0 0-.62-.53 6.44 6.44 0 0 0-2.61-1.17 5.74 5.74 0 0 0-4.09.77 6.38 6.38 0 0 0-2.92 4.34 7.84 7.84 0 0 0 1.66 6.1 10.09 10.09 0 0 0 6.28 3.57 13.79 13.79 0 0 0 3.85 0c.33 0 .61-.09 1-.17l.9-.21a14.34 14.34 0 0 0 1.97-.69 10.87 10.87 0 0 0 5.74-5.6 10.74 10.74 0 0 0 .88-4 6.74 6.74 0 0 0 0-1 8 8 0 0 0-.1-1 13.4 13.4 0 0 0-.44-1.92 16.58 16.58 0 0 0-3.78-6.46 16.21 16.21 0 0 0-2.69-2.37 13.5 13.5 0 0 0-1.51-.92 9.05 9.05 0 0 0-1.6-.64 11.11 11.11 0 0 0-4.24-.42l.23-.11a11.93 11.93 0 0 1 3.55-1 14.35 14.35 0 0 1 4.79.2 18.7 18.7 0 0 1 5.33 2 31.82 31.82 0 0 1 5.29 3.74c1.72 1.47 3.44 3.14 5.23 4.77s3.65 3.3 5.61 4.84a45.61 45.61 0 0 0 6.24 4.14 34.11 34.11 0 0 0 6.72 2.81 14.57 14.57 0 0 0 6.94.63 7.06 7.06 0 0 0 5-3.79 4.73 4.73 0 0 0 .43-1.42 5 5 0 0 0 0-1.36z" fill="#58595b"/><circle cx="135.63" cy="40.79" r="1.13" fill="#58595b"/><circle cx="128.25" cy="34.54" r="1.75" fill="#58595b"/><circle cx="131.63" cy="39.29" r="1" fill="#58595b"/><circle cx="71.06" cy="34.54" r="1.75" fill="#58595b"/><circle cx="67.69" cy="39.29" r="1" fill="#58595b"/><circle cx="63.69" cy="40.79" r="1.12" fill="#58595b"/><path d="M77.56 18.57a6.92 6.92 0 0 1 1.66-.81 5.49 5.49 0 0 1 1.1-.27 3.4 3.4 0 0 1 .43 0 .5.5 0 0 0 .48-.53.51.51 0 0 0-.53-.49.45.45 0 0 0-.19 0s-.13.06-.4.15a12 12 0 0 0-1.16.51 15 15 0 0 0-3.59 2.5 25.68 25.68 0 0 0-3.9 4.76c-.63.93-1.24 1.89-1.86 2.85s-1.26 1.91-1.94 2.85-1.44 1.87-2.14 2.77-1.45 1.72-2.23 2.52a19.53 19.53 0 0 1-2.33 2.09 15.16 15.16 0 0 1-2.37 1.49 9.86 9.86 0 0 1-2.2.8 8.41 8.41 0 0 1-1.77.22 6.8 6.8 0 0 1-1.14-.12l-.39-.08a.822.822 0 0 0-.33 1.61.81.81 0 0 0 .31 0l.46-.07c.29 0 .72-.13 1.26-.24a18.56 18.56 0 0 0 4.14-1.52 25.63 25.63 0 0 0 5.12-3.42 34.48 34.48 0 0 0 2.54-2.35 29.13 29.13 0 0 0 2.38-2.69 30.47 30.47 0 0 0 2-3c.61-1 1.13-2 1.63-3s1-1.9 1.53-2.75a14.92 14.92 0 0 1 1.68-2.23 10.61 10.61 0 0 1 1.75-1.55zm44.18 94.5a6.58 6.58 0 0 1-1.6.82 5.72 5.72 0 0 1-1.11.27h-.42a.51.51 0 0 0 0 1 .59.59 0 0 0 .19-.05l.4-.15c.27-.1.68-.28 1.16-.51a15.62 15.62 0 0 0 3.59-2.5 25.86 25.86 0 0 0 3.91-4.77c.63-.92 1.24-1.88 1.85-2.84s1.26-1.91 1.94-2.85 1.38-1.86 2.09-2.76 1.45-1.72 2.23-2.52a19.43 19.43 0 0 1 2.33-2.08 15.64 15.64 0 0 1 2.37-1.49 9.55 9.55 0 0 1 2.2-.8 7.88 7.88 0 0 1 1.78-.22 6.78 6.78 0 0 1 1.13.11l.39.08a.81.81 0 0 0 1-.63.82.82 0 0 0-.64-1 1 1 0 0 0-.3 0l-.46.08c-.3 0-.73.13-1.26.24a18.32 18.32 0 0 0-4.15 1.51 26.67 26.67 0 0 0-5.12 3.42c-.84.71-1.72 1.52-2.54 2.36a29.29 29.29 0 0 0-2.38 2.69 30.47 30.47 0 0 0-2 3c-.6 1-1.12 2-1.62 3s-1 1.9-1.54 2.74a14.5 14.5 0 0 1-1.67 2.24 11 11 0 0 1-1.75 1.61z" fill="#58595b"/><circle cx="131.63" cy="92.36" r="1" fill="#58595b"/><circle cx="135.63" cy="90.86" r="1.13" fill="#58595b"/><path d="M165.83 98.22a4.88 4.88 0 0 0-.43-1.43 7.07 7.07 0 0 0-5-3.78 14.69 14.69 0 0 0-6.94.62 34.77 34.77 0 0 0-6.72 2.82 44.7 44.7 0 0 0-6.24 4.14c-2 1.54-3.82 3.2-5.61 4.84s-3.51 3.3-5.23 4.77a32.42 32.42 0 0 1-5.29 3.74 18.7 18.7 0 0 1-5.33 2 14.35 14.35 0 0 1-4.79.2 11.93 11.93 0 0 1-3.55-1l-.23-.11a11.11 11.11 0 0 0 4.24-.42 9.05 9.05 0 0 0 1.6-.64 13.5 13.5 0 0 0 1.51-.92 17.45 17.45 0 0 0 6.47-8.83 13.4 13.4 0 0 0 .44-1.92 8 8 0 0 0 .1-1 6.74 6.74 0 0 0 0-1 10.69 10.69 0 0 0-.88-4 10.87 10.87 0 0 0-5.74-5.6 12 12 0 0 0-1.91-.67c-.32-.09-.6-.14-.9-.21s-.66-.13-1-.17a13.07 13.07 0 0 0-3.85 0 10 10 0 0 0-6.28 3.57 7.84 7.84 0 0 0-1.63 6.1 6.34 6.34 0 0 0 2.92 4.33 5.69 5.69 0 0 0 4.09.77 6.31 6.31 0 0 0 2.61-1.16 7 7 0 0 0 .62-.53l.17-.16a1 1 0 0 0-1.31-1.4.94.94 0 0 0-.21.28l-.1.21a3 3 0 0 1-.27.47 3.91 3.91 0 0 1-1.77 1.34 4.17 4.17 0 0 1-1.63.25 4.61 4.61 0 0 1-1.91-.56 5.17 5.17 0 0 1-2.55-3.94 6.45 6.45 0 0 1 2-5.14 9.06 9.06 0 0 1 5.56-2.42 13 13 0 0 1 3.29.09c.27 0 .59.09.81.14s.6.13.88.21a14.61 14.61 0 0 1 1.57.54 9.37 9.37 0 0 1 4.92 4.42 9.23 9.23 0 0 1 .93 3.29 5.35 5.35 0 0 1 0 .87 4.89 4.89 0 0 1 0 .85 10 10 0 0 1-.29 1.72 15 15 0 0 1-3.3 6.05 14.78 14.78 0 0 1-2.48 2.22 11.52 11.52 0 0 1-1.35.84 7.73 7.73 0 0 1-1.43.59 10.21 10.21 0 0 1-5.69.06c-.19 0-.37-.13-.56-.19l-.1-.08a.48.48 0 0 0-.46-.1 10.76 10.76 0 0 1-3.18-1.86 12.1 12.1 0 0 1-2.4-2.9c-.55-.9-.93-1.66-1.19-2.18l-.38-.8a.68.68 0 0 0-.73-.37.66.66 0 0 0-.72.37l-.38.8a24.8 24.8 0 0 1-1.19 2.18 12.1 12.1 0 0 1-2.4 2.9 10.63 10.63 0 0 1-3.18 1.86.48.48 0 0 0-.46.1l-.1.08c-.18.06-.36.14-.56.19a10.21 10.21 0 0 1-5.69-.06 7.38 7.38 0 0 1-1.42-.59 12.52 12.52 0 0 1-1.36-.84 14.78 14.78 0 0 1-2.48-2.22 15 15 0 0 1-3.3-6.05 10 10 0 0 1-.29-1.72 4.89 4.89 0 0 1 0-.85 6.78 6.78 0 0 1 0-.87 9.06 9.06 0 0 1 5.85-7.71 15.4 15.4 0 0 1 1.57-.54c.28-.08.59-.14.88-.21s.55-.1.81-.14a13 13 0 0 1 3.29-.09 9.11 9.11 0 0 1 5.57 2.42 6.44 6.44 0 0 1 1.94 5.14 5.17 5.17 0 0 1-2.55 3.94 4.57 4.57 0 0 1-1.91.56 4.2 4.2 0 0 1-1.63-.25 3.81 3.81 0 0 1-1.76-1.34 2.51 2.51 0 0 1-.28-.47l-.1-.21a1.1 1.1 0 0 0-.2-.28 1 1 0 0 0-1.32 1.4l.17.16c.14.13.36.33.62.53a6.31 6.31 0 0 0 2.61 1.16 5.69 5.69 0 0 0 4.09-.77 6.31 6.31 0 0 0 2.92-4.33 7.87 7.87 0 0 0-1.62-6.1 10.07 10.07 0 0 0-6.29-3.57 13.07 13.07 0 0 0-3.85 0c-.33 0-.61.09-1 .17s-.59.12-.91.21a12.33 12.33 0 0 0-1.91.67 10.9 10.9 0 0 0-5.74 5.6 10.69 10.69 0 0 0-.88 4 8.45 8.45 0 0 0 0 1 6.51 6.51 0 0 0 .11 1 12.16 12.16 0 0 0 .43 1.92 16.6 16.6 0 0 0 3.79 6.46 15.87 15.87 0 0 0 2.69 2.37 13.37 13.37 0 0 0 1.5.92 9.05 9.05 0 0 0 1.6.64 11.11 11.11 0 0 0 4.24.42 2.26 2.26 0 0 0-.22.11 12.11 12.11 0 0 1-3.55 1 14.33 14.33 0 0 1-4.79-.2 18.86 18.86 0 0 1-5.34-2 32.85 32.85 0 0 1-5.29-3.74c-1.72-1.47-3.43-3.14-5.23-4.77s-3.64-3.3-5.61-4.84a44.12 44.12 0 0 0-6.24-4.14 34.77 34.77 0 0 0-6.72-2.82 14.65 14.65 0 0 0-6.93-.62 7.07 7.07 0 0 0-5 3.78 5.57 5.57 0 0 0-.43 1.43 5 5 0 0 0 0 1.45 4.65 4.65 0 0 0 1.07 2.43 4 4 0 0 0 2 1.28 4.16 4.16 0 0 0 2.09 0 4.1 4.1 0 0 0 2.46-1.72 3.09 3.09 0 0 0 .36-.82l.08-.3a.89.89 0 0 0-1.76-.21 1.68 1.68 0 0 1-.11.55 2.32 2.32 0 0 1-1.54 1.19 2.94 2.94 0 0 1-1.42.18 2.61 2.61 0 0 1-1.51-.85 3.74 3.74 0 0 1-.48-4.15 5.53 5.53 0 0 1 4.41-2.83 14.38 14.38 0 0 1 6.15 1 37.82 37.82 0 0 1 6.38 2.69 43.07 43.07 0 0 1 6 3.93c1.92 1.48 3.75 3.1 5.54 4.72s3.53 3.25 5.35 4.74a34.31 34.31 0 0 0 5.58 3.8 19.31 19.31 0 0 0 5.81 2.06 15.6 15.6 0 0 0 5.23 0 13.27 13.27 0 0 0 3.86-1.24 12 12 0 0 0 2.19-1.46l.21-.19a12.23 12.23 0 0 0 4.16-2.23 14.2 14.2 0 0 0 2.72-3.11c.57-.87 1-1.59 1.23-2.12.28.53.67 1.25 1.24 2.12a13.87 13.87 0 0 0 2.71 3.11 12.19 12.19 0 0 0 4.17 2.23l.2.19a12.18 12.18 0 0 0 2.2 1.46 13.2 13.2 0 0 0 3.85 1.24 15.66 15.66 0 0 0 5.24 0 19.35 19.35 0 0 0 5.8-2.06 33.48 33.48 0 0 0 5.63-3.82c1.82-1.49 3.56-3.12 5.36-4.74s3.61-3.24 5.53-4.72a43.66 43.66 0 0 1 6-3.93 37.82 37.82 0 0 1 6.38-2.69 14.38 14.38 0 0 1 6.15-1 5.5 5.5 0 0 1 4.33 2.83 3.73 3.73 0 0 1-.48 4.15 2.61 2.61 0 0 1-1.51.85 3 3 0 0 1-1.42-.18 2.32 2.32 0 0 1-1.39-1.19 1.24 1.24 0 0 1-.1-.55.891.891 0 0 0-1.77.21l.08.3a3.18 3.18 0 0 0 .37.82 4.07 4.07 0 0 0 2.45 1.72 4.19 4.19 0 0 0 2.1 0 4 4 0 0 0 2-1.28 4.73 4.73 0 0 0 1.07-2.43 5 5 0 0 0 .01-1.43z" fill="#58595b"/><circle cx="128.25" cy="97.11" r="1.75" fill="#58595b"/><circle cx="63.69" cy="90.86" r="1.12" fill="#58595b"/><circle cx="71.06" cy="97.11" r="1.75" fill="#58595b"/><path d="M53.05 91.86l.39-.08a6.8 6.8 0 0 1 1.14-.11 7.8 7.8 0 0 1 1.77.22 9.39 9.39 0 0 1 2.2.8 15.16 15.16 0 0 1 2.37 1.49 19.43 19.43 0 0 1 2.33 2.08c.78.8 1.5 1.63 2.23 2.52s1.42 1.82 2.09 2.76 1.31 1.88 1.94 2.85 1.23 1.92 1.86 2.84a25.44 25.44 0 0 0 3.9 4.77 15.62 15.62 0 0 0 3.59 2.5c.48.23.89.41 1.16.51s.4.15.4.15a.67.67 0 0 0 .19.05.51.51 0 0 0 .53-.49.5.5 0 0 0-.48-.53h-.43a5.49 5.49 0 0 1-1.01-.33 6.62 6.62 0 0 1-1.61-.82 10.52 10.52 0 0 1-1.77-1.54 14.53 14.53 0 0 1-1.68-2.24c-.52-.84-1-1.77-1.53-2.74s-1-2-1.63-3a30.47 30.47 0 0 0-2-3 27.88 27.88 0 0 0-2.45-2.66 34.66 34.66 0 0 0-2.54-2.36 26.07 26.07 0 0 0-5.12-3.42 18.45 18.45 0 0 0-4.14-1.51c-.54-.11-1-.2-1.26-.24l-.46-.08a1.09 1.09 0 0 0-.31 0 .82.82 0 0 0 .33 1.6z" fill="#58595b"/><circle cx="67.69" cy="92.36" r="1" fill="#58595b"/><path d="M0 45.45l8.52-.38 9.78-.38 6-.23c2.11-.08 4.34 0 6.67 0h136.37c2.32 0 4.55-.08 6.67 0l6 .23 9.78.38 8.52.37-8.52.37-9.78.38-6 .23c-2.12.1-4.35 0-6.67 0H30.99c-2.33 0-4.56.07-6.67 0l-6-.24-9.8-.32zm0 40l8.52-.38 9.78-.38 6-.23c2.11-.08 4.34 0 6.67 0h136.37c2.32 0 4.55-.08 6.67 0l6 .23 9.78.38 8.52.37-8.52.37-9.78.38-6 .23c-2.12.1-4.35 0-6.67 0H30.99c-2.33 0-4.56.07-6.67 0l-6-.24-9.8-.32z" fill="#58595b"/><path d="M100.22 7.46c.14-.13.38-.18.38-.43a.36.36 0 0 1 .17-.07.84.84 0 0 0 1-.49.48.48 0 0 1 .09-.14c.15-.08.19-.26.34-.34a.28.28 0 0 1 .18 0 .19.19 0 0 1 .16.19 2.77 2.77 0 0 1-1.92 2 2.1 2.1 0 0 0-1.13.75c-.51.67-.93.64-1.35-.08-.08-.12-.1-.29-.29-.38a1.62 1.62 0 0 0-.38 1.08c0 .42-.11.81-.55.94s-.71-.13-.92-.48a.34.34 0 0 0-.35-.2 5 5 0 0 0 .24 1.58c.12.75.1.78-.67.67a2.58 2.58 0 0 0-1.2-.08.27.27 0 0 0 0 .27c.41.75.16 1.21-.69 1.32-.41.05-.83 0-1.25 0a13 13 0 0 0-3.09.45 3.07 3.07 0 0 1-1.17 0c-.78-.1-1.16.17-1.17.77v.25c.73.55 1 1.54 1.9 1.93a2.15 2.15 0 0 0 1.2.13c.5-.06 1.09-.39 1.47.27 0 .5-.23.65-.71.57a10.55 10.55 0 0 1-1.47-.34c.33.21.36.43.14.59s-.39.59-.76.32-.46-.46-.82-.5c-.06 0-.14-.07-.13-.13.12-.6-.37-.59-.72-.76s-.71-.31-.7-.85c0-.33-.45-.41-.66-.67s-.44-.52 0-.75c.12 0 .28-.15.22-.28-.25-.62.27-.76.61-1a1.14 1.14 0 0 0 .53-.63c.13-.41.62-.36.91-.59.49-.15.82-.68 1.38-.67s1.1-.32 1.67-.14a1.14 1.14 0 0 0 .58-.06c.31-.05.62-.18.9.14s.4.06.59-.06c.56-.63.58-.74-.06-1.23-.3-.23-.29-.41-.25-.76s-.3-.57-.55-.79a2 2 0 0 1-.48-.52.28.28 0 0 1 0-.18c.39-.25.5-.43.08-.85a1.6 1.6 0 0 1-.35-2.14c.34-.59.28-1.36.69-1.95a4.07 4.07 0 0 1 .46-.63c.22-.15.38-.44.73-.2s.21-.13.24-.24c.09-.36.25-.49.66-.42a2.29 2.29 0 0 0 1.15-.16.72.72 0 0 1 1 .49c.13.29.12.47.49.34a.32.32 0 0 1 .38.2c.27.7 1.15.86 1.39 1.6.08.25.37.17.58.07a.8.8 0 0 1 .22-.13c.08 1.14.7 2.15.78 3.29.19.02.11.22.28.11z" fill="#fba094"/><path d="M108.54 5.58l.08.12a3.51 3.51 0 0 1 .81 2.6 4.24 4.24 0 0 1-1.57 3.43 6.92 6.92 0 0 1-1.86 1.3c-.17.06-.42.09-.43.32s.33.1.38.3a1.38 1.38 0 0 0 .57.37 3.41 3.41 0 0 1 .93.76c.17.2.43.31.56.56s.11.13.2.15a3.6 3.6 0 0 1 1.41 1.7l.14.4a3.47 3.47 0 0 1-.85 3.67 3.32 3.32 0 0 1-2.38.73 4.83 4.83 0 0 1-2.65-.86c-.21-.19-.5-.27-.72-.44-.2-.14-.42-.24-.61-.4s-.31 0-.38-.22c-.22-.12-.5-.34-.38.2 0 .15.08.29.12.43a2.08 2.08 0 0 1 .21.89c0 .22 0 .44.08.66a3.92 3.92 0 0 1-.23 2.55 5.1 5.1 0 0 1-.61 1.24c-.33.14-.32-.12-.36-.31a.48.48 0 0 1 0-.2c.18-.3.46-.56.35-1-.08-.13 0-.22.08-.29a3.78 3.78 0 0 0 .17-2.37 10 10 0 0 1-.75-2.34c-.08-.44.09-.56.49-.49a1.67 1.67 0 0 1 .6.25c.74.46 1.5.9 2.26 1.33a3.54 3.54 0 0 0 .77.34.54.54 0 0 1 .16.1 3.07 3.07 0 0 0 3.8-1 2.58 2.58 0 0 0-.32-3 .53.53 0 0 1-.14-.12 2.31 2.31 0 0 0-.85-1.19 10.82 10.82 0 0 0-2.82-2 .52.52 0 0 1-.22-.24.39.39 0 0 1 0-.18c0-.31.29-.38.5-.52a3.42 3.42 0 0 0 1.77-1.11 1.38 1.38 0 0 0 1-.9.53.53 0 0 1 .12-.14 2.82 2.82 0 0 0 .77-1.31 1.16 1.16 0 0 1 0-.18 3.28 3.28 0 0 0-.37-2.54 2.72 2.72 0 0 0-.11-.25 1.44 1.44 0 0 0-.5-.69l-.14-.13c-.14-.23-.45-.32-.49-.64s.19-.24.37-.21a2.66 2.66 0 0 1 1.04.87z" fill="#fa8e80"/><path d="M99.3 4.01l-.06.25a.26.26 0 0 1-.36-.07 20.61 20.61 0 0 0-1.55-1.55 3.41 3.41 0 0 0-2.22-1.31 4 4 0 0 0-1.86.33A7 7 0 0 0 91.69 3a4.39 4.39 0 0 0-.53 1.59 5 5 0 0 0 .34 3.1 1.71 1.71 0 0 1 .13.44.69.69 0 0 0 .28.5c.61.62.55 1.65 1.38 2.16.16.1-.07.52-.22.76a10.36 10.36 0 0 0-3.24-.06 16.76 16.76 0 0 0-2.43.66c-.59 0-1 .5-1.46.7-.72.3-.74 1-.88 1.6a1.09 1.09 0 0 1 0 .17 1.09 1.09 0 0 0 0 .85 1.26 1.26 0 0 1 0 .58c-.07.12-.13.26-.31.15a2.06 2.06 0 0 1-.23-1.27 3.44 3.44 0 0 1 .3-1.33 3.2 3.2 0 0 1 2-1.85 12.8 12.8 0 0 1 5.94-.78 15 15 0 0 1-2.16-4.11 4.84 4.84 0 0 1-.14-1.93 4.32 4.32 0 0 1 1.37-3.07 3.31 3.31 0 0 1 1.29-.79l.41-.2a3.52 3.52 0 0 1 4.18 1.23l.41.48a5.07 5.07 0 0 1 1.1 1.18z" fill="#fa9082"/><path d="M101.12 25.65c.06.14.11.29.16.44a1.43 1.43 0 0 1-.87.88c-1.56.79-2.94.27-4.27-.61a2.85 2.85 0 0 1-.49-.43l-.34-.35a4.92 4.92 0 0 1-1.23-3.53c-.13-.23.12-.46 0-.68-.08-.63.31-1.2.26-1.84-.11-.42.21-.79.13-1.21 0-.14-.13-.16-.25-.16a5.7 5.7 0 0 1-.9.33l-1.31.52a8.37 8.37 0 0 1-2.76.42c-.24 0-.46-.08-.69-.06a.32.32 0 0 1-.19-.05c-.32-.13-.66-.15-1-.26s-.57-.07-.72-.37a.23.23 0 0 1 .13-.26.48.48 0 0 1 .49 0 2.16 2.16 0 0 0 1.35.33 1.54 1.54 0 0 1 .3 0 4.34 4.34 0 0 0 2.39-.22 21.58 21.58 0 0 0 2.91-1.02c.29-.14.57-.25.86 0s.2.55.12.85a15.14 15.14 0 0 0-.38 3.8 5.56 5.56 0 0 0 .61 2.06 2.17 2.17 0 0 1 .13.5c0 .67.62.87 1 1.19a3.47 3.47 0 0 0 .89.54l.16.08a1.77 1.77 0 0 0 1.49.06h.19c.35.05.64 0 .71-.42a.21.21 0 0 1 .29-.09c.42.18.34-.34.58-.41a.18.18 0 0 1 .25-.03z" fill="#fa8f81"/><path d="M107.56 4.75c-.17 0-.31 0-.36.21-.52.07-.93-.25-1.39-.39a3.06 3.06 0 0 0-2.35.52c-.64-.08-.84.09-1.22.93-.2 0-.22.23-.35.33-.35.26-.51.82-1.1.7h-.15c-.13-.13 0-.28 0-.41.22-.06.31-.26.46-.39.31-.34.43-.82.83-1.09a3.13 3.13 0 0 1 1.79-1.23l.25-.1a4 4 0 0 1 3.37.63c.04.1.27.07.22.29z" fill="#fb9386"/><path d="M86.88 18.56l-.16.11c-.37 0-.59-.27-.83-.49a4.46 4.46 0 0 1-1.23-2 .29.29 0 0 0 .23-.24c.54.09.58.62.83 1 .09.13.11.33.2.48a.56.56 0 0 0 .37.32 1.12 1.12 0 0 1 .2.18c.1.21.64.2.39.64z" fill="#fa9183"/><path d="M106.53 21.97a5.33 5.33 0 0 0 2-.55 3.09 3.09 0 0 0 1.33-3c0-.29-.06-.57-.09-.85a3.24 3.24 0 0 1-.45 3.37 2.67 2.67 0 0 1-2.79 1.03zm-6.12 5a4.83 4.83 0 0 0 .87-.88 5.92 5.92 0 0 0 1-3.84c.32.23.22.57.19.85a5.2 5.2 0 0 1-1.5 3.65c-.2.11-.33.29-.56.22zm-4.75-1.04a10 10 0 0 0 2 1.14 4.22 4.22 0 0 0 2.74-.1 2.06 2.06 0 0 1-1.9.45 4.06 4.06 0 0 1-2.84-1.49zM97.7 2.07A3.84 3.84 0 0 0 93.52.86c.98-.85 3.77-.07 4.18 1.21zm-3.61 19.98a6.62 6.62 0 0 0 1.23 3.53 3.85 3.85 0 0 1-1.23-3.53zm11.86-8.41a1.44 1.44 0 0 1-.69-.46 7.57 7.57 0 0 0 2.6-1.46 3.72 3.72 0 0 1-1.82 1.36c-.46.18-.24.34-.09.56zm1.9-1.92a5.25 5.25 0 0 0 1.57-3.43c.07 1.41-.5 2.97-1.57 3.43zM91.83 1.86a6.19 6.19 0 0 0-1.36 3 3.52 3.52 0 0 1 1.36-3zm15.48 2.59a5.2 5.2 0 0 0-3.37-.63 3.31 3.31 0 0 1 3.37.63zM85.89 18.18l.83.49a1.11 1.11 0 0 0 .71.3c.31.23.73.11 1 .36h.13c.2-.07.39 0 .58.08l.06.07a4.27 4.27 0 0 1-3.31-1.3zm3.4 1.2a15.11 15.11 0 0 0 2.76-.35 5.13 5.13 0 0 1-2.81.47q-.02-.12.05-.12zM109.43 8.3a5.44 5.44 0 0 0-.81-2.6c.56.13.56.69.71 1.07a2.42 2.42 0 0 1 .1 1.53z" fill="#feebeb"/><path d="M103.89 21.11a8.85 8.85 0 0 0 2.65.86 3.38 3.38 0 0 1-2.65-.86zm-.2-17.19a7.12 7.12 0 0 0-1.79 1.23 2 2 0 0 1 1.79-1.23zm5.93 13.25a9.19 9.19 0 0 0-1.4-1.7c.68.39 1.31.81 1.4 1.7zM90.46 4.86c.05.65.09 1.29.14 1.93a2.41 2.41 0 0 1-.14-1.93zm17.1-.11l-.25-.3a1.79 1.79 0 0 1 1.23 1.13z" fill="#feebeb"/><path d="M101.91 5.14l-.81 1.17a.19.19 0 0 1-.27-.05c.49-.25.51-.95 1.08-1.12zm-2.69-1.38l-1.1-1.21a1.92 1.92 0 0 1 1.1 1.21zm2.72 16.94c-.26-.27-.21-.66-.5-1.05a1.15 1.15 0 0 1 .76.42c-.67-.03-.04.48-.26.63zM93.11 1.04l-1.29.82a1.54 1.54 0 0 1 1.29-.82zm1.26 18.5a8.09 8.09 0 0 1-.26 1.84c-.17-.65.19-1.22.26-1.84zm13.08-4.77a3.41 3.41 0 0 1-.93-.76 1.21 1.21 0 0 1 .93.76z" fill="#feebeb"/><path d="M84.73 13.6l-.3 1.33a1.75 1.75 0 0 1 .3-1.33z" fill="#fa9183"/><path d="M93.36 18.51a1.65 1.65 0 0 1 .9-.33 1 1 0 0 1-.9.33zm1.15-.17a2.76 2.76 0 0 1-.13 1.21c-.16-.43.09-.8.13-1.21zm7.64 3.25a2.52 2.52 0 0 1-.21-.89.78.78 0 0 1 .21.89zm5.86-6.27c-.21-.17-.47-.29-.56-.56.27.1.52.22.56.56zm-4.79 5.36a1.06 1.06 0 0 1 .72.44 1.06 1.06 0 0 1-.72-.44zm-3-13.22c-.09.11-.16.36-.3.26s.14-.25.12-.42z" fill="#feebeb"/><path d="M100.83 6.26l.27.05a.41.41 0 0 1-.48.31z" fill="#fdcfc9"/><path d="M102.58 20.29a.91.91 0 0 1 .61.4.75.75 0 0 1-.61-.4zm-8.48 1.09a1 1 0 0 1 0 .68c-.21-.2-.02-.46 0-.68z" fill="#feebeb"/><path d="M91.22 17.36c-.38-.48-.88-.2-1.29-.13a1.7 1.7 0 0 1-1.58-.31c-.29-.25-.68-.36-.88-.76-.09-.17-.57-.1-.26-.54.1-.15-.18-.25-.35-.31s-.55-.27-.43-.37c.33-.3-.07-.86.42-1a1.8 1.8 0 0 1 1-.14 4.85 4.85 0 0 0 2.21-.22 6.14 6.14 0 0 1 1.68-.19 8.94 8.94 0 0 0 2-.08.56.56 0 0 0 .3-1c-.22-.2-.32-.42-.23-.62s.35 0 .5 0 .52.09.74.07.59.28.79.11-.14-.48-.13-.77a3.79 3.79 0 0 0-.23-1.14c-.06-.22-.11-.4.12-.51a.38.38 0 0 1 .5.19c.2.35.37.79.86.62s.44-.66.41-1.07.33-.67.41-1.06c0-.2.25-.09.34.06s.19.44.31.65c.27.44.76.44.93 0a1.54 1.54 0 0 1 1.24-.88c.94-.18 1.28-.87 1.73-1.5a3.07 3.07 0 0 0 .23-.39c0-.12 0-.18.13-.24.25-.14.53-.21.7-.47a.4.4 0 0 1 .52-.16c.14.06.32.14.44 0 .5-.44.83-.12 1.17.22s.39.36.65.06a.81.81 0 0 1 .54-.21c.28 0 .49.19.36.4-.49.75.22 1.17.45 1.68.16.33.34.59.21 1 0 .14-.12.31.17.38a.29.29 0 0 1 .11.54c-.34.24-.46.66-.71.86a10.48 10.48 0 0 1-1.07.93 1.85 1.85 0 0 0-.59.52c0 .07-.12.19-.18.18-.77-.09-1.1.6-1.68.95.22.31.55.62.21 1.07a.23.23 0 0 0 0 .3c.29.21.44.41.12.72-.09.09 0 .21.1.27s.14-.09.19-.17c.24-.35.55-.27.66 0a.88.88 0 0 0 .9.61h.07c.28.1.43.42.29.56-.42.4.41.41.18.75a1 1 0 0 1-.93.49 3.07 3.07 0 0 0-.52-.06c-.17 0 0 .12 0 .18.24.22.35.56.63.73s.37.35.64.18a2.64 2.64 0 0 1 .84-.58c0-.27-.2-.23-.33-.27-.38-.13-.43-.37-.3-.72s.44-.35.69-.23.68.61 1.21.48c.14 0 .18.16.19.3a11.23 11.23 0 0 1-.28 2.59c-.06.34-.33.45-.66.28-.14-.07-.24-.2-.4-.18s-.13.06-.06 0c.23.15.18.32 0 .5-.65.13-1.3 0-2 0-.19 0-.84.1-.51-.55.06-.13-.15-.31-.4-.23-1 .3-1.64-.41-2.31-1-.23-.19-.49-.52-.78-.22s-1 .23-.74 1a3.65 3.65 0 0 1 .2 2.12.29.29 0 0 0 0 .26c.49.56.2 1-.29 1.28.23.3.82.57 0 .84.25.88-.45 1.24-.92 1.74-.16.16-.31.4-.53.3-.41-.2-.71.09-1.06.14a.26.26 0 0 1-.17-.07c-.08-.61-.31-1.09-1-1.18a.66.66 0 0 1-.53-.44c-.08-.17-.15-.37-.36-.44a.39.39 0 0 1-.3-.55c.09-.31-.13-.55-.24-.8a5.25 5.25 0 0 1-.42-2.17c0-.18 0-.41.19-.46.54-.13.41-.33.15-.65s-.56-.55.14-.57a.13.13 0 0 0 .1-.07 5.58 5.58 0 0 0-.21-1.4 1.61 1.61 0 0 0-1.42-.26 11.62 11.62 0 0 1-2.09.52c-.23.21-.38-.03-.5-.29z" fill="#fba296"/><path d="M91.22 17.36a1.26 1.26 0 0 0 1.66 0s.12-.13.14-.12c.72.33 1.44-.6 2.2 0 .26.21.53.3.48.7a4.17 4.17 0 0 0 0 .79c0 .18.32.33.12.51s-.38-.15-.6-.11c0 .31.31.42.46.63s.35.58-.21.56c-.32 0-.34.11-.33.38a4.74 4.74 0 0 0 .76 2.7c.12.18 0 .21-.07.3s-.14.35 0 .34c.46 0 .5.37.6.61a.44.44 0 0 0 .48.32c.72-.13.69.6 1 .88 0 0-.08.27-.12.42-.4-.31-1 0-1.35-.48s-1-.47-1.16-1a2.17 2.17 0 0 0-.5-1.14 1.28 1.28 0 0 1-.28-.91c.18-.83-.11-1.64.11-2.49s.19-1.51.4-2.26c.11-.41-.29-.57-.75-.36-.84.38-1.69.74-2.53 1.1a1.26 1.26 0 0 1-.39 0 23.09 23.09 0 0 1-2.49.26l-.26-.06a6.91 6.91 0 0 1-2.33-1.05l-.1-.16c-.11-.1-.25-.12-.36-.21-.41-.48-.51-1.16-1-1.58a.83.83 0 0 1 0-.54c0-.27-.21-.55 0-.81a.5.5 0 0 0 0-.12 3.16 3.16 0 0 1 1-1.82c.53-.13.85-.75 1.49-.62.31-.08.48 0 .46.37s-.38.17-.53.33-.28.1-.28.12c.11.61-.45.66-.75.92s-.75.3-.3.86c.13.17-.44.29-.75.51.47.16.49.8 1.07.76 0 0 .1.09.1.13-.21 1 .42 1 1.11 1 .38 0 .18.39.17.58s-.1.4.26.27.34.17.43.3c.21.32.35.45.56 0 .07-.12.41 0 .35-.29s-.35-.06-.58-.22c.71-.33 1.3 0 1.89.12.51.08.66-.03.72-.42z" fill="#fb9d91"/><path d="M91.63 8.13a4.76 4.76 0 0 1-.72-2.58 9.13 9.13 0 0 1 .44-2.35 1.66 1.66 0 0 1 .82-1c.29-.16.56-.25.69-.59.06-.16.23-.05.36-.05a.36.36 0 0 1-.22.53 1.24 1.24 0 0 0-.4.42 3.53 3.53 0 0 0-.88 2c0 .14-.12.27-.17.41-.15.42-.4.78-.21 1.29a2.16 2.16 0 0 0 .77 1.08c.31.21.33.47-.09.59a.59.59 0 0 0-.39.25z" fill="#fb9b8e"/><path d="M92.6 2.53c0-.45.62-.49.62-1a3 3 0 0 1 3.24.08c1.06.75 1.77 1.83 2.78 2.6-.51.32-.93.23-1-.37-.07-.44-.48-.46-.69-.68s-.48-.29-.52-.67c0-.21-.31-.21-.5-.09-.39.23-.48-.27-.45-.3.31-.32 0-.22-.15-.29a2.1 2.1 0 0 0-1.48-.08s-.09.08-.1.07c-.7-.44-.65.15-.8.55s-.23.25-.43 0-.12-.11-.52.18z" fill="#fb9c8f"/><path d="M87.84 12.42c-.12-.17-.21-.37-.46-.37a10.79 10.79 0 0 1 3.37-.81c.71-.09 1.39.16 2.09.07 0 0 .13.15.19.24a.08.08 0 0 1 0 .09c-.31.26-.61.44-.88-.05 0-.06-.17-.14-.21-.12-.55.34-1.16.06-1.73.19a9.63 9.63 0 0 1-1.29.21c-.47.07-.58.7-1.08.55z" fill="#fb998d"/><path d="M93 11.68v-.13c.2-.46 0-.69-.29-1.09-.43-.68-.81-1.43-1.2-2.17 0 0 .06-.11.09-.16.21.41 1 .33.89 1v.06c.12.2.38-.48.42.05 0 .18-.18.38-.27.58v.16c.54 0 .48.8 1 .81-.32.16-.24.73-.64.89zm9.65-5.7l-.16.1-.25-.06c-.17-.53.27-.75.53-1s.44-.09.63.08c0 .26-.23.31-.38.4s-.42.17-.37.48zm-1.86 1.07c.27-.1.55-.19.67-.51a.36.36 0 0 1 .43-.19c-.02.59-.46.87-1.1.7z" fill="#fb9b8e"/><path d="M101.89 6.35c0-.19.08-.38.35-.33-.15.08-.02.41-.35.33z" fill="#fb9b8e"/><path d="M102.65 5.98c-.23-.7.47-.64.75-.92a1.48 1.48 0 0 1 1.47-.65 6.29 6.29 0 0 0 1 0 .63.63 0 0 0 .62.54 2.59 2.59 0 0 1 1.3.56c.28.22.33.61.63.81l.1.16a2.51 2.51 0 0 0 .2 1.38.86.86 0 0 1 0 1c-.25.27.08.29.15.43a.29.29 0 0 1-.17.32c-.49.21-.5.71-.69 1.11-.4.27-.56.78-1 1-.15.64-.74.78-1.22 1a3.16 3.16 0 0 1-.54.2c-.25 0-.65-.08-.5.43 0 .18-.12.27-.18.47a1 1 0 0 1 .9.27 5.38 5.38 0 0 0 1.65 1.11c.27.09.62.23.68.62s.6.73.89 1.11a2.93 2.93 0 0 1 .54 2.41c0 .2.2.51-.07.59-.65.21-.88 1.16-1.75 1-.09-.1-.16-.2-.06-.34.13-.44-.15-.46-.49-.44.33-.12.63-.27.94 0s.48 0 .48-.21c0-.8.31-1.54.25-2.36 0-.37-.08-.45-.36-.3s-.48 0-.62-.27a.65.65 0 0 0-.69-.28c-.16 0-.19.17-.21.3s.05.56.38.42.38.2.44.35-.08.34-.32.31-.44.4-.72.51c-.28-.49-.28-.49-.93-.8a1.55 1.55 0 0 0-.48-.19c-.12-.13-.42-.22-.35-.42s.33 0 .5 0a2.09 2.09 0 0 1 .51.07.67.67 0 0 0 .74-.41c.09-.34-.34-.29-.56-.4.14-.15.48-.06.41-.41s-.23-.3-.47-.31-.77-.07-.77-.6c0-.19-.12-.26-.3-.26s-.21.06-.18.14c.12.3 0 .34-.28.35s-.32-.21-.4-.37.15-.29.3-.39l.12-.09c-.49-.21-.84-.45-.31-1 .22-.23-.06-.32-.2-.44s-.31-.31-.27-.5.28-.09.44-.09.39-.1.35-.3c-.11-.7.39-.55.69-.45s.4-.09.57-.25a7 7 0 0 1 1.54-1.28c.21-.11.44-.21.18-.47s0-.17.11-.21.33-.13.47-.22.23-.18.17-.32a.23.23 0 0 0-.32-.13c-.16.06-.21 0-.17-.16.36-1-.5-1.58-.84-2.33-.11-.24-.27-.37.12-.45.18 0 .21-.22.13-.37s-.22-.12-.33 0c-.65.61-1.13.3-1.57-.28-.45.25-1 .15-1.43.29-.35-.02-.67.29-.97.41z" fill="#fb9e92"/><path d="M107.27 20.52l.07.29c.29.44-.15.45-.34.45a17.34 17.34 0 0 1-1.9-.14 2.1 2.1 0 0 0-.87-.33c-1.09-.46-2-1.34-3.27-1.69a23.94 23.94 0 0 0 .87 2.78 17.38 17.38 0 0 1-.16 2.29.32.32 0 0 1-.13.22c-.1 0-.11.06 0 .13 0 .39-.32.64-.36 1v.13l-.15.1c-.28 0-.41.29-.63.4a.28.28 0 0 0-.29.07c0 .52-.56.28-.79.5h-.12c-.53-.13-1.09.23-1.61-.08 0-.32.35-.15.47-.3.35-.12.57-.76 1.08-.21.11.13.29-.08.39-.24s.11-.68.69-.59c.19 0 .28-.59.17-1s.09-.54.51-.36c-.05-.38-.36-.43-.6-.55.09-.25.36-.27.48-.45s.47-.38 0-.65-.1-.69 0-1a4 4 0 0 0-.31-1.79c-.12-.44 0-.6.32-.74a2.67 2.67 0 0 0 .36-.14c.22-.09.19-.71.64-.31.22.19.57.17.7.54s.68.34 1 .61a.7.7 0 0 0 1 .11.76.76 0 0 1 .73.29c.38.47-.39.11-.34.45.74.22 1.59-.07 2.39.21z" fill="#fb9d91"/><path d="M105.1 21.12a3.13 3.13 0 0 1 1.58 0c.28 0 .61.18.66-.3a1.23 1.23 0 0 0 1-.59.69.69 0 0 1 .61-.41 5.51 5.51 0 0 0-.37-2.91c.6 0 .74.52.87.91a3 3 0 0 1-2.35 3.67c-.62.12-1.15-.28-1.74 0-.14-.01-.22-.21-.26-.37z" fill="#fb988a"/><path d="M107.62 15.86c.06-.31-.22-.4-.39-.45a5.27 5.27 0 0 1-2.21-1.51h-.16c-.18.17-.41.3-.55 0s.25-.38.36-.59c.59.45 1.29.69 1.86 1.19.42.38.87.74 1.28 1.13.05.23.03.29-.19.23z" fill="#fb998c"/><path d="M108.82 9.24c-.12-.14-.36.22-.46-.14s0-.25.18-.39a.85.85 0 0 0 0-1.06 1 1 0 0 1 0-1.19 3.4 3.4 0 0 1 .55 2.13 1.06 1.06 0 0 1-.27.65zm-1.06-3.75a9.88 9.88 0 0 1-1.65-.6c-.06 0-.1-.09-.16-.11-.39-.09-.39-.09-.11-.39l1.36.57a.81.81 0 0 1 .56.53z" fill="#fb9a8d"/><path d="M107.62 15.86c.12 0 .16-.13.19-.23a1.5 1.5 0 0 1 .8 1.26 1.21 1.21 0 0 1-.99-1.03z" fill="#fb988a"/><path d="M107.96 10.67c-.23-.79.39-1.06.86-1.43a1.57 1.57 0 0 1-.86 1.43z" fill="#fb9a8d"/><path d="M101.54 24.39a19.29 19.29 0 0 1 .29-2.51 6.68 6.68 0 0 1 0 2.4c-.03.13-.18.12-.29.11z" fill="#fb9689"/><path d="M106.93 11.66c.33-.35.43-.93 1-1-.09.57-.27 1.07-1 1z" fill="#fb9a8d"/><path d="M101.15 25.52c-.17-.06-.3-.23-.13-.33s.29-.48.49-.67a.72.72 0 0 1-.36 1z" fill="#fb9689"/><path d="M108.39 6.3c-.63.06-.36-.58-.63-.81a.89.89 0 0 1 .63.81z" fill="#fb9a8d"/><path d="M104.67 13.32l-.22-.47c.27-.2.49 0 .72 0-.16.19-.46.18-.5.47z" fill="#fb998c"/><path d="M104.22 20.79a.7.7 0 0 1 .87.33 1.56 1.56 0 0 1-.87-.33z" fill="#fb988a"/><path d="M85.89 12.67v.37c-.6.3-.61 1-.9 1.45a1.88 1.88 0 0 1 .9-1.82zm-.97 1.94c-.18.26.21.55 0 .81-.2-.28-.34-.56 0-.81z" fill="#fa9183"/><path d="M98 26.31c0 .28-.34.15-.47.3-.87-.43-1.83-.76-2.16-1.83.12.11.65-.27.38.32a.13.13 0 0 0 .13.17c.53-.13.64.36.92.6.08.07.15.23.24.16.4-.28.58.11.84.25z" fill="#fb978a"/><path d="M86.35 17.91c.3 0 .57 0 .77.29a.72.72 0 0 0 .73.34 1 1 0 0 1 .83.42c-.51 0-1 .08-1.43-.38-.1-.12-.25 0-.37 0 .06-.43-.55-.3-.53-.67zm2.59 1.11c0-.47.35-.33.54-.27a2.46 2.46 0 0 0 1.75-.18c.22-.09.2.07.2.19a4.1 4.1 0 0 1-2.49.26z" fill="#fb9588"/><path d="M97.53 26.61c.53.14 1.09-.32 1.61.08a1.45 1.45 0 0 1-1.61-.08z" fill="#fb978a"/><path d="M99.22 26.72c.08-.46.66-.12.79-.5.06.52-.08.64-.79.5zm1.12-.57c0-.37.26-.51.63-.4a5.75 5.75 0 0 1-.44.54c-.14.13-.21.04-.19-.14z" fill="#fb9689"/><path d="M88.47 19.33a2 2 0 0 1-1-.36c.31.11.75.03 1 .36zm.82.05a.24.24 0 0 0-.06.09l-.63-.12c.24-.17.46 0 .69.03zm-3.4-1.84c.2-.07.33 0 .36.21-.2.11-.33.01-.36-.21z" fill="#fb9588"/><path d="M97.06 15.02c-.84-.19-1.37-.8-1.24-1.42a1.72 1.72 0 0 1 1.88-1.28 1.55 1.55 0 0 1 1.12 1.76 1.37 1.37 0 0 1-1.76.94z" fill="#fff6eb"/><path d="M104.94 17.57c.4-.34.63.23 1 .18.67-.09.11.59.37.81-.46.19-.72-.16-1-.4a3.63 3.63 0 0 1-.37-.59z" fill="#fb998c"/><path d="M106.88 16.14c0 .06-.08.13-.12.14s-.14-.07-.12-.16.08-.1.12-.1.08.07.12.12z" fill="#fba296"/><path d="M103.13 12.96l2.43.54a5.76 5.76 0 0 1 2.46 1.28c.51.44 1 .92 1.45 1.39a.91.91 0 0 1 .28.82 4.12 4.12 0 0 0 0 .93 1.93 1.93 0 0 1-.52 1.85c-.31.27-.52.65-.81.93a1.85 1.85 0 0 1-1.57.48c-.5-.06-1-.18-1.5-.29a1 1 0 0 1-.4-.13 11.34 11.34 0 0 0-2.56-1c-.31-.13-.62-.29-1-.44a10.78 10.78 0 0 1 .41 1 7 7 0 0 1-.06 4.13 2.59 2.59 0 0 1-.31.65c-.36.53-.72 1.05-1.13 1.55a.75.75 0 0 1-.55.25 12.69 12.69 0 0 1-3.66-.75 2.53 2.53 0 0 1-1.65-2.05c-.14-1-.33-2-.48-3.06a5.31 5.31 0 0 1 .92-4.38.13.13 0 0 0 0-.14 6 6 0 0 1-.72.62c-.55.37-1.16.65-1.68 1.05-1 .83-2.28.73-3.46.91a5.07 5.07 0 0 1-1.94 0 2 2 0 0 1-1-.58 7.26 7.26 0 0 1-1.54-2.35 14 14 0 0 0-.65-1.31.9.9 0 0 1-.12-.53 4.15 4.15 0 0 1 1.45-2.18 7 7 0 0 1 5.57-1.63l.91.07a3.49 3.49 0 0 1 1.69.52 1.67 1.67 0 0 0 .45.2c-.26-.24-.52-.45-.76-.7a8.75 8.75 0 0 1-2-3.26q-.12-.33-.27-.66a5.4 5.4 0 0 1-.13-4.63A2.07 2.07 0 0 1 92.17.94c.55-.13 1.12-.23 1.67-.38a1.82 1.82 0 0 0 .51-.28 1.4 1.4 0 0 1 1.77.07 4.68 4.68 0 0 1 1 1.09 15.68 15.68 0 0 0 1.4 1.54 3.13 3.13 0 0 1 .85 1.79c.14.89.28 1.79.42 2.71.18-.23.41-.49.59-.77a13.06 13.06 0 0 1 2.61-2.85l.3-.25c.9-.83 1.44-.69 2.41-.19a16.11 16.11 0 0 1 2.14 1.63 5.62 5.62 0 0 1 .8.74.92.92 0 0 1 .16.48c0 .29 0 .59.4.7 0 0 .1.14.1.21a5.63 5.63 0 0 1-1.5 3.55 7 7 0 0 1-3.58 1.93zm-6.21-2.16v-.18a8.53 8.53 0 0 1 .46-2.65c.33-1 .68-2 1-3.07a2 2 0 0 0-.49-2.26 4.36 4.36 0 0 1-.92-1A4.18 4.18 0 0 0 95.81.43a.88.88 0 0 0-.82-.16 3.75 3.75 0 0 0-.65.28c-.24.11-.28.27-.2.53a6.42 6.42 0 0 1 .37 1.48 15.78 15.78 0 0 1-.09 1.81c-.06.95-.13 1.9-.17 2.85a4.11 4.11 0 0 0 .07.78.63.63 0 0 0 .44.54 2.83 2.83 0 0 1 1.31 1zm3.54 3.38a7.37 7.37 0 0 1 .78.8 6.3 6.3 0 0 1 .88 2.22 4.13 4.13 0 0 0 1.2 2.26c.32.26.73.41 1.07.64a5.25 5.25 0 0 0 2.25.8 2.07 2.07 0 0 0 2.11-.76 2.82 2.82 0 0 1 .38-.45 1.84 1.84 0 0 0 .42-1.75c0-.33-.19-.43-.52-.37a6.06 6.06 0 0 1-3.82-.59c-.9-.43-1.71-1.06-2.57-1.58s-1.42-.8-2.18-1.22zm-3.5.83v.51a13.19 13.19 0 0 1-.1 1.78c-.16.91-.43 1.81-.62 2.73a5.24 5.24 0 0 0-.21 1.56c.14 1.36.39 2.7.56 4.06 0 .4.25.52.58.58l2.41.4c.47.09.58 0 .47-.48-.2-.86-.42-1.7-.62-2.55a1 1 0 0 0 0-.1 23.89 23.89 0 0 1-.58-2.36 8.58 8.58 0 0 0-.72-2.25 7.15 7.15 0 0 1-.68-2.79v-1.12zm-1.45-1.8a9.28 9.28 0 0 0-1.38-.49 14.19 14.19 0 0 0-1.72-.11 4.13 4.13 0 0 0-3 1.26c-.45.41-.89.85-1.33 1.29a6.86 6.86 0 0 1-2.76 1.83 8 8 0 0 0 1.53 1.69.94.94 0 0 0 1.1 0 8.89 8.89 0 0 0 2.5-2 20.56 20.56 0 0 1 2-1.91 4.13 4.13 0 0 1 1.46-1c.52-.09 1-.32 1.6-.56zm10.71-9.19l-.78 1.24a12.51 12.51 0 0 1-3.46 3.53 11.62 11.62 0 0 0-3.38 3.25l.19.23c.23-.24.43-.47.65-.68a8.09 8.09 0 0 1 4.21-1.8 8.53 8.53 0 0 0 4.46-1.93c.09-.09.22-.14.32-.23l.59-.49c-.37-.14-.37-.44-.44-.71a1.91 1.91 0 0 0-.25-.68 4.18 4.18 0 0 0-.69-.57zm-10.74 9c.17-.21.25-.35 0-.49a21.17 21.17 0 0 1-1.89-1 4.37 4.37 0 0 0-2.4-.71c-.6 0-1.21-.09-1.81-.07a7.22 7.22 0 0 0-3.26 1A4 4 0 0 0 84.83 13c.15.09.26.21.39.23a5.68 5.68 0 0 0 1.56.21c1-.13 2-.38 3-.6a14.48 14.48 0 0 1 1.66-.43c.73-.08 1.47 0 2.2 0a2.63 2.63 0 0 1 1.82.6zm1.49-1.41c-.15-.29-.29-.63-.47-.95a4.57 4.57 0 0 0-2.17-2.06 9 9 0 0 1-1.9-1.18 4.32 4.32 0 0 1-1.48-1.69c-.12-.29-.26-.57-.4-.85l-.11.06c.39 1 .76 2 1.19 3a10.92 10.92 0 0 0 .91 1.54 5.22 5.22 0 0 0 2 1.87 3.33 3.33 0 0 1 1.23 1zm2 1.28c.51.11 1 .25 1.54.33a2 2 0 0 0 .8 0c1-.26 2.06-.52 3.08-.83.68-.21 1.34-.51 2-.77-.54-.18-1-.27-1.53-.41s-1-.39-1.45-.54a2.71 2.71 0 0 0-1.22-.24 5.53 5.53 0 0 0-2.81 1.53c-.24.22-.65.43-.4.9zm7-9a4.62 4.62 0 0 0-.54-.33c-.38-.18-.77-.44-1.21-.26a3.14 3.14 0 0 0-1.65 1.45 22 22 0 0 0-.86 2.21 8.21 8.21 0 0 1-1.33 2.6 1.14 1.14 0 0 0-.1.23 17.74 17.74 0 0 1 1.43-1.12 12.52 12.52 0 0 0 4.27-4.81zm-9.58 22.08c0-.16-.06-.29-.08-.41-.1-.54-.21-1.07-.29-1.6s-.12-1.25-.21-1.87a3.89 3.89 0 0 1 .06-1.52c.26-1 .52-2 .74-3a13.88 13.88 0 0 0 .15-1.46h-.11c-.17.27-.33.55-.52.8a14.21 14.21 0 0 0-1.62 2.7 2.63 2.63 0 0 0-.18 1.7c.19 1 .32 2 .47 3a2.54 2.54 0 0 0 1.6 1.64zm6.54-6.27l.06-.08a5.26 5.26 0 0 1-1.24-2.64 3.83 3.83 0 0 0-1.93-2.77 2.23 2.23 0 0 0-1.07-.19.41.41 0 0 0-.43.44 5.29 5.29 0 0 0 .43 1.75 7.9 7.9 0 0 0 3 2.91c.37.2.78.37 1.19.56zm-1 2.93a6.58 6.58 0 0 0-.54-2.81 4.24 4.24 0 0 0-.6-.95c-.41-.43-.89-.79-1.31-1.22a4.19 4.19 0 0 1-1.26-1.91c-.08-.34-.13-.7-.2-1.08-.23.12-.46.11-.45.47a10.07 10.07 0 0 0 .8 3.89 3.27 3.27 0 0 0 1.55 1.7 2.39 2.39 0 0 1 .62.41c.5.48.93.99 1.38 1.48zm-10.71-4.12l.1.09c.2-.1.4-.18.6-.29s.65-.43 1-.61a6.26 6.26 0 0 0 3-3.16.49.49 0 0 0-.06-.39 6.07 6.07 0 0 0-.56-.58l-.57.2A3.73 3.73 0 0 0 92 16.86a2.33 2.33 0 0 1-.78 1.65zm7.47-4.82c.34 0 .65.05 1 .09a6 6 0 0 1 2.31.91 1.06 1.06 0 0 0 .83.17 2.16 2.16 0 0 1 .84 0c.88.13 1.75.29 2.63.45a4.31 4.31 0 0 0 1.82 0 5.3 5.3 0 0 0-2.26-1.4 8.34 8.34 0 0 0-4.64-.37 1.1 1.1 0 0 1-.54 0c-.58-.11-1.16-.25-1.76-.38zM90.83 2.38a11.48 11.48 0 0 0-.15 1.61 4.2 4.2 0 0 0 1.72 3.06c.52.42 1.1.78 1.64 1.17V7.07a2.41 2.41 0 0 0-.41-1.89 4.55 4.55 0 0 0-.86-1 7.08 7.08 0 0 1-.84-.7c-.34-.34-.71-.7-1.08-1.1zm-6.31 10.93l-.47 1a.44.44 0 0 0 .11.5 7 7 0 0 1 .61.92c.18.32.33.65.51 1a7.63 7.63 0 0 0 1.33-.73c.86-.71 1.66-1.49 2.49-2.24.22-.2.45-.38.74-.63-.73.15-1.39.24-2 .43a4.82 4.82 0 0 1-3.32-.25zm18.29 1.72v.15l.87.62a7.14 7.14 0 0 0 5.5 1.56c.21 0 .32-.08.36-.31a.7.7 0 0 0-.18-.63c-.25-.28-.51-.56-.79-.82a.46.46 0 0 0-.33-.09 6.16 6.16 0 0 1-1.12.11c-.79-.09-1.56-.26-2.35-.37-.67-.09-1.32-.14-1.96-.22zM98.92 3.91c-.24.84-.45 1.65-.7 2.46s-.48 1.39-.7 2.09a10.47 10.47 0 0 0-.33 3.22l.94.09v-.13a10.34 10.34 0 0 1 1-3.2 1.25 1.25 0 0 0 .21-.66c0-.77 0-1.54-.12-2.3a14.21 14.21 0 0 0-.3-1.57zm4 6.26l.94.4a6.08 6.08 0 0 0 2.43.66 1.15 1.15 0 0 0 .93-.22 7.46 7.46 0 0 0 1.52-2.15 7.06 7.06 0 0 0 .31-1.33l-.29.21a12.15 12.15 0 0 1-1.48 1.12 10.56 10.56 0 0 1-3.56 1.2zm-4 10.26c.37 2 1 3.88 1.43 5.88.42-.63.82-1.16 1.16-1.74a1.91 1.91 0 0 0 0-2 5.58 5.58 0 0 0-2.6-2.14zm-4.84-15.1h.06a8 8 0 0 1 .09-1 5.7 5.7 0 0 0-.31-3.19c-.08-.21-.16-.29-.4-.23a8.21 8.21 0 0 1-1 .18 2.33 2.33 0 0 0-1.18.51c-.27.25-.32.44-.07.71.45.49.93 1 1.41 1.43s.69.64 1 1a5.06 5.06 0 0 1 .39.59zm4.57 7.7a.63.63 0 0 0-.25-.77 1.54 1.54 0 0 0-.47-.21 1.61 1.61 0 0 0-2.23 1.36.38.38 0 0 0 .07.26c.21.26.44.5.65.76a.89.89 0 0 0 .94.26c.77-.24 1.07-.83 1.28-1.66zm3.51-8h-.07l-.13.14c-.57.72-1.17 1.42-1.71 2.16a18.71 18.71 0 0 0-1.09 1.69 12.29 12.29 0 0 0-.89 2.71c0 .05 0 .13.06.19a.88.88 0 0 0 .19-.12l1.15-1.65a12.37 12.37 0 0 0 1-1.42c.38-.75.67-1.54 1-2.33.14-.47.31-.93.48-1.38zM88.22 18.86v.07h.32c.59-.07 1.18-.17 1.77-.21a1.42 1.42 0 0 0 1.26-1.13 17.78 17.78 0 0 0 .48-2.07c-.39.36-.82.72-1.22 1.11a8.3 8.3 0 0 1-1.5 1.52c-.37.22-.73.47-1.11.71zm8.44-3.92l-.44-.26c-.14.29-.25.56-.39.81-.41.77-.86 1.53-1.26 2.31a3.29 3.29 0 0 0-.31 1.78 13.3 13.3 0 0 1 1.72-3 2.34 2.34 0 0 0 .69-1.64z" fill="#58595b"/><path d="M97.33 121.66c-.16.12-.4.13-.44.39a.33.33 0 0 1-.17 0 .86.86 0 0 0-1 .39.64.64 0 0 1-.1.13c-.16.06-.22.24-.38.3a.25.25 0 0 1-.17 0c-.09 0-.16-.1-.15-.2a2.81 2.81 0 0 1 2.13-1.75 2.09 2.09 0 0 0 1.2-.62c.57-.61 1-.53 1.34.22.06.14.06.3.24.41a1.59 1.59 0 0 0 .49-1c.05-.42.2-.8.66-.89s.68.21.85.58a.36.36 0 0 0 .34.24 5.37 5.37 0 0 0-.08-1.6c0-.75 0-.79.74-.59a2.75 2.75 0 0 0 1.19.21.3.3 0 0 0 0-.28c-.33-.79 0-1.21.82-1.23a10.36 10.36 0 0 1 1.25.09 13 13 0 0 0 3.12-.11 3.1 3.1 0 0 1 1.17.12c.76.18 1.16 0 1.24-.64 0-.08.05-.19 0-.25-.66-.62-.82-1.64-1.68-2.12a2.2 2.2 0 0 0-1.18-.26c-.5 0-1.13.27-1.43-.42 0-.51.3-.63.76-.5a10.25 10.25 0 0 1 1.43.5c-.3-.24-.32-.46-.07-.61s.44-.53.78-.23.42.51.77.58c.06 0 .13.1.11.15-.18.59.31.62.64.83s.67.39.6.92c0 .33.41.46.58.74s.38.56-.12.74c-.13 0-.29.12-.25.26.18.64-.35.72-.71.92a1.17 1.17 0 0 0-.6.56c-.17.4-.65.3-1 .49-.51.1-.89.59-1.44.52s-1.13.2-1.68 0a1 1 0 0 0-.58 0c-.32 0-.65.1-.89-.24s-.39-.1-.59 0 0 0-.06 0c-.62.56-.65.68-.06 1.23.27.26.24.44.16.78s.23.6.46.85a1.65 1.65 0 0 1 .42.56.31.31 0 0 1 0 .19c-.42.2-.55.37-.17.83a1.62 1.62 0 0 1 .11 2.16c-.4.56-.42 1.32-.9 1.87a4.07 4.07 0 0 1-.52.58c-.24.13-.43.39-.75.12s-.23.11-.26.21a.49.49 0 0 1-.7.35 2.17 2.17 0 0 0-1.16 0 .72.72 0 0 1-.92-.59c-.09-.3-.06-.48-.45-.39a.32.32 0 0 1-.35-.24c-.2-.72-1.06-1-1.21-1.74-.06-.26-.35-.21-.57-.14a.66.66 0 0 1-.24.11c0-1.14-.46-2.22-.41-3.36-.04-.03.05-.22-.16-.13z" fill="#fba094"/><path d="M88.89 122.63l-.07-.12a3.48 3.48 0 0 1-.52-2.68 4.28 4.28 0 0 1 1.93-3.24 6.84 6.84 0 0 1 2-1.09c.18-.05.43 0 .47-.27s-.32-.13-.34-.34a1.38 1.38 0 0 0-.53-.43 3.61 3.61 0 0 1-.85-.85c-.16-.21-.4-.35-.5-.61s-.1-.15-.19-.18a3.51 3.51 0 0 1-1.21-1.83c0-.14-.07-.28-.1-.42a3.47 3.47 0 0 1 1.24-3.56 3.38 3.38 0 0 1 2.45-.47 4.86 4.86 0 0 1 2.53 1.15c.19.21.46.31.67.51.18.16.39.29.56.46s.3.08.35.26c.21.14.46.39.41-.16 0-.15-.06-.29-.08-.44a2.17 2.17 0 0 1-.11-.91v-.67a3.92 3.92 0 0 1 .5-2.51 5.44 5.44 0 0 1 .74-1.16c.35-.11.31.15.33.34a.42.42 0 0 1-.06.19c-.21.28-.52.51-.45.93.06.14 0 .22-.12.28a3.8 3.8 0 0 0-.42 2.34 9.84 9.84 0 0 1 .49 2.4c0 .45-.15.55-.54.44a1.67 1.67 0 0 1-.57-.31c-.68-.54-1.39-1.06-2.11-1.57a3.67 3.67 0 0 0-.72-.42l-.14-.11a3.07 3.07 0 0 0-3.89.62 2.56 2.56 0 0 0 0 3.06.37.37 0 0 1 .12.13 2.34 2.34 0 0 0 .73 1.27 10.93 10.93 0 0 0 2.58 2.31.43.43 0 0 1 .19.26.57.57 0 0 1 0 .18c-.07.3-.34.35-.56.46a3.38 3.38 0 0 0-1.88.92 1.38 1.38 0 0 0-1 .79.53.53 0 0 1-.13.13 2.73 2.73 0 0 0-.91 1.21l-.06.18a3.28 3.28 0 0 0 .09 2.57l.09.25a1.38 1.38 0 0 0 .42.75 1.42 1.42 0 0 1 .12.13c.12.25.42.38.43.69a.29.29 0 0 1-.4.18 2.59 2.59 0 0 1-.98-1.04z" fill="#fa8e80"/><path d="M97.9 125.19l.09-.25a.28.28 0 0 1 .35.12c.39.62.93 1.13 1.38 1.71a3.43 3.43 0 0 0 2.06 1.54 4 4 0 0 0 1.89-.13 6.89 6.89 0 0 0 1.69-1.17 4.23 4.23 0 0 0 .7-1.52 5 5 0 0 0 0-3.12 1.7 1.7 0 0 1-.08-.45.71.71 0 0 0-.23-.53c-.54-.69-.37-1.71-1.14-2.3-.14-.11.13-.51.3-.73a10.6 10.6 0 0 0 3.21.41 17.59 17.59 0 0 0 2.5-.4c.59 0 1-.39 1.52-.53.75-.22.84-.9 1-1.5a1.22 1.22 0 0 1 .07-.17 1 1 0 0 0 .12-.84 1.38 1.38 0 0 1 .07-.57c.08-.11.15-.24.32-.12a2 2 0 0 1 .09 1.29 3.28 3.28 0 0 1-.43 1.29 3.18 3.18 0 0 1-2.16 1.64 12.81 12.81 0 0 1-6 .14 15.34 15.34 0 0 1 1.62 4.35 4.69 4.69 0 0 1-.08 1.94 4.3 4.3 0 0 1-1.68 2.9 3.16 3.16 0 0 1-1.37.65l-.42.16a3.51 3.51 0 0 1-4-1.68l-.36-.52a5.23 5.23 0 0 1-1-1.32z" fill="#fa9082"/><path d="M98.43 103.48l-.11-.45a1.44 1.44 0 0 1 1-.79c1.64-.63 3 0 4.18 1.07a2.82 2.82 0 0 1 .44.47l.3.39a4.91 4.91 0 0 1 .84 3.64c.1.24-.16.44-.08.68 0 .64-.44 1.16-.46 1.8.06.43-.3.77-.26 1.19 0 .15.1.17.22.19a6 6 0 0 1 .93-.24l1.36-.37a8.5 8.5 0 0 1 2.8-.12c.23 0 .44.13.68.13a.36.36 0 0 1 .18.08c.3.16.64.22.94.36s.56.13.67.45c0 .13 0 .19-.15.24a.5.5 0 0 1-.49-.08 2 2 0 0 0-1.3-.47l-.29-.08a4.35 4.35 0 0 0-2.4 0 21.28 21.28 0 0 0-2.94.8c-.3.11-.59.19-.85-.09s-.14-.57 0-.86a15.77 15.77 0 0 0 .79-3.74 5.43 5.43 0 0 0-.39-2.11 3 3 0 0 1-.07-.51c0-.67-.52-.94-.9-1.3a3.38 3.38 0 0 0-.82-.63l-.16-.1a1.77 1.77 0 0 0-1.47-.22h-.18c-.35-.09-.64-.08-.76.34a.21.21 0 0 1-.3.06c-.39-.22-.37.3-.61.34-.18-.02-.26.01-.34-.07z" fill="#fa8f81"/><path d="M89.77 123.57c.17 0 .31 0 .38-.18.52 0 .9.35 1.35.54a3.07 3.07 0 0 0 2.39-.26c.62.15.84 0 1.31-.79.2 0 .24-.21.38-.3.38-.21.59-.76 1.17-.57h.14c.12.14 0 .27 0 .41-.22 0-.33.22-.5.33-.34.31-.51.77-.93 1a3.06 3.06 0 0 1-1.91 1l-.26.07a3.91 3.91 0 0 1-3.28-1c-.08-.05-.31-.05-.24-.25z" fill="#fb9386"/><path d="M111.82 112.06l.17-.09c.38 0 .56.33.78.58a4.51 4.51 0 0 1 1 2.1.3.3 0 0 0-.25.22c-.52-.15-.51-.68-.72-1-.08-.14-.07-.34-.15-.5a.55.55 0 0 0-.33-.35 1.71 1.71 0 0 1-.18-.2c-.08-.3-.62-.34-.32-.76z" fill="#fa9183"/><path d="M92.66 106.55a5.44 5.44 0 0 0-2 .34 3.08 3.08 0 0 0-1.65 2.84v.85a3.24 3.24 0 0 1 .81-3.3 2.7 2.7 0 0 1 2.84-.73zm6.62-4.31a5.25 5.25 0 0 0-1 .79 5.9 5.9 0 0 0-1.36 3.71c-.29-.26-.15-.59-.1-.87a5.27 5.27 0 0 1 1.89-3.47c.2-.12.35-.25.57-.16z" fill="#feebeb"/><path d="M103.89 103.79a10.14 10.14 0 0 0-1.89-1.35 4.2 4.2 0 0 0-2.73-.19 2.06 2.06 0 0 1 1.94-.25 4.08 4.08 0 0 1 2.68 1.79zm-4.6 23.5a3.83 3.83 0 0 0 4 1.68c-1.07.72-3.73-.36-4-1.68zm5.74-19.43a6.61 6.61 0 0 0-.84-3.64 3.84 3.84 0 0 1 .84 3.64zm-12.69 7a1.5 1.5 0 0 1 .63.53 7.61 7.61 0 0 0-2.74 1.17 3.74 3.74 0 0 1 1.95-1.16c.48-.08.28-.27.16-.54zm-2.12 1.74a5.33 5.33 0 0 0-1.93 3.24c.1-1.4.83-2.89 1.93-3.24zm14.88 11.57a6.18 6.18 0 0 0 1.68-2.9 3.54 3.54 0 0 1-1.68 2.9zm-15.11-4.31a5.15 5.15 0 0 0 3.28 1 3.27 3.27 0 0 1-3.28-1zm22.78-11.31l-.78-.58a1.1 1.1 0 0 0-.67-.37c-.28-.26-.72-.19-1-.47h-.13c-.21 0-.38-.09-.57-.14l-.06-.08a4.25 4.25 0 0 1 3.21 1.64z" fill="#feebeb"/><path d="M109.52 110.99a15.3 15.3 0 0 0-2.79.05 5.09 5.09 0 0 1 2.84-.16c.03.09.01.11-.05.11zm-21.22 8.87a5.5 5.5 0 0 0 .52 2.68c-.54-.2-.49-.75-.59-1.15a2.37 2.37 0 0 1 .07-1.53zm6.92-12.16a8.51 8.51 0 0 0-2.53-1.15 3.33 3.33 0 0 1 2.53 1.15zm-1.69 17.1a6.89 6.89 0 0 0 1.91-1 2 2 0 0 1-1.91 1zM89.07 111a8.3 8.3 0 0 0 1.21 1.83 2.22 2.22 0 0 1-1.21-1.83zm17.71 14.28c0-.65 0-1.29.08-1.93a2.36 2.36 0 0 1-.08 1.93zm-17.01-1.71l.22.32a1.79 1.79 0 0 1-1.1-1.26c.33.31.59.62.88.94zm5.67.21l.93-1.07a.18.18 0 0 1 .25.08c-.51.2-.6.88-1.18.99zm2.52 1.67l1 1.32a2 2 0 0 1-1-1.32zm-.88-17.14c.23.3.14.68.38 1.1a1.19 1.19 0 0 1-.71-.5c.67.1.1-.47.33-.6zm6.65 20.55l1.37-.65a1.52 1.52 0 0 1-1.37.65zm.75-18.58a7.93 7.93 0 0 1 .46-1.8c.1.66-.32 1.2-.46 1.8zm-13.52 3.34a3.43 3.43 0 0 1 .85.85 1.2 1.2 0 0 1-.85-.85z" fill="#feebeb"/><path d="M113.43 117.23c.14-.43.29-.86.43-1.29a1.7 1.7 0 0 1-.43 1.29z" fill="#fa9183"/><path d="M105.37 111.41a1.55 1.55 0 0 1-.93.24 1 1 0 0 1 .93-.24zm-1.15.05a2.58 2.58 0 0 1 .26-1.19c.15.45-.18.79-.26 1.19zm-7.25-4.05a2.56 2.56 0 0 1 .11.91.79.79 0 0 1-.11-.91zm-6.5 5.6c.18.19.43.33.5.61-.27-.12-.5-.27-.5-.61zm5.38-4.81a1.12 1.12 0 0 1-.67-.51 1 1 0 0 1 .67.51zm1.48 13.46c.1-.1.19-.34.32-.23s-.17.24-.16.4z" fill="#feebeb"/><path d="M96.62 122.79l-.25-.08a.39.39 0 0 1 .5-.25z" fill="#fdcfc9"/><path d="M96.4 108.65a.89.89 0 0 1-.56-.46.73.73 0 0 1 .56.46zm8.55-.16a1.06 1.06 0 0 1 .08-.68c.19.25-.04.45-.08.68z" fill="#feebeb"/><path d="M107.4 112.79c.32.52.86.3 1.26.27a1.72 1.72 0 0 1 1.55.48c.26.28.63.43.79.86.06.17.56.15.2.56-.12.14.15.27.31.34s.51.33.39.42c-.36.25 0 .86-.53 1a1.85 1.85 0 0 1-1 0 4.85 4.85 0 0 0-2.21 0 5.69 5.69 0 0 1-1.7 0 7.84 7.84 0 0 0-2-.13.55.55 0 0 0-.39.91.55.55 0 0 1 .15.64c-.13.23-.34-.07-.49 0s-.51-.16-.73-.15-.56-.35-.78-.2.09.49 0 .78a3.87 3.87 0 0 0 .11 1.16c0 .22.06.4-.17.49a.38.38 0 0 1-.49-.25c-.15-.37-.27-.82-.78-.71s-.51.61-.52 1-.4.64-.52 1c-.07.2-.27.07-.34-.09s-.14-.46-.24-.68c-.21-.46-.7-.52-.93-.07a1.52 1.52 0 0 1-1.32.74c-1 .08-1.36.73-1.89 1.3-.1.12-.18.25-.27.37s-.07.17-.15.22a1.63 1.63 0 0 0-.74.4.39.39 0 0 1-.53.09c-.14-.06-.31-.16-.44-.07-.54.38-.84 0-1.15-.35-.17-.22-.34-.4-.63-.13a.81.81 0 0 1-.57.15c-.27 0-.46-.23-.3-.43.56-.7-.1-1.18-.28-1.72-.11-.35-.27-.62-.1-1 .07-.14.16-.3-.13-.4a.28.28 0 0 1 0-.55c.36-.2.52-.61.79-.78a12.87 12.87 0 0 1 1.17-.81 1.81 1.81 0 0 0 .64-.45c0-.07.14-.18.19-.17.76.19 1.17-.47 1.78-.75-.18-.33-.48-.69-.1-1.09a.21.21 0 0 0 0-.3c-.27-.24-.4-.46 0-.74.1-.08 0-.2-.07-.28s-.15.08-.21.15c-.28.33-.57.21-.65-.1a.88.88 0 0 0-.83-.7h-.07c-.27-.12-.38-.46-.22-.58.45-.36-.37-.45-.1-.77a1 1 0 0 1 1-.39 1.89 1.89 0 0 0 .51.12c.18 0 0-.11 0-.18-.22-.24-.3-.59-.56-.79s-.32-.39-.61-.25a2.62 2.62 0 0 1-.9.48c0 .28.18.25.3.31.36.17.39.42.22.75s-.47.3-.71.15-.61-.68-1.16-.61c-.13 0-.15-.17-.15-.31a11.49 11.49 0 0 1 .56-2.55c.1-.33.38-.41.69-.21.12.08.21.23.37.23h.07c-.06 0 0 0 0 0-.22-.16-.15-.33 0-.49.66-.06 1.29.18 1.94.17.19 0 .84 0 .45.6-.08.13.12.33.37.28 1.07-.19 1.59.58 2.19 1.21.21.21.43.57.75.31s1-.13.85-.94a3.6 3.6 0 0 1 0-2.13.27.27 0 0 0 0-.26c-.42-.61-.09-1 .43-1.24-.19-.32-.75-.65.06-.83v-.06c-.16-.9.58-1.18 1.1-1.62.18-.15.36-.37.56-.24.39.24.72 0 1.07 0a.29.29 0 0 1 .16.1c0 .61.19 1.11.88 1.27a.66.66 0 0 1 .47.5.7.7 0 0 0 .32.48.39.39 0 0 1 .23.58c-.11.3.07.56.16.82a5.33 5.33 0 0 1 .18 2.21c0 .17 0 .4-.23.43-.55.07-.45.29-.22.63s.49.61-.21.56a.1.1 0 0 0-.11.05 6.06 6.06 0 0 0 .06 1.41 1.59 1.59 0 0 0 1.39.42 10.92 10.92 0 0 1 2.13-.29c.39-.1.51.17.63.44z" fill="#fba296"/><path d="M107.4 112.79a1.28 1.28 0 0 0-1.65-.17c-.06 0-.13.12-.16.11-.68-.41-1.49.44-2.18-.26-.24-.24-.49-.36-.4-.75a4 4 0 0 0 .06-.78c0-.18-.28-.37-.06-.53s.36.19.58.18c0-.31-.26-.45-.39-.67s-.28-.62.27-.54c.32 0 .35-.07.38-.35a4.86 4.86 0 0 0-.47-2.76c-.1-.19 0-.21.1-.29s.18-.33 0-.34c-.47 0-.46-.43-.53-.67s-.25-.38-.45-.37c-.72.05-.62-.68-1-1 0 0 .11-.27.17-.4.36.35 1 .12 1.29.61s.9.58 1 1.15a2.26 2.26 0 0 0 .38 1.19 1.23 1.23 0 0 1 .17.93c-.26.8-.06 1.64-.37 2.47s-.35 1.47-.64 2.19c-.16.4.22.6.71.44l2.63-.82a1.7 1.7 0 0 1 .39 0h2.51l.24.08a7 7 0 0 1 2.21 1.3l.08.17c.1.11.24.15.34.25.36.52.38 1.2.82 1.68a.84.84 0 0 1 0 .54c-.07.26.16.57-.13.79v.12a3.14 3.14 0 0 1-1.14 1.71c-.54.07-.93.65-1.54.45-.33 0-.48-.08-.42-.42s.39-.13.56-.27.29-.07.29-.09c0-.61.51-.6.84-.83s.78-.22.4-.82c-.12-.19.46-.24.79-.42-.44-.22-.4-.86-1-.88 0 0-.09-.1-.08-.13.31-1-.32-1-1-1.07-.38 0-.14-.41-.11-.59s.14-.4-.22-.3-.33-.21-.41-.35c-.17-.33-.29-.48-.55-.07-.08.11-.41 0-.38.25s.34.1.55.28c-.73.26-1.28-.17-1.86-.32-.38-.09-.54-.01-.62.37z" fill="#fb9d91"/><path d="M105.98 121.92a4.72 4.72 0 0 1 .43 2.65 9.57 9.57 0 0 1-.69 2.28 1.64 1.64 0 0 1-.92.89c-.31.13-.59.19-.75.52-.08.14-.24 0-.36 0a.35.35 0 0 1 .27-.5 1.36 1.36 0 0 0 .45-.37 3.64 3.64 0 0 0 1.09-1.93c0-.13.15-.25.21-.39.19-.39.48-.73.35-1.26a2.15 2.15 0 0 0-.65-1.15c-.28-.24-.28-.51.15-.58.16-.03.31-.03.42-.16z" fill="#fb9b8e"/><path d="M104.41 127.39c0 .44-.67.42-.72.87a3 3 0 0 1-3.21-.43c-1-.85-1.57-2-2.49-2.89.54-.25 1-.12 1 .48 0 .45.42.52.61.75s.44.35.45.73c0 .21.28.24.48.15.42-.2.44.32.41.34-.33.28-.07.21.12.31a2.13 2.13 0 0 0 1.46.23s.1-.07.11-.06c.65.52.67-.08.85-.45s.26-.23.43.07c.07.14.07.14.5-.1z" fill="#fb9c8f"/><path d="M110.22 118.06c.1.19.16.39.42.42a10.27 10.27 0 0 1-3.44.44c-.72 0-1.37-.3-2.07-.29-.06 0-.11-.17-.17-.26s0-.07 0-.09c.34-.23.66-.37.88.14 0 .07.15.15.19.14.58-.27 1.16.07 1.74 0a11.5 11.5 0 0 1 1.31-.07c.46-.01.65-.63 1.14-.43z" fill="#fb998d"/><path d="M104.99 118.25v.12c-.25.43 0 .69.17 1.11.36.73.66 1.52 1 2.29 0 0-.07.1-.1.16-.17-.44-1-.44-.78-1.11v-.06c-.1-.21-.42.44-.4-.09 0-.19.22-.36.32-.55a.23.23 0 0 0 0-.17c-.54-.09-.4-.84-1-.92.4-.09.38-.67.79-.78zm-10.2 4.61l.16-.08.25.09c.12.54-.35.71-.64 1s-.44 0-.61-.15c0-.25.25-.28.41-.35s.45-.19.43-.51zm1.96-.85c-.28.07-.57.12-.72.43a.34.34 0 0 1-.45.14c.08-.58.56-.81 1.17-.57z" fill="#fb9b8e"/><path d="M95.58 122.58c-.06.19-.12.37-.38.3.16-.02.09-.41.38-.3z" fill="#fb9b8e"/><path d="M94.79 122.86c.15.72-.54.58-.84.83a1.48 1.48 0 0 1-1.53.49 6.37 6.37 0 0 0-1-.08.62.62 0 0 0-.56-.6 2.65 2.65 0 0 1-1.23-.7c-.25-.25-.26-.65-.54-.88l-.08-.17a2.5 2.5 0 0 0-.08-1.38.86.86 0 0 1 .16-1c.28-.25-.06-.3-.11-.45a.28.28 0 0 1 .21-.29c.51-.17.57-.66.8-1 .43-.22.65-.71 1.13-.87.22-.62.82-.69 1.33-.89a3.41 3.41 0 0 1 .55-.14c.26 0 .64.15.55-.38 0-.17.15-.25.23-.45a.94.94 0 0 1-.87-.36 5.35 5.35 0 0 0-1.51-1.28c-.26-.12-.59-.3-.61-.69 0-.55-.52-.79-.77-1.2a2.93 2.93 0 0 1-.28-2.45c0-.2-.14-.53.13-.58.68-.14 1-1.06 1.85-.77.08.11.13.22 0 .35-.18.42.09.47.44.49-.35.08-.66.2-.94-.12s-.48-.09-.5.16c-.06.8-.48 1.5-.5 2.32 0 .38 0 .46.32.34s.48 0 .59.33a.64.64 0 0 0 .66.36c.15 0 .2-.15.23-.28s0-.56-.33-.45-.35-.24-.4-.4.12-.33.35-.28.48-.35.78-.43c.23.52.23.52.83.9a1.68 1.68 0 0 0 .46.24c.11.15.4.27.3.46s-.33-.07-.5-.06a1.61 1.61 0 0 1-.49-.13.67.67 0 0 0-.78.34c-.12.33.3.32.51.45-.15.14-.48 0-.46.37s.2.31.44.35.76.15.7.68c0 .19.1.28.27.3s.22-.05.2-.12c-.09-.32.08-.34.31-.32s.3.24.37.41-.19.28-.35.36l-.12.07c.45.26.78.54.2 1-.25.2 0 .32.14.46s.28.34.23.53-.3 0-.45 0-.4.06-.39.26c0 .71-.44.5-.73.37s-.41 0-.6.19a7.41 7.41 0 0 1-1.66 1.11c-.22.08-.46.15-.23.44s-.07.17-.14.2-.33.09-.49.17-.25.15-.2.3a.23.23 0 0 0 .31.16c.16 0 .2.06.14.18-.46 1 .33 1.62.59 2.41.08.24.22.39-.16.43a.24.24 0 0 0-.18.35c.06.16.21.15.33.06.71-.53 1.15-.18 1.53.45a8.28 8.28 0 0 1 1.46-.14c.32.04.66-.2.98-.33z" fill="#fb9e92"/><path d="M91.77 107.92v-.3c-.24-.47.19-.43.38-.41.63.1 1.26.18 1.87.34a1.93 1.93 0 0 0 .83.42c1 .58 1.82 1.55 3.07 2a23 23 0 0 0-.56-2.86 17.24 17.24 0 0 1 .4-2.26.32.32 0 0 1 .16-.2c.1 0 .11 0 0-.13 0-.38.38-.6.47-1v-.13l.16-.08c.29 0 .44-.25.67-.33a.27.27 0 0 0 .29 0c.1-.51.59-.21.84-.41h.13c.51.18 1.1-.11 1.58.25 0 .32-.36.11-.5.25-.35.08-.65.7-1.09.09-.1-.14-.3 0-.41.2s-.19.67-.75.51c-.19 0-.35.56-.28.94s-.15.53-.54.31c0 .38.31.47.54.61-.12.24-.39.24-.54.39s-.51.33-.08.66 0 .69 0 1a4 4 0 0 0 .11 1.82c.07.44 0 .6-.4.69l-.38.1c-.22.08-.26.69-.67.25-.2-.21-.54-.24-.63-.61s-.64-.42-.89-.71a.71.71 0 0 0-.94-.22.77.77 0 0 1-.83-.37c-.32-.51.4-.07.39-.41-.77-.23-1.64-.04-2.4-.4z" fill="#fb9d91"/><path d="M93.98 107.55a3 3 0 0 1-1.57-.16c-.27-.06-.59-.24-.68.23a1.22 1.22 0 0 0-1.09.48.73.73 0 0 1-.66.34 5.49 5.49 0 0 0 .06 2.93c-.6-.07-.68-.6-.76-1a3 3 0 0 1 2.73-3.39c.63-.06 1.11.4 1.72.23.14-.04.23.18.25.34z" fill="#fb988a"/><path d="M90.91 112.5c-.09.3.18.42.34.49a5.27 5.27 0 0 1 2 1.74.16.16 0 0 0 .17 0c.19-.14.43-.25.54 0s-.29.36-.42.55c-.53-.5-1.21-.82-1.72-1.38s-.78-.82-1.15-1.26c0-.1.03-.21.24-.14z" fill="#fb998c"/><path d="M89 118.96c.11.15.39-.18.45.19s-.07.25-.22.37a.84.84 0 0 0-.07 1.06 1 1 0 0 1-.13 1.18 3.48 3.48 0 0 1-.32-2.18 1.15 1.15 0 0 1 .29-.62zm.65 3.9a9.23 9.23 0 0 1 1.58.77s.09.11.14.13c.38.13.38.13.07.4l-1.29-.72a.83.83 0 0 1-.5-.58z" fill="#fb9a8d"/><path d="M90.91 112.5c-.12 0-.17.11-.21.21a1.51 1.51 0 0 1-.66-1.34 1.21 1.21 0 0 1 .87 1.13z" fill="#fb988a"/><path d="M90.01 117.63c.15.82-.5 1-1 1.33a1.6 1.6 0 0 1 1-1.33z" fill="#fb9a8d"/><path d="M97.88 104.69a19 19 0 0 1-.56 2.46 6.41 6.41 0 0 1 .28-2.38c.02-.13.17-.1.28-.08z" fill="#fb9689"/><path d="M91.14 116.76c-.36.31-.52.88-1.13.87.21-.54.41-1.02 1.13-.87z" fill="#fb9a8d"/><path d="M98.39 103.61c.16.08.27.25.1.34s-.34.45-.57.61a.72.72 0 0 1 .47-.95z" fill="#fb9689"/><path d="M89.11 121.93c.64 0 .3.62.54.88a.91.91 0 0 1-.54-.88z" fill="#fb9a8d"/><path d="M93.57 115.35l.17.49c-.29.18-.49 0-.72-.11.2-.13.48-.09.55-.38z" fill="#fb998c"/><path d="M94.81 107.97a.7.7 0 0 1-.83-.42 1.69 1.69 0 0 1 .83.42z" fill="#fb988a"/><path d="M112.22 118.03c0-.12 0-.34.09-.36.63-.24.72-.89 1-1.35a1.87 1.87 0 0 1-1.09 1.71zm1.13-1.83c.2-.24-.15-.57.13-.79.12.29.23.58-.13.79z" fill="#fa9183"/><path d="M101.6 103.16c.07-.28.36-.11.5-.25.83.52 1.74 1 2 2.06-.1-.13-.68.19-.34-.36a.13.13 0 0 0-.11-.19c-.54.07-.6-.42-.85-.69-.07-.08-.12-.24-.22-.19-.43.24-.56-.17-.81-.33z" fill="#fb978a"/><path d="M112.28 112.77c-.3 0-.57 0-.74-.37a.7.7 0 0 0-.68-.42 1 1 0 0 1-.79-.51c.51 0 1.05 0 1.39.54.09.12.24 0 .36 0-.1.45.52.39.46.76zm-2.45-1.38c0 .47-.39.29-.57.2a2.51 2.51 0 0 0-1.77 0c-.22.06-.18-.09-.17-.22a4.14 4.14 0 0 1 2.51.02z" fill="#fb9588"/><path d="M102.1 102.91c-.51-.19-1.11.2-1.58-.25a1.44 1.44 0 0 1 1.58.25z" fill="#fb978a"/><path d="M100.39 102.62c-.12.45-.67 0-.84.41.05-.52.19-.59.84-.41zm-1.17.45a.43.43 0 0 1-.67.33 4.53 4.53 0 0 1 .49-.49c.18-.12.26-.05.18.16z" fill="#fb9689"/><path d="M110.33 111.13a2.07 2.07 0 0 1 1 .47c-.34-.15-.77-.11-1-.47zm-.81-.14l.07-.08.61.19c-.25.14-.46-.05-.68-.11zm3.18 2.2c-.21 0-.33 0-.34-.25.21-.08.33.03.34.25z" fill="#fb9588"/><path d="M101.32 114.49c.81.27 1.27.93 1.08 1.54a1.71 1.71 0 0 1-2 1.07 1.56 1.56 0 0 1-.93-1.87 1.37 1.37 0 0 1 1.85-.74z" fill="#fff6eb"/><path d="M93.76 111.1c-.43.29-.6-.3-1-.29-.68 0 0-.6-.28-.85.48-.14.7.24 1 .51a3.16 3.16 0 0 1 .28.63z" fill="#fb998c"/><path d="M91.67 112.32c.06-.06.1-.13.14-.13s.14.08.1.16a.14.14 0 0 1-.13.09s-.07-.07-.11-.12z" fill="#fba296"/><path d="M95.06 115.86l-2.35-.8a5.67 5.67 0 0 1-2.31-1.54c-.46-.49-.87-1-1.29-1.54a.94.94 0 0 1-.2-.85 3.51 3.51 0 0 0 .07-.92 1.94 1.94 0 0 1 .72-1.79c.33-.23.58-.58.9-.83a1.85 1.85 0 0 1 1.61-.31 14.51 14.51 0 0 1 1.46.45 1 1 0 0 1 .38.18 11.87 11.87 0 0 0 2.44 1.29l.9.54c-.1-.38-.23-.72-.29-1.08a7 7 0 0 1 .51-4.11 2.53 2.53 0 0 1 .38-.6c.41-.49.83-1 1.28-1.42a.71.71 0 0 1 .58-.19 13 13 0 0 1 3.56 1.13 2.57 2.57 0 0 1 1.42 2.23c0 1 .1 2.06.14 3.09a5.32 5.32 0 0 1-1.38 4.25.13.13 0 0 0 0 .14 6.78 6.78 0 0 1 .78-.54c.59-.31 1.23-.51 1.78-.86 1.12-.71 2.35-.48 3.55-.53a5 5 0 0 1 1.92.24 2 2 0 0 1 .9.68 7.48 7.48 0 0 1 1.27 2.5c.15.47.44.89.64 1.35a.82.82 0 0 1 .06.53 4.11 4.11 0 0 1-1.64 2 7 7 0 0 1-5.71 1c-.3-.07-.6-.11-.9-.16a3.61 3.61 0 0 1-1.63-.7 1.34 1.34 0 0 0-.42-.25c.23.26.47.51.68.78a8.84 8.84 0 0 1 1.62 3.45c.05.23.12.46.19.68a5.39 5.39 0 0 1-.37 4.62 2 2 0 0 1-1.59 1c-.57.07-1.15.11-1.71.2a1.69 1.69 0 0 0-.54.23 1.4 1.4 0 0 1-1.75-.27 4.59 4.59 0 0 1-.91-1.19 16.82 16.82 0 0 0-1.23-1.68 3.16 3.16 0 0 1-.65-1.87c-.05-.91-.09-1.81-.13-2.75-.21.22-.46.45-.67.71a12.78 12.78 0 0 1-2.88 2.56l-.33.22c-1 .73-1.5.53-2.41-.08a15.44 15.44 0 0 1-2-1.84 5.57 5.57 0 0 1-.72-.82.92.92 0 0 1-.11-.5c0-.3 0-.59-.32-.74 0 0-.09-.15-.08-.22a5.63 5.63 0 0 1 1.88-3.36 6.87 6.87 0 0 1 3.76-1.55zm6 2.81a.85.85 0 0 0-.05.18 8.64 8.64 0 0 1-.74 2.59c-.43 1-.9 2-1.32 2.94a2 2 0 0 0 .25 2.3 4.81 4.81 0 0 1 .81 1.1 4 4 0 0 0 1 1.32.92.92 0 0 0 .81.26 6 6 0 0 0 .68-.22c.24-.08.3-.23.25-.5a6.54 6.54 0 0 1-.21-1.51 15.87 15.87 0 0 1 .29-1.79c.16-.94.33-1.88.48-2.82a5.06 5.06 0 0 0 0-.78.62.62 0 0 0-.39-.58 3 3 0 0 1-1.19-1.17zm-3.16-3.73a7.13 7.13 0 0 1-.68-.88 6.37 6.37 0 0 1-.64-2.31 4.11 4.11 0 0 0-1-2.37 12.52 12.52 0 0 0-1-.76 5.23 5.23 0 0 0-2.15-1 2.07 2.07 0 0 0-2.18.53 4.07 4.07 0 0 1-.42.41 1.83 1.83 0 0 0-.61 1.69c0 .33.15.44.48.42a6 6 0 0 1 3.73 1 26.59 26.59 0 0 1 2.38 1.85c.67.46 1.41.94 2.04 1.44zm3.57-.45c0-.19 0-.35.06-.51a15 15 0 0 1 .28-1.76c.26-.89.63-1.75.92-2.64a5.25 5.25 0 0 0 .37-1.54c0-1.36-.1-2.72-.11-4.09a.59.59 0 0 0-.52-.64l-2.35-.66c-.46-.13-.58-.06-.52.43.1.87.23 1.74.34 2.61a.29.29 0 0 1 0 .09 22.31 22.31 0 0 1 .33 2.42 8.63 8.63 0 0 0 .47 2.31 7.26 7.26 0 0 1 .38 2.85c0 .36-.05.73-.07 1.11zm1.25 1.94a7.54 7.54 0 0 0 1.32.64 13.71 13.71 0 0 0 1.7.29 4.13 4.13 0 0 0 3.13-.92c.5-.36 1-.75 1.46-1.14a6.89 6.89 0 0 1 2.94-1.52 7.7 7.7 0 0 0-1.34-1.85 1 1 0 0 0-1.09-.14 9 9 0 0 0-2.7 1.71 19.7 19.7 0 0 1-2.23 1.68 4.07 4.07 0 0 1-1.55.79c-.57.14-1.07.31-1.69.48zm-11.62 8l.9-1.15a12.61 12.61 0 0 1 3.83-3.13 11.52 11.52 0 0 0 3.7-2.86l-.16-.26c-.25.22-.47.43-.71.61a8.07 8.07 0 0 1-4.39 1.34 8.5 8.5 0 0 0-4.66 1.43 3.72 3.72 0 0 1-.34.19l-.64.43c.35.18.32.48.36.75a2 2 0 0 0 .18.7 4.23 4.23 0 0 0 .62.65zm11.65-7.77c-.2.19-.29.32 0 .48a19.63 19.63 0 0 1 1.77 1.2 4.43 4.43 0 0 0 2.31 1c.6.07 1.2.22 1.8.27a7.13 7.13 0 0 0 3.34-.68 4 4 0 0 0 1.42-1.1c-.14-.11-.23-.24-.36-.27a5.28 5.28 0 0 0-1.53-.38c-1 0-2 .17-3 .28a14.36 14.36 0 0 1-1.69.25c-.73 0-1.46-.16-2.19-.22a2.62 2.62 0 0 1-1.92-.83zm-1.69 1.2c.11.31.22.66.37 1a4.48 4.48 0 0 0 1.93 2.28 9.31 9.31 0 0 1 1.76 1.38 4.32 4.32 0 0 1 1.29 1.85c.09.29.2.58.3.88h.13c-.29-1-.54-2.11-.87-3.15a10.29 10.29 0 0 0-.73-1.63 5.36 5.36 0 0 0-1.82-2.08 3.25 3.25 0 0 1-1.11-1.1zm-1.84-1.45c-.49-.17-1-.36-1.5-.5a2.1 2.1 0 0 0-.79-.06c-1.06.15-2.11.3-3.15.5-.71.14-1.39.36-2.08.55.51.24 1 .37 1.47.57s.91.49 1.38.69a2.77 2.77 0 0 0 1.18.38 5.53 5.53 0 0 0 3-1.23c.21-.22.64-.39.49-.9zm-7.93 8.2c.18.14.33.28.5.39.36.21.72.52 1.17.38a3.13 3.13 0 0 0 1.81-1.26 21 21 0 0 0 1.09-2.11 8 8 0 0 1 1.6-2.43s0-.09.13-.23c-.57.36-1 .71-1.55 1a12.4 12.4 0 0 0-4.82 4.26zm11.91-20.92v.42c0 .54.1 1.08.11 1.62s0 1.26 0 1.89a3.85 3.85 0 0 1-.22 1.5c-.37 1-.73 2-1.06 2.94a13.45 13.45 0 0 0-.31 1.43h.1c.21-.25.39-.52.61-.75a13.69 13.69 0 0 0 1.9-2.51 2.62 2.62 0 0 0 .37-1.66c-.09-1-.11-2-.15-3a2.52 2.52 0 0 0-1.39-1.88zm-7.18 5.53l-.07.07a5.2 5.2 0 0 1 .94 2.76 3.85 3.85 0 0 0 1.63 3 2.2 2.2 0 0 0 1 .31.41.41 0 0 0 .47-.39 5.27 5.27 0 0 0-.23-1.79 7.92 7.92 0 0 0-2.64-3.21c-.37-.3-.76-.52-1.14-.75zm1.33-2.81a6.58 6.58 0 0 0 .23 2.85 4.6 4.6 0 0 0 .5 1c.35.47.8.88 1.16 1.35a4 4 0 0 1 1 2c.05.35.06.71.09 1.09.24-.09.47-.05.5-.42a10.11 10.11 0 0 0-.38-3.94 3.27 3.27 0 0 0-1.36-1.86 2.42 2.42 0 0 1-.57-.48c-.44-.5-.82-1.05-1.21-1.59zm10.17 5.23l-.08-.1c-.21.08-.43.14-.63.23-.36.16-.7.35-1.06.5a6.26 6.26 0 0 0-3.33 2.81.51.51 0 0 0 0 .4 5.51 5.51 0 0 0 .5.63l.58-.14a3.7 3.7 0 0 0 3.07-2.75 2.33 2.33 0 0 1 .91-1.58zm-8 4c-.33-.07-.63-.12-.92-.19a6.15 6.15 0 0 1-2.21-1.15 1.05 1.05 0 0 0-.8-.26 2.4 2.4 0 0 1-.84-.08c-.86-.23-1.71-.48-2.56-.74a4.47 4.47 0 0 0-1.83-.14 5.55 5.55 0 0 0 2.1 1.63 8.22 8.22 0 0 0 4.57.87 1.15 1.15 0 0 1 .55.07l1.7.57c.11-.26.18-.36.25-.59zm6.59 12.1a9.8 9.8 0 0 0 .33-1.59 4.21 4.21 0 0 0-1.37-3.23c-.48-.47-1-.9-1.52-1.34 0 .42 0 .79-.11 1.15a2.36 2.36 0 0 0 .2 1.92 4.41 4.41 0 0 0 .74 1.08 8.19 8.19 0 0 1 .77.79c.33.34.62.77.97 1.21zm7.48-10.19l.57-.92a.44.44 0 0 0 0-.51 9.11 9.11 0 0 1-.51-1c-.14-.34-.25-.69-.4-1.09a8.06 8.06 0 0 0-1.4.59c-.93.62-1.81 1.3-2.71 2l-.8.55c.73-.08 1.4-.09 2-.22a4.85 4.85 0 0 1 3.26.59zm-18-3.69l.06-.14-.79-.71a7.14 7.14 0 0 0-5.31-2.14c-.21 0-.32.05-.39.27a.69.69 0 0 0 .11.64c.22.31.45.61.7.9a.46.46 0 0 0 .31.13 6.19 6.19 0 0 1 1.14 0c.77.17 1.52.42 2.29.62s1.26.28 1.89.43zm2.67 11.48c.33-.81.63-1.59 1-2.37s.63-1.33.92-2a10.43 10.43 0 0 0 .68-3.16l-.92-.19a1 1 0 0 0 0 .13 10.46 10.46 0 0 1-1.37 3.07 1.31 1.31 0 0 0-.28.64 21.81 21.81 0 0 0-.12 2.29 14.47 14.47 0 0 0 .1 1.58zm-3.27-6.65l-.89-.5a5.9 5.9 0 0 0-2.34-.91 1.12 1.12 0 0 0-1 .11 7.4 7.4 0 0 0-1.78 2 6.9 6.9 0 0 0-.45 1.29l.31-.18a12.84 12.84 0 0 1 1.59-.95 10.63 10.63 0 0 1 3.66-.8c.32-.01.58-.04.91-.07zm5.06-9.78c-.15-2-.52-4-.78-6-.49.58-.94 1.07-1.34 1.6a2 2 0 0 0-.18 2 5.66 5.66 0 0 0 2.31 2.35zm3.17 15.53h-.06c-.07.32-.09.64-.19 1a5.62 5.62 0 0 0 0 3.2c.06.22.14.31.38.27a8.4 8.4 0 0 1 1-.07 2.26 2.26 0 0 0 1.23-.38c.3-.21.37-.4.15-.7-.4-.53-.83-1.05-1.25-1.57-.3-.36-.62-.71-.91-1.08a4.68 4.68 0 0 1-.35-.67zm-3.71-8.15a.64.64 0 0 0 .16.8 1.41 1.41 0 0 0 .45.25 1.61 1.61 0 0 0 2.36-1.11.46.46 0 0 0 0-.26c-.18-.28-.39-.55-.57-.83a.87.87 0 0 0-.9-.35c-.79.15-1.18.72-1.47 1.5zm-4.29 7.57h.06l.15-.12c.65-.66 1.31-1.3 1.94-2 .45-.49.86-1 1.26-1.55a12.43 12.43 0 0 0 1.18-2.6v-.2a.63.63 0 0 0-.2.1l-1.39 1.59a12.58 12.58 0 0 0-1.12 1.3c-.46.7-.83 1.47-1.23 2.21-.26.42-.47.86-.65 1.27zm15.33-12.26v-.07h-2.1a1.45 1.45 0 0 0-1.38 1 18.14 18.14 0 0 0-.7 2c.44-.32.9-.63 1.34-1a8.31 8.31 0 0 1 1.66-1.35c.36-.15.75-.32 1.14-.56zm-8.81 3l.41.3c.16-.27.31-.52.47-.76.5-.72 1-1.43 1.5-2.16a3.21 3.21 0 0 0 .51-1.73 13.5 13.5 0 0 1-2 2.76 2.39 2.39 0 0 0-.93 1.6z" fill="#58595b"/></g><path d="M74.61 49.96l.41.93a3 3 0 0 1 .16.72c-.28-.24-.54-.44-.75-.61a6.34 6.34 0 0 0-.65-.45 4 4 0 0 0-.72-.34 5.75 5.75 0 0 0-.94-.25 7.86 7.86 0 0 0-2.71.1 5.93 5.93 0 0 0-2.16.92A3.45 3.45 0 0 0 66 52.53a2.86 2.86 0 0 0 0 2 8.18 8.18 0 0 0 1.22 2.33 18.66 18.66 0 0 0 1.9 2.1 23.84 23.84 0 0 0 2.27 2l2.3 1.73c.73.54 1.41 1 2 1.45a13.39 13.39 0 0 1 1.44 1.12c.75-.38 1.44-.71 2.09-1s1.32-.53 2-.79h.21c.1 0 .11.09 0 .21a9.44 9.44 0 0 1-.77.61l-.92.67-.92.67-.81.57a5.89 5.89 0 0 1 1.37 1.89 2.32 2.32 0 0 1 0 1.66 4.39 4.39 0 0 1-1.18 1.65 19.2 19.2 0 0 1-2.34 1.82 12 12 0 0 1-2 1.12 6.83 6.83 0 0 1-2 .56 2 2 0 0 1-1.47-.35c-.38-.28-.5-.82-.38-1.62a9 9 0 0 1 2.21-3.61 39 39 0 0 1 3.57-3.34c0-.08-.24-.28-.71-.62l-1.8-1.29c-.73-.53-1.53-1.14-2.41-1.84s-1.65-1.43-2.51-2.19a19.23 19.23 0 0 1-2.14-2.42 7.47 7.47 0 0 1-1.26-2.48 5.86 5.86 0 0 1-.2-2.7 5.38 5.38 0 0 1 .76-1.93 4.57 4.57 0 0 1 1.15-1.2 5 5 0 0 1 1-.58c.55-.17 1.11-.31 1.67-.43a5.76 5.76 0 0 1 1.71-.11 5.07 5.07 0 0 1 1.75.49 6.69 6.69 0 0 1 1.81 1.28zm-3 22.78a.35.35 0 0 0 .18.42 1.33 1.33 0 0 0 .82.12 5.31 5.31 0 0 0 1.46-.34 11.94 11.94 0 0 0 2.11-1 5.06 5.06 0 0 0 1.38-1.34 3.22 3.22 0 0 0 .66-1.44 2.1 2.1 0 0 0-.26-1.3 2.33 2.33 0 0 0-1.08-1 8 8 0 0 0-1.21.85 20.9 20.9 0 0 0-1.73 1.53 13.06 13.06 0 0 0-1.56 1.8 3.13 3.13 0 0 0-.72 1.7z" fill="#af6b09"/><path d="M89.94 62.09l.35.18a1.35 1.35 0 0 1 .37.32 1.86 1.86 0 0 1 .31.56 2.68 2.68 0 0 1 .13.88 7.28 7.28 0 0 1-.94 3.39 9.88 9.88 0 0 1-2.07 2.55 8.6 8.6 0 0 1-2.5 1.55 4.26 4.26 0 0 1-2.2.36c0 2.33 0 4.27.06 5.83s.06 2.84.07 3.84 0 1.74 0 2.25a4.24 4.24 0 0 1-.11 1c-.06.19-.17.28-.32.27a4.39 4.39 0 0 1-.6-.09c0 .07-.08 0-.11-.18s0-.47 0-.9v-6.08c0-1.14 0-2.4-.07-3.76s-.08-2.7-.13-4-.1-2.5-.16-3.6a25 25 0 0 0-.24-2.56v-.36c0-.2-.06-.43-.09-.72s-.09-.6-.15-.93-.12-.66-.19-1a1.28 1.28 0 0 1 .82.12 5 5 0 0 1 .44.38 14.62 14.62 0 0 1 .41 2.2c.13 1 .28 2.37.45 4.1a4.58 4.58 0 0 1 .38-1 9.43 9.43 0 0 1 .81-1.38 12.67 12.67 0 0 1 1-1.45 8.23 8.23 0 0 1 1.37-1.23 4.65 4.65 0 0 1 1.46-.7 2.09 2.09 0 0 1 1.45.16zm-4.53 8.1a7.07 7.07 0 0 0 2.61-1.77 7.51 7.51 0 0 0 1.38-2.14 5.11 5.11 0 0 0 .44-1.89c0-.55-.11-.9-.33-1a1.26 1.26 0 0 0-1.37-.11 9.07 9.07 0 0 0-1.26.86 10.91 10.91 0 0 0-.9 1c-.38.49-.76 1-1.15 1.64a14.71 14.71 0 0 0-1 1.82 4.06 4.06 0 0 0-.41 1.6.76.76 0 0 0 .43.25 1.5 1.5 0 0 0 .59 0 3.44 3.44 0 0 0 .97-.26zm6.95-9.61c0-.22.09-.27.34-.17l.77.35c.1.55.17 1 .22 1.31s.08.63.11.92 0 .6.07.93.06.78.11 1.34a7.36 7.36 0 0 1 .79-1.53 4.45 4.45 0 0 1 1.2-1.21 5.16 5.16 0 0 1 1.77-.74 9.28 9.28 0 0 1 2.46-.16.69.69 0 0 1-.19.49 1.85 1.85 0 0 1-.92.3 4.74 4.74 0 0 0-1.82.7 5.94 5.94 0 0 0-1.33 1.21 6.54 6.54 0 0 0-.9 1.46 14.25 14.25 0 0 0-.56 1.42c0 .22-.05.52-.09.92s-.06.81-.07 1.26 0 .87 0 1.29a4.56 4.56 0 0 0 .06 1 .23.23 0 0 1-.17.27 1.48 1.48 0 0 1-.45.13 1 1 0 0 1-.46 0 .25.25 0 0 1-.22-.25 54 54 0 0 0-.2-6.39q-.31-2.73-.52-4.85zm14.25.79c0 .14-.08.44-.16.9s-.18 1-.27 1.6-.18 1.25-.25 1.93-.12 1.3-.13 1.9a7.6 7.6 0 0 0 .11 1.53 1.06 1.06 0 0 0 .41.78 1.56 1.56 0 0 0 1.7-.27 14.4 14.4 0 0 0 2-2c.07 0 .08.1 0 .29a3.41 3.41 0 0 1-.29.63l-.39.69a4.37 4.37 0 0 1-.31.45 5.86 5.86 0 0 1-.83.81 4.81 4.81 0 0 1-1.15.72 2.54 2.54 0 0 1-1.17.23 1.14 1.14 0 0 1-.92-.65 3.16 3.16 0 0 1-.21-1.06 9.11 9.11 0 0 1 0-1.28c0-.43 0-.83.1-1.19s.09-.62.11-.79a18.75 18.75 0 0 1-1.74 2.63 10.67 10.67 0 0 1-1.9 2 3.37 3.37 0 0 1-1.73.77c-.53 0-.94-.27-1.23-.92a4.64 4.64 0 0 1 0-2.1 7.86 7.86 0 0 1 .76-2.11 22.85 22.85 0 0 1 1.58-2.38 10.66 10.66 0 0 1 1.77-1.83 6.2 6.2 0 0 1 2-1.1 4.41 4.41 0 0 1 2.14-.18zm-6.77 9.14c.24 0 .63-.13 1.16-.54a10.07 10.07 0 0 0 1.65-1.71 13.64 13.64 0 0 0 1.57-2.55 10.34 10.34 0 0 0 .92-3.08h-.42a1.3 1.3 0 0 0-.63.21 10.32 10.32 0 0 0-2.34 2.11 11.66 11.66 0 0 0-1.53 2.34 6.66 6.66 0 0 0-.65 2c-.05.63.03 1.03.27 1.22z" fill="#af6b09"/><path d="M112.15 69.43c.56.27 1.19-.15 1.89-1.24a14.91 14.91 0 0 0 1.71-5.33h.24a3.38 3.38 0 0 1 .49.11 3.14 3.14 0 0 1 .46.18c.15.07.22.13.22.18 0 .36 0 .79-.07 1.29s-.11 1.06-.17 1.66-.1 1.24-.12 1.91 0 1.34 0 2a7.47 7.47 0 0 1 2.07-1.26 8.74 8.74 0 0 1 2.11-.54c.23.12.36.2.37.24s0 .1-.16.2a8.32 8.32 0 0 0-2.39 1.08 17.75 17.75 0 0 0-2 1.51v7.77a22.66 22.66 0 0 1-.14 2.34 10.18 10.18 0 0 1-.37 1.79 1.71 1.71 0 0 1-.63 1 1.72 1.72 0 0 1-.66.23 3.22 3.22 0 0 1-.76 0 3.42 3.42 0 0 1-.72-.16 1.45 1.45 0 0 1-.55-.35 3.73 3.73 0 0 1-1-1.74 8.93 8.93 0 0 1-.29-2.32 12.48 12.48 0 0 1 .29-2.6 15.38 15.38 0 0 1 .78-2.55 10.63 10.63 0 0 1 1.18-2.22 5.84 5.84 0 0 1 1.53-1.53c.08-1.29.11-2.56.11-3.81a12.13 12.13 0 0 1-1 2 5.28 5.28 0 0 1-1.69 1.7 1.72 1.72 0 0 1-1.89-.11 2.76 2.76 0 0 1-1-1.87c-.12-1-.21-1.8-.29-2.45s-.13-1.26-.18-1.84-.09-1.17-.12-1.8-.09-1.4-.16-2.34a.82.82 0 0 1 .54 0 .9.9 0 0 1 .54.23c.07 0 .12.19.14.58s.05.87.07 1.47.06 1.26.11 2 .13 1.38.23 2a9.27 9.27 0 0 0 .44 1.68 1.53 1.53 0 0 0 .84.91zm3.68 3c-.15.16-.3.33-.45.48a4.54 4.54 0 0 0-.45.52 6.47 6.47 0 0 0-.9 1.55 13.64 13.64 0 0 0-.74 2.13 14.12 14.12 0 0 0-.42 2.32 7.91 7.91 0 0 0 .06 2.09 2.76 2.76 0 0 0 .66 1.44 1.62 1.62 0 0 0 1.41.41c.24-.05.43-.32.57-.83a9.21 9.21 0 0 0 .31-1.85c.06-.73.1-1.54.11-2.41s0-1.72 0-2.52 0-1.51-.09-2.11-.07-.98-.07-1.19z" fill="#af6b09"/><path d="M124.39 60.61a6.72 6.72 0 0 1 1.5.4 3.29 3.29 0 0 1 .94.56 3.12 3.12 0 0 1 .54.63l.37.61c0 .09-.14.08-.34 0l-.59-.36a4.35 4.35 0 0 0-1.91-.61 6.08 6.08 0 0 0-2.07.13 3 3 0 0 0-1.53.81 1.24 1.24 0 0 0-.29 1.4 3.19 3.19 0 0 0 1 1.44 9.77 9.77 0 0 0 1.64 1.1c.59.32 1.19.62 1.8.88a9.29 9.29 0 0 1 1.47.79l1.23-.66.9-.51c.26-.15.53-.3.81-.43l1-.45h.12v.09a1.36 1.36 0 0 1-.28.29l-.74.56-.94.61-1.47.94a3.7 3.7 0 0 1 .68.83 3 3 0 0 1 .31.84 1.34 1.34 0 0 1-.17.92 6.22 6.22 0 0 1-1.62 1.8 6.52 6.52 0 0 1-1.65.9 2 2 0 0 1-1.12 0 1.75 1.75 0 0 1-1-.58 1.28 1.28 0 0 1-.2-1.17 3.49 3.49 0 0 1 .67-1.15 7.76 7.76 0 0 1 1.08-1.06l1.08-.9a5.45 5.45 0 0 0-1.26-.89c-.63-.34-1.27-.73-1.93-1.15a13.18 13.18 0 0 1-1.77-1.36 2.33 2.33 0 0 1-.86-1.44 2.52 2.52 0 0 1 .19-1.53 3.78 3.78 0 0 1 1-1.29 4.3 4.3 0 0 1 1.55-.83 4.25 4.25 0 0 1 1.86-.16zm-.32 12.35a1.17 1.17 0 0 0 .9 0 3.6 3.6 0 0 0 1-.52 4.75 4.75 0 0 0 .79-.76 2.44 2.44 0 0 0 .45-.74.63.63 0 0 0-.2-.63 3.49 3.49 0 0 0-.63-.55 9.35 9.35 0 0 0-.9.73 7.51 7.51 0 0 0-.88.92 3.76 3.76 0 0 0-.56.9c-.16.29-.14.55.03.65z" fill="#af6b09"/></svg>