<svg id="Camada_1" data-name="Camada 1" xmlns="http://www.w3.org/2000/svg" xmlns:xlink="http://www.w3.org/1999/xlink" viewBox="0 0 502.01 502.01"><defs><style>.cls-1{fill:none}.cls-2{clip-path:url(#clip-path)}.cls-3{isolation:isolate}.cls-4{fill:#58595b}</style><clipPath id="clip-path"><path class="cls-1" d="M348.17 252.75C310.72 234 362 188.26 358.35 149.1s-36.54-28.5-34.75-16.7 23.07-8.64 8.09-23.32-25.77-3.17-27.56-1.44c-.9-16.41-68.9-46.93-101.55-2-19.18-24.49-47.88 30.87-23.37 27.63 18.5-2.46-39-39.45-32.35 21.88s33 65.64 9.88 97.6c25.76 32.54-24.87 87-6.3 117.77s34.75 8.92 30 3.45-21.55 12.68-6.28 27.37 26 2.45 29.65-3.76c-6.59 30.52 86.88 44.06 100.36 2.6 21.57 17.56 49.39-23.78 22.17-27.36-23.38-3.08 19.48 37.43 29.36-2.88s-46.93-82.12-7.49-117.19"/></clipPath></defs><g class="cls-2"><image class="cls-3" width="2953" height="2953" transform="scale(.17)" xlink:href="../../../../../Users/Carol/Downloads/IMG_2733.JPG"/></g><path class="cls-4" d="M353.36 253.12a31.79 31.79 0 0 1-7-4.12 22.78 22.78 0 0 1-5.53-6.13 21.92 21.92 0 0 1-1.8-3.79 22.72 22.72 0 0 1-1-4.06 32.78 32.78 0 0 1-.15-8.28 70 70 0 0 1 4-15.73c1.85-5 3.95-9.93 6.12-14.78 4.29-9.7 8.73-19.3 11.76-29.32a74.71 74.71 0 0 0 3.07-15.25 48.29 48.29 0 0 0 .07-7.7 61.79 61.79 0 0 0-1.07-7.67 33.46 33.46 0 0 0-6-13.86 18.69 18.69 0 0 0-5.52-4.84 16.45 16.45 0 0 0-7-2.12 17.21 17.21 0 0 0-7.25 1 13.18 13.18 0 0 0-5.85 4.1 7 7 0 0 0-1.4 3 5.43 5.43 0 0 0 0 1.61 5.63 5.63 0 0 0 .42 1.56 1.8 1.8 0 0 0 2 1.23 6.2 6.2 0 0 0 3-1.34 16.44 16.44 0 0 0 4.61-5.63 17.51 17.51 0 0 0 1.9-7.19 15.44 15.44 0 0 0-1.53-7.23 20.08 20.08 0 0 0-4.63-6 29.66 29.66 0 0 0-6.21-4.58 17.61 17.61 0 0 0-7.25-2.18 15.44 15.44 0 0 0-7.42 1.42 22 22 0 0 0-6.3 4.47.5.5 0 0 1-.7 0 .49.49 0 0 1-.14-.3c-.25-2.42-1.74-4.6-3.39-6.47a34.55 34.55 0 0 0-5.73-5 69.29 69.29 0 0 0-13.51-7.28A87.5 87.5 0 0 0 254.06 74a66.35 66.35 0 0 0-29.77 5.2 55.93 55.93 0 0 0-12.87 7.9c-2 1.6-3.85 3.28-5.73 5s-3.64 3.58-5.52 5.4l-.12.11a.44.44 0 0 1-.62 0l-.06-.09a18.55 18.55 0 0 0-5.79-5 11.72 11.72 0 0 0-7.29-1.15 17 17 0 0 0-6.9 3 29.66 29.66 0 0 0-5.57 5.28 36.13 36.13 0 0 0-7.07 13.58 16.39 16.39 0 0 0-.41 7.37 5.63 5.63 0 0 0 4.39 4.62 11.05 11.05 0 0 0 3.58.17 5.94 5.94 0 0 0 3.12-.94 1.05 1.05 0 0 0 .45-.89 2.85 2.85 0 0 0-.42-1.33 10.22 10.22 0 0 0-2.32-2.67 24.76 24.76 0 0 0-6.44-3.89 26.68 26.68 0 0 0-7.28-2 18.55 18.55 0 0 0-7.34.55A13.83 13.83 0 0 0 148 118a18.65 18.65 0 0 0-3.86 6.25 34.45 34.45 0 0 0-1.86 7.35 67.53 67.53 0 0 0-.28 15.5c.49 5.19 1.19 10.41 2.08 15.56A185.69 185.69 0 0 0 152 193c1.73 4.94 3.67 9.81 5.58 14.75a74.12 74.12 0 0 1 4.59 15.42 31.22 31.22 0 0 1 .11 8.25 32 32 0 0 1-2.12 7.92 45.42 45.42 0 0 1-3.76 7.14 67.77 67.77 0 0 1-4.66 6.52v-.6a36.1 36.1 0 0 1 7 14.45 50.92 50.92 0 0 1 .9 16c-1 10.72-4.11 21-7.36 31.13s-6.87 20.14-9.16 30.44a69.45 69.45 0 0 0-1.88 15.58 33.32 33.32 0 0 0 3.44 15c.3.56.62 1.11.94 1.67l1 1.67c.71 1.1 1.44 2.19 2.22 3.24a42 42 0 0 0 5.16 5.83 23 23 0 0 0 6.2 4.37 12.18 12.18 0 0 0 7.13 1.1 10.9 10.9 0 0 0 6.2-3.5 11.39 11.39 0 0 0 2-3 6.82 6.82 0 0 0 .64-3.33 2.3 2.3 0 0 0-1.45-2.12 4 4 0 0 0-3 .55 14.21 14.21 0 0 0-5.07 5.23 17.57 17.57 0 0 0-2.35 7.06 16.19 16.19 0 0 0 .92 7.33c1.72 4.71 5.57 8.49 9.75 11.4a19.56 19.56 0 0 0 6.83 3.09 13.48 13.48 0 0 0 7.29-.35 18.26 18.26 0 0 0 6.46-3.89 30.31 30.31 0 0 0 5.07-5.89.49.49 0 0 1 .68-.14.52.52 0 0 1 .21.53 14.27 14.27 0 0 0 .63 7.79 18.62 18.62 0 0 0 4.39 6.54c3.8 3.77 8.65 6.39 13.62 8.45 10.06 4.06 21 5.79 31.81 6.08s21.81-1.17 31.8-5.18a47.52 47.52 0 0 0 13.61-8.26 35.15 35.15 0 0 0 9.21-13 .51.51 0 0 1 .63-.32l.15.08a20 20 0 0 0 7 3.65 17.32 17.32 0 0 0 7.81.36 24.28 24.28 0 0 0 13.38-8 25.55 25.55 0 0 0 4.31-6.6 16.3 16.3 0 0 0 1.54-7.5 10 10 0 0 0-.94-3.57 8.61 8.61 0 0 0-2.27-2.85 14.49 14.49 0 0 0-7-2.85 17.65 17.65 0 0 0-3.84-.27 3.89 3.89 0 0 0-2.84 1 2.92 2.92 0 0 0 .31 2.74 12.74 12.74 0 0 0 2.25 3 24.47 24.47 0 0 0 6.29 4.58 22.88 22.88 0 0 0 7.38 2.38 15.31 15.31 0 0 0 7.5-.77 15 15 0 0 0 6.1-4.39 24.65 24.65 0 0 0 4-6.68 42.16 42.16 0 0 0 2.31-7.6 47.11 47.11 0 0 0 .42-15.89 82.69 82.69 0 0 0-3.87-15.65c-3.51-10.25-8.27-20.08-12.31-30.27a123 123 0 0 1-5.23-15.63 53 53 0 0 1-1.74-16.48 37 37 0 0 1 4.72-15.87 49.07 49.07 0 0 1 10.59-12.64.49.49 0 0 1 .68 0 .49.49 0 0 1 0 .69 48.45 48.45 0 0 0-10.09 12.53 35.67 35.67 0 0 0-4.24 15.34 52.83 52.83 0 0 0 1.89 15.92 122.41 122.41 0 0 0 5.32 15.33c4.15 10 9 19.88 12.56 30.3a85.48 85.48 0 0 1 4 16.07 49.44 49.44 0 0 1-.38 16.68 45.79 45.79 0 0 1-2.42 8 27.19 27.19 0 0 1-4.39 7.31 17.37 17.37 0 0 1-7.08 5 17.8 17.8 0 0 1-8.62.86 25 25 0 0 1-8.12-2.65 26.62 26.62 0 0 1-6.86-5 15.46 15.46 0 0 1-2.62-3.55 7.42 7.42 0 0 1-.75-2.29 3.83 3.83 0 0 1 .63-2.73 4.29 4.29 0 0 1 2.22-1.52 8.16 8.16 0 0 1 2.3-.39 18.82 18.82 0 0 1 4.3.34 16.52 16.52 0 0 1 7.94 3.4 10.89 10.89 0 0 1 2.74 3.54 11.74 11.74 0 0 1 1.07 4.31 18.1 18.1 0 0 1-1.79 8.37 27.29 27.29 0 0 1-4.7 7 25.61 25.61 0 0 1-14.42 8.18 18.62 18.62 0 0 1-8.39-.56 21.13 21.13 0 0 1-7.3-4.05l.79-.23a30 30 0 0 1-8.45 14.57 43.58 43.58 0 0 1-14.3 8.91 71.48 71.48 0 0 1-16.2 4.24 94.72 94.72 0 0 1-16.66.94 96.88 96.88 0 0 1-16.55-1.88 81.49 81.49 0 0 1-15.94-4.86 42.13 42.13 0 0 1-14-9.17 20.16 20.16 0 0 1-4.49-7.18 15.16 15.16 0 0 1-.38-8.44l.92.37a28.64 28.64 0 0 1-4.81 6.56 19.94 19.94 0 0 1-6.92 4.57 15 15 0 0 1-8.41.65 21.58 21.58 0 0 1-7.65-3.36 36 36 0 0 1-6.21-5.35 22.39 22.39 0 0 1-4.37-7.11 18.53 18.53 0 0 1-1-8.35 20 20 0 0 1 2.67-8 16.23 16.23 0 0 1 5.95-6 7.91 7.91 0 0 1 2.16-.8 5 5 0 0 1 2.53.1 4.17 4.17 0 0 1 2.11 1.61 5.08 5.08 0 0 1 .83 2.38 9.09 9.09 0 0 1-.83 4.42 13.52 13.52 0 0 1-9.8 7.78 14.21 14.21 0 0 1-8.39-1.28 25.1 25.1 0 0 1-6.77-4.78 44.05 44.05 0 0 1-5.32-6.17c-.8-1.09-1.55-2.22-2.28-3.35l-1.07-1.71c-.34-.6-.68-1.2-1-1.81a35.11 35.11 0 0 1-3.61-16 71.31 71.31 0 0 1 2-16c2.4-10.46 6.08-20.47 9.4-30.55s6.54-20.23 7.61-30.73a50.21 50.21 0 0 0-.7-15.66 34.8 34.8 0 0 0-6.63-13.99.48.48 0 0 1 0-.56 67.57 67.57 0 0 0 7.06-13.9 29.48 29.48 0 0 0 1.33-14.92c-.83-5-2.69-9.89-4.53-14.8S151 199 149.26 194a187.31 187.31 0 0 1-7.9-30.84c-.89-5.24-1.58-10.48-2.06-15.79a71 71 0 0 1 .26-16.09 35.68 35.68 0 0 1 2.06-7.94 21.41 21.41 0 0 1 4.48-7.07 16.57 16.57 0 0 1 7.27-4.34 20.55 20.55 0 0 1 8.33-.54 29 29 0 0 1 7.91 2.21 27.5 27.5 0 0 1 7 4.34 12.83 12.83 0 0 1 2.79 3.31 5.06 5.06 0 0 1 .66 2.43 3.33 3.33 0 0 1-1.25 2.53 5.9 5.9 0 0 1-2.19 1 12.77 12.77 0 0 1-2.13.34 13 13 0 0 1-4.27-.26 7.63 7.63 0 0 1-3.89-2.24 8.3 8.3 0 0 1-2-4 18.1 18.1 0 0 1 .55-8.27 38 38 0 0 1 7.65-14.15 31.13 31.13 0 0 1 6-5.46 18.2 18.2 0 0 1 7.54-3.1 12.86 12.86 0 0 1 8 1.43 20.06 20.06 0 0 1 6 5.38h-.79a40.87 40.87 0 0 1 10-12.3A58.11 58.11 0 0 1 223 76.3a61.85 61.85 0 0 1 15.32-4.43 73.83 73.83 0 0 1 15.86-.75 89.66 89.66 0 0 1 30.59 7.48 66.56 66.56 0 0 1 13.63 8 35.82 35.82 0 0 1 5.81 5.4 17.23 17.23 0 0 1 2.22 3.37 9.71 9.71 0 0 1 1.12 3.94l-.84-.34a23.46 23.46 0 0 1 6.47-4.85 16.54 16.54 0 0 1 8-1.73 18.85 18.85 0 0 1 7.91 2.19 30.68 30.68 0 0 1 6.66 4.69 21.71 21.71 0 0 1 5.17 6.42 17.42 17.42 0 0 1 1.89 8.14 19.37 19.37 0 0 1-2 8.11 18.73 18.73 0 0 1-5.22 6.59 8.47 8.47 0 0 1-4.17 1.84 4.27 4.27 0 0 1-2.64-.55 4.6 4.6 0 0 1-1.73-2 8 8 0 0 1-.65-2.25 7.65 7.65 0 0 1 0-2.34 9.5 9.5 0 0 1 1.81-4.15 15.6 15.6 0 0 1 6.93-5 19.71 19.71 0 0 1 8.36-1.3 19.33 19.33 0 0 1 8.16 2.36 22.14 22.14 0 0 1 6.43 5.48c3.53 4.43 5.44 9.76 6.61 15.06a64.38 64.38 0 0 1 1.16 8.06 53.18 53.18 0 0 1 0 8.18 77.49 77.49 0 0 1-3.14 15.89c-3.07 10.32-7.52 20-11.77 29.74-2.11 4.85-4.25 9.68-6.08 14.59a72.41 72.41 0 0 0-4.15 15c-.69 5-.38 10.27 2 14.71a21.69 21.69 0 0 0 4.69 6 36 36 0 0 0 6.35 4.48.5.5 0 0 1-.44.9z"/></svg>