<?xml version="1.0" encoding="utf-8"?>
<!-- Generator: Adobe Illustrator 22.0.0, SVG Export Plug-In . SVG Version: 6.00 Build 0)  -->
<svg version="1.1" id="PRINT_1" xmlns="http://www.w3.org/2000/svg" xmlns:xlink="http://www.w3.org/1999/xlink" x="0px" y="0px"
	 viewBox="0 0 595.3 841.9" style="enable-background:new 0 0 595.3 841.9;" xml:space="preserve">
<style type="text/css">
	.st0{fill:#F9F1EA;}
	.st1{clip-path:url(#SVGID_2_);}
	.st2{fill:none;stroke:#E5D6CA;stroke-linecap:round;stroke-linejoin:round;stroke-miterlimit:10;}
	.st3{fill:#DDDDB6;}
	.st4{fill:#E8D7D1;}
	.st5{fill:#F4E4D7;}
	.st6{fill:#D3BBB4;}
	.st7{fill:#CCCA9E;}
	.st8{fill:#D6C0B2;}
	.st9{fill:#D8C3BC;}
</style>
<g>
	<g>
		<rect x="-8.5" y="-8.5" class="st0" width="612.3" height="858.9"/>
		<g>
			<defs>
				<rect id="SVGID_1_" x="-8.5" y="-8.5" width="612.3" height="858.9"/>
			</defs>
			<clipPath id="SVGID_2_">
				<use xlink:href="#SVGID_1_"  style="overflow:visible;"/>
			</clipPath>
			<g class="st1">
				<g>
					<g>
						<path class="st2" d="M329.7,142.8c-9-5.1-6.1-0.4-3.6,2.3c0.1,0.1,0.1,0.2,0.2,0.2c0.1,0.1,0.1,0.1,0.2,0.2l0,0
							c7.3,7.8,13.1,17.3,17.7,27c8.3,17.5,13.5,36.4,22.4,53.5c8.9,17.2,22.7,33.2,41.3,38.5C401.4,213.9,372.5,168.9,329.7,142.8z
							"/>
						<path class="st2" d="M458.4,175.5c-6.3-8.2-5.5-2.7-4.2,0.8c0,0.1,0.1,0.2,0.1,0.3c0,0.1,0.1,0.2,0.1,0.3l0,0
							c3.8,10,5.5,21,6.1,31.7c1,19.3-1.4,38.8,0.3,58.1c1.7,19.3,8.3,39.3,23.4,51.4C497.5,268.6,487.9,216,458.4,175.5z"/>
						<path class="st2" d="M518.7,235.3c-7.7-6.9-5.9-1.7-4,1.5c0.1,0.1,0.1,0.2,0.2,0.3c0,0.1,0.1,0.2,0.1,0.2l0,0
							c5.4,9.2,9.1,19.7,11.4,30.2c4.3,18.9,5.3,38.4,10.2,57.1c5,18.7,14.9,37.3,31.9,46.6C573.2,320.3,554.7,270.1,518.7,235.3z"
							/>
						<path class="st2" d="M620.1,293.9c-6-8.4-5.4-2.9-4.3,0.6c0,0.1,0.1,0.2,0.1,0.3c0,0.1,0.1,0.2,0.1,0.3l0,0
							c3.4,10.1,4.7,21.2,4.8,31.9c0.2,19.4-3,38.7-2,58c0.9,19.3,6.8,39.6,21.4,52.3C655.4,388.5,648,335.5,620.1,293.9z"/>
						<path class="st2" d="M283.9,243.6c-5.5-8.8-0.6-6.1,2.2-3.7c0.1,0.1,0.2,0.1,0.2,0.2c0.1,0.1,0.1,0.1,0.2,0.2l0,0
							c8.1,7,17.8,12.4,27.7,16.6c17.8,7.6,36.9,12,54.4,20.2c17.5,8.2,34.1,21.3,40.2,39.7C357.9,312.4,311.7,285.3,283.9,243.6z"
							/>
						<path class="st2" d="M331.8,352.2c-7.4-7.3-2-5.8,1.3-4.1c0.1,0,0.2,0.1,0.3,0.1c0.1,0,0.2,0.1,0.2,0.1l0,0
							c9.5,4.9,20.2,8,30.8,9.8c19.1,3.2,38.7,3.1,57.6,7.1c19,4,38.1,12.9,48.3,29.3C419.7,401.9,368.6,386.2,331.8,352.2z"/>
						<path class="st2" d="M411.5,462.4c-8.9-5.2-3.4-5.1,0.2-4.3c0.1,0,0.2,0,0.3,0.1c0.1,0,0.2,0,0.3,0.1l0,0
							c10.4,2.4,21.5,2.6,32.2,1.7c19.3-1.7,38.2-6.7,57.5-7.7c19.3-0.9,40.1,2.9,54.1,16.2C509.1,488.3,455.6,486.1,411.5,462.4z"
							/>
						<g>
							<path class="st2" d="M377.3,216C442,338.1,566.4,414.1,671.1,504.5c19.5,16.8,38.5,34.4,55.8,53.5"/>
						</g>
						<g>
							<path class="st2" d="M356.6,286.7c0,0,65.7,46.5,108.2,44.1"/>
						</g>
						<g>
							<path class="st2" d="M472.6,257.4c0,0,19,79.3,11.4,92"/>
						</g>
						<g>
							<path class="st2" d="M418,379.5c0,0,92.2,31,124.5,20.7"/>
						</g>
						<g>
							<path class="st2" d="M550.2,320.2c0,0,34.8,80.9,24,105.6"/>
						</g>
						<g>
							<path class="st2" d="M499.5,467.2c0,0,70.6,11.3,106.7-16"/>
						</g>
						<g>
							<path class="st2" d="M632.8,379.9c0,0,15,69.2,2.7,94.9"/>
						</g>
					</g>
				</g>
				<g>
					<g>
						<path class="st2" d="M327,410.7c3.8-9.3-0.4-5.9-2.7-3.2c-0.1,0.1-0.1,0.2-0.2,0.2c-0.1,0.1-0.1,0.1-0.2,0.2l0,0
							c-6.6,8.1-15,14.9-23.7,20.6c-15.8,10.3-33.3,17.8-48.8,28.7c-15.4,10.9-29,26.3-31.8,44.9C267.7,489.3,307.3,455.4,327,410.7
							z"/>
						<path class="st2" d="M312.3,539.3c7-7.2,1.9-5.6-1.3-4c-0.1,0-0.2,0.1-0.3,0.1c-0.1,0-0.2,0.1-0.2,0.1l0,0
							c-9.2,5-19.5,8.1-29.8,10c-18.5,3.5-37.6,3.7-56,7.8c-18.4,4.2-36.9,13.2-46.5,29.4C227.4,589.2,277,573.1,312.3,539.3z"/>
						<path class="st2" d="M262.4,605.3c5.7-8.3,0.9-5.9-2-3.7c-0.1,0.1-0.2,0.1-0.2,0.2c-0.1,0.1-0.1,0.1-0.2,0.2l0,0
							c-8.2,6.5-17.9,11.3-27.6,15c-17.7,6.6-36.4,10.1-53.8,17.4c-17.4,7.3-34.1,19.3-40.8,36.9C187.4,669,233.5,644.6,262.4,605.3
							z"/>
						<path class="st2" d="M219.1,710.9c7.3-6.9,2.1-5.6-1.1-4c-0.1,0-0.2,0.1-0.3,0.1c-0.1,0-0.2,0.1-0.2,0.1l0,0
							c-9.3,4.6-19.8,7.3-30.2,8.8c-18.7,2.7-37.7,2.2-56.3,5.7c-18.5,3.4-37.4,11.7-47.7,27.5C132.3,757.4,182.5,743.2,219.1,710.9
							z"/>
						<path class="st2" d="M223.6,379.7c7.7-6.4,5.8-1.4,3.9,1.6c-0.1,0.1-0.1,0.2-0.2,0.3c-0.1,0.1-0.1,0.2-0.2,0.2l0,0
							c-5.7,8.7-9.7,18.8-12.4,28.9c-5,18.2-6.8,37.2-12.4,55.2c-5.7,18-16.2,35.7-33.1,44C166.9,460.1,187,412,223.6,379.7z"/>
						<path class="st2" d="M125.1,440.2c6-8,5.3-2.7,4.1,0.7c0,0.1-0.1,0.2-0.1,0.3c0,0.1-0.1,0.2-0.1,0.3l0,0
							c-3.5,9.8-5.1,20.5-5.4,31c-0.6,18.9,2,37.7,0.7,56.6c-1.3,18.8-7.5,38.4-22,50.4C88.6,531.6,97,480.1,125.1,440.2z"/>
						<path class="st2" d="M29.1,531.5c3.8-9.3,4.5-3.9,4.2-0.4c0,0.1,0,0.2,0,0.3c0,0.1,0,0.2,0,0.3l0,0
							c-0.9,10.4,0.3,21.1,2.6,31.3c4.2,18.4,11.5,36,14.9,54.6c3.4,18.5,2.5,39.1-8.6,54.4C16.8,629.1,12,577.2,29.1,531.5z"/>
						<g>
							<path class="st2" d="M262.5,466.2C153,544.7,96,674.8,22.4,787.7c-13.7,21-28.2,41.7-44.4,60.8"/>
						</g>
						<g>
							<path class="st2" d="M191.5,455.5c0,0-36.3,69.5-28.5,110.3"/>
						</g>
						<g>
							<path class="st2" d="M235,563.7c0,0-74.1,28.7-87.4,23"/>
						</g>
						<g>
							<path class="st2" d="M110,526.9c0,0-17.8,93.1-3.7,122.9"/>
						</g>
						<g>
							<path class="st2" d="M184.5,646.9c0,0-73.6,44.2-98.8,37"/>
						</g>
						<g>
							<path class="st2" d="M36,617.1c0,0-1.7,69.6,29.4,100.9"/>
						</g>
						<g>
							<path class="st2" d="M137.7,734.4c0,0-64.9,23.5-91.3,15.1"/>
						</g>
					</g>
				</g>
				<g>
					<g>
						<path class="st2" d="M242.2,769c-5.9,6.5-1.4,5,1.2,3.4c0.1,0,0.2-0.1,0.2-0.1c0.1,0,0.1-0.1,0.2-0.1l0,0
							c7.8-4.6,16.7-7.6,25.6-9.6c16-3.6,32.6-4.4,48.5-8.6c15.9-4.2,31.7-12.6,39.5-27C314.4,723,271.8,738.5,242.2,769z"/>
						<path class="st2" d="M293.3,668.7c-7.9,3.7-3.2,4-0.2,3.6c0.1,0,0.2,0,0.3,0c0.1,0,0.2,0,0.2,0l0,0c9-1.3,18.4-0.7,27.3,0.9
							c16.2,2.8,31.8,8.4,48.1,10.6c16.3,2.2,34.1,0.5,46.9-9.8C377.6,653.8,332.2,651.8,293.3,668.7z"/>
						<path class="st2" d="M354,630c-7.2,5-2.5,4.5,0.5,3.6c0.1,0,0.2-0.1,0.3-0.1c0.1,0,0.2-0.1,0.2-0.1l0,0
							c8.6-2.8,18-3.8,27.1-3.8c16.4,0,32.8,2.8,49.2,2.2c16.4-0.6,33.6-5.4,44.5-17.7C434.5,600.8,389.5,606.7,354,630z"/>
						<path class="st2" d="M421.4,557.1c-8.1,3.4-3.4,3.9-0.3,3.6c0.1,0,0.2,0,0.3,0c0.1,0,0.2,0,0.2,0l0,0c9-0.9,18.4,0.1,27.3,2
							c16,3.4,31.4,9.7,47.6,12.5c16.2,2.8,34,1.8,47.2-8C506.2,545.5,461,541.8,421.4,557.1z"/>
						<path class="st2" d="M317.1,825.7c-8.3,2.9-5.1-0.6-2.7-2.5c0.1-0.1,0.1-0.1,0.2-0.2c0.1,0,0.1-0.1,0.2-0.1l0,0
							c7.3-5.4,13.6-12.4,18.9-19.8c9.6-13.3,16.8-28.3,26.9-41.2c10.1-12.9,24-24.2,40.3-25.8C387.7,777.4,356.7,810.5,317.1,825.7
							z"/>
						<path class="st2" d="M415.8,806.3c-7.4,4.7-5.1,0.6-3.2-1.8c0.1-0.1,0.1-0.1,0.2-0.2c0.1-0.1,0.1-0.1,0.2-0.2l0,0
							c5.8-6.9,10.4-15.2,13.8-23.6c6.2-15.2,9.8-31.4,16.6-46.3c6.8-14.9,17.8-29.1,33.3-34.4C473.3,742.9,450.8,782.3,415.8,806.3
							z"/>
						<path class="st2" d="M521.8,761c-5.9,6.4-4.8,1.9-3.5-1c0-0.1,0.1-0.2,0.1-0.2c0-0.1,0.1-0.1,0.1-0.2l0,0
							c3.9-8.2,6.2-17.3,7.4-26.3c2.2-16.3,1.6-32.8,4.4-49c2.8-16.2,9.8-32.6,23.5-41.7C561.4,685.2,549.6,729,521.8,761z"/>
						<g>
							<path class="st2" d="M311.6,743.3C424.7,712.6,510.8,623.9,605,554.2c17.5-13,35.6-25.4,54.6-36.1"/>
						</g>
						<g>
							<path class="st2" d="M366.3,773.7c0,0,50.7-45.7,56.7-81.3"/>
						</g>
						<g>
							<path class="st2" d="M363.7,672.2c0,0,69.1-0.9,78.2,7.7"/>
						</g>
						<g>
							<path class="st2" d="M454.4,740.2c0,0,42.8-70.5,40.3-99.1"/>
						</g>
						<g>
							<path class="st2" d="M430.1,619.8c0,0,73.4-13.7,91.8-0.2"/>
						</g>
						<g>
							<path class="st2" d="M542.1,689.1c0,0,22.5-56.2,6.7-91.2"/>
						</g>
						<g>
							<path class="st2" d="M494.8,562.6c0,0,60,0.5,79,15.4"/>
						</g>
					</g>
				</g>
				<g>
					<g>
						<path class="st2" d="M243.1,46.8c-7.7-2.9-3.3-3.5-0.4-3.4c0.1,0,0.2,0,0.2,0c0.1,0,0.2,0,0.2,0l0,0
							c8.5,0.5,17.2-0.7,25.5-2.8c14.9-3.8,29.1-10.2,44.1-13.4c15-3.2,31.8-2.9,44.5,5.8C323,54.6,280.8,59.7,243.1,46.8z"/>
						<path class="st2" d="M328.4,109c-8.2,0.3-4.4-2-1.7-3c0.1,0,0.2-0.1,0.2-0.1c0.1,0,0.1,0,0.2-0.1l0,0
							c8-2.8,15.6-7.3,22.5-12.4c12.3-9.2,23-20.5,35.6-29.3c12.7-8.7,28.3-14.9,43.3-11.7C405.1,85.6,368.1,106.5,328.4,109z"/>
						<path class="st2" d="M395.5,115.5c-8.1-1.2-4-2.7-1.1-3.2c0.1,0,0.2,0,0.2,0c0.1,0,0.2,0,0.2,0l0,0c8.4-1.3,16.7-4.5,24.3-8.3
							c13.7-7,26.2-16.3,40.2-22.7c14-6.4,30.4-9.8,44.7-4.1C475.2,105.7,435.1,119.9,395.5,115.5z"/>
						<path class="st2" d="M482.8,147.8c-8.2,0.6-4.5-1.8-1.8-2.9c0.1,0,0.2-0.1,0.2-0.1c0.1,0,0.1-0.1,0.2-0.1l0,0
							c7.9-3.1,15.3-7.9,22-13.2c11.9-9.7,22.2-21.4,34.5-30.6c12.3-9.2,27.7-16,42.8-13.4C558.6,121.5,522.4,143.8,482.8,147.8z"/>
						<path class="st2" d="M281.6-32.4c-8.1,1.1-4,2.7-1.2,3.2c0.1,0,0.2,0,0.2,0c0.1,0,0.2,0,0.2,0l0,0c8.4,1.4,16.6,4.6,24.2,8.5
							c13.7,7.1,26,16.5,40,23c13.9,6.5,30.3,10,44.7,4.4C361.1-22,321.2-36.5,281.6-32.4z"/>
						<path class="st2" d="M372.3-58.1c-8.2-0.8-4.5,1.7-1.9,2.9c0.1,0,0.2,0.1,0.2,0.1c0.1,0,0.1,0.1,0.2,0.1l0,0
							c7.8,3.3,15.1,8.3,21.6,13.9c11.7,10,21.5,22.1,33.6,31.6c12,9.6,27.2,16.8,42.4,14.6C447.3-29.5,411.8-52.9,372.3-58.1z"/>
						<path class="st2" d="M480.1-65.3c-7.7-2.9-4.8,0.5-2.5,2.3c0.1,0,0.1,0.1,0.2,0.2c0.1,0,0.1,0.1,0.2,0.1l0,0
							c6.7,5.2,12.5,11.9,17.4,18.9C504-31.2,510.6-17,519.8-4.7c9.2,12.3,22.1,23.1,37.4,24.9C545.5-18.7,517-50.3,480.1-65.3z"/>
						<g>
							<path class="st2" d="M312,38.8C419.6,16.4,529.1,54,637.5,72.2c20.2,3.4,40.6,6.1,61,7"/>
						</g>
						<g>
							<path class="st2" d="M344.8-9.8c0,0,61.7,16.6,81.9,43.8"/>
						</g>
						<g>
							<path class="st2" d="M385.7,76.1c0,0,58.1-28.6,62.1-39.7"/>
						</g>
						<g>
							<path class="st2" d="M432.7-19.2c0,0,65.7,40.7,75.8,65.7"/>
						</g>
						<g>
							<path class="st2" d="M463.5,91.7c0,0,67.1-19.7,76.8-38.9"/>
						</g>
						<g>
							<path class="st2" d="M527.7-13.8c0,0,42.7,37.4,44.3,73.4"/>
						</g>
						<g>
							<path class="st2" d="M541.8,112c0,0,50-25.9,59.4-46.4"/>
						</g>
					</g>
				</g>
				<g>
					<g>
						<path class="st2" d="M-56.6,427.5c-2.7,10.7,1.3,6.4,3.4,3.1c0.1-0.1,0.1-0.2,0.2-0.3c0.1-0.1,0.1-0.2,0.2-0.3l0,0
							c6-9.8,14.1-18.5,22.8-25.9c15.7-13.5,33.8-24.2,49-38.3c15.2-14.1,27.8-32.8,28.1-53.6C-3.4,333.3-41.7,375.9-56.6,427.5z"/>
						<path class="st2" d="M-59.2,285.3c-6.6,8.9-1.2,6.4,2,4.2c0.1-0.1,0.2-0.1,0.3-0.2c0.1-0.1,0.2-0.1,0.2-0.2l0,0
							c9.3-6.7,20.1-11.6,31-15.2c19.7-6.5,40.5-9.5,59.9-16.7c19.4-7.2,38.3-19.7,46.5-38.8C26,218.6-25.7,243.3-59.2,285.3z"/>
						<path class="st2" d="M-14.5,206.1c-5,9.9-0.1,6.5,2.7,3.7c0.1-0.1,0.2-0.2,0.2-0.2c0.1-0.1,0.1-0.1,0.2-0.2l0,0
							c8-8.2,17.8-14.9,27.9-20.3c18.3-9.8,38.2-16.3,56.1-26.7c17.9-10.4,34.3-26,39.1-46.2C58,125.8,11.3,159-14.5,206.1z"/>
						<path class="st2" d="M17.5,84.8c-7,8.6-1.5,6.4,1.8,4.2c0.1-0.1,0.2-0.1,0.3-0.2c0.1-0.1,0.2-0.1,0.3-0.2l0,0
							c9.5-6.4,20.6-10.9,31.6-14c19.9-5.7,40.8-7.9,60.5-14.3c19.7-6.4,39-18.2,47.9-36.9C105.2,21.5,52.6,44.2,17.5,84.8z"/>
						<path class="st2" d="M60.6,446.4c-7.5,8.1-6.1,2.4-4.4-1.2c0-0.1,0.1-0.2,0.1-0.3c0-0.1,0.1-0.2,0.1-0.3l0,0
							c4.9-10.3,7.8-21.9,9.3-33.3c2.8-20.6,2-41.5,5.5-61.9c3.6-20.4,12.4-41.2,29.7-52.7C110.7,350.5,95.7,405.8,60.6,446.4z"/>
						<path class="st2" d="M159.1,366.1c-5.4,9.6-5.4,3.7-4.6-0.1c0-0.1,0-0.2,0.1-0.3c0-0.1,0-0.2,0.1-0.3l0,0
							c2.4-11.2,2.5-23.1,1.4-34.5c-2.1-20.6-7.7-40.8-9-61.5c-1.3-20.7,2.5-43,16.7-58.2C185.7,261.2,184,318.5,159.1,366.1z"/>
						<path class="st2" d="M250.5,252.7c-2.8,10.7-4.3,4.9-4.5,1c0-0.1,0-0.2,0-0.3c0-0.1,0-0.2,0-0.3l0,0
							c-0.5-11.4-3.4-23-7.4-33.8c-7.2-19.4-17.7-37.6-24.2-57.3c-6.4-19.7-8.4-42.2,1.5-60.5C249.7,144.5,262.5,200.4,250.5,252.7z
							"/>
						<g>
							<path class="st2" d="M5.6,357.7c107.9-101.4,151.2-251.4,215-385.1c11.9-24.9,24.7-49.5,39.5-72.7"/>
						</g>
						<g>
							<path class="st2" d="M84.6,359.1c0,0,29.4-81,15-124.3"/>
						</g>
						<g>
							<path class="st2" d="M21.5,247.4c0,0,76.6-42,91.9-37.8"/>
						</g>
						<g>
							<path class="st2" d="M163,269.4c0,0,5.9-104.1-13.8-134.4"/>
						</g>
						<g>
							<path class="st2" d="M64.4,149.5c0,0,73.7-58.8,102.3-54.7"/>
						</g>
						<g>
							<path class="st2" d="M230.6,160.4c0,0-8.2-76.1-46.7-105.7"/>
						</g>
						<g>
							<path class="st2" d="M102.7,47.3c0,0,67.3-35.1,97.3-29.7"/>
						</g>
					</g>
				</g>
			</g>
		</g>
	</g>
	<g>
		<g>
			<path class="st3" d="M603.8-8.5H57.2C49.9,18.8,80.6,53.9,109,65.4c31.6,12.8,66.8,11.6,100.2,9.9c34.8-1.7,70.6-3.8,103.5,7.7
				c38.7,13.5,68.8,44.5,94,76.8c25.2,32.4,47.6,67.5,78.1,94.9s72,46.5,112.3,38.5c2.3-0.4,4.5-1,6.7-1.6V-8.5z"/>
			<path class="st4" d="M283,119.6c-29.8-17.6-66.2-21-100.5-16.2c-67.4,9.4-147.3,35.5-191.1,91.2v202.6
				c6.6,6.9,14.4,12.4,23.5,15.6c17.8,6.3,37.7,2.7,55.2-4.4c17.5-7.1,33.4-17.5,50.6-25.4c40.6-18.7,87.8-22.7,131-11
				c15.9,4.3,31.6,10.7,48,10.9c40.3,0.5,73-38.3,77.9-78.3c4.9-40-11.4-79.7-31.8-114.5C330,162.5,310.5,135.8,283,119.6z"/>
			<path class="st5" d="M339.2,502.2c-23.1-23.3-50.5-40.1-79.2-55.1c-56.5-28.7-97.4-19.8-107.5-17.6c-18,4.3-35.2,10.7-48.8,16.8
				c-35,15.8-65.9,45-74.7,82.4c-8.7,37.4,10.4,81.9,46.8,94c16.6,5.5,34.8,4.2,51.4,9.7c33.3,11.1,51.7,46,79.3,67.5
				c29.9,23.3,72,30,107.7,17c35.6-13,63.6-45.2,71.5-82.3C395.9,586.9,373.5,536.8,339.2,502.2z"/>
			<path class="st3" d="M408.7,833.5c-15.1-11.4-34.3-15.9-53.2-17.1c-18.9-1.2-37.8,0.5-56.7-0.1c-56.8-1.7-112.8-24.5-154.6-63
				c-21.7-20-39.9-44.2-64.9-59.9c-25.8-16.2-58-21.7-87.8-15.8v172.8h432.1C419.8,843.9,414.6,838.1,408.7,833.5z"/>
			<path class="st4" d="M603.8,609.9c-4.7-2-9.9-3.8-15.7-5.3c-67.5-17.7-145.2,18.9-174.5,82.3c-10.3,22.4-14.7,49.4-3.2,71.2
				c15.1,28.5,52.1,38.1,84.2,35c42.7-4.2,82.2-27.2,109.3-60.1V609.9z"/>
		</g>
		<g>
			<g>
				<path class="st6" d="M337.4,294.6c12.3,7.2,25.5,12.8,39.3,16.8c0.1-0.3,0.1-0.7,0.2-1c-13.6-3.9-26.8-9.5-38.9-16.7
					c-21.5-12.6-40-30-53.6-50.4c-2.8-4.5-2.4-5.2-2.4-5.3c0.3-0.1,1.8,0.5,3.8,2.2l0.4,0.4c0,0,0.1,0,0.1,0.1
					c7.4,6.4,16.7,12,27.7,16.6c8,3.4,16.5,6.2,24.6,9c9.9,3.3,20.2,6.8,29.8,11.3c3.7,1.7,7.1,3.5,10.1,5.4c0-0.4,0-0.8-0.1-1.2
					c-3.3-2-6.6-3.7-9.6-5.1c-9.7-4.5-19.9-8-29.9-11.3c-8.1-2.7-16.5-5.5-24.6-8.9c-11-4.6-20.2-10.2-27.5-16.5c0,0,0,0-0.1,0
					l-0.4-0.3c-1.2-1-4-3.2-5.1-2.2c-0.6,0.5-0.8,1.7,2.2,6.5c0,0,0,0,0,0C297.2,264.4,315.8,281.9,337.4,294.6z"/>
				<path class="st6" d="M332.2,351.8c-3.8-3.7-3.5-4.5-3.5-4.6c0.2-0.2,1.9,0,4.2,1.3l0.5,0.3c0,0,0.1,0,0.1,0
					c6.1,3.2,13.1,5.7,20.8,7.7c0.2-0.3,0.5-0.6,0.7-0.8c-7.9-1.9-15-4.5-21.2-7.7c0,0-0.1,0-0.1,0l-0.5-0.2c-1.4-0.7-4.6-2.2-5.5-1
					c-0.5,0.7-0.4,1.9,3.7,5.9c0,0,0,0,0,0c4.6,4.3,9.5,8.3,14.7,12.1c0.3-0.2,0.5-0.5,0.8-0.7C341.8,360.2,336.8,356.1,332.2,351.8
					z"/>
				<path class="st6" d="M356.8,286.3c-0.2-0.2-0.5-0.1-0.7,0.1c-0.2,0.2-0.1,0.5,0.1,0.7c0.2,0.2,8.9,6.3,21.9,13.9
					c0-0.4,0.1-0.7,0.1-1.1C365.6,292.4,357.1,286.5,356.8,286.3z"/>
			</g>
			<g>
				<path class="st7" d="M461,230.3c0.2-7.2,0.3-14.6-0.1-21.9c-0.6-12-2.6-22.6-6.1-31.8c0,0,0-0.1,0-0.1l-0.2-0.5
					c-0.9-2.5-1-4.1-0.8-4.3c0,0,0.9-0.1,4.1,4c14.4,19.8,24.4,43.2,28.8,67.7c0.9,4.9,1.5,9.8,2,14.8c0.4,0.3,0.7,0.6,1.1,0.9
					c-0.4-5.3-1.1-10.6-2.1-15.8c-4.5-24.6-14.5-48.2-29-68.1c0,0,0,0,0,0c-3.5-4.5-4.7-4.7-5.4-4.3c-1.3,0.7-0.2,4.1,0.3,5.6
					l0.2,0.5c0,0,0,0.1,0,0.1c3.4,9,5.4,19.6,6,31.5c0.3,6.9,0.3,13.9,0.1,20.7C460.4,229.6,460.7,230,461,230.3z"/>
				<path class="st7" d="M526.9,267.3c-2.6-11.7-6.5-21.8-11.4-30.2c0,0,0-0.1,0-0.1l-0.3-0.5c-1.3-2.3-1.7-3.9-1.5-4.1
					c0,0,0.8-0.3,4.8,3.3c16.5,15.9,29.6,35.6,38.3,57.2c0.4,0.1,0.8,0.2,1.2,0.2c-8.7-22-22-42-38.8-58.1c0,0,0,0,0,0
					c-4.2-3.8-5.4-3.8-6.1-3.3c-1.2,0.9,0.5,4.1,1.3,5.4l0.3,0.4c0,0,0,0.1,0,0.1c4.9,8.3,8.7,18.4,11.4,30c1.2,5.3,2.2,10.8,3,16.2
					c0.4,0.2,0.7,0.3,1.1,0.5C529.1,278.6,528.1,272.9,526.9,267.3z"/>
			</g>
			<g>
				<path class="st8" d="M29.5,531.7c2-4.8,2.8-4.9,2.8-4.9c0.3,0.2,0.6,1.9,0.4,4.3l-0.1,0.6c0,0,0,0.1,0,0.1
					c-0.8,9.5,0,20,2.6,31.4c1.9,8.3,4.4,16.6,6.9,24.6c1.5,4.9,3,9.8,4.4,14.8c0.5,0.6,1,1.1,1.5,1.7c-1.5-5.7-3.3-11.3-5-16.8
					c-2.5-8-5-16.2-6.9-24.5c-2.6-11.3-3.4-21.8-2.6-31.2c0,0,0-0.1,0-0.1l0-0.5c0.1-1.5,0.2-5-1.2-5.3c-0.8-0.2-1.8,0.3-3.9,5.5
					c0,0,0,0,0,0c-0.1,0.3-0.2,0.7-0.4,1c-0.3,1.7-0.6,3.5-0.8,5.3C28.1,535.6,28.8,533.6,29.5,531.7z"/>
				<path class="st8" d="M316.1,533.8c-0.9-1.2-4,0.3-5.4,1l-0.4,0.2c0,0-0.1,0-0.1,0c-8.3,4.5-18.3,7.8-29.7,10
					c-8.3,1.6-16.9,2.5-25.2,3.4c-10.2,1.1-20.7,2.2-30.8,4.5c-27.8,6.3-40.8,19.4-46.8,29.4c-13,3.5-24.4,5.7-29.3,4.2
					c21.4-30.1,44.6-58.6,71-83.8c0,0,0.1,0,0.2,0c0,0,0.1,0,0.1,0c23.6-6.4,45.9-18.1,64.5-34c1.9-1.6,3.7-3.2,5.5-4.9
					c-0.3-0.2-0.6-0.4-0.9-0.5c-1.7,1.6-3.5,3.2-5.3,4.7c-18.1,15.4-39.7,26.9-62.7,33.4c13.1-12.4,27-24.1,41.9-34.7
					c0.2-0.2,0.3-0.5,0.1-0.7c-0.2-0.2-0.5-0.3-0.7-0.1c-14.8,10.6-28.7,22.2-41.8,34.6c2.1-11.3,9.4-27.3,31.3-42.7
					c4.1-2.9,8.5-5.6,12.9-8.2c-0.3-0.2-0.7-0.4-1-0.5c-4.2,2.5-8.4,5.1-12.4,7.9c-23,16.2-30,33.2-31.9,44.7
					c-20.3,19.4-38.7,40.6-55.9,63.1c-2.7-15.9,1.1-36,6.7-54.7c10.4-5.3,24.3-17.2,32.7-44c3.1-9.9,5.1-20.3,7-30.3
					c0.4-2,0.8-4,1.2-6c-0.3-0.1-0.7-0.1-1-0.2c-0.4,2-0.8,4-1.2,6c-1.9,10-3.9,20.4-7,30.2c-8.1,25.7-21.2,37.5-31.4,42.9
					c8.7-28.1,21.2-52.5,21.5-52.9c0.1-0.2,0-0.5-0.2-0.7c-0.2-0.1-0.5,0-0.7,0.2c-0.2,0.4-12.7,24.6-21.4,52.6
					c-0.8-23.7,3.5-47.7,12.6-69.5c1.7-4,3.5-7.9,5.5-11.8c-0.4,0-0.7,0-1.1-0.1c-1.9,3.7-3.7,7.5-5.3,11.4
					c-9.4,22.5-13.8,47.3-12.7,71.8c0,0.2,0.1,0.3,0.2,0.4c-5.7,19-9.5,39.5-6.4,55.5c-5.2,6.8-10.2,13.7-15.1,20.6
					c-0.1,0.1-0.2,0.1-0.2,0.2c0,0,0,0.1,0,0.1c-10,14.1-19.6,28.6-28.9,43.2c0.4,0.1,0.7,0.2,1.1,0.2c9.2-14.5,18.7-28.8,28.6-42.8
					c1.2,0.4,2.8,0.6,4.7,0.6c6.1,0,15.4-1.9,25.7-4.7c7,0.9,14,1.3,21,1.3c17.4,0,34.9-2.7,51.4-8.1c23.2-7.5,44.7-20.3,62-36.9
					c0,0,0,0,0,0C316.5,535.7,316.6,534.5,316.1,533.8z M311.9,538.9c-17.2,16.5-38.5,29.2-61.6,36.7c-22.2,7.2-46.2,9.6-69.5,7
					c24.3-6.8,52.5-17.7,54.3-18.4c0.3-0.1,0.4-0.4,0.3-0.6c-0.1-0.3-0.4-0.4-0.6-0.3c-0.5,0.2-30.6,11.8-55.6,18.7
					c6.1-9.7,19-22.1,45.6-28.1c10.1-2.3,20.6-3.4,30.7-4.5c8.3-0.9,16.9-1.8,25.3-3.4c11.5-2.1,21.5-5.5,29.9-10c0,0,0.1,0,0.1,0
					l0.5-0.3c2.1-1.1,3.8-1.5,4.1-1.3C315.3,534.5,315.5,535.3,311.9,538.9z"/>
				<path class="st8" d="M260.1,601.2l-0.4,0.3c0,0,0,0-0.1,0c-7.4,5.8-16.6,10.9-27.5,14.9c-7.9,3-16.3,5.3-24.3,7.6
					c-9.8,2.8-20,5.7-29.6,9.7c-10.2,4.3-18.1,9.2-24.1,14.2c0.3,0.2,0.5,0.4,0.8,0.7c5.9-4.9,13.6-9.8,23.7-14
					c9.5-4,19.7-6.9,29.5-9.7c8.1-2.3,16.4-4.7,24.4-7.7c10.9-4.1,20.2-9.1,27.7-15c0,0,0.1,0,0.1-0.1l0.4-0.4c2-1.6,3.5-2.1,3.8-2
					c0,0,0.4,0.8-2.5,5c-14.1,19.2-32.9,35.4-54.4,46.7c-11.2,5.9-23.1,10.5-35.5,13.7c0.3,0.3,0.5,0.6,0.8,0.8
					c12.2-3.2,24-7.8,35.2-13.7c21.6-11.4,40.5-27.7,54.7-47c0,0,0,0,0,0c3.2-4.6,3-5.8,2.4-6.3
					C264.2,598.3,261.3,600.3,260.1,601.2z"/>
				<path class="st8" d="M221.2,709.5c2.3-2.4,2.3-3.3,1.9-3.9c-0.8-1.2-4,0.2-5.4,0.8l-0.4,0.2c0,0-0.1,0-0.1,0
					c-0.2,0.1-0.3,0.1-0.5,0.2c0.3,0.2,0.7,0.4,1,0.6l0.4-0.2c2.3-1.1,3.9-1.3,4.1-1.1c0,0,0.1,0.6-2,2.8
					C220.6,709.1,220.9,709.3,221.2,709.5z"/>
				<path class="st8" d="M185,646.6c-0.1-0.2-0.4-0.3-0.7-0.2c-0.1,0.1-8.2,4.9-19.8,11.1c0.2,0.2,0.5,0.5,0.7,0.7
					c11.5-6.1,19.5-10.9,19.6-11C185,647.1,185.1,646.8,185,646.6z"/>
				<path class="st8" d="M101.8,579.5c0,0.1,0.1,0.2,0.3,0.3c-1.8,19.3-2.2,35.2-1.2,47.6c0.4,0,0.7,0.1,1.1,0.1
					c-1-12.6-0.7-28.8,1.2-48.2c8.9-7.5,19.7-22.3,21.7-50.4c0.7-10.4,0.3-20.9-0.2-31.1c-0.4-8.3-0.8-17-0.5-25.5
					c0.4-11.6,2.2-22,5.4-30.8c0,0,0-0.1,0-0.1l0.2-0.5c0.4-1.3,1.3-4.1,0.5-5.1c-1,0.3-2.1,0.7-3.1,1c-0.7,0.7-1.5,1.6-2.5,2.9
					c0,0,0,0,0,0c-13.8,19.7-23.2,42.8-27.2,66.9C93.6,530.8,95.1,556,101.8,579.5z M125.5,440.5c3.1-4.1,3.9-4,3.9-4
					c0.2,0.2,0.2,1.8-0.7,4.2l-0.2,0.5c0,0,0,0.1,0,0.1c-3.2,8.9-5,19.4-5.4,31c-0.3,8.5,0.1,17.2,0.5,25.5
					c0.5,10.2,0.9,20.7,0.2,31c-1.9,26.8-12,41.4-20.5,49c0-0.2,0-0.4,0.1-0.6c2.7-26.7,7.1-50,7.1-50.2c0.1-0.3-0.1-0.5-0.4-0.6
					c-0.3,0-0.5,0.1-0.6,0.4c0,0.2-4.5,23.6-7.2,50.3c0,0.1,0,0.2,0,0.4c-6.3-22.9-7.6-47.3-3.8-70.6
					C102.4,483,111.8,460,125.5,440.5z"/>
			</g>
			<path class="st7" d="M-8.5,831v1.6c9.9-12.9,20.1-27.5,31.4-44.7c8.1-12.4,16-25.1,23.8-37.9c3.9,1.2,8.6,1.8,14.3,1.8
				c6.3,0,13.7-0.7,22.3-2.2c9.1,1.5,18.4,2.3,27.7,2.3c9.8,0,19.5-0.9,29.1-2.6c-0.3-0.3-0.6-0.6-0.9-0.9
				c-17.4,3-35.4,3.2-52.9,0.6c5-0.9,10.2-2.1,15.9-3.5c10.4-2.6,20-5.5,26.6-7.6c-0.3-0.3-0.5-0.5-0.8-0.8
				c-10.2,3.3-27,8.2-43.5,11.2c5.3-7.6,14.9-16.8,32.5-22.6c-0.3-0.3-0.5-0.5-0.8-0.8C98,731.1,88.2,740.7,83,748.6
				c-13.6,2.3-26.8,3.2-35.8,0.6c9.3-15.2,18.4-30.6,27.4-45.6c1.9-3.2,3.8-6.3,5.7-9.5c-0.3-0.2-0.6-0.4-0.8-0.6
				c-1.9,3.2-3.8,6.4-5.7,9.6c-2.8,4.7-5.6,9.4-8.4,14.2c-9.8-10-16.2-24-20.5-38.4c-0.4-0.1-0.7-0.2-1.1-0.3
				c4.3,14.8,11,29.2,21.1,39.5c-13.8,23.2-28.1,46.8-42.7,69.3C11.1,804.1,1.2,818.4-8.5,831z"/>
			<path class="st7" d="M312.6,827.4c0.9,0,2.3-0.3,4.6-1.1c0,0,0,0,0,0c7.3-2.8,14.4-6.3,21.1-10.3c-0.7,0-1.3,0-2,0
				c-6.2,3.6-12.7,6.7-19.4,9.3c-3.9,1.4-4.6,1.1-4.7,1.1c0,0,0,0,0,0c0-0.3,0.8-1.4,2.5-2.7l0.4-0.3c0,0,0.1,0,0.1-0.1
				c2.8-2.1,5.5-4.5,8.2-7.1c-0.5,0-1,0-1.4,0c-2.4,2.4-4.9,4.5-7.4,6.3c0,0,0,0-0.1,0.1l-0.3,0.3c-1,0.8-3.4,2.8-2.8,3.9
				C311.5,827.1,311.8,827.4,312.6,827.4z"/>
			<g>
				<path class="st8" d="M363.7,671.7c-0.3,0-0.5,0.2-0.5,0.5c0,0.3,0.2,0.5,0.5,0.5c0,0,0,0,0,0c0.1,0,2.3,0,5.9,0
					c0.2-0.3,0.4-0.7,0.7-1C366.6,671.7,364.2,671.7,363.7,671.7z"/>
				<path class="st8" d="M293,668.2c-4.4,2.1-4.8,3-4.6,3.7c0.4,1.3,3.4,1,4.7,0.8l0.4-0.1c0,0,0.1,0,0.1,0
					c8.1-1.1,17.2-0.8,27.2,0.9c7.3,1.3,14.5,3.1,21.6,4.9c6.3,1.6,12.8,3.3,19.4,4.5c0.2-0.3,0.5-0.6,0.7-0.9
					c-6.7-1.3-13.4-3-19.9-4.6c-7.1-1.8-14.4-3.7-21.7-4.9c-6.1-1.1-11.8-1.6-17.3-1.6c-3.5,0-6.9,0.2-10.2,0.7c0,0-0.1,0-0.1,0
					l-0.1,0l0.1,0.5l-0.2-0.5l-0.2,0c-2.1,0.3-3.5,0.1-3.6-0.1c0-0.1,0.2-0.8,4.1-2.6c26-11.2,55.2-14,83.1-8.5
					c0.2-0.3,0.3-0.6,0.5-0.9C348.9,654.1,319.3,656.9,293,668.2C293.1,668.2,293,668.2,293,668.2z"/>
				<path class="st8" d="M353.7,629.6c-4,2.8-4.2,3.8-3.9,4.5c0.2,0.5,0.8,0.6,1.6,0.6c1.1,0,2.5-0.4,3.3-0.6l0.4-0.1
					c0,0,0.1,0,0.1,0c7.8-2.5,16.8-3.8,26.9-3.8c0,0,0.1,0,0.1,0c1.5,0,3,0,4.5,0.1c0.1-0.3,0.1-0.7,0.2-1c-1.5,0-3.1-0.1-4.6-0.1
					c0,0-0.1,0-0.1,0c-10.2,0-19.3,1.3-27.2,3.8c0,0-0.1,0-0.1,0l-0.5,0.2c-2,0.6-3.4,0.7-3.6,0.5c0-0.1,0.1-0.8,3.6-3.2
					c10.5-6.9,21.9-12.3,33.9-16c0-0.4,0-0.7,0-1.1C376,617.1,364.4,622.6,353.7,629.6C353.7,629.6,353.7,629.6,353.7,629.6z"/>
			</g>
			<g>
				<path class="st9" d="M495.2,641.4c14.2-11.1,28.3-22.4,42.2-33.6c3.1-2.5,6.2-5,9.3-7.5c-0.6,0-1.1,0.1-1.7,0.1
					c-2.8,2.2-5.5,4.4-8.3,6.7c-5,4-10,8-15,12.1c-5.5-3.8-15.8-5.8-30.7-5.9c-0.8,0.3-1.6,0.7-2.3,1c13.6-0.1,25.9,1.2,32.2,5.5
					c-25.7,20.6-51.9,41.1-79.1,59.6c-3.2-2.6-11.4-4.3-21.5-5.4c-0.2,0.3-0.4,0.6-0.6,0.9c9.8,1.1,18,2.7,21.2,5
					c-10.8,7.3-21.7,14.3-32.9,20.9c-0.1,0.5-0.3,0.9-0.4,1.4c4.9-2.9,9.8-5.8,14.6-8.8c-2.3,12.2-9.9,25.6-18.7,37.9
					c0,0.5,0,1.1,0.1,1.6c9.4-13,17.6-27.2,19.8-40.2c6.3-3.9,12.4-8,18.6-12.2c0.1,0,0.2-0.1,0.3-0.1c0,0,0-0.1,0.1-0.1
					c17.7-12,35-24.9,51.9-38.1c0.7,13.9-8.6,37.1-18.5,57.4c-17,6.2-27.3,22.1-32.9,34.5c-3.8,8.2-6.6,17-9.3,25.4
					c-1.9,6-3.9,12.1-6.2,18.1c0.3,0.2,0.6,0.4,0.8,0.6c2.4-6.1,4.4-12.3,6.3-18.4c2.7-8.4,5.5-17.2,9.3-25.3
					c3.7-8.1,8.2-15,13.3-20.7c5.5-6,11.5-10.3,18.1-12.9c-10.3,21.1-21,38.7-21.2,39.1c-0.1,0.2-0.1,0.5,0.2,0.7
					c0.1,0,0.2,0.1,0.3,0.1c0.2,0,0.3-0.1,0.4-0.2c0.1-0.2,10.8-17.9,21.1-38.8c-2.8,31.1-15.9,60.4-36.3,83.1
					c0.3,0.1,0.6,0.3,0.9,0.4c20.9-23.3,34.1-53.5,36.5-85.4c0-0.1,0-0.2-0.1-0.3C490,672.6,496.2,653,495.2,641.4z"/>
				<path class="st9" d="M553.1,642.4c-8.4,5.7-19.1,17.6-23.3,41.8c-1.6,8.9-2.1,18.1-2.6,27c-0.4,7.3-0.8,14.8-1.8,22.1
					c-1.4,10-3.8,18.8-7.4,26.2c0,0,0,0.1,0,0.1l-0.2,0.4c-0.6,1.2-1.7,4-0.6,4.8c0.1,0.1,0.3,0.2,0.5,0.2c0.7,0,1.9-0.7,4.4-3.4
					c0,0,0,0,0,0c27.8-32,39.8-76.4,32.1-118.9c0-0.1-0.1-0.2-0.1-0.3c1.6-14.2,1.2-29.4-3.9-42.1c-0.4,0-0.7,0-1.1,0
					C554.3,612.8,554.7,628.1,553.1,642.4z M521.4,760.7c-2.9,3.1-3.6,3.1-3.6,3.1c-0.2-0.3,0.1-1.7,0.9-3.5l0.2-0.4
					c0,0,0-0.1,0-0.1c3.6-7.5,6-16.3,7.4-26.4c1-7.3,1.4-14.9,1.8-22.2c0.5-8.8,1-18,2.6-26.8c4-23.2,14.1-34.8,22.2-40.6
					c-2.9,24-11.1,44.9-11.3,45.2c-0.1,0.3,0,0.5,0.3,0.6c0.1,0,0.1,0,0.2,0c0.2,0,0.4-0.1,0.5-0.3c0.1-0.3,8-20.4,11.1-43.9
					C560.3,686.8,548.3,729.6,521.4,760.7z"/>
			</g>
			<path class="st7" d="M603.8,66.5v-1c-10.5-2.1-21-4.2-31.4-6.4c-0.7-13.4-7.1-27-14.8-38.8c0-0.1,0-0.2,0-0.3
				c-3-10-7.2-19.6-12.3-28.5h-1.2c4.8,8.2,8.7,16.9,11.7,26.1c-7.7-11.2-16.3-20.5-21.8-26.1h-1.4c5.7,5.7,15.2,15.8,23.4,28
				c-9.2-1.4-22.5-6.9-35.7-24.5c-0.9-1.1-1.7-2.3-2.5-3.5h-1.2c0.9,1.4,1.9,2.7,2.9,4.1c13.8,18.4,27.8,23.8,37.2,25
				c7.7,11.7,14,25.1,14.8,38.3c-4.4-0.9-8.7-1.8-13.1-2.7c-16.4-3.5-33-7-49.6-10.2c-4.2-10.1-17.6-23.9-39.9-40.8
				c0-0.1,0-0.2-0.1-0.3c-2.8-4.7-6-9.1-9.3-13.4h-1.3c3.1,3.9,6,8,8.7,12.2c-6-4.5-11.9-8.7-17-12.2h-1.8c5.5,3.8,12,8.3,18.6,13.3
				c-15.1,1.4-29-6.1-38.6-13.3h-1.6C441.2,3,453.8,6,463,6c1.8,0,3.4-0.1,4.9-0.3c16.8,12.8,34.5,28.2,39.8,40.1
				c-19.8-3.8-39.6-7.2-59.5-9.8c0,0-0.1,0-0.1-0.1c-0.1,0-0.2,0-0.3,0c-6.9-0.9-13.8-1.7-20.7-2.3C419,23,404.7,13.9,390.2,6.9
				c0-0.1,0-0.3-0.1-0.4C384.6,1,378.6-4,372.3-8.5h-1.8c6.1,4.2,11.9,9,17.3,14.2c-14.7-6.9-29.1-11.8-36.9-14.2h-3.4
				C354-6.6,370.9-1.2,388,6.9c-8.8,3-23.1,4.3-42.8-5c-6.5-3-12.7-6.7-18.7-10.5h-1.9c6.5,4,13.2,8.1,20.2,11.4
				c11.6,5.4,21.3,7.3,29.2,7.3c6.2,0,11.3-1.2,15.3-2.6c14.2,6.9,28.3,15.7,36.4,26c-22.9-2.1-45.7-2.8-68.5-1.3
				c-8-5.3-22-10.4-44.5-5.5c-8.3,1.8-16.5,4.6-24.3,7.2c-6.5,2.2-13.1,4.5-19.8,6.2c-9.2,2.3-17.7,3.3-25.3,2.8c0,0,0,0-0.1,0
				l-0.4,0c-1.2-0.1-4.1-0.1-4.4,1.2c-0.1,0.7,0.3,1.6,4.6,3.2c0,0,0,0,0,0c13.6,4.7,27.9,7,42.3,7c25.2,0,50.6-7.1,72.4-20.8
				c0.1,0,0.1-0.1,0.2-0.2c29.7-1.9,59.5-0.1,89.3,3.7c-1.9,3.8-9.4,9.3-18.6,15.1c-9.3-1.9-24.4-1.4-43.5,11.8
				c-7,4.8-13.5,10.5-19.7,16c-5.1,4.5-10.4,9.1-15.9,13.3c-2.3,1.7-4.5,3.2-6.7,4.6c0.3,0.2,0.6,0.4,0.9,0.6
				c2.1-1.4,4.3-2.8,6.4-4.4c5.6-4.2,10.9-8.8,16-13.3c6.2-5.5,12.7-11.1,19.6-15.9c18.1-12.5,32.5-13.5,41.7-11.9
				c-18,11.2-41.4,22.7-41.7,22.9c-0.2,0.1-0.3,0.4-0.2,0.7c0.1,0.2,0.3,0.3,0.4,0.3c0.1,0,0.1,0,0.2-0.1
				c1.5-0.7,23.2-11.5,40.7-22.2c-18.3,24.8-44.8,42.6-74.1,50.2c0.3,0.3,0.7,0.5,1,0.8c29.9-8,57-26.6,75.3-52.4
				c9.6-6,17.4-11.9,19.2-15.9c30.6,3.9,61.1,9.9,91.4,16.2c-4.6,8.2-19.9,16.5-35.6,23.3c-8.9-3.5-23.8-5.5-44.8,4.2
				c-7.7,3.5-15.1,8-22.2,12.4c-5.8,3.5-11.8,7.2-18,10.3c-8.4,4.3-16.5,7.1-24.1,8.3c0,0,0,0-0.1,0l-0.4,0.1
				c-1.2,0.2-4.1,0.8-4,2.1c0,0.7,0.6,1.5,5.2,2.1c0,0,0,0,0,0c4.7,0.5,9.4,0.8,14,0.8c34.9,0,69.5-14.2,94.8-39.3
				c20.1-8.7,32.3-16.8,36.2-24c5.9,1.2,11.8,2.5,17.6,3.7c13.9,2.9,28.1,5.9,42.4,8.8c-3.4,6.8-11.2,14.2-20,21
				c-9.4-1.5-24.4-0.3-42.9,13.5c-6.8,5.1-13,11-19.1,16.8c-4.9,4.7-10,9.5-15.4,13.9c-7.3,6-14.7,10.4-21.8,13.1c0,0,0,0-0.1,0
				l-0.4,0.1c-1.2,0.5-3.8,1.7-3.5,2.9c0.1,0.6,0.7,1.1,3.3,1.1c0.6,0,1.4,0,2.2-0.1c0,0,0,0,0,0c39.5-4,76.2-26.7,98.3-60.6
				c10.5-8.1,17.4-15.4,20.4-21.6C602.3,66.3,603,66.4,603.8,66.5z M243.3,46.3c-3.6-1.4-3.9-2-4-2c0,0,0,0,0,0
				c0.2-0.2,1.5-0.5,3.4-0.4l0.5,0c0,0,0.1,0,0.1,0c7.7,0.5,16.3-0.5,25.6-2.8c6.7-1.7,13.4-4,19.9-6.2c7.9-2.7,16-5.4,24.2-7.2
				c21.1-4.5,34.6-0.2,42.6,4.7c-14.6,1-29.1,2.9-43.6,5.9c-0.3,0.1-0.4,0.3-0.4,0.6c0.1,0.3,0.3,0.4,0.6,0.4
				c14.5-3,29-4.9,43.6-5.9C322,54.1,280.1,58.9,243.3,46.3z M463,91.9c0.1,0.2,0.3,0.4,0.5,0.4c0,0,0.1,0,0.1,0
				c0.2,0,17-5,34.8-12.3c1.1-0.5,2.2-0.9,3.3-1.4c-28.4,27.1-67.8,40.7-106.1,36.4c-3.9-0.6-4.3-1.2-4.3-1.1
				c0.1-0.3,1.3-0.8,3.2-1.1l0.5-0.1c0,0,0.1,0,0.1,0c7.7-1.2,15.8-4,24.3-8.3c6.2-3.1,12.2-6.8,18.1-10.4
				c7.1-4.3,14.4-8.8,22.1-12.3c20-9.2,34.3-7.7,43.1-4.5c-19.4,8.2-38.9,14-39.2,14.1C463,91.3,462.9,91.6,463,91.9z M541.4,112.2
				c0.1,0.2,0.3,0.3,0.4,0.3c0.1,0,0.2,0,0.2-0.1c0.1-0.1,12.7-6.6,26.2-15.6c3.8-2.5,7.2-4.9,10.4-7.3
				c-22,32.3-57.7,53.8-95.9,57.7c-3.8,0.3-4.4-0.2-4.5-0.2c0,0,0,0,0,0c0.1-0.3,1.1-1.1,2.9-1.8l0.4-0.2c0,0,0.1,0,0.1,0
				c7.2-2.8,14.6-7.3,22-13.3c5.4-4.4,10.5-9.2,15.5-14c6-5.7,12.2-11.6,19-16.7c9.9-7.4,25-15.7,41.2-13.5
				c-17.1,12.9-37.5,23.6-37.8,23.8C541.3,111.7,541.2,112,541.4,112.2z"/>
			<path class="st7" d="M199.6,17.1c-10.3-1.7-24.9,1.2-39.6,5.8c0,0-0.1,0-0.1,0C133,22,105.8,27.1,81.1,37.7
				c-2.1,0.9-4.2,1.9-6.3,2.9c0.2,0.3,0.5,0.5,0.7,0.8c2-0.9,4-1.9,6-2.7c23.7-10.2,49.7-15.3,75.6-14.8
				c-27.3,8.9-54.3,22.8-54.7,23.1c-0.2,0.1-0.3,0.4-0.2,0.7c0.1,0.2,0.3,0.3,0.4,0.3c0.1,0,0.2,0,0.2-0.1
				c0.4-0.2,28.3-14.7,56-23.5c-5.7,11.3-18.5,26.2-47.1,35.5c-3,1-6,1.8-9,2.6c0.4,0.2,0.9,0.5,1.3,0.7c2.7-0.7,5.3-1.5,8-2.4
				c29.7-9.7,42.5-25.4,48.1-36.9c14.5-4.5,28.9-7.4,39-5.8c-7.9,18-15.6,36-23.2,53.8c-0.6,1.5-1.3,3-1.9,4.4c0.4,0,0.7,0,1.1,0
				c0.6-1.3,1.2-2.7,1.7-4c2.4-5.6,4.8-11.1,7.2-16.7c6.9,5.4,12.8,12.4,17.9,20.1c0.4,0,0.8,0,1.2-0.1
				c-5.2-8.1-11.4-15.4-18.6-21.1c9-21,18.2-42.2,27.8-63.1h-1.1C207.3,0,203.4,8.6,199.6,17.1z"/>
			<g>
				<path class="st6" d="M159.6,366.4C159.6,366.3,159.6,366.3,159.6,366.4c12.2-23.4,19.1-50,19.9-76.8c0.8-26.8-4.5-54-15.2-78.7
					c-0.1-0.1-0.2-0.2-0.3-0.3c-1.4-37.8-6.2-63.3-14.2-75.7c4.2-9.4,8.3-18.8,12.4-28.2c-0.4,0.1-0.8,0.2-1.2,0.2
					c-14.9,34.5-30.5,68.9-48,102.1c-5.7-1.2-18.4,2.9-32.5,8.9c-26.8,0.1-53.8,6.3-77.9,17.8c-3.8,1.8-7.4,3.7-11.1,5.8v1.1
					c3.8-2.1,7.6-4.2,11.5-6c23.3-11.1,49.1-17.2,75-17.7c-25.5,10.9-54.8,27-56.8,28c-0.2,0.1-0.3,0.4-0.2,0.7
					c0.1,0.2,0.3,0.3,0.4,0.3c0.1,0,0.2,0,0.2-0.1c0.5-0.3,31.7-17.3,58-28.5c-5.3,11.5-17.4,26.9-45.7,37.4
					c-10.7,4-21.9,6.7-32.8,9.3c-3.2,0.8-6.5,1.6-9.8,2.4v1c3.3-0.9,6.7-1.7,10-2.5c10.9-2.7,22.2-5.4,32.9-9.4
					c29.4-10.9,41.6-27.1,46.7-38.9c13.7-5.7,25.9-9.8,31.4-8.8c-19,35.9-40.2,70.4-65.3,101.8c-0.1,0-0.2,0-0.3,0
					c-20.4,8.6-39.3,20.9-55.4,36.2v1.4c15.8-15.1,34.4-27.5,54.5-36.1c-12.5,15.5-26,30.3-40.7,44.1c-0.2,0.2-0.2,0.5,0,0.7
					c0.1,0.1,0.2,0.2,0.4,0.2c0.1,0,0.2,0,0.3-0.1c14.6-13.8,28.1-28.5,40.6-43.9c-0.6,12.6-6.2,31.2-27.9,51.3
					C10.3,373.1,1,380-8.1,386.6c-0.1,0.1-0.3,0.2-0.4,0.3v1.2c0.3-0.2,0.7-0.5,1-0.7c9.1-6.6,18.4-13.5,26.8-21.2
					c22.7-21,27.9-40.5,28.2-53.3c19.3-24.1,36.4-49.9,51.8-76.9c5.3,16.9,4.1,39.5,0.6,60.8c-10.6,7.3-24,22.2-29.3,52.6
					c-2,11.3-2.6,22.8-3.2,34.1c-0.5,8.8-1,18-2.2,26.9c0.4-0.1,0.7-0.3,1.1-0.4c1.1-8.8,1.6-17.7,2.1-26.4
					c0.6-11.2,1.3-22.7,3.2-33.9c5.1-29.3,17.8-44.1,28.1-51.4c-5.3,32-15.5,60.4-15.7,60.9c-0.1,0.3,0,0.5,0.3,0.6
					c0.1,0,0.1,0,0.2,0c0.2,0,0.4-0.1,0.5-0.3c0.2-0.5,10.3-28.8,15.7-60.8c4.4,25.8,3.1,52.7-3.7,77.9c-2.1,7.9-4.8,15.6-8,23
					c0.5-0.2,0.9-0.5,1.4-0.7c3-7.2,5.5-14.5,7.5-22.1c7-25.9,8.2-53.6,3.4-80.1c0-0.2-0.1-0.3-0.3-0.4c0,0,0,0,0,0
					c3.4-21.5,4.6-44.4-1-61.5c4.6-8.1,9.1-16.4,13.5-24.7c0.1-0.1,0.2-0.2,0.2-0.3c0,0,0-0.1,0-0.1c12.6-24,24.3-48.7,35.4-73.6
					c7.6,12.4,12.3,38.4,13.7,75.3c-8.6,9.5-18.2,27.2-16.3,58c0.7,11.4,2.7,22.8,4.7,33.9c1.6,9,3.3,18.4,4.2,27.7
					c1.3,12.7,0.8,24.3-1.4,34.4c0,0,0,0.1,0,0.1l-0.1,0.5c-0.2,1-0.7,4.1,0,5.4c0.9-0.2,1.9-0.5,2.8-0.7
					C157.6,369.7,158.4,368.4,159.6,366.4z M154.9,370.8c-0.3-0.1-0.5-1.9,0.1-4.8l0.1-0.6c0,0,0-0.1,0-0.1
					c2.2-10.2,2.7-21.8,1.4-34.6c-0.9-9.3-2.6-18.7-4.2-27.8c-2-11-4-22.4-4.7-33.8c-1.8-29.6,7.1-47,15.4-56.5c0,0.3,0,0.6,0,0.8
					c1,29.5-0.5,55.5-0.5,55.8c0,0.3,0.2,0.5,0.5,0.5c0,0,0,0,0,0c0.3,0,0.5-0.2,0.5-0.5c0-0.3,1.5-26.4,0.5-55.9c0-0.2,0-0.5,0-0.7
					c10.3,24.1,15.3,50.6,14.5,76.7c-0.8,26.7-7.6,53.1-19.8,76.3C155.8,370.9,154.9,370.8,154.9,370.8z"/>
				<path class="st6" d="M250.9,173.5c-6-26-17.9-50.9-34.4-72c-0.5,0-1,0-1.4-0.1c0,0.1,0.1,0.2,0.1,0.3
					c-6,11.3-10.9,30.9-1.2,60.4c3.6,10.9,8.4,21.4,13.1,31.6c3.9,8.3,7.8,17,11.1,25.7c4.4,12,6.9,23.3,7.3,33.6c0,0,0,0.1,0,0.1
					l0,0.6c0.1,1.3,0.4,5.4,2,5.6c0,0,0.1,0,0.1,0c0.8,0,1.9-0.9,3.3-6.5c0,0,0,0,0,0C256.9,227,256.9,199.6,250.9,173.5z
					 M250,252.6c-1.5,5.6-2.4,5.7-2.4,5.8c-0.3-0.1-1-1.7-1.1-4.6l0-0.6c0,0,0-0.1,0-0.1c-0.5-10.4-2.9-21.8-7.4-33.8
					c-3.3-8.8-7.2-17.4-11.1-25.8c-4.7-10.2-9.6-20.7-13.1-31.5c-9.3-28.5-4.9-47.6,0.8-58.9c11.1,28.6,14.3,57,14.4,57.4
					c0,0.3,0.2,0.4,0.5,0.4c0,0,0,0,0.1,0c0.3,0,0.5-0.3,0.4-0.6c0-0.5-3.2-28.1-14-56.4c15.7,20.6,27,44.6,32.8,69.8
					C255.9,199.7,255.9,227,250,252.6z"/>
				<path class="st6" d="M-8.5,197c2.9-4.6,6-9,9.4-13.3c-2.5,2.7-4.9,5.5-7.3,8.3c-0.7,1.1-1.4,2.1-2.1,3.2V197z"/>
				<path class="st6" d="M64.4,150c0.1,0,0.2,0,0.3-0.1c0.4-0.3,18.3-14.5,39.8-28.4c-1.4,0.5-2.7,0.9-4.1,1.4
					c-19.9,13.2-36.2,26.1-36.4,26.2c-0.2,0.2-0.3,0.5-0.1,0.7C64.1,150,64.2,150,64.4,150z"/>
				<path class="st6" d="M42.2,177.6c10.3-4.5,20.9-9.1,30.8-14.9c25.1-14.7,34.9-31.3,38.5-43.6c-0.4,0.1-0.8,0.2-1.2,0.4
					c-3.8,12-13.5,28.1-37.9,42.3c-9.8,5.7-20.4,10.4-30.7,14.8c-8.4,3.7-17.2,7.5-25.4,11.9c-9.8,5.2-18.1,11-24.9,17.3v1.4
					c6.8-6.5,15.3-12.5,25.3-17.8C25.1,185.1,33.8,181.3,42.2,177.6z"/>
			</g>
		</g>
	</g>
</g>
</svg>
