<svg id="Camada_1" data-name="Camada 1" xmlns="http://www.w3.org/2000/svg" xmlns:xlink="http://www.w3.org/1999/xlink" width="2953" height="2953" viewBox="0 0 2953 2953"><defs><style>.cls-1{fill:none;}.cls-2{clip-path:url(#clip-path);}.cls-3{isolation:isolate;}.cls-4{fill:#58595b;}</style><clipPath id="clip-path" transform="translate(732.15 270.53)"><path class="cls-1" d="M1407.53,1247.37c-244.06-122,89.82-420.32,66.38-675.51S1235.73,386.12,1247.44,463s150.33-56.3,52.71-152-167.92-20.63-179.63-9.37c-5.85-107-449-305.86-661.81-13.14-125-159.49-312,201.29-152.28,180.14C427,452.67,52.61,211.6,95.58,611.27s214.75,427.81,64.41,636.1c167.9,212-162.09,566.7-41,767.47s226.44,58.17,195.22,22.51-140.46,82.63-40.9,178.34,169.18,16,193.19-24.45c-43,198.88,566.2,287.08,654.07,16.88,140.58,114.46,321.84-154.91,144.51-178.27-152.37-20.07,126.91,244,191.34-18.76s-305.89-535.2-48.86-763.72"/></clipPath></defs><g class="cls-2"><image class="cls-3" width="2953" height="2953" xlink:href="frascospray60ml1.png"/></g><path class="cls-4" d="M1441.35,1249.75a210.26,210.26,0,0,1-45.55-26.7,157.83,157.83,0,0,1-19.74-18.24l-2.21-2.56-2.18-2.61c-1.48-1.71-2.81-3.54-4.22-5.33a136.16,136.16,0,0,1-7.6-11.31c-1.22-1.93-2.27-4-3.4-5.94l-1.57-3c-.53-1-1-2-1.51-3.08-2-4.11-3.66-8.37-5.24-12.66a149.43,149.43,0,0,1-6.73-26.5,184.7,184.7,0,0,1-2.27-27.08,237.13,237.13,0,0,1,1.33-26.91,346.81,346.81,0,0,1,10-52.29c4.54-17,10-33.75,16-50.19,12-32.87,25.88-64.73,39.86-96.37s28.14-63.08,41.27-94.81,25.38-63.71,35.18-96.32c4.91-16.29,9.2-32.73,12.64-49.3a417.51,417.51,0,0,0,7.45-50,317.12,317.12,0,0,0,.44-50.17c-.3-4.14-.7-8.38-1.16-12.57s-1-8.39-1.54-12.56c-1.15-8.35-2.55-16.64-4.25-24.86s-3.75-16.33-6.11-24.33a244.18,244.18,0,0,0-8.26-23.5A178,178,0,0,0,1457.65,398a123.08,123.08,0,0,0-36.06-31.48,108,108,0,0,0-45.39-13.69A111.9,111.9,0,0,0,1329,359.6a98.29,98.29,0,0,0-21.19,10.89,73.59,73.59,0,0,0-16.9,15.76,45.67,45.67,0,0,0-9.08,19.72,34.68,34.68,0,0,0-.24,10.47,36.51,36.51,0,0,0,2.68,10.15,19,19,0,0,0,2.29,3.82,11.49,11.49,0,0,0,2.81,2.53,12.05,12.05,0,0,0,7.63,1.56,29.5,29.5,0,0,0,9.77-2.82,57,57,0,0,0,9.73-5.88,93.12,93.12,0,0,0,17-16.72,118.55,118.55,0,0,0,13.14-20.51,113.34,113.34,0,0,0,12.36-46.8,98.94,98.94,0,0,0-10-47.08A115.35,115.35,0,0,0,1336,273.93q-3.82-4.86-8.11-9.37c-1.43-1.51-2.88-3-4.41-4.46s-3-3-4.57-4.39a223.74,223.74,0,0,0-19.33-16.26c-3.35-2.54-6.82-4.9-10.32-7.2s-7.1-4.41-10.79-6.35c-14.66-7.91-30.73-13.19-47.21-14.22a98,98,0,0,0-24.65,1.6,105.56,105.56,0,0,0-23.68,7.62,127.52,127.52,0,0,0-21.69,12.67c-3.41,2.46-6.73,5.08-10,7.82s-6.27,5.61-9.45,8.64a3.27,3.27,0,0,1-4.61-.11h0a3.2,3.2,0,0,1-.89-2h0c-.71-7.81-3.64-15.42-7.6-22.45a114.13,114.13,0,0,0-14.48-19.71c-11-12.26-23.89-22.92-37.41-32.6A389.1,389.1,0,0,0,1034.13,147c-14.74-7.86-29.91-14.93-45.37-21.31s-31.2-12-47.15-17-32-9.41-48.33-13a566.39,566.39,0,0,0-99-13.19A479.37,479.37,0,0,0,695,88.31,427.66,427.66,0,0,0,646.72,99.4a382.54,382.54,0,0,0-46.43,17,364.34,364.34,0,0,0-83.93,51.53q-9.58,7.78-18.92,15.92c-6.21,5.44-12.3,11-18.38,16.7s-12,11.49-18,17.36l-9,8.89c-1.51,1.47-3,3-4.49,4.48s-3,3-4.57,4.45l-.85.79a2.81,2.81,0,0,1-3.95-.14,3.17,3.17,0,0,1-.4-.56h0a144.83,144.83,0,0,0-17.32-18.22,101,101,0,0,0-20.41-14.06,78.36,78.36,0,0,0-23.22-7.65,76.19,76.19,0,0,0-24.3.09,93.91,93.91,0,0,0-23.45,7.19,128.14,128.14,0,0,0-21.49,12.38A190.16,190.16,0,0,0,271.29,250a245.28,245.28,0,0,0-27.8,41.92,216.42,216.42,0,0,0-18.3,46.55,138.6,138.6,0,0,0-4.12,24.28,82.68,82.68,0,0,0,1.38,23.75,49.55,49.55,0,0,0,3.67,10.72A34.89,34.89,0,0,0,251,416.54a71.63,71.63,0,0,0,23.32,1.06c2-.22,4.05-.45,5.94-.77a55.54,55.54,0,0,0,5.56-1.19,24.28,24.28,0,0,0,8.85-4.14,8.4,8.4,0,0,0,2.19-2.66,6.63,6.63,0,0,0,.69-3,19.44,19.44,0,0,0-2.69-8.61,51.34,51.34,0,0,0-6.59-9.05,91.45,91.45,0,0,0-8.51-8.31,142.2,142.2,0,0,0-19.9-14.21,179.49,179.49,0,0,0-22-11.16,173.77,173.77,0,0,0-47.41-12.82c-16.17-1.88-32.57-1-47.77,3.5a90.72,90.72,0,0,0-39.92,24.25c-11,11.38-19.22,25.54-25.15,40.71A216.1,216.1,0,0,0,65.49,458a360.92,360.92,0,0,0-3.42,50.14c-.06,16.85.8,33.75,2.28,50.63.73,8.44,1.68,16.87,2.66,25.37s2,17,3.2,25.41q3.41,25.35,7.77,50.59c5.83,33.61,12.9,67,21.48,100s18.62,65.57,29.88,97.79C135,874.07,140.9,890.09,147,906.08l18.56,48.06c6.17,16.11,12.26,32.35,17.56,49a323.31,323.31,0,0,1,12.34,51.52,211,211,0,0,1,2.19,26.8,187.91,187.91,0,0,1-1.46,26.93A204.38,204.38,0,0,1,182.34,1160,297,297,0,0,1,158,1206.63a436.25,436.25,0,0,1-30.56,42.11l-.09-3.93h0a232.54,232.54,0,0,1,28.2,44.44A238.69,238.69,0,0,1,173,1339a289.15,289.15,0,0,1,7.13,52.15,385,385,0,0,1-1.22,52.5c-3.11,34.87-10,69.18-18.59,102.92s-18.84,67-29.53,100-21.77,65.73-32.15,98.73-20.06,66.08-27.5,99.62c-3.7,16.76-6.8,33.63-9,50.58A368.88,368.88,0,0,0,59,1946.37a248,248,0,0,0,5.48,50.23,190.74,190.74,0,0,0,16.87,47.12c1,1.86,2,3.67,3,5.51l3.17,5.41c2.23,3.65,4.47,7.28,6.79,10.87,4.62,7.18,9.4,14.24,14.44,21.09a284.35,284.35,0,0,0,33.13,38.31c12.15,11.52,25.6,21.66,40.41,28.44a90.3,90.3,0,0,0,22.93,7.13,70.75,70.75,0,0,0,23.5,0c15.44-2.64,29.75-11,40.33-22.79a73.4,73.4,0,0,0,12.79-19.76,55.09,55.09,0,0,0,3.51-10.91,36.07,36.07,0,0,0,.69-10.72,18.88,18.88,0,0,0-2.94-8.76,13.66,13.66,0,0,0-2.88-3,11.41,11.41,0,0,0-3.55-1.87,17.69,17.69,0,0,0-9.08-.22,38.07,38.07,0,0,0-10.14,3.84A74.42,74.42,0,0,0,239,2100.87a108.88,108.88,0,0,0-14.51,19.38,114.47,114.47,0,0,0-15.34,45.93,105.38,105.38,0,0,0,6,47.76c5.61,15.31,14.69,29.31,25.69,41.56q4.14,4.62,8.65,8.94l4.61,4.32,4.7,4.21a199.75,199.75,0,0,0,19.81,15.33c1.73,1.16,3.44,2.33,5.21,3.4.88.54,1.75,1.11,2.64,1.64l2.68,1.55c1.76,1.07,3.61,2,5.41,3s3.66,1.86,5.52,2.7a122.09,122.09,0,0,0,11.33,4.6,118.07,118.07,0,0,0,11.66,3.3,91,91,0,0,0,23.9,2.06,89.32,89.32,0,0,0,23.63-4.44c15.4-5.1,29.59-14.2,42.1-25.31a202.46,202.46,0,0,0,33-38.37h0a3.25,3.25,0,0,1,6,2.2v.15a97.24,97.24,0,0,0-1.49,25.77c.12,2.15.47,4.27.72,6.4a48.49,48.49,0,0,0,1.23,6.31,91,91,0,0,0,3.7,12.29,109,109,0,0,0,12,22.7,143.61,143.61,0,0,0,16.66,19.85c12.28,12.28,26.49,22.67,41.5,31.72a342,342,0,0,0,47.24,23.34,468,468,0,0,0,50.1,17q25.51,7.15,51.66,11.93t52.53,7.45c17.6,1.72,35.27,2.84,53,3.19A617.93,617.93,0,0,0,886.1,2426a492.74,492.74,0,0,0,51.75-10.57A412.79,412.79,0,0,0,987.77,2399a331.73,331.73,0,0,0,46.79-23.22,277.71,277.71,0,0,0,41.89-30.56,230.61,230.61,0,0,0,34.71-38.48,234.84,234.84,0,0,0,25.34-45.85l.19-.46a3.1,3.1,0,0,1,4-1.65,2.77,2.77,0,0,1,.91.6h0c13.66,10.79,29.13,19.24,45.71,23.83a113.32,113.32,0,0,0,50.91,2.23,140.6,140.6,0,0,0,47.76-18.62,175.17,175.17,0,0,0,39.46-33.2,167.53,167.53,0,0,0,28-43,124.81,124.81,0,0,0,8-24.1,89,89,0,0,0,2-24.73,62.15,62.15,0,0,0-6-23.24,56.07,56.07,0,0,0-14.75-18.56,76.48,76.48,0,0,0-21.13-12.16,120.29,120.29,0,0,0-24.33-6.47,117.7,117.7,0,0,0-25-1.77,44.27,44.27,0,0,0-11.25,1.92c-3.35,1.1-6,2.78-7.27,4.71a8.24,8.24,0,0,0-1.37,3.29,13.67,13.67,0,0,0-.06,4.33,32.3,32.3,0,0,0,3.48,10.19c3.58,6.92,8.85,13.49,14.67,19.48a146.22,146.22,0,0,0,19.26,16.48,169.89,169.89,0,0,0,21.76,13.33,148.91,148.91,0,0,0,48,15.5c16.57,2.22,33.48.85,48.81-5a91.78,91.78,0,0,0,21.54-11.6,107,107,0,0,0,18.19-16.87c10.92-12.68,19.33-27.7,25.92-43.53a253.58,253.58,0,0,0,8.66-24.36c2.5-8.29,4.64-16.74,6.4-25.17,7-33.87,7.24-69,2.59-103.53s-13.88-68.62-25.2-102-24.8-66.14-38.7-98.8-28.24-65.27-41.5-98.44-25.41-67-34.11-101.92a413.42,413.42,0,0,1-9.81-53.17,300.87,300.87,0,0,1-1.5-54.26,246.94,246.94,0,0,1,9.49-53.53,238.84,238.84,0,0,1,21.22-50,280.71,280.71,0,0,1,31.11-44.22,360.09,360.09,0,0,1,38.06-38.08,3.26,3.26,0,0,1,4.35,4.85h0a361,361,0,0,0-36.38,38.22,274.72,274.72,0,0,0-29.32,43.51,232.51,232.51,0,0,0-27.75,99.84,296.09,296.09,0,0,0,2.23,52.23,410.78,410.78,0,0,0,10.21,51.53c8.93,34,21.26,67.16,34.69,99.9,26.87,65.51,58.4,129.56,81.91,197.43,11.7,33.9,21.36,68.81,26.28,104.76a354.33,354.33,0,0,1,3.38,54.37,294.93,294.93,0,0,1-6,54.38c-1.86,9-4.08,17.78-6.71,26.52a269.76,269.76,0,0,1-9.18,25.89c-7.09,16.94-16.22,33.38-28.56,47.69a122,122,0,0,1-20.87,19.29,106.05,106.05,0,0,1-25.26,13.56,108.23,108.23,0,0,1-27.92,6.32,125,125,0,0,1-28.35-.68,163.06,163.06,0,0,1-52.94-17.3,184.89,184.89,0,0,1-23.61-14.63,162.71,162.71,0,0,1-21.12-18.29c-6.48-6.81-12.49-14.25-17-23.17a46.46,46.46,0,0,1-4.85-15,27.94,27.94,0,0,1,.28-8.94,22.76,22.76,0,0,1,3.84-8.87,24.54,24.54,0,0,1,6.84-6.36,33.56,33.56,0,0,1,7.67-3.54,57.45,57.45,0,0,1,15-2.51,106.2,106.2,0,0,1,14.27.36c4.67.41,9.24,1.05,13.81,1.84a133.07,133.07,0,0,1,27,7.5,89,89,0,0,1,24.72,14.62,69.47,69.47,0,0,1,17.9,23.12,75.22,75.22,0,0,1,7,28.14,100.82,100.82,0,0,1-2.62,28.23,135.75,135.75,0,0,1-9.1,26.35,178.42,178.42,0,0,1-30.68,45.57,184.72,184.72,0,0,1-42.53,34.47c-15.82,9.23-33.24,16-51.47,18.89a122.09,122.09,0,0,1-54.69-3.63,136.52,136.52,0,0,1-47.59-26.44h0l5.16-1.52a183.6,183.6,0,0,1-20.76,50.83,207.55,207.55,0,0,1-34.45,43.36,250.45,250.45,0,0,1-43.9,33.67,339.29,339.29,0,0,1-49.32,24.47,417.81,417.81,0,0,1-52.08,17A510,510,0,0,1,888.63,2443c-18,2.68-36.08,4.41-54.19,5.39s-36.26,1.16-54.37.61-36.2-1.85-54.2-3.88-35.91-4.82-53.68-8.37c-35.5-7.18-70.53-17.28-103.94-31.68a346.13,346.13,0,0,1-48.38-25.32c-15.41-9.8-30-21.09-42.71-34.51A150.3,150.3,0,0,1,460,2323.43a128.24,128.24,0,0,1-6.85-12.15,110,110,0,0,1-5.33-12.92,94.52,94.52,0,0,1-3.56-13.53c-.49-2.29-.74-4.61-1.08-6.92a54.28,54.28,0,0,1-.52-7,101.69,101.69,0,0,1,2.68-27.6l6,2.35h0a182.44,182.44,0,0,1-14,22.59,175.39,175.39,0,0,1-17.3,20.31,142.79,142.79,0,0,1-20.74,17.27,115.29,115.29,0,0,1-24.3,12.66,98.48,98.48,0,0,1-27.11,6,101.34,101.34,0,0,1-27.75-1.79,119.37,119.37,0,0,1-13.38-3.57,137.12,137.12,0,0,1-12.79-5,160.15,160.15,0,0,1-23.66-13.38A219.53,219.53,0,0,1,249,2284.29l-5-4.45-4.86-4.57q-4.86-4.68-9.4-9.73c-12.07-13.45-22.2-29-28.56-46.36a120.24,120.24,0,0,1-6.8-54.44,129,129,0,0,1,17.44-52,123.37,123.37,0,0,1,16.57-22,89.15,89.15,0,0,1,22.23-17.4,52.68,52.68,0,0,1,14.1-5.25,32.42,32.42,0,0,1,16.59.68,26.19,26.19,0,0,1,7.88,4.18,28.31,28.31,0,0,1,6,6.36,33.25,33.25,0,0,1,5.41,15.56,50.79,50.79,0,0,1-.93,15.11,69.69,69.69,0,0,1-4.45,13.78,87.72,87.72,0,0,1-15.43,23.61,89.2,89.2,0,0,1-22,17.62,81.75,81.75,0,0,1-26.65,9.55,85.13,85.13,0,0,1-28.22,0,104.56,104.56,0,0,1-26.52-8.31c-16.73-7.74-31.23-18.87-44.14-31.17a299.46,299.46,0,0,1-34.64-40.29c-5.2-7.12-10.11-14.42-14.84-21.82-2.37-3.7-4.67-7.44-6.94-11.19L72.49,2056c-1.06-2-2.15-3.94-3.17-5.94a203.18,203.18,0,0,1-17.81-50.52A261.52,261.52,0,0,1,46,1946.57a380.66,380.66,0,0,1,3.54-52.7c2.31-17.4,5.58-34.62,9.44-51.66,7.72-34.08,17.77-67.44,28.44-100.48s22-65.79,32.91-98.62,21.38-65.75,30.21-99.07,15.92-67.08,19.3-101.23a378.63,378.63,0,0,0,1.78-51.29,280.43,280.43,0,0,0-6.34-50.74A233.07,233.07,0,0,0,149,1292.44a227.34,227.34,0,0,0-26.75-43.52h0a3.07,3.07,0,0,1-.28-3.63l.2-.3c9.16-14.47,17.93-29.11,25.87-44.09q6-11.24,11.12-22.76c1.7-3.84,3.36-7.7,4.88-11.6s3-7.8,4.37-11.74A202.7,202.7,0,0,0,179,1106.58a192.87,192.87,0,0,0-2-49,336.88,336.88,0,0,0-12.28-48.46c-5.2-16-11.12-32-17.23-48L129,913c-6.13-16.11-12.13-32.32-17.82-48.65Q94,815.37,81,765T59.48,663.33Q55.16,637.74,51.85,612c-1.12-8.57-2.14-17.16-3.12-25.74s-1.88-17.22-2.62-25.91c-1.45-17.35-2.21-34.8-2-52.31A379.4,379.4,0,0,1,48,455.45c2.65-17.48,6.78-34.94,13.49-51.71a156.87,156.87,0,0,1,12.19-24.35,124,124,0,0,1,17-21.78,107.17,107.17,0,0,1,47.4-28.3c17.84-5.17,36.48-5.81,54.36-3.57A189,189,0,0,1,244,340.25a194,194,0,0,1,23.84,12.32,155.85,155.85,0,0,1,21.85,15.95,105.4,105.4,0,0,1,9.8,9.8,65.35,65.35,0,0,1,8.35,11.86,39.75,39.75,0,0,1,3,7.27,27.77,27.77,0,0,1,1.25,8.64,21.45,21.45,0,0,1-2.34,9.35,22.81,22.81,0,0,1-6,7.21,31.71,31.71,0,0,1-7.11,4.28,47.89,47.89,0,0,1-7.17,2.49,70.45,70.45,0,0,1-7.05,1.44c-2.35.35-4.56.57-6.85.79a85.53,85.53,0,0,1-27.9-1.72A55.56,55.56,0,0,1,234,424.56a47.07,47.07,0,0,1-11.66-9.31,50,50,0,0,1-8.19-12.36,63,63,0,0,1-4.49-13.64,95,95,0,0,1-1.28-27.54,151.69,151.69,0,0,1,4.87-26.4,227.27,227.27,0,0,1,20-48.88,257.16,257.16,0,0,1,29.78-43.35,198.9,198.9,0,0,1,39-35.54,137.06,137.06,0,0,1,23.34-12.87,102.45,102.45,0,0,1,25.82-7.42,83.78,83.78,0,0,1,27,.44,86.21,86.21,0,0,1,25.38,9,108.55,108.55,0,0,1,21.6,15.56,151.58,151.58,0,0,1,17.69,19.52h0l-5.2.09c2-3.85,4-7.68,6.22-11.37s4.49-7.38,6.87-11c4.83-7.17,9.95-14.17,15.48-20.86s11.34-13.15,17.48-19.31,12.57-12,19.24-17.64a368.78,368.78,0,0,1,42.56-30.28,375.41,375.41,0,0,1,46.27-24.1,404.45,404.45,0,0,1,49.07-17.62,430.41,430.41,0,0,1,50.81-11.22,463.68,463.68,0,0,1,51.67-5.21,511,511,0,0,1,51.78.34,563.28,563.28,0,0,1,102,15.48q25,6.14,49.45,14.46t47.94,18.79a493.36,493.36,0,0,1,45.92,23.32,386,386,0,0,1,43,28.53c13.6,10.58,26.57,22.17,37.64,35.66a120,120,0,0,1,14.53,21.9c4,7.89,6.9,16.6,7.21,25.76h0l-5.51-2.18c3-3,6.14-6.18,9.4-9.12s6.65-5.81,10.18-8.49a133.43,133.43,0,0,1,22.63-14,113.66,113.66,0,0,1,25.31-8.91,105.59,105.59,0,0,1,26.88-2.41,113.53,113.53,0,0,1,26.65,4.3,137.67,137.67,0,0,1,25,9.9c4,2,7.86,4.24,11.68,6.53s7.5,4.78,11.1,7.38a232.91,232.91,0,0,1,20.66,16.66c1.66,1.46,3.25,3,4.86,4.49s3.22,3.06,4.8,4.66q4.74,4.77,9,10A126.85,126.85,0,0,1,1360.5,289a111.81,111.81,0,0,1,12.27,53.08,126.41,126.41,0,0,1-13,52.87,133.56,133.56,0,0,1-14.4,23.29A108.26,108.26,0,0,1,1325.81,438a72.74,72.74,0,0,1-12.31,7.66,45,45,0,0,1-15,4.42,30.37,30.37,0,0,1-8.67-.35,26.23,26.23,0,0,1-8.62-3.27,27.28,27.28,0,0,1-6.89-6,33.81,33.81,0,0,1-4.51-7.17,51.89,51.89,0,0,1-4.22-14.73,51.23,51.23,0,0,1,.13-15.34,57.1,57.1,0,0,1,4.37-14.46,68.13,68.13,0,0,1,7.51-12.66,89.94,89.94,0,0,1,20.58-19.7,116.31,116.31,0,0,1,24.67-13.06,129.44,129.44,0,0,1,54.57-8.46,126.48,126.48,0,0,1,53.19,15.48,141.92,141.92,0,0,1,41.92,35.8,196.48,196.48,0,0,1,27.32,46.91,264,264,0,0,1,9.13,25.3q3.87,12.84,6.7,25.85c1.87,8.69,3.41,17.42,4.68,26.18.64,4.38,1.19,8.76,1.69,13.15s.94,8.75,1.29,13.23a338.41,338.41,0,0,1-.16,53.37c-2.81,35.42-10.45,70-20.43,103.62s-22.36,66.3-35.6,98.44-27.44,63.75-41.36,95.32-27.62,63.1-39.66,95c-6,16-11.54,32.06-16.24,48.3A352.57,352.57,0,0,0,1359.1,1080c-2.22,16.5-3,33.12-1,49.37a140.47,140.47,0,0,0,4.91,23.94,127.1,127.1,0,0,0,9.28,22.57c1.87,3.63,4,7.1,6.24,10.56,1.18,1.69,2.27,3.43,3.52,5.07l1.83,2.48,1.92,2.43a151.91,151.91,0,0,0,17.11,18.12c12.39,11.28,26.52,20.86,41.38,29.3h0a3.26,3.26,0,1,1-2.92,5.83Z" transform="translate(732.15 270.53)"/></svg>