<?xml version="1.0" encoding="utf-8"?>
<!-- Generator: Adobe Illustrator 24.1.2, SVG Export Plug-In . SVG Version: 6.00 Build 0)  -->
<svg version="1.1" id="Camada_1" xmlns="http://www.w3.org/2000/svg" xmlns:xlink="http://www.w3.org/1999/xlink" x="0px" y="0px"
	 viewBox="0 0 1683.1 2467.4" style="enable-background:new 0 0 1683.1 2467.4;" xml:space="preserve">
<style type="text/css">
	.st0{clip-path:url(#SVGID_2_);}
	.st1{fill:#58595B;}
</style>
<g>
	<g>
		<defs>
			<path id="SVGID_1_" d="M1464.6,1225.6c-244.1-122,89.8-420.3,66.4-675.5s-238.2-185.7-226.5-108.9s150.3-56.3,52.7-152
				s-167.9-20.6-179.6-9.4c-5.8-107-449-305.9-661.8-13.1c-125-159.5-312,201.3-152.3,180.1c120.6-16-253.8-257-210.8,142.6
				s214.8,427.8,64.4,636.1c167.9,212-162.1,566.7-41,767.5s226.4,58.2,195.2,22.5s-140.5,82.6-40.9,178.3s169.2,16,193.2-24.4
				c-43,198.9,566.2,287.1,654.1,16.9c140.6,114.5,321.8-154.9,144.5-178.3c-152.4-20.1,126.9,244,191.3-18.8
				S1207.6,1454.1,1464.6,1225.6"/>
		</defs>
		<clipPath id="SVGID_2_">
			<use xlink:href="#SVGID_1_"  style="overflow:visible;"/>
		</clipPath>
		<g class="st0">
			
				<image style="overflow:visible;enable-background:new    ;" width="2953" height="2953" xlink:href="EE6F0507.png"  transform="matrix(1 0 0 1 -675.0782 -292.3068)">
			</image>
		</g>
	</g>
	<path class="st1" d="M1498.4,1227.7c-123.8-52.9-116-166-74.9-274.4c41.7-112.9,103.8-218.4,128.9-336.8
		c16.4-80.1,11.6-172.5-37.8-240.6c-33.5-46.1-102.4-60.3-149.8-27.5c-12.2,8.4-23.2,20.5-26,35.5c-2.9,16.7,5.6,36.3,24.9,25.7
		c45.8-25.5,65.8-90.1,42.2-137c-22.7-42-69.4-78.8-117.7-83c-25.1-1.7-49.9,7.2-70,21.9c-6.9,5-13.3,10.4-19.4,16.5
		c-1.3,1.2-3.4,1.2-4.6-0.1l0,0c-0.5-0.5-0.8-1.2-0.9-2l0,0c-9.2-47.9-62.9-78.3-102.2-100.9c-73.9-38.8-156.6-60.7-239.9-64.5
		c-129.8-7.3-244.7,40.8-333.2,135.4c-2,2.5-11.3,10.8-13.5,13.4c-2.9,2-6.3,8.9-9.8,4.5l0,0c-50.7-66.2-120.4-43.8-166.5,14.2
		c-29.8,38.1-63.3,98.2-45.2,147.2c8.1,18.4,30,22.7,48.2,20.4c22.5-1.6,31.1-10.8,13.9-29.4c-25.5-26.6-61.7-41.7-97.8-46.5
		c-75.5-10.3-117,47.7-125,116.3c-7.1,50.3-2.1,101.4,4.7,151.5c13.2,101.6,39.5,201.1,76.8,296.5c56.1,137.9,84.1,216.4-19.6,342.7
		l-0.1-3.9l0,0c164.8,216.2-106.9,517.2-62.9,751.8c12.6,57.5,64.6,130.6,117.8,156.8c40.2,21.2,93-1.4,103.1-46.3
		c5-20.5-9.7-31.7-27.9-20.7c-14,7.8-24.8,20.3-33,34c-43.4,72.9,7.7,147.2,75.6,180.3c56.9,29.3,114.8-9.6,145.6-58.2l0,0
		c1.9-3.1,6.7-1.2,6,2.4c-1.6,8.5-2.1,17.2-1.5,25.8c12.4,96.2,143.2,135.5,224.8,151.5c147.6,24.8,338.5,13.5,436.2-115.3
		c10.1-14.3,18.6-29.7,25.3-45.9c0.5-2.2,3.5-3.2,5.1-1.5l0,0c135.6,112.8,324.3-148.4,155.6-178c-89-14.7-24.4,54.5,14.2,72
		c97.4,49.3,159.5-17.1,177.5-111c45.2-233.7-196.9-432.9-138.7-665.6c10.2-34.8,28.8-66.8,52.3-94.2c7.9-9.4,47.7-53.4,42.4-33.2
		l0,0c-269.9,240.8,142.1,543.8,52.5,822.7c-29.8,109.5-122.8,146.8-216.7,80.1c-53.6-36.9-66.7-99.7,18.7-84.5
		c191.9,38.9-17.3,322.5-162.1,196.8l0,0l5.2-1.5c-68.2,287.3-742.6,210.8-697.3-19.5l6,2.4c-25.8,52.1-85.2,95.4-144.6,73.5
		c-25.8-8.6-48.1-25.3-67.6-43.9c-53.8-47.4-61.7-131.9-10.7-184.5c27.4-32.4,79.5-34.4,71.3,19.2c-9.3,42.2-54.1,72.7-96.8,64.6
		c-61.1-12.4-100.1-68.5-130.4-118.5c-120.1-233.6,223.4-577.7,49.8-807.1l0,0c-1-1.1-1-2.8-0.1-3.9c15.9-25.2,30.9-50.8,41.9-78.4
		c45.5-102.4-22.1-205.6-52.9-302.2C123.7,714.1,8.2,281.6,249.5,303.7c40.1,5.1,114.4,34.8,119.7,80.3
		c-2.5,35.1-72.9,31.6-89.8,9.2c-65.5-80.5,111.6-330.3,220.5-183.5l-5.2,0.1c32-62.4,91-106.7,154.1-134.6
		c111.8-48.6,240.9-42.3,354.8-3.8c64.7,22.5,186.5,78.7,196.2,154l-5.5-2.2c30-32.9,77.1-52.4,121.1-38.6
		c57.7,19,115.8,70.5,114.4,135.4c-1.3,43.4-28.4,98.7-74.3,108c-31.5,3.1-40.1-38.7-28.4-61.3c10.1-21.8,30.8-36.9,52.8-45.4
		c128.7-43,194.5,83.3,200.5,193.4c25.6,261.5-321.7,577.8-79,707.1C1505.2,1223.6,1502.2,1229.5,1498.4,1227.7L1498.4,1227.7z"/>
</g>
</svg>
