<?xml version="1.0" encoding="utf-8"?>
<!-- Generator: Adobe Illustrator 24.1.2, SVG Export Plug-In . SVG Version: 6.00 Build 0)  -->
<svg version="1.1" id="Camada_1" xmlns="http://www.w3.org/2000/svg" xmlns:xlink="http://www.w3.org/1999/xlink" x="0px" y="0px"
	 viewBox="0 0 1544.2 2479.7" style="enable-background:new 0 0 1544.2 2479.7;" xml:space="preserve">
<style type="text/css">
	.st0{clip-path:url(#SVGID_2_);}
	.st1{fill:#58595B;}
</style>
<g>
	<defs>
		<path id="SVGID_1_" d="M1407.5,1247.4c-244.1-122,89.8-420.3,66.4-675.5S1235.7,386.1,1247.4,463s150.3-56.3,52.7-152
			s-167.9-20.6-179.6-9.4c-5.8-107-449-305.9-661.8-13.1c-125-159.5-312,201.3-152.3,180.1C427,452.7,52.6,211.6,95.6,611.3
			s214.8,427.8,64.4,636.1c167.9,212-162.1,566.7-41,767.5s226.4,58.2,195.2,22.5s-140.5,82.6-40.9,178.3s169.2,16,193.2-24.4
			c-43,198.9,566.2,287.1,654.1,16.9c140.6,114.5,321.8-154.9,144.5-178.3c-152.4-20.1,126.9,244,191.3-18.8
			S1150.5,1475.9,1407.5,1247.4"/>
	</defs>
	<clipPath id="SVGID_2_">
		<use xlink:href="#SVGID_1_"  style="overflow:visible;"/>
	</clipPath>
	<g class="st0">
		
			<image style="overflow:visible;enable-background:new    ;" width="2953" height="2953" xlink:href="EE385EE6.jpeg"  transform="matrix(1 0 0 1 -732.1489 -270.5319)">
		</image>
	</g>
</g>
<path class="st1" d="M1441.4,1249.7c-16.2-7-31.5-15.9-45.6-26.7c-7.1-5.5-13.7-11.6-19.7-18.2l-2.2-2.6l-2.2-2.6
	c-1.5-1.7-2.8-3.5-4.2-5.3c-2.7-3.6-5.3-7.4-7.6-11.3c-1.2-1.9-2.3-4-3.4-5.9l-1.6-3c-0.5-1-1-2-1.5-3.1c-2-4.1-3.7-8.4-5.2-12.7
	c-3-8.6-5.3-17.5-6.7-26.5c-1.4-9-2.2-18-2.3-27.1c-0.1-9,0.4-18,1.3-26.9c2-17.7,5.3-35.1,10-52.3c4.5-17,10-33.8,16-50.2
	c12-32.9,25.9-64.7,39.9-96.4s28.1-63.1,41.3-94.8s25.4-63.7,35.2-96.3c4.9-16.3,9.2-32.7,12.6-49.3c3.5-16.5,6-33.2,7.4-50
	c1.5-16.7,1.6-33.5,0.4-50.2c-0.3-4.1-0.7-8.4-1.2-12.6s-1-8.4-1.5-12.6c-1.2-8.4-2.6-16.6-4.3-24.9s-3.8-16.3-6.1-24.3
	c-2.4-8-5.1-15.8-8.3-23.5c-6.1-15.2-14.3-29.6-24.3-42.5c-9.8-12.8-22.1-23.4-36.1-31.5c-13.9-7.9-29.4-12.5-45.4-13.7
	c-16-1.2-32.1,1.1-47.2,6.8c-7.5,2.8-14.6,6.4-21.2,10.9c-6.4,4.3-12.1,9.6-16.9,15.8c-4.6,5.7-7.7,12.5-9.1,19.7
	c-0.6,3.5-0.7,7-0.2,10.5c0.4,3.5,1.3,6.9,2.7,10.1c0.6,1.4,1.4,2.6,2.3,3.8c0.8,1,1.7,1.9,2.8,2.5c2.3,1.4,5,1.9,7.6,1.6
	c3.4-0.4,6.7-1.3,9.8-2.8c3.4-1.6,6.7-3.6,9.7-5.9c6.4-4.8,12.1-10.4,17-16.7c5.1-6.4,9.5-13.2,13.1-20.5
	c7.4-14.5,11.7-30.5,12.4-46.8c0.6-16.3-2.8-32.4-10-47.1c-3.6-7.4-8-14.3-13.1-20.8c-2.6-3.2-5.3-6.4-8.1-9.4
	c-1.4-1.5-2.9-3-4.4-4.5c-1.5-1.5-3-3-4.6-4.4c-6.1-5.8-12.6-11.2-19.3-16.3c-3.3-2.5-6.8-4.9-10.3-7.2s-7.1-4.4-10.8-6.4
	c-14.7-7.9-30.7-13.2-47.2-14.2c-8.3-0.5-16.5,0-24.7,1.6c-8.2,1.6-16.1,4.2-23.7,7.6c-7.6,3.5-14.9,7.7-21.7,12.7
	c-3.4,2.5-6.7,5.1-10,7.8s-6.3,5.6-9.4,8.6c-1.3,1.2-3.4,1.2-4.6-0.1c0,0,0,0,0,0c-0.5-0.5-0.8-1.2-0.9-2l0,0l0,0
	c-0.7-7.8-3.6-15.4-7.6-22.4c-4.1-7.1-9-13.7-14.5-19.7c-11-12.3-23.9-22.9-37.4-32.6c-13.6-9.6-27.9-18.4-42.6-26.2
	c-14.7-7.9-29.9-14.9-45.4-21.3s-31.2-12-47.2-17s-32-9.4-48.3-13c-32.5-7.3-65.7-11.7-99-13.2c-33.2-1.5-66.5,0.5-99.3,5.9
	c-16.3,2.8-32.4,6.5-48.3,11.1c-15.8,4.7-31.3,10.3-46.4,17c-30.2,13.3-58.4,30.6-83.9,51.5c-6.4,5.2-12.7,10.5-18.9,15.9
	c-6.2,5.4-12.3,11-18.4,16.7s-12,11.5-18,17.4l-9,8.9c-1.5,1.5-3,3-4.5,4.5s-3,3-4.6,4.4l-0.9,0.8c-1.1,1-2.9,1-4-0.1
	c-0.2-0.2-0.3-0.4-0.4-0.6l0,0c-5.2-6.6-11-12.7-17.3-18.2c-6.2-5.5-13.1-10.2-20.4-14.1c-7.3-3.7-15.1-6.3-23.2-7.6
	c-8.1-1.3-16.3-1.2-24.3,0.1c-8.1,1.4-16,3.8-23.5,7.2c-7.5,3.4-14.7,7.6-21.5,12.4c-13.6,9.8-25.8,21.4-36.3,34.4
	c-10.7,13-20,27-27.8,41.9c-7.9,14.8-14,30.4-18.3,46.5c-2.1,8-3.5,16.1-4.1,24.3c-0.7,7.9-0.2,15.9,1.4,23.8
	c0.8,3.7,2,7.3,3.7,10.7c4.7,10,14,17.2,24.9,19.4c7.7,1.6,15.5,2,23.3,1.1c2-0.2,4-0.5,5.9-0.8c1.9-0.3,3.7-0.7,5.6-1.2
	c3.2-0.8,6.2-2.2,8.9-4.1c0.9-0.7,1.7-1.6,2.2-2.7c0.5-0.9,0.7-2,0.7-3c0-2.4-1-5.5-2.7-8.6c-1.9-3.2-4.1-6.3-6.6-9
	c-2.7-3-5.5-5.7-8.5-8.3c-6.2-5.3-12.9-10.1-19.9-14.2c-7.1-4.2-14.4-7.9-22-11.2c-15.1-6.5-31.1-10.8-47.4-12.8
	c-16.2-1.9-32.6-1-47.8,3.5c-15.2,4.5-29,12.8-39.9,24.3c-11,11.4-19.2,25.5-25.2,40.7c-5.9,15.4-9.9,31.5-12.1,47.9
	c-2.3,16.6-3.4,33.4-3.4,50.1c-0.1,16.9,0.8,33.8,2.3,50.6c0.7,8.4,1.7,16.9,2.7,25.4s2,17,3.2,25.4c2.3,16.9,4.9,33.8,7.8,50.6
	c5.8,33.6,12.9,67,21.5,100s18.6,65.6,29.9,97.8c5.6,16.1,11.6,32.1,17.7,48.1l18.6,48.1c6.2,16.1,12.3,32.3,17.6,49
	c5.5,16.8,9.6,34,12.3,51.5c1.3,8.9,2,17.8,2.2,26.8c0.2,9-0.3,18-1.5,26.9c-2.3,17.7-7,35.1-13.9,51.6
	c-6.7,16.2-14.9,31.8-24.4,46.6c-9.3,14.6-19.5,28.7-30.6,42.1l-0.1-3.9l0,0c11.1,13.7,20.5,28.6,28.2,44.4
	c7.7,15.9,13.5,32.5,17.5,49.7c4,17.1,6.3,34.6,7.1,52.2c0.8,17.5,0.4,35-1.2,52.5c-3.1,34.9-10,69.2-18.6,102.9s-18.8,67-29.5,100
	s-21.8,65.7-32.2,98.7s-20.1,66.1-27.5,99.6c-3.7,16.8-6.8,33.6-9,50.6c-2.2,16.9-3.3,33.9-3.2,50.9c0.1,16.9,1.9,33.7,5.5,50.2
	c3.5,16.4,9.2,32.2,16.9,47.1c1,1.9,2,3.7,3,5.5l3.2,5.4c2.2,3.6,4.5,7.3,6.8,10.9c4.6,7.2,9.4,14.2,14.4,21.1
	c9.9,13.7,21,26.5,33.1,38.3c12.1,11.5,25.6,21.7,40.4,28.4c7.3,3.4,15,5.8,22.9,7.1c7.8,1.3,15.7,1.3,23.5,0
	c15.4-2.6,29.8-11,40.3-22.8c5.3-5.9,9.6-12.5,12.8-19.8c1.5-3.5,2.7-7.2,3.5-10.9c0.8-3.5,1-7.1,0.7-10.7c-0.2-3.1-1.2-6.1-2.9-8.8
	c-0.8-1.1-1.8-2.2-2.9-3c-1.1-0.8-2.3-1.5-3.5-1.9c-3-0.9-6.1-0.9-9.1-0.2c-3.5,0.8-7,2.1-10.1,3.8c-6.9,3.9-13.1,8.8-18.5,14.6
	c-5.5,5.9-10.4,12.4-14.5,19.4c-8.3,14-13.6,29.7-15.3,45.9c-1.7,16.2,0.3,32.5,6,47.8c5.6,15.3,14.7,29.3,25.7,41.6
	c2.8,3.1,5.6,6.1,8.6,8.9l4.6,4.3l4.7,4.2c6.3,5.5,12.9,10.6,19.8,15.3c1.7,1.2,3.4,2.3,5.2,3.4c0.9,0.5,1.8,1.1,2.6,1.6l2.7,1.6
	c1.8,1.1,3.6,2,5.4,3s3.7,1.9,5.5,2.7c3.7,1.7,7.5,3.3,11.3,4.6c3.8,1.3,7.7,2.4,11.7,3.3c7.8,1.7,15.9,2.4,23.9,2.1
	c8-0.4,16-1.9,23.6-4.4c15.4-5.1,29.6-14.2,42.1-25.3c12.6-11.4,23.6-24.3,33-38.4l0,0c0.9-1.5,2.9-2.1,4.5-1.1
	c1.2,0.7,1.8,2,1.5,3.3v0.1c-1.6,8.5-2.1,17.2-1.5,25.8c0.1,2.1,0.5,4.3,0.7,6.4s0.7,4.2,1.2,6.3c0.9,4.2,2.2,8.3,3.7,12.3
	c3.1,8,7.1,15.6,12,22.7c4.9,7.1,10.5,13.8,16.7,19.9c12.3,12.3,26.5,22.7,41.5,31.7c15.1,9,30.9,16.8,47.2,23.3
	c16.4,6.6,33.1,12.3,50.1,17c17,4.8,34.2,8.8,51.7,11.9c17.4,3.2,34.9,5.7,52.5,7.4c17.6,1.7,35.3,2.8,53,3.2
	c35.3,0.8,70.7-1.4,105.6-6.7c17.4-2.6,34.7-6.1,51.8-10.6c17-4.4,33.6-9.9,49.9-16.4c16.2-6.5,31.8-14.3,46.8-23.2
	c14.9-8.9,28.9-19.1,41.9-30.6c13-11.5,24.6-24.4,34.7-38.5c10.1-14.3,18.6-29.7,25.3-45.9l0.2-0.5c0.7-1.6,2.5-2.3,4.1-1.6
	c0.3,0.1,0.6,0.3,0.9,0.6l0,0c13.7,10.8,29.1,19.2,45.7,23.8c16.6,4.6,34,5.4,50.9,2.2c16.9-3.2,33.1-9.5,47.8-18.6
	c14.7-9.1,28-20.2,39.5-33.2c11.5-12.8,20.9-27.3,28-43c3.5-7.7,6.2-15.8,8-24.1c1.8-8.1,2.5-16.4,2-24.7c-0.5-8.1-2.5-16-6-23.2
	c-3.5-7.2-8.6-13.5-14.8-18.6c-6.3-5.2-13.5-9.3-21.1-12.2c-7.9-3-16-5.2-24.3-6.5c-8.2-1.5-16.6-2.1-25-1.8
	c-3.8,0.2-7.6,0.8-11.3,1.9c-3.3,1.1-6,2.8-7.3,4.7c-0.7,1-1.2,2.1-1.4,3.3c-0.3,1.4-0.3,2.9-0.1,4.3c0.6,3.6,1.8,7,3.5,10.2
	c3.6,6.9,8.8,13.5,14.7,19.5c5.9,6,12.4,11.6,19.3,16.5c6.9,5,14.2,9.4,21.8,13.3c15,7.9,31.2,13.1,48,15.5
	c16.6,2.2,33.5,0.9,48.8-5c7.7-2.9,14.9-6.8,21.5-11.6c6.7-4.9,12.8-10.6,18.2-16.9c10.9-12.7,19.3-27.7,25.9-43.5
	c3.3-8,6.2-16.1,8.7-24.4c2.5-8.3,4.6-16.7,6.4-25.2c7-33.9,7.2-69,2.6-103.5s-13.9-68.6-25.2-102s-24.8-66.1-38.7-98.8
	s-28.2-65.3-41.5-98.4s-25.4-67-34.1-101.9c-4.4-17.5-7.7-35.3-9.8-53.2c-2.1-18-2.6-36.2-1.5-54.3c1.2-18.1,4.4-36.1,9.5-53.5
	c5.1-17.4,12.3-34.2,21.2-50c8.9-15.7,19.3-30.5,31.1-44.2c11.7-13.6,24.4-26.4,38.1-38.1c1.4-1.1,3.4-1,4.6,0.4
	c1.1,1.3,1,3.2-0.2,4.4l0,0c-13,11.8-25.2,24.6-36.4,38.2c-11.1,13.5-21,28.1-29.3,43.5c-16.6,30.8-26.1,64.9-27.8,99.8
	c-0.8,17.4-0.1,34.9,2.2,52.2c2.3,17.4,5.7,34.6,10.2,51.5c8.9,34,21.3,67.2,34.7,99.9c26.9,65.5,58.4,129.6,81.9,197.4
	c11.7,33.9,21.4,68.8,26.3,104.8c2.5,18,3.7,36.2,3.4,54.4c-0.3,18.3-2.3,36.5-6,54.4c-1.9,9-4.1,17.8-6.7,26.5
	c-2.6,8.8-5.7,17.4-9.2,25.9c-7.1,16.9-16.2,33.4-28.6,47.7c-6.2,7.2-13.2,13.7-20.9,19.3c-7.8,5.6-16.3,10.2-25.3,13.6
	c-9,3.3-18.4,5.5-27.9,6.3c-9.4,0.9-19,0.6-28.3-0.7c-18.5-2.7-36.4-8.5-52.9-17.3c-8.2-4.3-16.1-9.2-23.6-14.6
	c-7.6-5.5-14.6-11.6-21.1-18.3c-6.5-6.8-12.5-14.3-17.1-23.2c-2.5-4.7-4.1-9.8-4.8-15c-0.4-3-0.3-6,0.3-8.9c0.6-3.2,1.9-6.2,3.8-8.9
	c1.9-2.5,4.2-4.7,6.8-6.4c2.4-1.5,5-2.7,7.7-3.5c4.9-1.5,9.9-2.3,15-2.5c4.8-0.2,9.5-0.1,14.3,0.4c4.7,0.4,9.2,1,13.8,1.8
	c9.2,1.5,18.3,4.1,27,7.5c9,3.5,17.3,8.4,24.7,14.6c7.5,6.4,13.6,14.2,17.9,23.1c4.1,8.8,6.5,18.4,7,28.1c0.5,9.5-0.4,19-2.6,28.2
	c-2.1,9.1-5.2,17.9-9.1,26.4c-7.8,16.7-18.2,32.1-30.7,45.6c-12.4,13.5-26.7,25.2-42.5,34.5c-15.8,9.2-33.2,16-51.5,18.9
	c-18.3,3-37,1.7-54.7-3.6c-17.5-5.5-33.7-14.5-47.6-26.4l0,0l5.2-1.5c-4.3,17.9-11.3,35-20.8,50.8c-9.5,15.9-21.1,30.5-34.4,43.4
	c-13.3,12.8-28.1,24.1-43.9,33.7c-15.7,9.5-32.2,17.7-49.3,24.5c-17,6.8-34.4,12.5-52.1,17c-17.6,4.5-35.5,8.1-53.5,10.8
	c-18,2.7-36.1,4.4-54.2,5.4s-36.3,1.2-54.4,0.6s-36.2-1.9-54.2-3.9s-35.9-4.8-53.7-8.4c-35.5-7.2-70.5-17.3-103.9-31.7
	c-16.8-7.2-32.9-15.6-48.4-25.3c-15.4-9.8-30-21.1-42.7-34.5c-6.4-6.7-12.1-14-17.2-21.8c-2.5-3.9-4.8-8-6.9-12.1
	c-2.1-4.2-3.8-8.5-5.3-12.9c-1.5-4.4-2.7-8.9-3.6-13.5c-0.5-2.3-0.7-4.6-1.1-6.9s-0.5-4.6-0.5-7c-0.4-9.3,0.5-18.6,2.7-27.6l6,2.4
	l0,0c-4.1,7.9-8.8,15.4-14,22.6c-5.2,7.2-11,14-17.3,20.3c-6.4,6.4-13.3,12.2-20.7,17.3c-7.6,5.2-15.7,9.4-24.3,12.7
	c-8.7,3.3-17.8,5.3-27.1,6c-9.3,0.7-18.6,0.1-27.8-1.8c-4.5-0.9-9-2.1-13.4-3.6c-4.3-1.4-8.6-3.1-12.8-5
	c-8.3-3.8-16.2-8.3-23.7-13.4c-7.4-5-14.5-10.5-21.3-16.5l-5-4.4l-4.9-4.6c-3.2-3.1-6.4-6.4-9.4-9.7c-12.1-13.4-22.2-29-28.6-46.4
	c-6.4-17.4-8.8-36-6.8-54.4c2-18.4,8-36.1,17.4-52c4.7-7.9,10.2-15.3,16.6-22c6.4-6.9,13.9-12.8,22.2-17.4c4.4-2.4,9.2-4.2,14.1-5.3
	c5.5-1.2,11.2-1,16.6,0.7c2.8,0.9,5.5,2.3,7.9,4.2c2.3,1.8,4.3,3.9,6,6.4c3.1,4.7,4.9,10,5.4,15.6c0.4,5.1,0.1,10.1-0.9,15.1
	c-1,4.7-2.5,9.4-4.5,13.8c-3.8,8.7-9,16.6-15.4,23.6c-6.4,7-13.8,13-22,17.6c-8.3,4.7-17.3,7.9-26.7,9.6c-9.3,1.6-18.9,1.6-28.2,0
	c-9.2-1.6-18.1-4.4-26.5-8.3c-16.7-7.7-31.2-18.9-44.1-31.2c-12.7-12.4-24.3-25.9-34.6-40.3c-5.2-7.1-10.1-14.4-14.8-21.8
	c-2.4-3.7-4.7-7.4-6.9-11.2l-3.4-5.8c-1.1-2-2.2-3.9-3.2-5.9c-8.1-16-14.1-33-17.8-50.5c-3.6-17.4-5.5-35.1-5.5-52.9
	c0-17.6,1.1-35.2,3.5-52.7c2.3-17.4,5.6-34.6,9.4-51.7c7.7-34.1,17.8-67.4,28.4-100.5s22-65.8,32.9-98.6s21.4-65.8,30.2-99.1
	s15.9-67.1,19.3-101.2c1.8-17,2.3-34.2,1.8-51.3c-0.6-17.1-2.7-34.1-6.3-50.7c-3.7-16.7-9.1-32.9-16.3-48.3
	c-7.3-15.5-16.2-30.1-26.7-43.5l0,0c-0.9-1-1-2.5-0.3-3.6l0.2-0.3c9.2-14.5,17.9-29.1,25.9-44.1c4-7.5,7.7-15.1,11.1-22.8
	c1.7-3.8,3.4-7.7,4.9-11.6s3-7.8,4.4-11.7c5.5-15.6,9.1-31.8,10.6-48.2c1.4-16.4,0.7-32.8-2-49c-2.9-16.4-7-32.6-12.3-48.5
	c-5.2-16-11.1-32-17.2-48L129,913c-6.1-16.1-12.1-32.3-17.8-48.7C99.7,831.7,89.7,798.6,81,765s-15.9-67.5-21.6-101.7
	c-2.9-17.1-5.4-34.2-7.6-51.3c-1.1-8.6-2.1-17.2-3.1-25.7s-1.9-17.2-2.6-25.9c-1.4-17.3-2.2-34.8-2.1-52.3
	c0.1-17.6,1.4-35.2,3.9-52.6c2.7-17.5,6.8-34.9,13.5-51.7c3.3-8.5,7.4-16.6,12.2-24.4c4.8-7.9,10.5-15.2,17-21.8
	c13.1-13.4,29.4-23.2,47.4-28.3c17.8-5.2,36.5-5.8,54.4-3.6c17.8,2.4,35.2,7.3,51.6,14.5c8.2,3.6,16.2,7.7,23.8,12.3
	c7.7,4.7,15,10,21.9,16c3.5,3.1,6.7,6.3,9.8,9.8c3.2,3.6,6,7.6,8.4,11.9c1.2,2.3,2.2,4.8,3,7.3c0.9,2.8,1.3,5.7,1.3,8.6
	c-0.1,3.3-0.9,6.5-2.3,9.4c-1.5,2.8-3.5,5.2-6,7.2c-2.2,1.7-4.6,3.2-7.1,4.3c-2.3,1-4.7,1.9-7.2,2.5c-2.3,0.6-4.7,1.1-7,1.4
	c-2.4,0.4-4.6,0.6-6.9,0.8c-9.3,1-18.8,0.4-27.9-1.7c-4.8-1.2-9.4-3-13.7-5.4c-4.4-2.5-8.3-5.6-11.7-9.3c-3.3-3.7-6.1-7.9-8.2-12.4
	c-2-4.4-3.5-8.9-4.5-13.6c-1.8-9.1-2.2-18.3-1.3-27.5c0.8-8.9,2.5-17.8,4.9-26.4c4.8-17,11.5-33.4,20.1-48.9
	c8.4-15.4,18.4-30,29.8-43.4c11.4-13.5,24.5-25.5,39-35.5c7.3-5,15.2-9.3,23.3-12.9c8.2-3.6,16.9-6.1,25.8-7.4
	c9-1.3,18.1-1.2,27,0.4c8.9,1.7,17.4,4.7,25.4,9c7.8,4.3,15.1,9.5,21.6,15.6c6.5,6,12.4,12.5,17.7,19.5l0,0l-5.2,0.1
	c2-3.9,4-7.7,6.2-11.4s4.5-7.4,6.9-11c4.8-7.2,10-14.2,15.5-20.9s11.3-13.1,17.5-19.3c6.1-6.2,12.6-12,19.2-17.6
	c13.5-11.1,27.7-21.2,42.6-30.3c14.8-9.1,30.3-17.1,46.3-24.1c16-6.9,32.4-12.8,49.1-17.6c16.7-4.8,33.7-8.5,50.8-11.2
	c17.1-2.7,34.4-4.4,51.7-5.2c17.3-0.8,34.5-0.6,51.8,0.3c34.4,2,68.5,7.2,102,15.5c16.7,4.1,33.2,8.9,49.5,14.5
	c16.3,5.5,32.3,11.8,47.9,18.8c15.7,7,31,14.8,45.9,23.3c15,8.5,29.3,18.1,43,28.5c13.6,10.6,26.6,22.2,37.6,35.7
	c5.6,6.7,10.5,14.1,14.5,21.9c4,7.9,6.9,16.6,7.2,25.8l0,0l-5.5-2.2c3-3,6.1-6.2,9.4-9.1s6.7-5.8,10.2-8.5
	c7.1-5.4,14.6-10.1,22.6-14c8.1-4,16.6-6.9,25.3-8.9c8.8-1.9,17.9-2.8,26.9-2.4c9,0.4,18,1.8,26.7,4.3c8.6,2.5,17,5.8,25,9.9
	c4,2,7.9,4.2,11.7,6.5s7.5,4.8,11.1,7.4c7.2,5.2,14.1,10.7,20.7,16.7c1.7,1.5,3.3,3,4.9,4.5s3.2,3.1,4.8,4.7c3.2,3.2,6.2,6.5,9.1,10
	c5.8,7,10.8,14.6,14.9,22.7c4.2,8.2,7.3,16.8,9.4,25.8c2.1,9,3,18.1,2.9,27.3c-0.4,18.4-4.9,36.4-13,52.9c-4,8.2-8.8,16-14.4,23.3
	c-5.6,7.4-12.2,14-19.6,19.8c-3.8,3-8,5.5-12.3,7.7c-4.7,2.3-9.8,3.8-15,4.4c-2.9,0.3-5.8,0.2-8.7-0.4c-3-0.6-6-1.7-8.6-3.3
	c-2.6-1.6-4.9-3.6-6.9-6c-1.8-2.2-3.3-4.6-4.5-7.2c-2.1-4.7-3.6-9.6-4.2-14.7c-0.7-5.1-0.7-10.3,0.1-15.3c0.8-5,2.3-9.9,4.4-14.5
	c2-4.5,4.6-8.7,7.5-12.7c5.8-7.6,12.7-14.3,20.6-19.7c7.7-5.3,16-9.7,24.7-13.1c17.4-6.7,36-9.6,54.6-8.5
	c18.7,1.2,36.8,6.5,53.2,15.5c16.2,9.1,30.4,21.2,41.9,35.8c11.2,14.3,20.4,30.1,27.3,46.9c3.5,8.3,6.5,16.7,9.1,25.3
	c2.6,8.6,4.8,17.2,6.7,25.9c1.9,8.7,3.4,17.4,4.7,26.2c0.6,4.4,1.2,8.8,1.7,13.1c0.5,4.4,0.9,8.8,1.3,13.2
	c1.4,17.8,1.3,35.6-0.2,53.4c-2.8,35.4-10.4,70-20.4,103.6s-22.4,66.3-35.6,98.4s-27.4,63.8-41.4,95.3s-27.6,63.1-39.7,95
	c-6,16-11.5,32.1-16.2,48.3c-4.8,16.1-8.4,32.5-10.8,49.2c-2.2,16.5-3,33.1-1,49.4c0.9,8.1,2.6,16.1,4.9,23.9
	c2.4,7.8,5.5,15.4,9.3,22.6c1.9,3.6,4,7.1,6.2,10.6c1.2,1.7,2.3,3.4,3.5,5.1l1.8,2.5l1.9,2.4c5.2,6.5,10.9,12.6,17.1,18.1
	c12.4,11.3,26.5,20.9,41.4,29.3l0,0c1.6,0.8,2.3,2.8,1.5,4.4S1443,1250.5,1441.4,1249.7L1441.4,1249.7z"/>
</svg>
