<svg id="Camada_1" data-name="Camada 1" xmlns="http://www.w3.org/2000/svg" width="356.25" height="233.22" viewBox="0 0 356.25 233.22">
  <title>logo_ambie</title>
  <path d="M331.88,213.12s-17.76.93-18.8-11.83c2.67-7.46,10.09,3.13,10.09,3.13s-5.44-6.81-.72-10.89S331.71,205.35,331.88,213.12Z" transform="translate(-15.99 -4.13)" fill="#f4a416"/>
  <g>
    <path d="M338.69,198.16s21.25-18.5,16.66-46.2" transform="translate(-15.99 -4.13)" fill="none" stroke="#000100" stroke-linecap="round" stroke-linejoin="round" stroke-width="1.62"/>
    <path d="M355.61,151.78s-12.35-13.15-4.91-19.12C357.18,127.45,360.75,141.88,355.61,151.78Z" transform="translate(-15.99 -4.13)" fill="none" stroke="#000100" stroke-linecap="round" stroke-linejoin="round" stroke-width="1.62"/>
    <path d="M354.38,172.2s-17-5.91-13.22-14.65C344.49,149.92,354.34,161,354.38,172.2Z" transform="translate(-15.99 -4.13)" fill="none" stroke="#000100" stroke-linecap="round" stroke-linejoin="round" stroke-width="1.62"/>
    <path d="M354.32,171.74s5.82-17.07,14.58-13.29C376.55,161.73,365.47,171.64,354.32,171.74Z" transform="translate(-15.99 -4.13)" fill="none" stroke="#000100" stroke-linecap="round" stroke-linejoin="round" stroke-width="1.62"/>
    <path d="M345.07,191.65s-15.78-8.74-10.52-16.7C339.13,168,346.94,180.64,345.07,191.65Z" transform="translate(-15.99 -4.13)" fill="none" stroke="#000100" stroke-linecap="round" stroke-linejoin="round" stroke-width="1.62"/>
    <path d="M345.09,191.18s8.65-15.82,16.64-10.61C368.7,185.12,356.1,193,345.09,191.18Z" transform="translate(-15.99 -4.13)" fill="none" stroke="#000100" stroke-linecap="round" stroke-linejoin="round" stroke-width="1.62"/>
  </g>
  <g>
    <path d="M310.62,217.81s-24.65,13.65-49.11-.14" transform="translate(-15.99 -4.13)" fill="none" stroke="#000100" stroke-linecap="round" stroke-linejoin="round" stroke-width="1.62"/>
    <path d="M261.25,217.85s-8.13-16.1-16.28-11.16C237.86,211,250.19,219.29,261.25,217.85Z" transform="translate(-15.99 -4.13)" fill="none" stroke="#000100" stroke-linecap="round" stroke-linejoin="round" stroke-width="1.62"/>
    <path d="M280.86,223.68s.27-18-9.24-17.44C263.31,206.76,270.39,219.82,280.86,223.68Z" transform="translate(-15.99 -4.13)" fill="none" stroke="#000100" stroke-linecap="round" stroke-linejoin="round" stroke-width="1.62"/>
    <path d="M280.45,223.46s-18-.36-17.48,9.16C263.45,240.93,276.54,233.91,280.45,223.46Z" transform="translate(-15.99 -4.13)" fill="none" stroke="#000100" stroke-linecap="round" stroke-linejoin="round" stroke-width="1.62"/>
    <path d="M302.32,221.59S299.5,203.77,290.23,206C282.14,207.91,291.34,219.57,302.32,221.59Z" transform="translate(-15.99 -4.13)" fill="none" stroke="#000100" stroke-linecap="round" stroke-linejoin="round" stroke-width="1.62"/>
    <path d="M301.88,221.44s-17.83,2.72-15.66,12C288.11,241.55,299.81,232.4,301.88,221.44Z" transform="translate(-15.99 -4.13)" fill="none" stroke="#000100" stroke-linecap="round" stroke-linejoin="round" stroke-width="1.62"/>
  </g>
  <path d="M56.34,212.37s17.77.93,18.81-11.83c-2.67-7.45-10.09,3.14-10.09,3.14s5.43-6.82.72-10.89S56.52,204.6,56.34,212.37Z" transform="translate(-15.99 -4.13)" fill="#f3a315"/>
  <g>
    <path d="M49.54,197.41s-21.25-18.5-16.66-46.2" transform="translate(-15.99 -4.13)" fill="none" stroke="#000100" stroke-linecap="round" stroke-linejoin="round" stroke-width="1.62"/>
    <path d="M32.62,151S45,137.89,37.53,131.92C31,126.71,27.48,141.13,32.62,151Z" transform="translate(-15.99 -4.13)" fill="none" stroke="#000100" stroke-linecap="round" stroke-linejoin="round" stroke-width="1.62"/>
    <path d="M33.84,171.45s17-5.91,13.23-14.65C43.74,149.18,33.89,160.3,33.84,171.45Z" transform="translate(-15.99 -4.13)" fill="none" stroke="#000100" stroke-linecap="round" stroke-linejoin="round" stroke-width="1.62"/>
    <path d="M33.91,171s-5.83-17.06-14.58-13.29C11.68,161,22.76,170.89,33.91,171Z" transform="translate(-15.99 -4.13)" fill="none" stroke="#000100" stroke-linecap="round" stroke-linejoin="round" stroke-width="1.62"/>
    <path d="M43.15,190.9s15.78-8.74,10.53-16.69C49.1,167.26,41.29,179.9,43.15,190.9Z" transform="translate(-15.99 -4.13)" fill="none" stroke="#000100" stroke-linecap="round" stroke-linejoin="round" stroke-width="1.62"/>
    <path d="M43.14,190.44s-8.66-15.82-16.64-10.61C19.53,184.38,32.13,192.24,43.14,190.44Z" transform="translate(-15.99 -4.13)" fill="none" stroke="#000100" stroke-linecap="round" stroke-linejoin="round" stroke-width="1.62"/>
  </g>
  <g>
    <path d="M77.61,217.07s24.65,13.64,49.11-.15" transform="translate(-15.99 -4.13)" fill="none" stroke="#000100" stroke-linecap="round" stroke-linejoin="round" stroke-width="1.62"/>
    <path d="M127,217.1S135.11,201,143.26,206C150.37,210.26,138,218.54,127,217.1Z" transform="translate(-15.99 -4.13)" fill="none" stroke="#000100" stroke-linecap="round" stroke-linejoin="round" stroke-width="1.62"/>
    <path d="M107.37,222.93s-.27-18,9.24-17.43C124.92,206,117.84,219.08,107.37,222.93Z" transform="translate(-15.99 -4.13)" fill="none" stroke="#000100" stroke-linecap="round" stroke-linejoin="round" stroke-width="1.62"/>
    <path d="M107.78,222.72s18-.37,17.48,9.15C124.78,240.18,111.69,233.16,107.78,222.72Z" transform="translate(-15.99 -4.13)" fill="none" stroke="#000100" stroke-linecap="round" stroke-linejoin="round" stroke-width="1.62"/>
    <path d="M85.91,220.84S88.72,203,98,205.24C106.09,207.16,96.88,218.82,85.91,220.84Z" transform="translate(-15.99 -4.13)" fill="none" stroke="#000100" stroke-linecap="round" stroke-linejoin="round" stroke-width="1.62"/>
    <path d="M86.35,220.69s17.83,2.72,15.66,12C100.12,240.8,88.42,231.65,86.35,220.69Z" transform="translate(-15.99 -4.13)" fill="none" stroke="#000100" stroke-linecap="round" stroke-linejoin="round" stroke-width="1.62"/>
  </g>
  <path d="M90.86,125V78.48h-46V125H42.18V52.94q0-12.49,6.45-19.22T67.85,27q12.78,0,19.22,6.71t6.45,19.22V125Zm0-69a48.51,48.51,0,0,0-1.19-11.3,21,21,0,0,0-3.86-8.25,16.63,16.63,0,0,0-7.12-5.05,30.09,30.09,0,0,0-10.84-1.73A29.94,29.94,0,0,0,57,31.4a16.83,16.83,0,0,0-7.12,5.12A20.36,20.36,0,0,0,46,44.76,50.17,50.17,0,0,0,44.84,56V75.82h46Z" transform="translate(-15.99 -4.13)" fill="#1d1d1b"/>
  <path d="M205.25,125V56a47.94,47.94,0,0,0-1.2-11.3,20.9,20.9,0,0,0-3.86-8.25,16.54,16.54,0,0,0-7.11-5.05,35,35,0,0,0-21.75,0,16.83,16.83,0,0,0-7.12,5.12,20.34,20.34,0,0,0-3.85,8.24A49.6,49.6,0,0,0,159.23,56v69h-2.66V56a47.94,47.94,0,0,0-1.2-11.3,20.9,20.9,0,0,0-3.86-8.25,16.54,16.54,0,0,0-7.11-5.05,30.12,30.12,0,0,0-10.84-1.73,30,30,0,0,0-10.91,1.73,16.83,16.83,0,0,0-7.12,5.12,20.34,20.34,0,0,0-3.85,8.24A49.6,49.6,0,0,0,110.55,56v69h-2.66V52.94q0-12.49,6.45-19.22T133.56,27q9.84,0,16,4a20.5,20.5,0,0,1,8.38,11.78,20.46,20.46,0,0,1,8.38-11.78q6.1-4.05,16-4,12.76,0,19.22,6.71t6.45,19.22V125Z" transform="translate(-15.99 -4.13)" fill="#1d1d1b"/>
  <path d="M275.87,99a25.06,25.06,0,0,1-2.59,11.84,24,24,0,0,1-6.85,8.12,28,28,0,0,1-10,4.65A47.33,47.33,0,0,1,244.62,125H222.27V29.27h23.94a36.14,36.14,0,0,1,10.44,1.46,24.42,24.42,0,0,1,8.52,4.46,20.7,20.7,0,0,1,5.71,7.45A24.56,24.56,0,0,1,273,53.08a22.14,22.14,0,0,1-1.53,8.24,22.86,22.86,0,0,1-4.19,6.85A21.27,21.27,0,0,1,260.91,73a20.31,20.31,0,0,1-8.05,2.13,24.2,24.2,0,0,1,9.25,2,22.81,22.81,0,0,1,7.25,5.06,23.4,23.4,0,0,1,4.78,7.44A24.6,24.6,0,0,1,275.87,99Zm-5.58-45.75a22.17,22.17,0,0,0-1.87-9.44,18.58,18.58,0,0,0-5.12-6.65,21.24,21.24,0,0,0-7.64-3.93,34.16,34.16,0,0,0-9.45-1.26H224.93v41.9h21.28a31.32,31.32,0,0,0,9-1.33A23.6,23.6,0,0,0,263,68.57a18.84,18.84,0,0,0,7.32-15.49Zm2.92,46A22.6,22.6,0,0,0,271,88.92a19.68,19.68,0,0,0-5.92-7,25.94,25.94,0,0,0-8.65-4.05,38.91,38.91,0,0,0-10.24-1.33H224.93v45.88h20.88A40.15,40.15,0,0,0,256.25,121a24.91,24.91,0,0,0,8.78-4.19,20.34,20.34,0,0,0,6-7.24A23,23,0,0,0,273.21,99.23Z" transform="translate(-15.99 -4.13)" fill="#1d1d1b"/>
  <path d="M288,125V29.27h2.66V125Z" transform="translate(-15.99 -4.13)" fill="#1d1d1b"/>
  <path d="M305,125V29.27h52v2.66H307.66V75.82h45.75v2.66H307.66v43.89h49.88V125ZM344.37,22.62,330.67,6.26,317.5,22.62h-2.66l15-18.49h2L347,22.62Z" transform="translate(-15.99 -4.13)" fill="#1d1d1b"/>
  <path d="M96.74,188.48v-25.2H71.83v25.2H70.39v-39q0-6.77,3.49-10.4t10.4-3.64q6.91,0,10.41,3.64t3.49,10.4v39Zm0-37.36a26.05,26.05,0,0,0-.65-6.12A11.3,11.3,0,0,0,94,140.53a8.9,8.9,0,0,0-3.85-2.73,16.13,16.13,0,0,0-5.87-.94,16,16,0,0,0-5.9.94,9,9,0,0,0-3.85,2.77A10.91,10.91,0,0,0,72.44,145a26.9,26.9,0,0,0-.61,6.09v10.72H96.74Z" transform="translate(-15.99 -4.13)" fill="#1d1d1b"/>
  <path d="M135,150.18a12.25,12.25,0,0,1-3,8.57,14.72,14.72,0,0,1-8,4.39,14.17,14.17,0,0,1,5.32,1.62,8.49,8.49,0,0,1,3.1,3,11.25,11.25,0,0,1,1.4,4.29,40.56,40.56,0,0,1,.33,5.4v11h-1.44V177.25A24.62,24.62,0,0,0,132,171a9,9,0,0,0-2.26-4.14,8.82,8.82,0,0,0-4.18-2.23,27.38,27.38,0,0,0-6.48-.65H107.4v24.55H106V136.64h13.32a27.48,27.48,0,0,1,6.4.69,12.7,12.7,0,0,1,4.94,2.27,10.6,10.6,0,0,1,3.2,4.17A15.77,15.77,0,0,1,135,150.18Zm-1.44-.5q-.08-5.48-3.31-8.54t-10.58-3.06H107.4v24.41h11.52a20.9,20.9,0,0,0,5.47-.72,13.36,13.36,0,0,0,4.71-2.3,11.23,11.23,0,0,0,3.24-4A12.89,12.89,0,0,0,133.53,149.68Z" transform="translate(-15.99 -4.13)" fill="#1d1d1b"/>
  <path d="M187.67,162.56a35,35,0,0,1-1.51,10.34,25.76,25.76,0,0,1-4.5,8.64,22.28,22.28,0,0,1-7.41,5.94,24.72,24.72,0,0,1-20.52,0,22.21,22.21,0,0,1-7.42-5.94,25.76,25.76,0,0,1-4.5-8.64,36.12,36.12,0,0,1,0-20.67,25.57,25.57,0,0,1,4.5-8.64,22.21,22.21,0,0,1,7.42-5.94,22.83,22.83,0,0,1,27.93,5.94,25.57,25.57,0,0,1,4.5,8.64A35,35,0,0,1,187.67,162.56Zm-1.44,0a33.36,33.36,0,0,0-1.4-9.75,25.07,25.07,0,0,0-4.18-8.21,19.87,19.87,0,0,0-6.94-5.65,23.65,23.65,0,0,0-19.44,0,19.9,19.9,0,0,0-7,5.65,25.07,25.07,0,0,0-4.18,8.21,34.69,34.69,0,0,0,0,19.51,25.07,25.07,0,0,0,4.18,8.21,20,20,0,0,0,7,5.65,23.65,23.65,0,0,0,19.44,0,20,20,0,0,0,6.94-5.65,25.07,25.07,0,0,0,4.18-8.21A33.43,33.43,0,0,0,186.23,162.56Z" transform="translate(-15.99 -4.13)" fill="#1d1d1b"/>
  <path d="M246.93,188.48V151.12a26.05,26.05,0,0,0-.65-6.12,11.3,11.3,0,0,0-2.09-4.47,8.9,8.9,0,0,0-3.85-2.73,18.89,18.89,0,0,0-11.77,0,9,9,0,0,0-3.85,2.77,10.91,10.91,0,0,0-2.09,4.46,26.9,26.9,0,0,0-.61,6.09v37.36h-1.44V151.12a26.05,26.05,0,0,0-.65-6.12,11.3,11.3,0,0,0-2.09-4.47A8.9,8.9,0,0,0,214,137.8a18.89,18.89,0,0,0-11.77,0,9,9,0,0,0-3.85,2.77,10.91,10.91,0,0,0-2.09,4.46,26.9,26.9,0,0,0-.61,6.09v37.36h-1.44v-39q0-6.77,3.49-10.4t10.4-3.64a15.34,15.34,0,0,1,8.64,2.2A11.06,11.06,0,0,1,221.3,144a11,11,0,0,1,4.53-6.37,15.34,15.34,0,0,1,8.64-2.2q6.92,0,10.41,3.64t3.49,10.4v39Z" transform="translate(-15.99 -4.13)" fill="#1d1d1b"/>
  <path d="M282.5,188.48v-25.2H257.58v25.2h-1.44v-39q0-6.77,3.5-10.4t10.4-3.64q6.91,0,10.41,3.64t3.49,10.4v39Zm0-37.36a26.05,26.05,0,0,0-.65-6.12,11.3,11.3,0,0,0-2.09-4.47,8.9,8.9,0,0,0-3.85-2.73,18.89,18.89,0,0,0-11.77,0,9,9,0,0,0-3.85,2.77A10.78,10.78,0,0,0,258.2,145a26.87,26.87,0,0,0-.62,6.09v10.72H282.5Z" transform="translate(-15.99 -4.13)" fill="#1d1d1b"/>
  <path d="M327.14,175.74a13.14,13.14,0,0,1-1.41,6.3,12.5,12.5,0,0,1-3.74,4.32,16.41,16.41,0,0,1-5.37,2.52,23.88,23.88,0,0,1-6.33.83,32.09,32.09,0,0,1-8.32-1.05,19.21,19.21,0,0,1-6.84-3.27,15.39,15.39,0,0,1-4.57-5.73,18.76,18.76,0,0,1-1.58-8.38h1.44a17.65,17.65,0,0,0,1.58,7.84,14.24,14.24,0,0,0,4.28,5.26,18,18,0,0,0,6.34,3,30.63,30.63,0,0,0,7.74.94,23,23,0,0,0,5.8-.72,15.39,15.39,0,0,0,4.93-2.23,11,11,0,0,0,3.42-3.89,12,12,0,0,0,1.26-5.69,10.28,10.28,0,0,0-1.69-6.19,12,12,0,0,0-4.32-3.64,25,25,0,0,0-5.84-2q-3.19-.72-6.15-1.44-3.16-.72-6.23-1.55a23.51,23.51,0,0,1-5.54-2.23,11.41,11.41,0,0,1-4-3.71,11,11,0,0,1-1.51-6.12A12.25,12.25,0,0,1,292,142.4a12.1,12.1,0,0,1,4.06-4.14,17.48,17.48,0,0,1,5.66-2.19,30.71,30.71,0,0,1,6.22-.65,28.26,28.26,0,0,1,7,.83,15.2,15.2,0,0,1,5.65,2.7,13.34,13.34,0,0,1,3.85,4.89,19.42,19.42,0,0,1,1.66,7.35h-1.44a16.69,16.69,0,0,0-1.48-6.7,12.26,12.26,0,0,0-3.53-4.43,14,14,0,0,0-5.22-2.44,26.29,26.29,0,0,0-6.48-.76,27.7,27.7,0,0,0-5.58.58,17.51,17.51,0,0,0-5.18,1.9,11.17,11.17,0,0,0-3.85,3.64,10.29,10.29,0,0,0-1.51,5.76,9.29,9.29,0,0,0,1.54,5.58,11.43,11.43,0,0,0,4,3.42,24.37,24.37,0,0,0,5.65,2l6.48,1.55c2.4.58,4.67,1.15,6.8,1.73a20.28,20.28,0,0,1,5.58,2.34,10.92,10.92,0,0,1,3.78,3.89A12.68,12.68,0,0,1,327.14,175.74Z" transform="translate(-15.99 -4.13)" fill="#1d1d1b"/>
</svg>
