<svg id="Camada_1" data-name="Camada 1" xmlns="http://www.w3.org/2000/svg" viewBox="0 0 573.92 326.38"><path d="M106.58,265.71V238.78q-5.77,14.41-17,22.31T63.18,269a44.82,44.82,0,0,1-22.51-5.58,50.09,50.09,0,0,1-16.51-15.24A72.27,72.27,0,0,1,14,225.85a102.46,102.46,0,0,1-3.46-27.07,122.12,122.12,0,0,1,3.35-29,77.91,77.91,0,0,1,10.16-24.22,52.83,52.83,0,0,1,17.2-16.73Q51.63,122.6,66,122.6a43.33,43.33,0,0,1,23.78,6.94q10.84,6.94,16.85,20.54V125.87h4.62V265.71Zm0-97.4A35.51,35.51,0,0,0,103,152.53a43.75,43.75,0,0,0-9.35-12.79,44.75,44.75,0,0,0-13-8.57A36.93,36.93,0,0,0,66,128q-14.33,0-24,6.4A48.76,48.76,0,0,0,26.36,151a77,77,0,0,0-8.55,22.86,120.92,120.92,0,0,0-2.65,24.89,94.64,94.64,0,0,0,3.12,24.49A68.38,68.38,0,0,0,27.4,244a46,46,0,0,0,15,14.28,40.13,40.13,0,0,0,20.78,5.31,44.56,44.56,0,0,0,16.62-3.13,40.92,40.92,0,0,0,13.85-9.12A43.73,43.73,0,0,0,103.12,237a48.71,48.71,0,0,0,3.46-18.91Z" transform="translate(-10.54 -12.62)" style="fill:#55558e"/><path d="M307,265.71v-92q0-20.94-9.81-33.33T269.34,128a36.07,36.07,0,0,0-18.7,4.77,41.69,41.69,0,0,0-13.51,12.78,59.9,59.9,0,0,0-8.19,18.64,87.82,87.82,0,0,0-2.77,22.31v79.17h-4.62v-92q0-20.94-9.81-33.33T183.92,128a36.07,36.07,0,0,0-18.7,4.77,41.69,41.69,0,0,0-13.51,12.78,59.9,59.9,0,0,0-8.19,18.64,87.82,87.82,0,0,0-2.77,22.31v79.17h-4.62V125.87h4.62v34.55q3.92-18.76,15.58-28.29a42.26,42.26,0,0,1,27.59-9.53q17.54,0,28.39,11t13.39,29.79q3.93-19.84,15.13-30.33t28.51-10.48q19.62,0,30.93,13.61t11.31,36.73v92.77Z" transform="translate(-10.54 -12.62)" style="fill:#55558e"/><path d="M437.17,198.78a102,102,0,0,1-3.46,27.07,72.27,72.27,0,0,1-10.16,22.31,50,50,0,0,1-16.5,15.24A44.87,44.87,0,0,1,384.54,269q-15.24,0-26.44-7.89t-17-22.31v26.93h-4.61V69.82h4.61v80.26q6-13.61,16.86-20.54a43.28,43.28,0,0,1,23.78-6.94q14.31,0,24.7,6.26a52.92,52.92,0,0,1,17.2,16.73,78.15,78.15,0,0,1,10.16,24.22A122.64,122.64,0,0,1,437.17,198.78Zm-4.61,0a120.94,120.94,0,0,0-2.66-24.89A77.25,77.25,0,0,0,421.36,151a48.44,48.44,0,0,0-15.7-16.59q-9.81-6.39-23.89-6.4a36.86,36.86,0,0,0-14.66,3.13,44.79,44.79,0,0,0-13.05,8.57,43.75,43.75,0,0,0-9.35,12.79,35.51,35.51,0,0,0-3.58,15.78V218.1A48.71,48.71,0,0,0,344.6,237a43.7,43.7,0,0,0,9.46,14.28,40.92,40.92,0,0,0,13.85,9.12,44.62,44.62,0,0,0,16.63,3.13,40.09,40.09,0,0,0,20.77-5.31,46,46,0,0,0,15-14.28,68.87,68.87,0,0,0,9.12-20.68A94.64,94.64,0,0,0,432.56,198.78Z" transform="translate(-10.54 -12.62)" style="fill:#55558e"/><path d="M466.72,72.54a7.77,7.77,0,0,1-1.84,5.17,5.51,5.51,0,0,1-8.78,0,8.18,8.18,0,0,1,0-10.34,5.53,5.53,0,0,1,8.78,0A7.81,7.81,0,0,1,466.72,72.54Zm-8.54,193.17V125.87h4.62V265.71Z" transform="translate(-10.54 -12.62)" style="fill:#55558e"/><path d="M579.61,239.19a53.51,53.51,0,0,1-10.16,16.05,42.22,42.22,0,0,1-14.66,10.2A47.07,47.07,0,0,1,536.44,269a44.35,44.35,0,0,1-22.74-5.72,50.29,50.29,0,0,1-16.39-15.37,73.75,73.75,0,0,1-10-22.31,101,101,0,0,1-3.47-26.8,123.86,123.86,0,0,1,3.35-29.11,77.77,77.77,0,0,1,10.16-24.35,51.63,51.63,0,0,1,17.2-16.6q10.38-6.12,24.7-6.12a42.76,42.76,0,0,1,16.62,3.27A43.58,43.58,0,0,1,569.68,135a46.23,46.23,0,0,1,9.82,14.29,62.4,62.4,0,0,1,5,19l-95.58,41.08a83.57,83.57,0,0,0,4.85,21,62.29,62.29,0,0,0,9.58,17.14,44.43,44.43,0,0,0,14.2,11.7,40.09,40.09,0,0,0,18.93,4.36,42.83,42.83,0,0,0,16.39-3.13,39.09,39.09,0,0,0,13.39-9.12A47.39,47.39,0,0,0,575.57,237a56.7,56.7,0,0,0,4.27-18.91h4.62A68.38,68.38,0,0,1,579.61,239.19ZM565.3,137.7A37.94,37.94,0,0,0,539.21,128q-13.15,0-22.74,5.72a47.23,47.23,0,0,0-15.81,15.51,72.42,72.42,0,0,0-9.24,22.58,117.6,117.6,0,0,0-3,26.93v4.9l91-38.91Q576.14,147.37,565.3,137.7Zm-2.08-27.07L539.44,77.17l-22.85,33.46H512l26.09-37.82h3.46l26.32,37.82Z" transform="translate(-10.54 -12.62)" style="fill:#55558e"/><path d="M460.22,72.12l2.15-3.69c-3.1-3.67-7.88-14.43-7.88-14.43C457.34,67,460.22,72.12,460.22,72.12Z" transform="translate(-10.54 -12.62)" style="fill:#49ae88"/><path d="M460,69.83,463.21,67c-2.1-6.9-1-20.78-1-20.78C457.87,57.61,460,69.83,460,69.83Z" transform="translate(-10.54 -12.62)" style="fill:#81c7ae"/><path d="M488.14,57c2.43-.77,4.8-1.37,7.15-2L494,51.63l4.14,2.69c2.47-.65,4.94-1.34,7.46-2.27,35-13,27.71-39.43,27.71-39.43s-2,11.69-19.43,16.26c-2.8.73-5.69,1.47-8.59,2.26l-2.22,3.77-.63-3a82.51,82.51,0,0,0-14.12,5.32C479,42,472,49.32,465.92,58.76c-.62,1-4.54,7-5.77,10.47-.4,1.13-.52,2-.15,2.37.88.88,1.73-.55,2.19-1.07C469.18,62.59,479.28,59.83,488.14,57Z" transform="translate(-10.54 -12.62)" style="fill:#81c7ae"/><path d="M477.3,52.43l2.09-9.29a58.35,58.35,0,0,0-7.87,7.92l-1.4,7,7,2.66c3.39-1.35,6.85-2.41,10.16-3.45Z" transform="translate(-10.54 -12.62)" style="fill:#49ae88"/><path d="M498.11,43.08l.75-10a77.24,77.24,0,0,0-8.36,3.19L487.37,47l6.81,4.72,4,2.59c2.47-.65,4.94-1.34,7.46-2.27,1.38-.51,2.69-1,3.94-1.6Z" transform="translate(-10.54 -12.62)" style="fill:#49ae88"/><path d="M524.89,40.24l-10.31-3.16-1-8.11c-2.15.56-4.35,1.13-6.56,1.72l-.05,10,11.37,5A41.5,41.5,0,0,0,524.89,40.24Z" transform="translate(-10.54 -12.62)" style="fill:#49ae88"/><path d="M460.75,71.86C462.9,66.32,470.69,52.4,496,45c23.47-6.91,35.75-16.44,37.85-29.58a18.82,18.82,0,0,0-.46-2.77,13.44,13.44,0,0,1-1.13,3.11C529.87,28,518,36.93,495.53,43.53c-17,5-26.19,13-30.86,18.76A35.84,35.84,0,0,0,460,69.83c-.24.84-.26,1.48,0,1.77A.77.77,0,0,0,460.75,71.86Z" transform="translate(-10.54 -12.62)" style="fill:#f5cd76"/><path d="M533.34,12.62s-1.45,8.27-12.26,13.62l1.42,6.14L531,31.6A29.52,29.52,0,0,0,533.34,12.62Z" transform="translate(-10.54 -12.62)" style="fill:#f5cd76"/><path d="M462.19,70.53s8.45-7.51,33-9.77c22.92-2.11,43-15.93,50.94-24,0,0-12.45,27.43-45.62,29.07-24.39,1.2-29.12,1.75-37.68,6Z" transform="translate(-10.54 -12.62)" style="fill:#49ae88"/><path d="M459.13,68.69a4.41,4.41,0,1,1-2,5.91A4.41,4.41,0,0,1,459.13,68.69Z" transform="translate(-10.54 -12.62)" style="fill:#f5cd76"/><path d="M265.37,305.44l-9.6-4.7c3.09-9.31,1.85-32.8,1.85-32.8C266.19,293.69,265.37,305.44,265.37,305.44Z" transform="translate(-10.54 -12.62)" style="fill:#49ae88"/><path d="M263.26,301.12,252,298.9c-3.15-14.21-22.44-38-22.44-38A99.39,99.39,0,0,1,263.26,301.12Z" transform="translate(-10.54 -12.62)" style="fill:#81c7ae"/><path d="M179.84,303c-6.78.76-13.23,1.77-19.62,2.79l-1-7.22-6.79,8.45c-6.75,1-13.56,2-20.74,2.52-100,7.69-114-46.13-114-46.13s18.86,19.14,66.35,12c7.64-1.16,15.51-2.39,23.47-3.52l9.85,4.78-2-5.86a296.84,296.84,0,0,1,40.49-2.93c28.29.25,53.89,7.15,79.84,18.68,2.65,1.17,19.26,8.45,26.43,13.64,2.32,1.68,3.65,3.14,3.2,4.11-1.1,2.36-4.84.55-6.59,0C232.34,296.3,204.62,300.26,179.84,303Z" transform="translate(-10.54 -12.62)" style="fill:#f0e1c0"/><path d="M200.59,285.27l-16.13-14.79a195.48,195.48,0,0,1,28.48,7.23l11.74,11.36L211,300c-9.8.59-19.42,1.74-28.67,2.8Z" transform="translate(-10.54 -12.62)" style="fill:#f7a490"/><path d="M139.14,286.89l-13.77-17.28c8.07-.88,16.11-1.49,24-1.67l20.41,16.51-10.85,14.47-6.55,8.14c-6.75,1-13.56,2-20.74,2.52-4,.31-7.76.51-11.45.63Z" transform="translate(-10.54 -12.62)" style="fill:#f7a490"/><path d="M71,305.45l21.15-14.76L85,275.26c5.86-.89,11.85-1.81,17.91-2.7l12,17.85-21.53,19A146.55,146.55,0,0,1,71,305.45Z" transform="translate(-10.54 -12.62)" style="fill:#f7a490"/><path d="M263.76,305.44c-11.81-8-47.22-26.06-117.16-17.07-65,8.35-106,2.13-126.78-19.55a30.83,30.83,0,0,1-2.17-5.37A32.23,32.23,0,0,0,24.09,268c20.22,19.86,59.72,25.38,121.82,17.4,47.2-6.07,78.78.11,97,6.36a104,104,0,0,1,20.39,9.34c1.56,1.29,2.38,2.41,2,3.19A2,2,0,0,1,263.76,305.44Z" transform="translate(-10.54 -12.62)" style="fill:#a8656c"/><path d="M17.65,263.45S31,277,63.51,277l3.89,12.24L46,295.36C22.38,281.64,17.65,263.45,17.65,263.45Z" transform="translate(-10.54 -12.62)" style="fill:#a8656c"/><path d="M258.69,304.33s-29.38-6-91.41,11.63c-57.91,16.45-122.94,9.43-151.77,2,0,0,62.79,38.14,145,11.78,60.39-19.37,72.47-22.56,98.22-22.56Z" transform="translate(-10.54 -12.62)" style="fill:#49ae88"/><path d="M263.91,298.34c-6.57,0-11.9,3.94-11.9,8.81s5.33,8.81,11.9,8.81,11.89-3.94,11.89-8.81S270.48,298.34,263.91,298.34Z" transform="translate(-10.54 -12.62)" style="fill:#a8656c"/></svg>