<?xml version="1.0" encoding="utf-8"?>
<!-- Generator: Adobe Illustrator 22.0.0, SVG Export Plug-In . SVG Version: 6.00 Build 0)  -->
<svg version="1.1" id="Camada_1" xmlns="http://www.w3.org/2000/svg" xmlns:xlink="http://www.w3.org/1999/xlink" x="0px" y="0px"
	 viewBox="0 0 480 320" style="enable-background:new 0 0 480 320;" xml:space="preserve">
<style type="text/css">
	.st0{fill:#010202;}
	.st1{fill:none;stroke:#010202;stroke-width:1.6165;stroke-linecap:round;stroke-linejoin:round;stroke-miterlimit:10;}
</style>
<g>
	<g>
		<path d="M117.5,168.8v-46.4H66v46.4h-3V96.9c0-8.3,2.4-14.7,7.2-19.2c4.8-4.5,12-6.7,21.5-6.7s16.7,2.2,21.5,6.7
			c4.8,4.5,7.2,10.9,7.2,19.2v71.9H117.5z M117.5,100c0-4.2-0.4-8-1.3-11.3c-0.9-3.3-2.3-6-4.3-8.2c-2-2.2-4.6-3.9-8-5
			c-3.3-1.1-7.4-1.7-12.1-1.7c-4.9,0-8.9,0.6-12.2,1.7c-3.3,1.2-5.9,2.9-8,5.1c-2,2.3-3.5,5-4.3,8.2C66.4,92,66,95.7,66,100v19.8
			h51.5V100z"/>
		<path d="M245.4,168.8V100c0-4.2-0.4-8-1.3-11.3c-0.9-3.3-2.3-6-4.3-8.2c-2-2.2-4.6-3.9-8-5c-3.3-1.1-7.4-1.7-12.1-1.7
			c-4.9,0-8.9,0.6-12.2,1.7c-3.3,1.2-5.9,2.9-8,5.1c-2,2.3-3.5,5-4.3,8.2c-0.8,3.2-1.3,7-1.3,11.2v68.9h-3V100c0-4.2-0.4-8-1.3-11.3
			c-0.9-3.3-2.3-6-4.3-8.2c-2-2.2-4.6-3.9-8-5c-3.3-1.1-7.4-1.7-12.1-1.7c-4.9,0-8.9,0.6-12.2,1.7c-3.3,1.2-5.9,2.9-8,5.1
			c-2,2.3-3.5,5-4.3,8.2c-0.8,3.2-1.3,7-1.3,11.2v68.9h-3V96.9c0-8.3,2.4-14.7,7.2-19.2c4.8-4.5,12-6.7,21.5-6.7
			c7.3,0,13.3,1.3,17.9,4c4.6,2.7,7.7,6.6,9.4,11.7c1.7-5.1,4.8-9,9.4-11.7c4.6-2.7,10.5-4,17.9-4c9.5,0,16.7,2.2,21.5,6.7
			c4.8,4.5,7.2,10.9,7.2,19.2v71.9H245.4z"/>
		<path d="M324.4,142.8c0,4.6-1,8.5-2.9,11.8c-1.9,3.3-4.5,6-7.7,8.1c-3.2,2.1-6.9,3.7-11.2,4.6c-4.3,1-8.7,1.5-13.2,1.5h-25V73.3
			h26.8c4.2,0,8.1,0.5,11.7,1.5c3.6,1,6.8,2.5,9.5,4.4c2.7,2,4.9,4.5,6.4,7.4c1.5,3,2.3,6.4,2.3,10.4c0,2.9-0.6,5.7-1.7,8.2
			c-1.1,2.6-2.7,4.8-4.7,6.8c-2,2-4.3,3.6-7.1,4.8c-2.7,1.2-5.7,1.9-9,2.1c3.8,0.1,7.2,0.8,10.3,2c3.1,1.2,5.8,2.9,8.1,5
			c2.3,2.1,4.1,4.6,5.4,7.4C323.7,136.4,324.4,139.5,324.4,142.8z M318.1,97.2c0-3.6-0.7-6.8-2.1-9.4c-1.4-2.7-3.3-4.9-5.7-6.6
			c-2.4-1.8-5.3-3.1-8.6-3.9c-3.3-0.8-6.8-1.3-10.6-1.3h-23.8v41.8h23.8c3.5,0,6.8-0.4,10.1-1.3c3.3-0.9,6.1-2.2,8.6-3.9
			c2.5-1.7,4.5-3.9,6-6.4c1.5-2.6,2.2-5.6,2.2-9V97.2z M321.4,143.1c0-4-0.8-7.4-2.5-10.3c-1.6-2.9-3.8-5.2-6.6-7
			c-2.8-1.8-6-3.2-9.7-4c-3.7-0.9-7.5-1.3-11.5-1.3h-23.8v45.8h23.4c4.1,0,8-0.4,11.7-1.3c3.7-0.9,7-2.3,9.8-4.2
			c2.8-1.9,5.1-4.3,6.7-7.2C320.6,150.5,321.4,147.1,321.4,143.1z"/>
		<path d="M337.9,168.8V73.3h3v95.5H337.9z"/>
		<path d="M357,168.8V73.3h58.2V76h-55.2v43.8h51.2v2.7h-51.2v43.8h55.8v2.7H357z M401,66.7l-15.3-16.3l-14.7,16.3h-3l16.8-18.4h2.2
			l17,18.4H401z"/>
	</g>
	<g>
		<path d="M125.5,234.1v-25H97.6v25H96v-38.7c0-4.5,1.3-7.9,3.9-10.3c2.6-2.4,6.5-3.6,11.6-3.6c5.2,0,9,1.2,11.6,3.6
			c2.6,2.4,3.9,5.8,3.9,10.3v38.7H125.5z M125.5,197.1c0-2.3-0.2-4.3-0.7-6.1c-0.5-1.8-1.3-3.2-2.3-4.4c-1.1-1.2-2.5-2.1-4.3-2.7
			c-1.8-0.6-4-0.9-6.6-0.9c-2.6,0-4.8,0.3-6.6,0.9c-1.8,0.6-3.2,1.5-4.3,2.7c-1.1,1.2-1.9,2.7-2.3,4.4c-0.5,1.7-0.7,3.7-0.7,6v10.6
			h27.9V197.1z"/>
		<path d="M168.2,196.1c0,3.5-1.1,6.3-3.4,8.5c-2.3,2.2-5.2,3.6-8.9,4.4c2.5,0.3,4.5,0.8,6,1.6c1.5,0.8,2.7,1.8,3.5,3
			c0.8,1.2,1.3,2.6,1.6,4.2c0.2,1.6,0.4,3.4,0.4,5.3v10.9h-1.6V223c0-2.5-0.3-4.6-0.8-6.2c-0.5-1.7-1.4-3.1-2.5-4.1
			c-1.2-1-2.7-1.8-4.7-2.2c-1.9-0.4-4.3-0.6-7.2-0.6h-13v24.3h-1.6v-51.3h14.9c2.6,0,5,0.2,7.2,0.7c2.1,0.5,4,1.2,5.5,2.2
			c1.5,1,2.7,2.4,3.6,4.1C167.8,191.5,168.2,193.6,168.2,196.1z M166.6,195.6c-0.1-3.6-1.3-6.4-3.7-8.5c-2.4-2-6.4-3-11.8-3h-13.7
			v24.2h12.9c2.1,0,4.1-0.2,6.1-0.7c2-0.5,3.7-1.2,5.3-2.3c1.5-1,2.7-2.4,3.6-4C166.1,199.8,166.6,197.9,166.6,195.6z"/>
		<path d="M227.1,208.4c0,3.6-0.6,7-1.7,10.2c-1.1,3.3-2.8,6.1-5,8.6c-2.2,2.4-5,4.4-8.3,5.9c-3.3,1.5-7.1,2.2-11.5,2.2
			c-4.3,0-8.2-0.7-11.5-2.2c-3.3-1.5-6.1-3.4-8.3-5.9c-2.2-2.4-3.9-5.3-5-8.6c-1.1-3.3-1.7-6.7-1.7-10.2s0.6-7,1.7-10.2
			c1.1-3.3,2.8-6.1,5-8.6c2.2-2.4,5-4.4,8.3-5.9c3.3-1.5,7.1-2.2,11.5-2.2c4.3,0,8.2,0.7,11.5,2.2c3.3,1.5,6.1,3.4,8.3,5.9
			c2.2,2.4,3.9,5.3,5,8.6C226.6,201.4,227.1,204.8,227.1,208.4z M225.5,208.4c0-3.4-0.5-6.6-1.6-9.7c-1-3.1-2.6-5.8-4.7-8.1
			c-2.1-2.4-4.7-4.2-7.8-5.6c-3.1-1.4-6.7-2.1-10.9-2.1c-4.1,0-7.8,0.7-10.9,2.1c-3.1,1.4-5.7,3.2-7.8,5.6c-2.1,2.4-3.6,5.1-4.7,8.1
			c-1,3.1-1.6,6.3-1.6,9.7c0,3.4,0.5,6.6,1.6,9.7c1,3.1,2.6,5.8,4.7,8.1c2.1,2.4,4.7,4.2,7.8,5.6c3.1,1.4,6.7,2.1,10.9,2.1
			c4.1,0,7.8-0.7,10.9-2.1c3.1-1.4,5.7-3.2,7.8-5.6c2.1-2.4,3.6-5.1,4.7-8.1C225,215,225.5,211.8,225.5,208.4z"/>
		<path d="M293.4,234.1v-37c0-2.3-0.2-4.3-0.7-6.1c-0.5-1.8-1.3-3.2-2.3-4.4c-1.1-1.2-2.5-2.1-4.3-2.7c-1.8-0.6-4-0.9-6.6-0.9
			c-2.6,0-4.8,0.3-6.6,0.9c-1.8,0.6-3.2,1.5-4.3,2.7c-1.1,1.2-1.9,2.7-2.3,4.4c-0.5,1.7-0.7,3.7-0.7,6v37h-1.6v-37
			c0-2.3-0.2-4.3-0.7-6.1c-0.5-1.8-1.3-3.2-2.3-4.4c-1.1-1.2-2.5-2.1-4.3-2.7c-1.8-0.6-4-0.9-6.6-0.9c-2.6,0-4.8,0.3-6.6,0.9
			c-1.8,0.6-3.2,1.5-4.3,2.7c-1.1,1.2-1.9,2.7-2.3,4.4c-0.5,1.7-0.7,3.7-0.7,6v37h-1.6v-38.7c0-4.5,1.3-7.9,3.9-10.3
			c2.6-2.4,6.5-3.6,11.6-3.6c4,0,7.2,0.7,9.7,2.2c2.5,1.5,4.2,3.6,5.1,6.3c0.9-2.8,2.6-4.9,5.1-6.3c2.5-1.5,5.7-2.2,9.7-2.2
			c5.2,0,9,1.2,11.6,3.6c2.6,2.4,3.9,5.8,3.9,10.3v38.7H293.4z"/>
		<path d="M333.1,234.1v-25h-27.9v25h-1.6v-38.7c0-4.5,1.3-7.9,3.9-10.3c2.6-2.4,6.5-3.6,11.6-3.6c5.2,0,9,1.2,11.6,3.6
			c2.6,2.4,3.9,5.8,3.9,10.3v38.7H333.1z M333.1,197.1c0-2.3-0.2-4.3-0.7-6.1c-0.5-1.8-1.3-3.2-2.3-4.4c-1.1-1.2-2.5-2.1-4.3-2.7
			c-1.8-0.6-4-0.9-6.6-0.9c-2.6,0-4.8,0.3-6.6,0.9c-1.8,0.6-3.2,1.5-4.3,2.7c-1.1,1.2-1.9,2.7-2.3,4.4c-0.5,1.7-0.7,3.7-0.7,6v10.6
			h27.9V197.1z"/>
		<path d="M383,221.5c0,2.4-0.5,4.5-1.6,6.2c-1,1.7-2.4,3.2-4.2,4.3c-1.7,1.1-3.7,2-6,2.5c-2.3,0.5-4.6,0.8-7.1,0.8
			c-3.3,0-6.4-0.3-9.3-1c-2.9-0.7-5.5-1.8-7.6-3.2c-2.2-1.5-3.9-3.4-5.1-5.7c-1.2-2.3-1.8-5.1-1.8-8.3h1.6c0,3,0.6,5.6,1.8,7.8
			c1.2,2.1,2.8,3.9,4.8,5.2c2,1.3,4.4,2.3,7.1,2.9c2.7,0.6,5.6,0.9,8.7,0.9c2.3,0,4.4-0.2,6.5-0.7c2.1-0.5,3.9-1.2,5.5-2.2
			c1.6-1,2.9-2.3,3.8-3.9c0.9-1.6,1.4-3.4,1.4-5.6c0-2.6-0.6-4.6-1.9-6.1c-1.3-1.5-2.9-2.7-4.8-3.6c-2-0.9-4.1-1.6-6.5-2
			c-2.4-0.5-4.7-1-6.9-1.4c-2.4-0.5-4.7-1-7-1.5c-2.3-0.5-4.3-1.3-6.2-2.2c-1.9-0.9-3.3-2.2-4.5-3.7c-1.1-1.5-1.7-3.5-1.7-6.1
			c0-2.5,0.6-4.6,1.7-6.3c1.2-1.7,2.7-3.1,4.5-4.1c1.9-1,4-1.7,6.3-2.2c2.3-0.4,4.7-0.6,7-0.6c2.8,0,5.4,0.3,7.8,0.8
			c2.4,0.5,4.5,1.4,6.3,2.7c1.8,1.2,3.2,2.9,4.3,4.8c1.1,2,1.7,4.4,1.9,7.3h-1.6c-0.1-2.6-0.7-4.8-1.6-6.6c-1-1.8-2.3-3.3-3.9-4.4
			c-1.6-1.1-3.6-1.9-5.8-2.4c-2.3-0.5-4.7-0.7-7.2-0.7c-2,0-4.1,0.2-6.2,0.6c-2.1,0.4-4.1,1-5.8,1.9c-1.7,0.9-3.2,2.1-4.3,3.6
			c-1.1,1.5-1.7,3.4-1.7,5.7c0,2.3,0.6,4.1,1.7,5.5c1.2,1.4,2.7,2.5,4.5,3.4c1.9,0.9,4,1.5,6.3,2c2.4,0.5,4.8,1,7.2,1.5
			c2.7,0.6,5.2,1.1,7.6,1.7c2.4,0.6,4.5,1.3,6.2,2.3c1.8,1,3.2,2.3,4.2,3.9C382.5,216.7,383,218.8,383,221.5z"/>
	</g>
	<g>
		<path class="st0" d="M393.4,259.6c0,0-17.8,0.9-18.8-11.8c2.7-7.5,10.1,3.1,10.1,3.1s-5.4-6.8-0.7-10.9
			C388.7,236,393.2,251.9,393.4,259.6z"/>
		<g>
			<path class="st1" d="M400.2,244.7c0,0,21.2-18.5,16.7-46.2"/>
			<path class="st1" d="M417.1,198.3c0,0-12.3-13.1-4.9-19.1C418.7,174,422.2,188.4,417.1,198.3z"/>
			<path class="st1" d="M415.9,218.7c0,0-17-5.9-13.2-14.6C406,196.4,415.8,207.5,415.9,218.7z"/>
			<path class="st1" d="M415.8,218.2c0,0,5.8-17.1,14.6-13.3C438,208.2,427,218.1,415.8,218.2z"/>
			<path class="st1" d="M406.6,238.1c0,0-15.8-8.7-10.5-16.7C400.6,214.5,408.4,227.1,406.6,238.1z"/>
			<path class="st1" d="M406.6,237.7c0,0,8.7-15.8,16.6-10.6C430.2,231.6,417.6,239.5,406.6,237.7z"/>
		</g>
		<g>
			<path class="st1" d="M372.1,264.3c0,0-24.7,13.6-49.1-0.1"/>
			<path class="st1" d="M322.8,264.3c0,0-8.1-16.1-16.3-11.2C299.4,257.5,311.7,265.8,322.8,264.3z"/>
			<path class="st1" d="M342.4,270.2c0,0,0.3-18-9.2-17.4C324.8,253.3,331.9,266.3,342.4,270.2z"/>
			<path class="st1" d="M342,270c0,0-18-0.4-17.5,9.2C324.9,287.4,338,280.4,342,270z"/>
			<path class="st1" d="M363.8,268.1c0,0-2.8-17.8-12.1-15.6C343.6,254.4,352.8,266.1,363.8,268.1z"/>
			<path class="st1" d="M363.4,267.9c0,0-17.8,2.7-15.7,12C349.6,288.1,361.3,278.9,363.4,267.9z"/>
		</g>
	</g>
	<g>
		<path class="st0" d="M85.8,257.9c0,0,17.8,0.9,18.8-11.8c-2.7-7.5-10.1,3.1-10.1,3.1s5.4-6.8,0.7-10.9
			C90.6,234.2,86,250.1,85.8,257.9z"/>
		<g>
			<path class="st1" d="M79,242.9c0,0-21.2-18.5-16.7-46.2"/>
			<path class="st1" d="M62.1,196.5c0,0,12.3-13.1,4.9-19.1C60.5,172.2,57,186.6,62.1,196.5z"/>
			<path class="st1" d="M63.3,217c0,0,17-5.9,13.2-14.6C73.2,194.7,63.4,205.8,63.3,217z"/>
			<path class="st1" d="M63.4,216.5c0,0-5.8-17.1-14.6-13.3C41.2,206.5,52.3,216.4,63.4,216.5z"/>
			<path class="st1" d="M72.7,236.4c0,0,15.8-8.7,10.5-16.7C78.6,212.8,70.8,225.4,72.7,236.4z"/>
			<path class="st1" d="M72.6,235.9c0,0-8.7-15.8-16.6-10.6C49,229.9,61.6,237.7,72.6,235.9z"/>
		</g>
		<g>
			<path class="st1" d="M107.1,262.6c0,0,24.7,13.6,49.1-0.1"/>
			<path class="st1" d="M156.5,262.6c0,0,8.1-16.1,16.3-11.2C179.9,255.8,167.5,264,156.5,262.6z"/>
			<path class="st1" d="M136.9,268.4c0,0-0.3-18,9.2-17.4C154.4,251.5,147.3,264.6,136.9,268.4z"/>
			<path class="st1" d="M137.3,268.2c0,0,18-0.4,17.5,9.2C154.3,285.7,141.2,278.7,137.3,268.2z"/>
			<path class="st1" d="M115.4,266.3c0,0,2.8-17.8,12.1-15.6C135.6,252.7,126.4,264.3,115.4,266.3z"/>
			<path class="st1" d="M115.9,266.2c0,0,17.8,2.7,15.7,12C129.6,286.3,117.9,277.2,115.9,266.2z"/>
		</g>
	</g>
</g>
</svg>
