<?xml version="1.0" standalone="no"?>
<!DOCTYPE svg PUBLIC "-//W3C//DTD SVG 20010904//EN"
 "http://www.w3.org/TR/2001/REC-SVG-20010904/DTD/svg10.dtd">
<svg version="1.0" xmlns="http://www.w3.org/2000/svg"
 width="169.000000pt" height="130.000000pt" viewBox="0 0 169.000000 130.000000"
 preserveAspectRatio="xMidYMid meet">

<g transform="translate(0.000000,130.000000) scale(0.100000,-0.100000)"
fill="#000000" stroke="none">
<path d="M1259 1083 c-11 -15 -11 -16 1 -5 12 10 18 7 38 -15 l24 -28 -22 33
c-25 37 -24 37 -41 15z"/>
<path d="M351 994 c-19 -24 -21 -39 -19 -158 1 -81 3 -103 5 -58 l4 72 74 0
74 0 4 -72 c2 -45 4 -23 5 58 2 119 0 134 -19 158 -16 21 -29 26 -64 26 -35 0
-48 -5 -64 -26z m123 -6 c10 -14 16 -44 16 -75 l0 -53 -75 0 -75 0 0 53 c0 73
19 97 75 97 34 0 47 -5 59 -22z"/>
<path d="M570 1000 c-11 -11 -19 -32 -19 -47 2 -27 2 -28 6 -3 7 40 32 60 73
60 42 0 70 -24 71 -61 1 -21 2 -20 16 11 19 43 28 50 74 50 61 0 68 -17 72
-170 l3 -135 2 138 c2 125 0 139 -18 157 -13 13 -33 20 -60 20 -27 0 -47 -7
-60 -20 l-20 -20 -20 20 c-13 13 -33 20 -60 20 -27 0 -47 -7 -60 -20z"/>
<path d="M927 1013 c-4 -3 -7 -75 -7 -160 l0 -153 58 2 57 2 -52 3 -53 4 0 75
0 74 53 0 c54 -1 75 -11 95 -45 6 -11 12 -14 12 -7 0 7 -11 23 -25 36 -25 23
-25 23 -5 41 11 10 20 23 20 28 0 5 -9 -2 -21 -17 -18 -22 -28 -26 -75 -26
l-54 0 0 69 0 70 43 4 42 4 -41 1 c-22 1 -44 -1 -47 -5z"/>
<path d="M1197 1013 c-4 -3 -7 -75 -7 -160 l0 -153 88 2 87 2 -82 3 -83 4 0
69 0 69 73 4 72 3 -73 2 -73 2 3 73 3 72 75 6 75 5 -76 2 c-42 1 -79 -1 -82
-5z"/>
<path d="M1036 998 c12 -5 27 -20 32 -32 8 -15 11 -17 11 -5 1 19 -30 49 -50
48 -8 0 -5 -5 7 -11z"/>
<path d="M1134 855 c0 -88 2 -123 3 -77 2 46 2 118 0 160 -1 42 -3 5 -3 -83z"/>
<path d="M1080 762 c0 -7 -9 -21 -20 -32 -11 -11 -16 -20 -10 -20 13 0 44 49
36 57 -3 3 -6 1 -6 -5z"/>
<path d="M915 620 c3 -5 8 -10 11 -10 2 0 4 5 4 10 0 6 -5 10 -11 10 -5 0 -7
-4 -4 -10z"/>
<path d="M200 561 c0 -25 6 -27 13 -6 4 8 2 17 -3 20 -6 4 -10 -3 -10 -14z"/>
<path d="M1471 544 c0 -11 3 -14 6 -6 3 7 2 16 -1 19 -3 4 -6 -2 -5 -13z"/>
<path d="M1452 500 c-18 -29 -15 -38 4 -12 9 13 14 25 12 27 -2 2 -9 -5 -16
-15z"/>
<path d="M220 490 c0 -5 5 -10 11 -10 5 0 7 5 4 10 -3 6 -8 10 -11 10 -2 0 -4
-4 -4 -10z"/>
<path d="M1363 455 c-18 -20 -16 -33 8 -40 27 -9 33 -2 25 30 -7 28 -15 31
-33 10z"/>
<path d="M279 439 c-15 -29 1 -43 29 -23 19 13 20 17 8 30 -19 19 -23 18 -37
-7z"/>
<path d="M1215 381 c-2 -5 4 -11 15 -14 11 -3 20 -2 20 3 0 12 -28 21 -35 11z"/>
<path d="M1296 378 c3 -4 9 -8 15 -8 5 0 9 4 9 8 0 5 -7 9 -15 9 -8 0 -12 -4
-9 -9z"/>
<path d="M418 363 c6 -2 18 -2 25 0 6 3 1 5 -13 5 -14 0 -19 -2 -12 -5z"/>
<path d="M545 361 c-6 -11 33 -41 54 -41 10 0 8 7 -9 25 -25 27 -35 30 -45 16z"/>
<path d="M1100 345 c-17 -18 -19 -25 -9 -25 21 0 60 30 54 41 -10 14 -20 11
-45 -16z"/>
<path d="M632 344 c2 -11 -7 -28 -22 -41 l-25 -23 31 0 c38 0 55 17 44 46 -11
29 -33 43 -28 18z"/>
<path d="M1043 348 c-32 -41 -15 -73 34 -65 27 4 27 5 6 12 -13 4 -20 11 -17
16 3 5 1 9 -4 9 -6 0 -8 9 -5 20 6 23 0 26 -14 8z"/>
<path d="M792 338 c-21 -21 -13 -56 19 -90 l31 -33 -26 33 c-27 35 -34 76 -14
88 6 4 16 0 23 -9 15 -21 21 -21 28 -3 4 10 1 13 -7 10 -8 -3 -17 -1 -21 5 -8
14 -18 14 -33 -1z"/>
<path d="M679 323 c7 -14 4 -24 -11 -40 l-21 -23 25 0 c37 0 54 24 40 55 -7
14 -19 25 -27 25 -12 0 -14 -4 -6 -17z"/>
<path d="M978 315 c-14 -31 3 -55 40 -55 25 0 25 0 6 21 -10 12 -18 30 -16 40
5 27 -16 23 -30 -6z"/>
<path d="M864 238 l-19 -23 23 19 c21 18 27 26 19 26 -2 0 -12 -10 -23 -22z"/>
</g>
</svg>
