<?xml version="1.0" encoding="utf-8"?>
<!-- Generator: Adobe Illustrator 22.0.0, SVG Export Plug-In . SVG Version: 6.00 Build 0)  -->
<svg version="1.1" id="Camada_1" xmlns="http://www.w3.org/2000/svg" xmlns:xlink="http://www.w3.org/1999/xlink" x="0px" y="0px"
	 viewBox="0 0 480 320" style="enable-background:new 0 0 480 320;" xml:space="preserve">
<style type="text/css">
	.st0{fill:none;stroke:#000000;stroke-width:0;stroke-linecap:round;stroke-linejoin:round;}
	.st1{fill:#010202;}
</style>
<g>
	<g>
		<g>
			<path d="M117.5,168.8h2.9V96.9c0-8.3-2.4-14.7-7.2-19.2s-12-6.7-21.5-6.7S75,73.2,70.2,77.7S63,88.6,63,96.9v71.9h3v-46.4h51.5
				V168.8z M66,119.8V100c0-4.3,0.4-8,1.3-11.2c0.8-3.2,2.3-5.9,4.3-8.2c2.1-2.2,4.7-3.9,8-5.1c3.3-1.1,7.3-1.7,12.2-1.7
				c4.7,0,8.8,0.6,12.1,1.7c3.4,1.1,6,2.8,8,5s3.4,4.9,4.3,8.2c0.9,3.3,1.3,7.1,1.3,11.3v19.8H66z"/>
			<path d="M239.8,80.5c2,2.2,3.4,4.9,4.3,8.2c0.9,3.3,1.3,7.1,1.3,11.3v68.8h3V96.9c0-8.3-2.4-14.7-7.2-19.2s-12-6.7-21.5-6.7
				c-7.4,0-13.3,1.3-17.9,4c-4.6,2.7-7.7,6.6-9.4,11.7c-1.7-5.1-4.8-9-9.4-11.7c-4.6-2.7-10.6-4-17.9-4c-9.5,0-16.7,2.2-21.5,6.7
				s-7.2,10.9-7.2,19.2v72h3V100c0-4.2,0.5-8,1.3-11.2c0.8-3.2,2.3-5.9,4.3-8.2c2.1-2.2,4.7-3.9,8-5.1c3.3-1.1,7.3-1.7,12.2-1.7
				c4.7,0,8.8,0.6,12.1,1.7c3.4,1.1,6,2.8,8,5s3.4,4.9,4.3,8.2c0.9,3.3,1.3,7.1,1.3,11.3v68.9h3V100c0-4.2,0.5-8,1.3-11.2
				c0.8-3.2,2.3-5.9,4.3-8.2c2.1-2.2,4.7-3.9,8-5.1c3.3-1.1,7.3-1.7,12.2-1.7c4.7,0,8.8,0.6,12.1,1.7
				C235.2,76.6,237.8,78.3,239.8,80.5z"/>
			<path d="M321.5,154.6c1.9-3.3,2.9-7.2,2.9-11.8c0-3.3-0.7-6.4-2-9.5c-1.3-2.8-3.1-5.3-5.4-7.4c-2.3-2.1-5-3.8-8.1-5
				c-3.1-1.2-6.5-1.9-10.3-2c3.3-0.2,6.3-0.9,9-2.1c2.8-1.2,5.1-2.8,7.1-4.8s3.6-4.2,4.7-6.8c1.1-2.5,1.7-5.3,1.7-8.2
				c0-4-0.8-7.4-2.3-10.4c-1.5-2.9-3.7-5.4-6.4-7.4c-2.7-1.9-5.9-3.4-9.5-4.4c-3.6-1-7.5-1.5-11.7-1.5h-26.8v95.5h25
				c4.5,0,8.9-0.5,13.2-1.5c4.3-0.9,8-2.5,11.2-4.6C317,160.6,319.6,157.9,321.5,154.6z M267.3,76h23.8c3.8,0,7.3,0.5,10.6,1.3
				s6.2,2.1,8.6,3.9c2.4,1.7,4.3,3.9,5.7,6.6c1.4,2.6,2.1,5.8,2.1,9.4H318v0c0,3.4-0.7,6.4-2.2,9c-1.5,2.5-3.5,4.7-6,6.4
				s-5.3,3-8.6,3.9c-3.3,0.9-6.6,1.3-10.1,1.3h-23.8V76z M302.4,165c-3.7,0.9-7.6,1.3-11.7,1.3h-23.4v-45.8h23.8
				c4,0,7.8,0.4,11.5,1.3c3.7,0.8,6.9,2.2,9.7,4c2.8,1.8,5,4.1,6.6,7c1.7,2.9,2.5,6.3,2.5,10.3s-0.8,7.4-2.5,10.5
				c-1.6,2.9-3.9,5.3-6.7,7.2C309.4,162.7,306.1,164.1,302.4,165z"/>
			<rect x="337.9" y="73.3" width="3" height="95.5"/>
			<polygon points="385.7,50.4 401,66.7 404,66.7 387,48.3 384.8,48.3 368,66.7 371,66.7 			"/>
			<polygon points="360,166.3 360,122.5 411.2,122.5 411.2,119.8 360,119.8 360,76 415.2,76 415.2,73.3 357,73.3 357,168.8 357,169 
				415.8,169 415.8,166.3 			"/>
			<path d="M111.5,181.5c-5.1,0-9,1.2-11.6,3.6c-2.6,2.4-3.9,5.8-3.9,10.3v38.7h1.6v-25h27.9v25h1.5v-38.7c0-4.5-1.3-7.9-3.9-10.3
				C120.5,182.7,116.7,181.5,111.5,181.5z M125.5,197.1L125.5,197.1l0.1,10.5H97.7V197c0-2.3,0.2-4.3,0.7-6c0.4-1.7,1.2-3.2,2.3-4.4
				c1.1-1.2,2.5-2.1,4.3-2.7c1.8-0.6,4-0.9,6.6-0.9c2.6,0,4.8,0.3,6.6,0.9c1.8,0.6,3.2,1.5,4.3,2.7c1,1.2,1.8,2.6,2.3,4.4
				S125.5,194.8,125.5,197.1z"/>
			<path d="M168.2,196.1c0-2.5-0.4-4.6-1-6.2c-0.9-1.7-2.1-3.1-3.6-4.1s-3.4-1.7-5.5-2.2c-2.2-0.5-4.6-0.7-7.2-0.7H136v51.3h1.6
				v-24.3h13c2.9,0,5.3,0.2,7.2,0.6c2,0.4,3.5,1.2,4.7,2.2c1.1,1,2,2.4,2.5,4.1c0.5,1.6,0.8,3.7,0.8,6.2v11h1.6v-10.9
				c0-1.9-0.2-3.7-0.4-5.3c-0.3-1.6-0.8-3-1.6-4.2c-0.8-1.2-2-2.2-3.5-3c-1.5-0.8-3.5-1.3-6-1.6c3.7-0.8,6.6-2.2,8.9-4.4
				C167.1,202.4,168.2,199.6,168.2,196.1z M161.7,205.3c-1.6,1.1-3.3,1.8-5.3,2.3s-4,0.7-6.1,0.7h-12.9v-24.2h13.7
				c5.4,0,9.4,1,11.8,3c2.4,2.1,3.6,4.9,3.7,8.5c0,2.3-0.5,4.2-1.3,5.7C164.4,202.9,163.2,204.3,161.7,205.3z"/>
			<path d="M220.4,189.6c-2.2-2.5-5-4.4-8.3-5.9c-3.3-1.5-7.2-2.2-11.5-2.2c-4.4,0-8.2,0.7-11.5,2.2c-3.3,1.5-6.1,3.5-8.3,5.9
				c-2.2,2.5-3.9,5.3-5,8.6c-1.1,3.2-1.7,6.7-1.7,10.2s0.6,6.9,1.7,10.2c1.1,3.3,2.8,6.2,5,8.6c2.2,2.5,5,4.4,8.3,5.9
				c3.3,1.5,7.2,2.2,11.5,2.2c4.4,0,8.2-0.7,11.5-2.2c3.3-1.5,6.1-3.5,8.3-5.9c2.2-2.5,3.9-5.3,5-8.6c1.1-3.2,1.7-6.6,1.7-10.2
				c0-3.6-0.5-7-1.7-10.2C224.3,194.9,222.6,192,220.4,189.6z M223.9,218.1c-1.1,3-2.6,5.7-4.7,8.1c-2.1,2.4-4.7,4.2-7.8,5.6
				c-3.1,1.4-6.8,2.1-10.9,2.1c-4.2,0-7.8-0.7-10.9-2.1c-3.1-1.4-5.7-3.2-7.8-5.6c-2.1-2.3-3.7-5-4.7-8.1c-1.1-3.1-1.6-6.3-1.6-9.7
				c0-3.4,0.6-6.6,1.6-9.7c1.1-3,2.6-5.7,4.7-8.1c2.1-2.4,4.7-4.2,7.8-5.6c3.1-1.4,6.8-2.1,10.9-2.1c4.2,0,7.8,0.7,10.9,2.1
				c3.1,1.4,5.7,3.2,7.8,5.6c2.1,2.3,3.7,5,4.7,8.1c1.1,3.1,1.6,6.3,1.6,9.7C225.5,211.8,225,215,223.9,218.1z"/>
			<line class="st0" x1="293.4" y1="233.9" x2="293.4" y2="234.1"/>
			<path d="M279.7,181.3c-4,0-7.2,0.7-9.7,2.2c-2.5,1.4-4.2,3.5-5.1,6.3c-0.9-2.7-2.6-4.8-5.1-6.3s-5.7-2.2-9.7-2.2
				c-5.1,0-9,1.2-11.6,3.6c-2.6,2.4-3.9,5.8-3.9,10.3v38.7h1.6v-37c0-2.3,0.2-4.3,0.7-6c0.4-1.7,1.2-3.2,2.3-4.4
				c1.1-1.2,2.5-2.1,4.3-2.7c1.8-0.6,4-0.9,6.6-0.9c2.6,0,4.8,0.3,6.6,0.9s3.2,1.5,4.3,2.7c1,1.2,1.8,2.6,2.3,4.4
				c0.5,1.8,0.7,3.8,0.7,6.1v37h1.6v-37c0-2.3,0.2-4.3,0.7-6c0.4-1.7,1.2-3.2,2.3-4.4c1.1-1.2,2.5-2.1,4.3-2.7
				c1.8-0.6,4-0.9,6.6-0.9c2.6,0,4.8,0.3,6.6,0.9c1.8,0.6,3.2,1.5,4.3,2.7c1,1.2,1.8,2.6,2.3,4.4s0.7,3.8,0.7,6.1v36.8h1.8v-38.7
				c0-4.5-1.3-7.9-3.9-10.3C288.7,182.5,284.9,181.3,279.7,181.3z"/>
			<path d="M319.1,181.5c-5.1,0-9,1.2-11.6,3.6c-2.6,2.4-3.9,5.8-3.9,10.3v38.7h1.6v-25h27.9v25h1.5v-38.7c0-4.5-1.3-7.9-3.9-10.3
				C328.1,182.7,324.3,181.5,319.1,181.5z M333.1,197.1L333.1,197.1l0.1,10.5h-27.9V197c0-2.3,0.2-4.3,0.7-6
				c0.4-1.7,1.2-3.2,2.3-4.4c1.1-1.2,2.5-2.1,4.3-2.7c1.8-0.6,4-0.9,6.6-0.9c2.6,0,4.8,0.3,6.6,0.9c1.8,0.6,3.2,1.5,4.3,2.7
				c1,1.2,1.8,2.6,2.3,4.4S333.1,194.8,333.1,197.1z"/>
			<path d="M381.4,227.7c1.1-1.7,1.6-3.8,1.6-6.2c0-2.7-0.5-4.8-1.6-6.2c-1-1.6-2.4-2.9-4.2-3.9c-1.7-1-3.8-1.7-6.2-2.3
				c-2.4-0.6-4.9-1.1-7.6-1.7c-2.4-0.5-4.8-1-7.2-1.5c-2.3-0.5-4.4-1.1-6.3-2c-1.8-0.9-3.3-2-4.5-3.4c-1.1-1.4-1.7-3.2-1.7-5.5
				s0.6-4.2,1.7-5.7c1.1-1.5,2.6-2.7,4.3-3.6c1.7-0.9,3.7-1.5,5.8-1.9c2.1-0.4,4.2-0.6,6.2-0.6c2.5,0,4.9,0.2,7.2,0.7
				c2.2,0.5,4.2,1.3,5.8,2.4c1.6,1.1,2.9,2.6,3.9,4.4c0.9,1.8,1.5,4,1.6,6.6h1.6c-0.2-2.9-0.8-5.3-1.9-7.3c-1.1-1.9-2.5-3.6-4.3-4.8
				c-1.8-1.3-3.9-2.2-6.3-2.7c-2.4-0.5-5-0.8-7.8-0.8c-2.3,0-4.7,0.2-7,0.6c-2.3,0.5-4.4,1.2-6.3,2.2c-1.8,1-3.3,2.4-4.5,4.1
				c-1.1,1.7-1.7,3.8-1.7,6.3c0,2.6,0.6,4.6,1.7,6.1c1.2,1.5,2.6,2.8,4.5,3.7c1.9,0.9,3.9,1.7,6.2,2.2s4.6,1,7,1.5
				c2.2,0.4,4.5,0.9,6.9,1.4c2.4,0.4,4.5,1.1,6.5,2c1.9,0.9,3.5,2.1,4.8,3.6s1.9,3.5,1.9,6.1c0,2.2-0.5,4-1.4,5.6
				c-0.9,1.6-2.2,2.9-3.8,3.9c-1.6,1-3.4,1.7-5.5,2.2c-2.1,0.5-4.2,0.7-6.5,0.7c-3.1,0-6-0.3-8.7-0.9s-5.1-1.6-7.1-2.9
				c-2-1.3-3.6-3.1-4.8-5.2c-1.2-2.2-1.8-4.8-1.8-7.8h-1.6c0,3.2,0.6,6,1.8,8.3c1.2,2.3,2.9,4.2,5.1,5.7c2.1,1.4,4.7,2.5,7.6,3.2
				c2.9,0.7,6,1,9.3,1c2.5,0,4.8-0.3,7.1-0.8s4.3-1.4,6-2.5C379,230.9,380.4,229.4,381.4,227.7z"/>
			<path class="st1" d="M384,240c-4,3.5-0.7,9,0.4,10.5c-1.4-1.9-7.4-9.3-9.8-2.7c1,12.7,18.8,11.8,18.8,11.8
				C393.2,251.9,388.7,236,384,240z"/>
			<path class="st1" d="M94.8,248.8c1.1-1.5,4.4-7,0.4-10.5c-4.6-4.1-9.2,11.8-9.4,19.6c0,0,17.8,0.9,18.8-11.8
				C102.2,239.5,96.2,246.9,94.8,248.8z"/>
		</g>
	</g>
</g>
</svg>
