<svg id="Camada_1" data-name="Camada 1" xmlns="http://www.w3.org/2000/svg" viewBox="0 0 684.58 153.86"><defs><style>.cls-1{fill:#8150ba;}.cls-2{fill:#a81c1c;}.cls-3{fill:#fff;}.cls-4{fill:#ffa227;}.cls-5{fill:#e0486c;}.cls-6{fill:#75cbea;}</style></defs><path class="cls-1" d="M73,66.83l19.23-47h3l19.31,47h-3.41l-6.75-16.7H83.05l-6.71,16.7ZM103.2,47.32l-1.8-4.54q-5.87-14.58-7.56-19.3H93.7q-1.44,4-4.74,11.92-1,2.43-4.85,11.92Z" transform="translate(-18.67 -15.92)"/><path class="cls-1" d="M124.39,34l.5,5.84H125a14.79,14.79,0,0,1,5.5-4.78,15.38,15.38,0,0,1,7.33-1.9h.91v2.78h-.91A14.39,14.39,0,0,0,130.35,38,14,14,0,0,0,125,43.56V66.83h-2.82V34Z" transform="translate(-18.67 -15.92)"/><path class="cls-1" d="M146.65,59V36.67h-6.51V34h6.51V25.2h2.81V34h10.06v2.68H149.46V58.18q0,3.8,1.48,5.36a6.08,6.08,0,0,0,4.64,1.57,13.6,13.6,0,0,0,4.46-.6V67a15.37,15.37,0,0,1-5,.74,8.48,8.48,0,0,1-6.17-2.18Q146.64,63.36,146.65,59Z" transform="translate(-18.67 -15.92)"/><path class="cls-1" d="M166.16,50.06a21,21,0,0,1,1.79-9,13.85,13.85,0,0,1,4.93-5.89,12.49,12.49,0,0,1,7-2.06,11.86,11.86,0,0,1,9.21,3.78q3.44,3.78,3.44,11.9v1.23H169.11q0,7.77,3.41,11.41t9.6,3.64a21.66,21.66,0,0,0,9.28-1.87v2.64q-3.27,1.83-9.28,1.83-7.67,0-11.81-4.61T166.16,50.06Zm13.75-14.41A9.48,9.48,0,0,0,172.56,39a13.94,13.94,0,0,0-3.38,8.56h20.5q-.1-5.84-2.57-8.86C185.47,36.65,183.07,35.65,179.91,35.65Z" transform="translate(-18.67 -15.92)"/><path class="cls-1" d="M200.82,66V63.1a18.3,18.3,0,0,0,8.93,2.08,10.34,10.34,0,0,0,6.63-2,6.6,6.6,0,0,0,2.44-5.47,5.2,5.2,0,0,0-1.61-4.11,12.83,12.83,0,0,0-5.42-2.36,39.21,39.21,0,0,1-5.69-1.76,8.82,8.82,0,0,1-3.62-2.67,7.19,7.19,0,0,1-1.41-4.64q0-4.61,3.09-6.84a13.19,13.19,0,0,1,7.91-2.23,18.43,18.43,0,0,1,8.2,1.86v2.75a22.6,22.6,0,0,0-4-1.57,16.48,16.48,0,0,0-4.45-.54,9.48,9.48,0,0,0-6,1.65A5.65,5.65,0,0,0,203.78,42a5.06,5.06,0,0,0,1,3.29,6.09,6.09,0,0,0,2.66,1.81,48.5,48.5,0,0,0,5.1,1.48q4.74,1.2,6.9,3.22a7.48,7.48,0,0,1,2.17,5.78A9.33,9.33,0,0,1,218.4,65q-3.17,2.76-8.65,2.76Q203.86,67.71,200.82,66Z" transform="translate(-18.67 -15.92)"/><path class="cls-1" d="M228.63,57.41a9.06,9.06,0,0,1,3.18-7.21A12.14,12.14,0,0,1,240,47.46a29.63,29.63,0,0,1,10.09,1.93V45.17c0-3.11-.81-5.47-2.42-7.06s-4.2-2.39-7.74-2.39a27.48,27.48,0,0,0-8.43,1.65V34.73a11.7,11.7,0,0,1,3.53-1.11,26.56,26.56,0,0,1,4.9-.47c4.39,0,7.64,1,9.78,3s3.2,5,3.2,9V56.32q0,3.48.28,10.51h-2.53l-.5-3.83H250a13.69,13.69,0,0,1-4.71,3.3,14.28,14.28,0,0,1-6,1.41,11.36,11.36,0,0,1-7.75-2.57Q228.63,62.58,228.63,57.41ZM250.11,60V51.85a30.38,30.38,0,0,0-4.73-1.39,32.45,32.45,0,0,0-5.71-.4,8.71,8.71,0,0,0-6,1.92,6.86,6.86,0,0,0-2.16,5.43q0,3.93,2.14,5.85a8.17,8.17,0,0,0,5.66,1.92,12.27,12.27,0,0,0,6.36-1.51A18.9,18.9,0,0,0,250.11,60Z" transform="translate(-18.67 -15.92)"/><path class="cls-1" d="M267.69,34l.49,5.35h.07a15.27,15.27,0,0,1,4.87-4.56,12.06,12.06,0,0,1,6.14-1.63q5.21,0,7.86,3.06c1.76,2,2.65,5,2.65,9V66.83H287V45.52q0-4.92-1.9-7.36t-6.18-2.44a10.4,10.4,0,0,0-5.8,1.84,16.64,16.64,0,0,0-4.86,5V66.83h-2.81V34Z" transform="translate(-18.67 -15.92)"/><path class="cls-1" d="M299.33,57.41a9.06,9.06,0,0,1,3.18-7.21,12.12,12.12,0,0,1,8.21-2.74,29.63,29.63,0,0,1,10.09,1.93V45.17c0-3.11-.81-5.47-2.42-7.06s-4.2-2.39-7.74-2.39a27.59,27.59,0,0,0-8.44,1.65V34.73a11.88,11.88,0,0,1,3.54-1.11,26.56,26.56,0,0,1,4.9-.47c4.39,0,7.64,1,9.78,3s3.2,5,3.2,9V56.32q0,3.48.28,10.51h-2.53l-.5-3.83h-.14A13.69,13.69,0,0,1,316,66.3a14.28,14.28,0,0,1-6,1.41,11.34,11.34,0,0,1-7.75-2.57Q299.33,62.58,299.33,57.41ZM320.81,60V51.85a30.7,30.7,0,0,0-4.73-1.39,32.45,32.45,0,0,0-5.71-.4,8.71,8.71,0,0,0-6,1.92,6.86,6.86,0,0,0-2.17,5.43q0,3.93,2.15,5.85A8.17,8.17,0,0,0,310,65.18a12.29,12.29,0,0,0,6.36-1.51A18.9,18.9,0,0,0,320.81,60Z" transform="translate(-18.67 -15.92)"/><path class="cls-1" d="M336.14,15.92H339V66.83h-2.81Z" transform="translate(-18.67 -15.92)"/><path class="cls-1" d="M363.07,50.06a21,21,0,0,1,1.79-9,13.85,13.85,0,0,1,4.93-5.89,12.49,12.49,0,0,1,7-2.06A11.86,11.86,0,0,1,386,36.93q3.44,3.78,3.44,11.9v1.23H366q0,7.77,3.41,11.41t9.6,3.64a21.66,21.66,0,0,0,9.28-1.87v2.64Q385,67.71,379,67.71q-7.66,0-11.81-4.61T363.07,50.06Zm13.75-14.41A9.48,9.48,0,0,0,369.47,39a13.94,13.94,0,0,0-3.38,8.56h20.5q-.1-5.84-2.57-8.86C382.38,36.65,380,35.65,376.82,35.65Z" transform="translate(-18.67 -15.92)"/><path class="cls-1" d="M411.76,57.41a9.06,9.06,0,0,1,3.18-7.21,12.12,12.12,0,0,1,8.21-2.74,29.63,29.63,0,0,1,10.09,1.93V45.17c0-3.11-.81-5.47-2.42-7.06s-4.2-2.39-7.74-2.39a27.59,27.59,0,0,0-8.44,1.65V34.73a11.88,11.88,0,0,1,3.54-1.11,26.47,26.47,0,0,1,4.9-.47q6.57,0,9.78,3t3.19,9V56.32q0,3.48.29,10.51H433.8L433.31,63h-.14a13.69,13.69,0,0,1-4.71,3.3,14.28,14.28,0,0,1-6,1.41,11.34,11.34,0,0,1-7.75-2.57Q411.76,62.58,411.76,57.41ZM433.24,60V51.85a30.7,30.7,0,0,0-4.73-1.39,32.53,32.53,0,0,0-5.71-.4,8.71,8.71,0,0,0-6,1.92,6.86,6.86,0,0,0-2.17,5.43q0,3.93,2.15,5.85a8.17,8.17,0,0,0,5.66,1.92,12.29,12.29,0,0,0,6.36-1.51A18.9,18.9,0,0,0,433.24,60Z" transform="translate(-18.67 -15.92)"/><path class="cls-1" d="M447.87,54.24V34h2.81V55q0,5.41,2.51,7.78A9.54,9.54,0,0,0,460,65.11,10.65,10.65,0,0,0,465.22,64a7.6,7.6,0,0,0,3.13-3.2,13.5,13.5,0,0,0,1-5.94V34h2.82V54.31a21.48,21.48,0,0,1-.71,6.19,9.64,9.64,0,0,1-2.39,4,10.19,10.19,0,0,1-3.9,2.48,15.36,15.36,0,0,1-5,.77,15,15,0,0,1-5.38-.9,10.89,10.89,0,0,1-3.92-2.49,9.77,9.77,0,0,1-2.28-3.75A21.08,21.08,0,0,1,447.87,54.24Z" transform="translate(-18.67 -15.92)"/><path class="cls-1" d="M485,59V36.67h-6.51V34H485V25.2h2.81V34h10.05v2.68H487.77V58.18q0,3.8,1.48,5.36a6.08,6.08,0,0,0,4.64,1.57,13.6,13.6,0,0,0,4.46-.6V67a15.37,15.37,0,0,1-5,.74,8.46,8.46,0,0,1-6.17-2.18Q485,63.36,485,59Z" transform="translate(-18.67 -15.92)"/><path class="cls-1" d="M504.47,50.48q0-7.87,4-12.6a13.39,13.39,0,0,1,10.71-4.73,13.21,13.21,0,0,1,10.67,4.71q4,4.71,4,12.62,0,7.7-4,12.46a13.19,13.19,0,0,1-10.58,4.77A13.4,13.4,0,0,1,508.48,63Q504.46,58.33,504.47,50.48Zm26.4,0q0-6.78-3.16-10.77a10.3,10.3,0,0,0-8.51-4,10.43,10.43,0,0,0-8.6,4q-3.18,4-3.18,10.79t3.15,10.69a10.46,10.46,0,0,0,8.63,3.94,10.34,10.34,0,0,0,8.54-3.92C529.83,58.57,530.87,55,530.87,50.48Z" transform="translate(-18.67 -15.92)"/><path class="cls-1" d="M546.16,34l.5,5.84h.07a14.79,14.79,0,0,1,5.5-4.78,15.38,15.38,0,0,1,7.33-1.9h.91v2.78h-.91A14.39,14.39,0,0,0,552.12,38a14,14,0,0,0-5.39,5.52V66.83h-2.82V34Z" transform="translate(-18.67 -15.92)"/><path class="cls-1" d="M564.87,57.41a9.06,9.06,0,0,1,3.18-7.21,12.12,12.12,0,0,1,8.21-2.74,29.68,29.68,0,0,1,10.09,1.93V45.17c0-3.11-.81-5.47-2.43-7.06s-4.19-2.39-7.73-2.39a27.53,27.53,0,0,0-8.44,1.65V34.73a11.7,11.7,0,0,1,3.53-1.11,26.66,26.66,0,0,1,4.91-.47q6.57,0,9.77,3t3.2,9V56.32q0,3.48.28,10.51h-2.53L586.42,63h-.14a13.69,13.69,0,0,1-4.71,3.3,14.32,14.32,0,0,1-6,1.41,11.36,11.36,0,0,1-7.75-2.57Q564.88,62.58,564.87,57.41ZM586.35,60V51.85a31,31,0,0,0-4.73-1.39,32.61,32.61,0,0,0-5.71-.4,8.72,8.72,0,0,0-6,1.92,6.86,6.86,0,0,0-2.16,5.43q0,3.93,2.14,5.85a8.17,8.17,0,0,0,5.66,1.92,12.33,12.33,0,0,0,6.37-1.51A19.1,19.1,0,0,0,586.35,60Z" transform="translate(-18.67 -15.92)"/><path class="cls-1" d="M601.68,15.92h2.81V66.83h-2.81Z" transform="translate(-18.67 -15.92)"/><path class="cls-1" d="M617.21,66.83V62.29h4.33v4.54Z" transform="translate(-18.67 -15.92)"/><path class="cls-1" d="M76.55,166.06v-2.74a40.8,40.8,0,0,0,4.67,1.41,20.76,20.76,0,0,0,4.47.45A14.35,14.35,0,0,0,93,163.5a10.4,10.4,0,0,0,4.2-4.36,12.89,12.89,0,0,0,1.32-5.77,9.15,9.15,0,0,0-3.89-8q-3.88-2.72-11.37-2.72a41.61,41.61,0,0,0-4.81.21l3.09-22.47h19.93v2.68H84.11l-2.36,16.76h2.14q8.34,0,13,3.52a11.5,11.5,0,0,1,4.66,9.74q0,6.75-4.25,10.72t-11.43,4A24,24,0,0,1,76.55,166.06Z" transform="translate(-18.67 -15.92)"/><path class="cls-1" d="M123.45,137q0-8,3.86-12.74a12.72,12.72,0,0,1,10.37-4.73,14.12,14.12,0,0,1,5.86,1.12,11.18,11.18,0,0,1,4.3,3.56H148l-.14-4V102.32h2.82v44.44q0,4.08.21,6.47h-2.11L148,149.4h-.14a11.24,11.24,0,0,1-4.37,3.3,13.58,13.58,0,0,1-5.86,1.41,14.16,14.16,0,0,1-7.06-1.81,13,13,0,0,1-5.15-5.64A21.18,21.18,0,0,1,123.45,137Zm24.39,8.79V127.18q-4.32-5.07-10.09-5.06a9.83,9.83,0,0,0-8.31,4q-3,4-3,11,0,6.72,3,10.53a10,10,0,0,0,8.28,3.82,11.83,11.83,0,0,0,6-1.6A10.85,10.85,0,0,0,147.84,145.81Z" transform="translate(-18.67 -15.92)"/><path class="cls-1" d="M163,109.32h3.24v3.37H163Zm.21,11.07H166v32.84h-2.81Z" transform="translate(-18.67 -15.92)"/><path class="cls-1" d="M175.9,143.81a9.06,9.06,0,0,1,3.18-7.21,12.12,12.12,0,0,1,8.21-2.74,29.68,29.68,0,0,1,10.09,1.93v-4.22c0-3.11-.81-5.47-2.43-7.06s-4.19-2.39-7.73-2.39a27.59,27.59,0,0,0-8.44,1.65v-2.64a11.7,11.7,0,0,1,3.53-1.11,26.66,26.66,0,0,1,4.91-.47q6.57,0,9.77,3t3.2,9v11.15c0,2.32.1,5.82.28,10.51h-2.53l-.49-3.83h-.14a13.69,13.69,0,0,1-4.71,3.3,14.31,14.31,0,0,1-6,1.41,11.39,11.39,0,0,1-7.76-2.57Q175.9,149,175.9,143.81Zm21.48,2.63v-8.19a31,31,0,0,0-4.73-1.39,32.53,32.53,0,0,0-5.71-.4,8.72,8.72,0,0,0-6,1.92,6.86,6.86,0,0,0-2.16,5.43q0,3.93,2.15,5.85a8.16,8.16,0,0,0,5.66,1.92,12.32,12.32,0,0,0,6.36-1.51A19.1,19.1,0,0,0,197.38,146.44Z" transform="translate(-18.67 -15.92)"/><path class="cls-1" d="M210.11,152.42V149.5a18.24,18.24,0,0,0,8.93,2.08,10.33,10.33,0,0,0,6.62-2,6.61,6.61,0,0,0,2.45-5.47,5.21,5.21,0,0,0-1.62-4.11,12.65,12.65,0,0,0-5.42-2.36,39.61,39.61,0,0,1-5.69-1.76,8.89,8.89,0,0,1-3.62-2.67,7.19,7.19,0,0,1-1.41-4.64q0-4.61,3.1-6.84a13.15,13.15,0,0,1,7.91-2.23,18.36,18.36,0,0,1,8.19,1.86v2.75a22.6,22.6,0,0,0-4-1.57,16.48,16.48,0,0,0-4.45-.54,9.45,9.45,0,0,0-6,1.65,5.63,5.63,0,0,0-2.06,4.67,5,5,0,0,0,1,3.29,6,6,0,0,0,2.65,1.81,48.5,48.5,0,0,0,5.1,1.48,15.84,15.84,0,0,1,6.91,3.22,7.51,7.51,0,0,1,2.16,5.78,9.33,9.33,0,0,1-3.17,7.4q-3.17,2.76-8.64,2.76Q213.13,154.11,210.11,152.42Z" transform="translate(-18.67 -15.92)"/><path class="cls-1" d="M256.48,120.39l.88,3.84h.07a12.6,12.6,0,0,1,4.55-3.36,13.35,13.35,0,0,1,5.61-1.32q6.89,0,10.53,4.45t3.63,12.53q0,7-2.39,10.88a12.71,12.71,0,0,1-5.57,5.31,15.38,15.38,0,0,1-6.2,1.39q-6.48,0-10.23-4h-.07l.07,6.39v13.12h-2.82V120.39ZM278.8,136.6q0-6.89-2.95-10.69a9.87,9.87,0,0,0-8.26-3.79,12.46,12.46,0,0,0-10.23,5.48v19.58a16.25,16.25,0,0,0,4.76,3.31,13.54,13.54,0,0,0,5.4,1,11.91,11.91,0,0,0,7.69-2.94Q278.81,145.63,278.8,136.6Z" transform="translate(-18.67 -15.92)"/><path class="cls-1" d="M289.24,143.81a9.06,9.06,0,0,1,3.18-7.21,12.12,12.12,0,0,1,8.21-2.74,29.63,29.63,0,0,1,10.09,1.93v-4.22c0-3.11-.81-5.47-2.42-7.06s-4.2-2.39-7.74-2.39a27.48,27.48,0,0,0-8.43,1.65v-2.64a11.7,11.7,0,0,1,3.53-1.11,26.56,26.56,0,0,1,4.9-.47c4.39,0,7.64,1,9.78,3s3.2,5,3.2,9v11.15q0,3.48.28,10.51h-2.53l-.5-3.83h-.14a13.69,13.69,0,0,1-4.71,3.3,14.28,14.28,0,0,1-6,1.41,11.34,11.34,0,0,1-7.75-2.57Q289.24,149,289.24,143.81Zm21.48,2.63v-8.19a30.7,30.7,0,0,0-4.73-1.39,32.45,32.45,0,0,0-5.71-.4,8.71,8.71,0,0,0-6,1.92,6.86,6.86,0,0,0-2.16,5.43q0,3.93,2.14,5.85a8.17,8.17,0,0,0,5.66,1.92,12.29,12.29,0,0,0,6.36-1.51A18.9,18.9,0,0,0,310.72,146.44Z" transform="translate(-18.67 -15.92)"/><path class="cls-1" d="M328.3,120.39l.49,5.84h.07a14.83,14.83,0,0,1,5.51-4.78,15.35,15.35,0,0,1,7.33-1.9h.91v2.78h-.91a14.39,14.39,0,0,0-7.44,2.11,14,14,0,0,0-5.4,5.52v23.27h-2.81V120.39Z" transform="translate(-18.67 -15.92)"/><path class="cls-1" d="M347,143.81a9,9,0,0,1,3.19-7.21,12.09,12.09,0,0,1,8.2-2.74,29.63,29.63,0,0,1,10.09,1.93v-4.22c0-3.11-.8-5.47-2.42-7.06s-4.2-2.39-7.74-2.39a27.48,27.48,0,0,0-8.43,1.65v-2.64a11.7,11.7,0,0,1,3.53-1.11,26.56,26.56,0,0,1,4.9-.47c4.39,0,7.64,1,9.78,3s3.2,5,3.2,9v11.15q0,3.48.28,10.51h-2.53l-.5-3.83h-.14a13.69,13.69,0,0,1-4.71,3.3,14.28,14.28,0,0,1-6,1.41,11.36,11.36,0,0,1-7.75-2.57Q347,149,347,143.81Zm21.48,2.63v-8.19a30.61,30.61,0,0,0-4.72-1.39,32.66,32.66,0,0,0-5.72-.4,8.71,8.71,0,0,0-6,1.92,6.86,6.86,0,0,0-2.16,5.43q0,3.93,2.14,5.85a8.17,8.17,0,0,0,5.66,1.92,12.27,12.27,0,0,0,6.36-1.51A18.9,18.9,0,0,0,368.48,146.44Z" transform="translate(-18.67 -15.92)"/><path class="cls-1" d="M393.23,123.07v-2.68h6v-6q0-6.61,3.29-9.76a11.89,11.89,0,0,1,8.59-3.15,23.51,23.51,0,0,1,4,.32v2.64a22.57,22.57,0,0,0-3.77-.35q-4.6,0-6.94,2.53T402,114.7v5.69h10.44v2.68H402v30.16h-2.81V123.07Z" transform="translate(-18.67 -15.92)"/><path class="cls-1" d="M417.49,143.81a9.06,9.06,0,0,1,3.18-7.21,12.12,12.12,0,0,1,8.21-2.74A29.63,29.63,0,0,1,439,135.79v-4.22c0-3.11-.81-5.47-2.42-7.06s-4.2-2.39-7.74-2.39a27.48,27.48,0,0,0-8.43,1.65v-2.64a11.7,11.7,0,0,1,3.53-1.11,26.56,26.56,0,0,1,4.9-.47c4.39,0,7.64,1,9.78,3s3.2,5,3.2,9v11.15q0,3.48.28,10.51h-2.53l-.5-3.83h-.14a13.69,13.69,0,0,1-4.71,3.3,14.28,14.28,0,0,1-6,1.41,11.34,11.34,0,0,1-7.75-2.57Q417.49,149,417.49,143.81ZM439,146.44v-8.19a30.7,30.7,0,0,0-4.73-1.39,32.45,32.45,0,0,0-5.71-.4,8.71,8.71,0,0,0-6,1.92,6.86,6.86,0,0,0-2.16,5.43q0,3.93,2.14,5.85a8.17,8.17,0,0,0,5.66,1.92,12.29,12.29,0,0,0,6.36-1.51A18.9,18.9,0,0,0,439,146.44Z" transform="translate(-18.67 -15.92)"/><path class="cls-1" d="M457,149.4H457l-.35,3.83h-2.53q.21-5.17.21-10.3V102.32h2.81v22.19h.07a12.87,12.87,0,0,1,4.5-3.62,13.14,13.14,0,0,1,5.87-1.34q6.72,0,10.34,4.34t3.62,12.85a21.47,21.47,0,0,1-1.95,9.62,13.55,13.55,0,0,1-5.18,5.83,13.69,13.69,0,0,1-7.11,1.92,12.08,12.08,0,0,1-5.92-1.34A17.32,17.32,0,0,1,457,149.4Zm21.52-12.66q0-14.63-10.93-14.62-6.17,0-10.52,5.41V146.3a14,14,0,0,0,3.92,3.57,11.08,11.08,0,0,0,6.1,1.64,10,10,0,0,0,8.35-4Q478.55,143.57,478.56,136.74Z" transform="translate(-18.67 -15.92)"/><path class="cls-1" d="M493.85,120.39l.49,5.84h.07a14.83,14.83,0,0,1,5.51-4.78,15.35,15.35,0,0,1,7.33-1.9h.91v2.78h-.91a14.39,14.39,0,0,0-7.44,2.11,14,14,0,0,0-5.4,5.52v23.27H491.6V120.39Z" transform="translate(-18.67 -15.92)"/><path class="cls-1" d="M515,109.32h3.23v3.37H515Zm.21,11.07H518v32.84h-2.81Z" transform="translate(-18.67 -15.92)"/><path class="cls-1" d="M528.06,137.09a20.05,20.05,0,0,1,2.27-10.17,13.71,13.71,0,0,1,5.71-5.65,15.74,15.74,0,0,1,7.14-1.72,22.3,22.3,0,0,1,4.81.51,13.71,13.71,0,0,1,3.8,1.35v2.89a18.18,18.18,0,0,0-4.2-1.59,18.78,18.78,0,0,0-4.48-.59,12,12,0,0,0-5.82,1.49,11.19,11.19,0,0,0-4.52,4.87,18.76,18.76,0,0,0-1.76,8.68q0,6.59,3.45,10.46a11.77,11.77,0,0,0,9.28,3.89,22.5,22.5,0,0,0,8.58-2v2.64a19.44,19.44,0,0,1-8.79,2,16.36,16.36,0,0,1-7.82-1.86,13.65,13.65,0,0,1-5.58-5.68A19.7,19.7,0,0,1,528.06,137.09Z" transform="translate(-18.67 -15.92)"/><path class="cls-1" d="M559.28,143.81a9.06,9.06,0,0,1,3.18-7.21,12.12,12.12,0,0,1,8.21-2.74,29.68,29.68,0,0,1,10.09,1.93v-4.22c0-3.11-.81-5.47-2.43-7.06s-4.19-2.39-7.73-2.39a27.53,27.53,0,0,0-8.44,1.65v-2.64a11.7,11.7,0,0,1,3.53-1.11,26.66,26.66,0,0,1,4.91-.47q6.57,0,9.77,3t3.2,9v11.15q0,3.48.28,10.51h-2.53l-.49-3.83h-.14a13.69,13.69,0,0,1-4.71,3.3,14.32,14.32,0,0,1-6,1.41,11.36,11.36,0,0,1-7.75-2.57Q559.29,149,559.28,143.81Zm21.48,2.63v-8.19a31,31,0,0,0-4.73-1.39,32.61,32.61,0,0,0-5.71-.4,8.72,8.72,0,0,0-6,1.92,6.86,6.86,0,0,0-2.16,5.43c0,2.62.72,4.57,2.14,5.85a8.17,8.17,0,0,0,5.66,1.92,12.33,12.33,0,0,0,6.37-1.51A19.1,19.1,0,0,0,580.76,146.44Z" transform="translate(-18.67 -15.92)"/><path class="cls-1" d="M602.94,169.16v-2.33a11.8,11.8,0,0,0,4,.57,9.73,9.73,0,0,0,4.48-.9,3,3,0,0,0,1.74-2.83q0-3.9-7.42-3.9l1.73-5.73A14.14,14.14,0,0,1,597.32,149q-3.66-4.49-3.66-11.87a20.15,20.15,0,0,1,2.27-10.17,13.71,13.71,0,0,1,5.71-5.65,15.77,15.77,0,0,1,7.14-1.72,22.3,22.3,0,0,1,4.81.51,13.59,13.59,0,0,1,3.8,1.35v2.89a18.18,18.18,0,0,0-4.2-1.59,18.78,18.78,0,0,0-4.48-.59,12,12,0,0,0-5.82,1.49,11.19,11.19,0,0,0-4.52,4.87,18.76,18.76,0,0,0-1.76,8.68q0,6.59,3.45,10.46a11.79,11.79,0,0,0,9.28,3.89,22.5,22.5,0,0,0,8.58-2v2.64a20.15,20.15,0,0,1-7.95,2l-1.19,3.65a10.55,10.55,0,0,1,5.22,1.71,4.74,4.74,0,0,1,2,4.13,5.26,5.26,0,0,1-2.25,4.62,11.13,11.13,0,0,1-6.43,1.57A11.92,11.92,0,0,1,602.94,169.16Z" transform="translate(-18.67 -15.92)"/><path class="cls-1" d="M624.88,143.81a9.06,9.06,0,0,1,3.18-7.21,12.12,12.12,0,0,1,8.21-2.74,29.68,29.68,0,0,1,10.09,1.93v-4.22c0-3.11-.81-5.47-2.43-7.06s-4.19-2.39-7.73-2.39a27.59,27.59,0,0,0-8.44,1.65v-2.64a11.7,11.7,0,0,1,3.53-1.11,26.66,26.66,0,0,1,4.91-.47q6.57,0,9.77,3t3.2,9v11.15c0,2.32.1,5.82.28,10.51h-2.53l-.49-3.83h-.14a13.69,13.69,0,0,1-4.71,3.3,14.28,14.28,0,0,1-6,1.41,11.39,11.39,0,0,1-7.76-2.57Q624.89,149,624.88,143.81Zm7.45-36.28a2.85,2.85,0,0,0-2.27,1,4.27,4.27,0,0,0-.82,2.83h-2.39v-.21a6.85,6.85,0,0,1,1.32-4.22,4.93,4.93,0,0,1,4.23-1.75,6.74,6.74,0,0,1,2.83.59,27,27,0,0,1,3.11,1.73,22.45,22.45,0,0,0,2.2,1.3,3.88,3.88,0,0,0,1.71.42,2.61,2.61,0,0,0,2.35-1.13,5,5,0,0,0,.74-2.77h2.46v.35a6.87,6.87,0,0,1-1.23,4.15q-1.23,1.68-4.39,1.68a7,7,0,0,1-2.9-.59,23.55,23.55,0,0,1-3.08-1.69,21.25,21.25,0,0,0-2.2-1.25A3.89,3.89,0,0,0,632.33,107.53Zm14,38.91v-8.19a30.7,30.7,0,0,0-4.73-1.39,32.53,32.53,0,0,0-5.71-.4,8.74,8.74,0,0,0-6,1.92,6.86,6.86,0,0,0-2.16,5.43q0,3.93,2.15,5.85a8.16,8.16,0,0,0,5.66,1.92,12.32,12.32,0,0,0,6.36-1.51A19.1,19.1,0,0,0,646.36,146.44Z" transform="translate(-18.67 -15.92)"/><path class="cls-1" d="M659.26,136.88q0-7.87,4-12.6a13.35,13.35,0,0,1,10.7-4.73,13.2,13.2,0,0,1,10.67,4.71q4,4.71,4,12.62,0,7.69-4,12.46A13.19,13.19,0,0,1,674,154.11a13.41,13.41,0,0,1-10.72-4.69Q659.27,144.73,659.26,136.88Zm26.4,0q0-6.78-3.16-10.77a10.3,10.3,0,0,0-8.51-4,10.41,10.41,0,0,0-8.59,4q-3.18,4-3.19,10.79t3.15,10.69a11.35,11.35,0,0,0,17.18,0C684.62,145,685.66,141.41,685.66,136.88Z" transform="translate(-18.67 -15.92)"/><path class="cls-1" d="M698.92,153.23v-4.54h4.32v4.54Z" transform="translate(-18.67 -15.92)"/><path class="cls-2" d="M34.07,64.14s.08.3.17.6l.13.41.07.19a1,1,0,0,0,1.58.57,1.06,1.06,0,0,0,.17-.1l.37-.23.51-.34.16-.11.34-.25.49-.36a1.07,1.07,0,0,1,.82-.31.69.69,0,0,1,.35.18,1.67,1.67,0,0,1,.32.39l.33.51c.08.13.17.25.24.35l.11.15.37.5.26.34.13.15a1,1,0,0,0,1.68,0l.13-.15.26-.34.37-.5.11-.15c.07-.1.16-.22.24-.35l.33-.51a1.67,1.67,0,0,1,.32-.39.69.69,0,0,1,.35-.18,1.1,1.1,0,0,1,.83.31l.48.36.34.25.16.11.51.34.37.23.17.11a1.2,1.2,0,0,0,1,.16,1.15,1.15,0,0,0,.62-.74l0-.1.09-.27.25-.82c.08-.29.15-.59.2-.82l.08-.37a1.79,1.79,0,0,1,.17-.48.71.71,0,0,1,.26-.28.63.63,0,0,1,.39-.09,1.71,1.71,0,0,1,.5.09l.36.12.38.11.43.11.84.2.38.07a1.46,1.46,0,0,0,.55,0,.74.74,0,0,0,.4-.18,1.1,1.1,0,0,0,.33-.91s0-.63,0-1.24-.13-1.21-.13-1.21a1,1,0,0,1,.15-.88.75.75,0,0,1,.32-.21,1.52,1.52,0,0,1,.51-.08l.38,0,.83-.06.46-.05.39,0,.39-.06a1.76,1.76,0,0,0,.52-.18.8.8,0,0,0,.32-.31.86.86,0,0,0,.11-.43,1.41,1.41,0,0,0-.11-.54s-.11-.3-.23-.59l-.17-.39-.08-.17-.26-.56L58,54.34,58,54.17a1,1,0,0,1-.16-.87c.08-.24.3-.41.68-.56l.05,0,.12,0L59,52.5l.56-.26.18-.08.37-.19.56-.3a1.09,1.09,0,0,0,.62-.74,1,1,0,0,0,0-.45A1.87,1.87,0,0,0,61,50l-.42-.47-.29-.31-.14-.13-.43-.44-.3-.28-.15-.13a1,1,0,0,1-.44-.76H56.94c0,.22.14.44.44.68l.15.11.3.26.44.39.13.13.3.28.42.43a1.4,1.4,0,0,1,.3.43.73.73,0,0,1,0,.41,1,1,0,0,1-.6.66l-.54.26-.37.16-.18.07s-.27.12-.54.22l-.37.14-.13,0,0,0c-.37.12-.58.27-.65.48a.93.93,0,0,0,.19.79l.09.16.2.34.28.51.08.17c.06.1.12.23.19.37l.24.54a1.37,1.37,0,0,1,.13.51.8.8,0,0,1-.09.39.68.68,0,0,1-.3.28,1.35,1.35,0,0,1-.5.14l-.37,0-.38,0-.44,0c-.29,0-.58,0-.8,0h-.37a1.72,1.72,0,0,0-.48,0,.7.7,0,0,0-.3.19.9.9,0,0,0-.09.81s.11.56.19,1.16.11,1.18.11,1.18a1,1,0,0,1-.27.86.59.59,0,0,1-.38.15,1.53,1.53,0,0,1-.51,0l-.36-.09L51.3,61l-.41-.13-.36-.13-.34-.13a1.27,1.27,0,0,0-.46-.11.55.55,0,0,0-.35.07.54.54,0,0,0-.23.26,1.68,1.68,0,0,0-.13.46l-.06.36c0,.22-.09.51-.16.79s-.13.58-.19.8-.06.2-.08.26l0,.1a1,1,0,0,1-.54.71,1,1,0,0,1-.89-.19l-.15-.1-.34-.25-.48-.35L46,63.32c-.09-.06-.2-.16-.31-.25l-.44-.38a1.05,1.05,0,0,0-.75-.33.59.59,0,0,0-.31.18,1.5,1.5,0,0,0-.28.38s-.14.26-.29.51-.15.25-.21.34l-.1.16-.33.49a3.86,3.86,0,0,1-.24.34l-.11.15a.83.83,0,0,1-1.52,0L41,64.76a3.86,3.86,0,0,1-.24-.34l-.33-.5-.1-.15-.21-.34c-.15-.25-.29-.51-.29-.51a1.5,1.5,0,0,0-.28-.38.59.59,0,0,0-.31-.18,1,1,0,0,0-.74.33l-.44.38c-.12.09-.23.19-.32.25l-.14.11-.48.35-.34.24-.15.11a1,1,0,0,1-.89.19,1,1,0,0,1-.54-.71l-.06-.18L35,63c-.07-.3-.14-.58-.14-.58l0-.18-.08-.4-.1-.57a1.32,1.32,0,0,0-.13-.46.62.62,0,0,0-.23-.27l-.93,1.62a.74.74,0,0,1,.26.29,1.67,1.67,0,0,1,.17.48s.06.29.13.59L34,64Z" transform="translate(-18.67 -15.92)"/><path class="cls-3" d="M33.28,65.84l.21.61.16.42.08.18a1.29,1.29,0,0,0,.69.79,1.32,1.32,0,0,0,1-.15l.18-.1.39-.22.55-.33.17-.1.37-.24c.27-.17.52-.35.52-.35a1.21,1.21,0,0,1,.91-.31.8.8,0,0,1,.38.19,1.61,1.61,0,0,1,.37.4l.37.52.26.35.13.15.41.5.29.34.14.15a1.1,1.1,0,0,0,1.84,0l.14-.15.29-.34.41-.5.12-.15a3.93,3.93,0,0,0,.27-.35l.37-.51a1.5,1.5,0,0,1,.37-.41A.8.8,0,0,1,45.1,66a1.24,1.24,0,0,1,.92.31l.32.22c.19.13.46.32.73.48l.77.44.26.15.09,0a1.37,1.37,0,0,0,1.05.15,1.29,1.29,0,0,0,.69-.78l.08-.19c.05-.12.11-.27.16-.42.12-.31.22-.61.22-.61l.06-.19c0-.11.09-.27.13-.42.09-.31.17-.61.17-.61a1.87,1.87,0,0,1,.2-.51.76.76,0,0,1,.29-.3.89.89,0,0,1,.43-.11,1.64,1.64,0,0,1,.54.08l.61.16.42.09.2,0,.64.12.23,0,.21,0,.2,0a1.66,1.66,0,0,0,.59,0,1,1,0,0,0,.44-.21,1.26,1.26,0,0,0,.38-1l0-.65V61.8l0-.63c0-.32,0-.63,0-.63a1.22,1.22,0,0,1,.19-.95,1,1,0,0,1,.35-.24,1.68,1.68,0,0,1,.54-.1l.2,0,.2,0,.23,0,.63-.09.2,0,.44-.07.64-.13a2,2,0,0,0,.55-.21.92.92,0,0,0,.34-.34,1.17,1.17,0,0,0,.13-.47,1.7,1.7,0,0,0-.1-.59l-.13-.38c-.07-.23-.18-.53-.3-.83s-.25-.59-.34-.81L59.72,55l0-.1a1,1,0,0,1,.57-1.59l0,0,.13-.06.39-.19.57-.3.18-.1.38-.22.55-.34a1.23,1.23,0,0,0,.65-.82,1,1,0,0,0,0-.49,1.83,1.83,0,0,0-.3-.51l-.4-.51-.29-.33L62,49.26s-.21-.25-.43-.48l-.29-.31-.15-.14a1.13,1.13,0,0,1-.45-.84H58.81a1,1,0,0,0,.44.76l.15.13.3.28.43.44.14.13.29.31L61,50a1.87,1.87,0,0,1,.29.47,1,1,0,0,1,0,.45,1.09,1.09,0,0,1-.62.74l-.56.3-.37.19-.18.08L59,52.5l-.38.17-.12,0-.05,0c-.38.15-.6.32-.68.56a1,1,0,0,0,.16.87l.09.17.18.36.26.56.08.17.17.39c.12.29.23.59.23.59a1.41,1.41,0,0,1,.11.54.86.86,0,0,1-.11.43.8.8,0,0,1-.32.31,1.76,1.76,0,0,1-.52.18l-.39.06-.39,0-.46.05-.83.06-.38,0a1.52,1.52,0,0,0-.51.08.75.75,0,0,0-.32.21,1,1,0,0,0-.15.88s.08.59.13,1.21,0,1.24,0,1.24a1.1,1.1,0,0,1-.33.91.74.74,0,0,1-.4.18,1.46,1.46,0,0,1-.55,0l-.38-.07-.84-.2-.43-.11-.38-.11-.36-.12a1.71,1.71,0,0,0-.5-.09.63.63,0,0,0-.39.09.71.71,0,0,0-.26.28,1.79,1.79,0,0,0-.17.48l-.08.37c0,.23-.12.53-.2.82l-.25.82-.09.27,0,.1a1.15,1.15,0,0,1-.62.74,1.2,1.2,0,0,1-1-.16l-.17-.11-.37-.23-.51-.34-.16-.11-.34-.25-.48-.36a1.1,1.1,0,0,0-.83-.31.69.69,0,0,0-.35.18,1.67,1.67,0,0,0-.32.39l-.33.51c-.08.13-.17.25-.24.35l-.11.15-.37.5-.26.34-.13.15a1,1,0,0,1-1.68,0l-.13-.15-.26-.34-.37-.5-.11-.15c-.07-.1-.16-.22-.24-.35l-.33-.51a1.67,1.67,0,0,0-.32-.39.69.69,0,0,0-.35-.18,1.07,1.07,0,0,0-.82.31l-.49.36-.34.25-.16.11-.51.34-.37.23a1.06,1.06,0,0,1-.17.1,1,1,0,0,1-1.58-.57l-.07-.19-.13-.41c-.09-.3-.17-.6-.17-.6L34,64l-.11-.41c-.07-.3-.13-.59-.13-.59a1.67,1.67,0,0,0-.17-.48.74.74,0,0,0-.26-.29l-.93,1.61a.87.87,0,0,1,.29.31,1.87,1.87,0,0,1,.2.51s.08.3.17.61c.05.15.1.31.13.42Z" transform="translate(-18.67 -15.92)"/><path class="cls-4" d="M33,68.78a1.47,1.47,0,0,0,.77.8,1.45,1.45,0,0,0,1.12-.11l.11,0,.28-.14c.23-.11.53-.27.82-.43s.58-.34.8-.47l.34-.22a1.5,1.5,0,0,1,1-.28,1,1,0,0,1,.42.2,1.68,1.68,0,0,1,.4.4l.26.33.27.33c.09.12.2.25.31.37l.63.69.21.23.09.08a1.27,1.27,0,0,0,2,0l.09-.08.21-.23c.18-.18.41-.44.63-.69s.21-.25.31-.37l.27-.33.25-.33a1.91,1.91,0,0,1,.41-.4.91.91,0,0,1,.42-.2,1.54,1.54,0,0,1,1,.28s.27.18.56.35l.39.24.18.1.6.32.41.21.2.09a1.27,1.27,0,0,0,1.89-.69l.09-.19.19-.43.25-.63.08-.19c0-.12.09-.28.15-.44l.2-.63a2.09,2.09,0,0,1,.24-.52.92.92,0,0,1,.33-.32,1,1,0,0,1,.46-.13,1.91,1.91,0,0,1,.57,0l.65.15.45.08.2,0,.67.1.25,0,.22,0,.21,0a1.71,1.71,0,0,0,.61,0,1,1,0,0,0,.47-.23,1.46,1.46,0,0,0,.46-1l0-.68c0-.34,0-.67,0-.67s0-.34,0-.67,0-.66,0-.66a1.33,1.33,0,0,1,.26-1,1.07,1.07,0,0,1,.37-.28,2,2,0,0,1,.56-.14l.2,0,.21,0,.24,0,.66-.11.21,0,.45-.1.66-.17a1.85,1.85,0,0,0,.57-.24,1.19,1.19,0,0,0,.36-.38,1.33,1.33,0,0,0,.15-.5,1.74,1.74,0,0,0-.07-.62s-.09-.33-.19-.65c0-.16-.09-.32-.14-.44l-.07-.2s-.11-.32-.23-.63l-.16-.42-.09-.19a1.36,1.36,0,0,1-.09-1,1.33,1.33,0,0,1,.73-.71l.1,0,.26-.14c.22-.12.51-.28.8-.46s.57-.35.78-.49l.36-.24a1.41,1.41,0,0,0,.65-.91A1.36,1.36,0,0,0,65,51a2.2,2.2,0,0,0-.28-.55l-.26-.34-.25-.35-.32-.39c-.21-.26-.43-.51-.59-.7l-.2-.22L63,48.41a1.32,1.32,0,0,1-.44-.92H60.67a1.13,1.13,0,0,0,.45.84l.15.14.29.31c.22.23.43.48.43.48l.14.15.29.33.4.51a1.83,1.83,0,0,1,.3.51,1,1,0,0,1,0,.49,1.23,1.23,0,0,1-.65.82l-.55.34-.38.22-.18.1-.57.3-.39.19-.13.06,0,0a1,1,0,0,0-.57,1.59l0,.1.12.25c.09.22.22.51.34.81s.23.6.3.83l.13.38a1.7,1.7,0,0,1,.1.59,1.17,1.17,0,0,1-.13.47.92.92,0,0,1-.34.34,2,2,0,0,1-.55.21l-.64.13-.44.07-.2,0-.63.09-.23,0-.2,0-.2,0a1.68,1.68,0,0,0-.54.1,1,1,0,0,0-.35.24,1.22,1.22,0,0,0-.19.95s0,.31,0,.63l0,.63v.65l0,.65a1.26,1.26,0,0,1-.38,1,1,1,0,0,1-.44.21,1.66,1.66,0,0,1-.59,0l-.2,0-.21,0-.23,0-.64-.12-.2,0-.42-.09-.61-.16a1.64,1.64,0,0,0-.54-.08.89.89,0,0,0-.43.11.76.76,0,0,0-.29.3,1.87,1.87,0,0,0-.2.51s-.08.3-.17.61c0,.15-.09.31-.13.42l-.06.19s-.1.3-.22.61c-.05.15-.11.3-.16.42l-.08.19a1.29,1.29,0,0,1-.69.78,1.37,1.37,0,0,1-1.05-.15l-.09,0-.26-.15-.77-.44c-.27-.16-.54-.35-.73-.48L46,66.35A1.24,1.24,0,0,0,45.1,66a.8.8,0,0,0-.38.19,1.5,1.5,0,0,0-.37.41l-.37.51a3.93,3.93,0,0,1-.27.35l-.12.15-.41.5-.29.34-.14.15a1.1,1.1,0,0,1-1.84,0l-.14-.15-.29-.34-.41-.5-.13-.15-.26-.35-.37-.52a1.61,1.61,0,0,0-.37-.4.8.8,0,0,0-.38-.19,1.21,1.21,0,0,0-.91.31s-.25.18-.52.35l-.37.24-.17.1-.55.33-.39.22-.18.1a1.32,1.32,0,0,1-1,.15,1.29,1.29,0,0,1-.69-.79l-.08-.18-.16-.42-.21-.61-.07-.19c0-.11-.08-.27-.13-.42-.09-.31-.17-.61-.17-.61a1.87,1.87,0,0,0-.2-.51.87.87,0,0,0-.29-.31l-.94,1.62a1,1,0,0,1,.33.33,1.93,1.93,0,0,1,.24.52l.13.39c.07.24.18.56.3.87s.25.62.36.86l.12.29Z" transform="translate(-18.67 -15.92)"/><path class="cls-2" d="M31.3,32.45l-.61-.15-.42-.09-.19,0a1.71,1.71,0,0,0-.55,0,.74.74,0,0,0-.4.18,1.09,1.09,0,0,0-.34.91s0,.32,0,.63,0,.62,0,.62l.06.61c0,.31.07.6.07.6a1.05,1.05,0,0,1-.14.87.72.72,0,0,1-.32.21,1.52,1.52,0,0,1-.51.08h-.61l-.6.06-.2,0-.42,0-.62.09a1.83,1.83,0,0,0-.53.18.86.86,0,0,0-.31.32.83.83,0,0,0-.12.42,1.62,1.62,0,0,0,.11.54l.23.59.17.39.08.17s.13.29.26.56l.19.37.09.17a1.07,1.07,0,0,1,.16.86,1.11,1.11,0,0,1-.69.57l-.17.07-.38.16-.55.25-.18.09-.38.19-.55.3a1.13,1.13,0,0,0-.62.75.84.84,0,0,0,0,.44,1.62,1.62,0,0,0,.29.47l.26.29.26.3.32.33.6.58.2.19.08.07a1.08,1.08,0,0,1,.45.76,1.06,1.06,0,0,1-.45.77l-.08.06-.2.19-.6.59-.32.33-.26.29-.26.3a1.46,1.46,0,0,0-.29.46.85.85,0,0,0,0,.44,1.1,1.1,0,0,0,.62.75l.34.19.76.39.77.34.25.11.09,0a1,1,0,0,1,.69.56,1.1,1.1,0,0,1-.16.87l0,.09a2.39,2.39,0,0,0-.13.24c-.1.2-.23.48-.36.76s-.25.57-.34.78l-.14.37a1.67,1.67,0,0,0-.11.54.89.89,0,0,0,.12.43.84.84,0,0,0,.31.31,1.73,1.73,0,0,0,.53.18l.62.09.42,0,.2,0,.6,0,.42,0H28a1.8,1.8,0,0,1,.52.09.81.81,0,0,1,.32.21,1.07,1.07,0,0,1,.14.87s0,.3-.07.6l-.06.61s0,.31,0,.62,0,.63,0,.63a1.1,1.1,0,0,0,.33.91.73.73,0,0,0,.41.18,1.46,1.46,0,0,0,.55,0l.19,0,.42-.09.61-.15.18,0,.41-.11.58-.18a1.66,1.66,0,0,1,.5-.09.69.69,0,0,1,.38.08l.93-1.62a.61.61,0,0,0-.34-.06,1.65,1.65,0,0,0-.47.11l-.54.21-.38.12-.18.06-.57.17-.4.1-.18,0a1.6,1.6,0,0,1-.52,0,.7.7,0,0,1-.38-.17,1,1,0,0,1-.27-.85s0-.3.05-.6.07-.59.07-.59l.08-.58.1-.57a.9.9,0,0,0-.09-.81A.64.64,0,0,0,30,57a1.65,1.65,0,0,0-.48-.06H28.9l-.58,0h-.19l-.41,0-.59-.06a1.4,1.4,0,0,1-.51-.14.74.74,0,0,1-.39-.67,1.37,1.37,0,0,1,.13-.51l.15-.34c.1-.2.22-.47.36-.73s.28-.52.39-.71l.13-.23.05-.08a.9.9,0,0,0,.19-.79c-.07-.21-.28-.37-.65-.49l-.1,0-.24-.09c-.2-.07-.48-.17-.75-.29s-.54-.23-.75-.33l-.34-.17a1,1,0,0,1-.6-.66.71.71,0,0,1,.05-.4,1.71,1.71,0,0,1,.29-.43l.26-.27.27-.27.32-.29c.22-.21.44-.4.61-.54l.2-.16.08-.07a.74.74,0,0,0,0-1.36l-.08-.06-.2-.17-.61-.53-.32-.3-.27-.27-.26-.27a1.71,1.71,0,0,1-.29-.43.71.71,0,0,1-.05-.4,1,1,0,0,1,.61-.67l.54-.26.37-.16.17-.07.55-.22.37-.13.17-.06c.37-.13.59-.28.65-.49a.9.9,0,0,0-.19-.79l-.09-.15L27.16,41l-.28-.51-.09-.17L26.61,40c-.13-.26-.25-.54-.25-.54a1.32,1.32,0,0,1-.13-.5.77.77,0,0,1,.1-.4.71.71,0,0,1,.29-.28,1.46,1.46,0,0,1,.51-.14l.59-.06.41,0h.19l.58,0h.58A1.36,1.36,0,0,0,30,38a.58.58,0,0,0,.3-.19.88.88,0,0,0,.09-.8l-.1-.57-.08-.59s0-.29-.07-.58-.05-.61-.05-.61a1,1,0,0,1,.28-.86.69.69,0,0,1,.37-.15,1.37,1.37,0,0,1,.52,0l.18,0a3.11,3.11,0,0,1,.4.11l.57.17.18.05.38.13.54.2a1.37,1.37,0,0,0,.47.11.52.52,0,0,0,.34-.06l-.93-1.62a.69.69,0,0,1-.38.08,1.4,1.4,0,0,1-.5-.09l-.58-.18-.41-.11Z" transform="translate(-18.67 -15.92)"/><path class="cls-3" d="M30.22,30.91l-.63-.12-.44-.07-.2,0a1.66,1.66,0,0,0-.59,0,1,1,0,0,0-.44.21,1.26,1.26,0,0,0-.39,1s0,.33,0,.66v.64s0,.32,0,.64l0,.63a1.18,1.18,0,0,1-.18.94,1,1,0,0,1-.36.24,1.56,1.56,0,0,1-.53.1l-.2,0-.2,0-.23,0-.64.08-.2,0c-.11,0-.28,0-.43.08l-.64.12a1.62,1.62,0,0,0-.55.21,1,1,0,0,0-.34.35.88.88,0,0,0-.13.46,1.55,1.55,0,0,0,.09.58l.21.62c.06.15.11.3.15.41l.08.19.24.59.17.4.09.18a1.16,1.16,0,0,1,.14.94,1.2,1.2,0,0,1-.72.65l-.1,0-.25.12-.78.4c-.29.15-.56.32-.77.44l-.35.22a1.25,1.25,0,0,0-.65.83,1.15,1.15,0,0,0,0,.48,2,2,0,0,0,.3.51l.4.51.29.34.13.15.43.47.3.31.14.14a1.2,1.2,0,0,1,.46.84,1.21,1.21,0,0,1-.46.85l-.14.13-.3.31-.43.47-.13.15-.29.34-.4.52a1.7,1.7,0,0,0-.3.51,1.12,1.12,0,0,0,0,.48,1.23,1.23,0,0,0,.65.82l.56.34c.14.08.27.17.38.22l.18.1.57.3.38.19.18.08A1,1,0,0,1,24,54.88l-.09.18-.17.39c-.13.29-.25.59-.25.59l-.07.19c-.05.12-.1.27-.15.42-.11.31-.21.62-.21.62a1.4,1.4,0,0,0-.09.58.88.88,0,0,0,.13.46.92.92,0,0,0,.33.35,2,2,0,0,0,.56.21l.4.08.4.08.47.07.87.11.39,0a2.22,2.22,0,0,1,.54.11,1.05,1.05,0,0,1,.36.25,1.16,1.16,0,0,1,.18.94l0,.63c0,.31,0,.64,0,.64v.64c0,.32,0,.65,0,.65a1.3,1.3,0,0,0,.38,1,.9.9,0,0,0,.45.21,1.65,1.65,0,0,0,.59,0l.2,0,.44-.07.63-.12.2,0,.43-.09.61-.16A1.57,1.57,0,0,1,32,63.7a.82.82,0,0,1,.42.1l.93-1.61a.69.69,0,0,0-.38-.08,1.66,1.66,0,0,0-.5.09l-.58.18-.41.11-.18,0-.61.15-.42.09-.19,0a1.46,1.46,0,0,1-.55,0,.73.73,0,0,1-.41-.18,1.1,1.1,0,0,1-.33-.91s0-.32,0-.63,0-.62,0-.62l.06-.61c0-.3.07-.6.07-.6a1.07,1.07,0,0,0-.14-.87.81.81,0,0,0-.32-.21A1.8,1.8,0,0,0,28,58.1h-.18l-.42,0-.6,0-.2,0-.42,0-.62-.09a1.73,1.73,0,0,1-.53-.18.84.84,0,0,1-.31-.31.89.89,0,0,1-.12-.43,1.67,1.67,0,0,1,.11-.54l.14-.37c.09-.21.2-.5.34-.78s.26-.56.36-.76a2.39,2.39,0,0,1,.13-.24l0-.09a1.1,1.1,0,0,0,.16-.87,1,1,0,0,0-.69-.56l-.09,0-.25-.11-.77-.34-.76-.39L23,51.67a1.1,1.1,0,0,1-.62-.75.85.85,0,0,1,0-.44,1.46,1.46,0,0,1,.29-.46l.26-.3.26-.29.32-.33.6-.59.2-.19.08-.06a1.06,1.06,0,0,0,.45-.77,1.08,1.08,0,0,0-.45-.76l-.08-.07-.2-.19-.6-.58-.32-.33-.26-.3L22.69,45a1.62,1.62,0,0,1-.29-.47.84.84,0,0,1,0-.44,1.13,1.13,0,0,1,.62-.75l.55-.3.38-.19.18-.09.55-.25.38-.16.17-.07a1.11,1.11,0,0,0,.69-.57,1.07,1.07,0,0,0-.16-.86l-.09-.17-.19-.37c-.13-.27-.26-.56-.26-.56l-.08-.17-.17-.39-.23-.59a1.62,1.62,0,0,1-.11-.54.83.83,0,0,1,.12-.42.86.86,0,0,1,.31-.32,1.83,1.83,0,0,1,.53-.18l.62-.09.42,0,.2,0,.6-.06H28a1.52,1.52,0,0,0,.51-.08.72.72,0,0,0,.32-.21,1.05,1.05,0,0,0,.14-.87s0-.29-.07-.6l-.06-.61s0-.3,0-.62,0-.63,0-.63a1.09,1.09,0,0,1,.34-.91.74.74,0,0,1,.4-.18,1.71,1.71,0,0,1,.55,0l.19,0,.42.09.61.15.18,0,.41.11.58.18a1.4,1.4,0,0,0,.5.09.69.69,0,0,0,.38-.08l-.93-1.61a.82.82,0,0,1-.42.1,1.61,1.61,0,0,1-.54-.08l-.61-.15-.43-.1Z" transform="translate(-18.67 -15.92)"/><path class="cls-4" d="M27.81,29.21a2.07,2.07,0,0,0-.62,0,1,1,0,0,0-.46.23,1.45,1.45,0,0,0-.47,1s-.05.7-.06,1.36,0,1.33,0,1.33a1.35,1.35,0,0,1-.25,1,1.17,1.17,0,0,1-.37.28,2.08,2.08,0,0,1-.56.14l-.41,0c-.24,0-.57.09-.9.16l-.49.09-.42.1-.42.11a1.51,1.51,0,0,0-.56.24,1.11,1.11,0,0,0-.36.39,1.18,1.18,0,0,0-.16.5,2,2,0,0,0,.08.61l.11.41c.08.25.17.57.29.89s.22.63.31.86.09.21.11.27l.05.11a1.32,1.32,0,0,1,.1,1,1.39,1.39,0,0,1-.73.73l-.19.09-.4.22-.58.33-.18.11-.39.24-.56.38a1.43,1.43,0,0,0-.66.92,1.16,1.16,0,0,0,0,.52,1.75,1.75,0,0,0,.28.54s.2.29.4.56l.28.37.14.16s.21.26.43.51l.3.34.14.15a1.18,1.18,0,0,1,0,1.85l-.14.15-.3.33c-.22.25-.43.51-.43.51l-.14.17-.28.37-.4.55a1.79,1.79,0,0,0-.28.55,1.15,1.15,0,0,0,0,.52,1.41,1.41,0,0,0,.65.9l.57.38.39.26.18.11.58.33.4.21.19.1a1.18,1.18,0,0,1,.63,1.73l-.08.2-.17.42c-.12.31-.23.62-.23.62l-.07.2-.14.45c-.09.32-.18.66-.18.66a1.93,1.93,0,0,0-.08.61,1.23,1.23,0,0,0,.16.5,1.25,1.25,0,0,0,.35.38,2.13,2.13,0,0,0,.57.25l.66.16.46.1.2,0,.66.12.45.06.21,0a1.76,1.76,0,0,1,.56.15,1.14,1.14,0,0,1,.37.27,1.36,1.36,0,0,1,.25,1s0,.65,0,1.33.06,1.36.06,1.36a1.44,1.44,0,0,0,.46,1,1,1,0,0,0,.47.24,1.79,1.79,0,0,0,.62,0l.42,0,.93-.13.48-.08.42-.08.4-.09a1.65,1.65,0,0,1,.57,0,1.07,1.07,0,0,1,.45.12l.94-1.62a.82.82,0,0,0-.42-.1,1.57,1.57,0,0,0-.54.08l-.61.16-.43.09-.2,0-.63.12-.44.07-.2,0a1.65,1.65,0,0,1-.59,0,.9.9,0,0,1-.45-.21,1.3,1.3,0,0,1-.38-1s0-.33,0-.65v-.64s0-.33,0-.64l0-.63a1.16,1.16,0,0,0-.18-.94,1.05,1.05,0,0,0-.36-.25,2.22,2.22,0,0,0-.54-.11l-.39,0-.87-.11L24.78,59l-.4-.08-.4-.08a2,2,0,0,1-.56-.21.92.92,0,0,1-.33-.35.88.88,0,0,1-.13-.46,1.4,1.4,0,0,1,.09-.58s.1-.31.21-.62c0-.15.1-.3.15-.42l.07-.19s.12-.3.25-.59l.17-.39.09-.18a1,1,0,0,0-.58-1.58l-.18-.08L22.85,53l-.57-.3-.18-.1c-.11-.05-.24-.14-.38-.22l-.56-.34a1.23,1.23,0,0,1-.65-.82,1.12,1.12,0,0,1,0-.48,1.7,1.7,0,0,1,.3-.51l.4-.52.29-.34.13-.15.43-.47.3-.31.14-.13a1.21,1.21,0,0,0,.46-.85,1.2,1.2,0,0,0-.46-.84l-.14-.14-.3-.31-.43-.47-.13-.15-.29-.34-.4-.51a2,2,0,0,1-.3-.51,1.15,1.15,0,0,1,0-.48,1.25,1.25,0,0,1,.65-.83l.35-.22c.21-.12.48-.29.77-.44l.78-.4.25-.12.1,0a1.2,1.2,0,0,0,.72-.65A1.16,1.16,0,0,0,24,40.1l-.09-.18-.17-.4-.24-.59-.08-.19c0-.11-.09-.26-.15-.41l-.21-.62a1.55,1.55,0,0,1-.09-.58.88.88,0,0,1,.13-.46,1,1,0,0,1,.34-.35,1.62,1.62,0,0,1,.55-.21l.64-.12c.15,0,.32-.06.43-.08l.2,0,.64-.08.23,0,.2,0,.2,0a1.56,1.56,0,0,0,.53-.1,1,1,0,0,0,.36-.24,1.18,1.18,0,0,0,.18-.94l0-.63c0-.32,0-.64,0-.64v-.64c0-.33,0-.66,0-.66a1.26,1.26,0,0,1,.39-1,1,1,0,0,1,.44-.21,1.66,1.66,0,0,1,.59,0l.2,0,.44.07.63.12.2,0,.43.1.61.15a1.61,1.61,0,0,0,.54.08.82.82,0,0,0,.42-.1l-.94-1.62a1,1,0,0,1-.45.13,2.36,2.36,0,0,1-.57-.05l-.4-.09-.42-.09-.48-.08-.93-.13Z" transform="translate(-18.67 -15.92)"/><path class="cls-2" d="M60.13,45.89l.14-.14.29-.31L61,45a1.71,1.71,0,0,0,.29-.47,1,1,0,0,0,0-.44,1.1,1.1,0,0,0-.62-.75l-.56-.3-.37-.19-.18-.08L59,42.48l-.38-.17-.12-.05-.05,0a1,1,0,0,1-.68-.55,1,1,0,0,1,.16-.87l.09-.17c.05-.1.12-.23.18-.37s.26-.55.26-.55l.08-.18.17-.39c.12-.29.23-.58.23-.58a1.44,1.44,0,0,0,.11-.54A.93.93,0,0,0,59,37.6a.87.87,0,0,0-.32-.31,1.52,1.52,0,0,0-.52-.17L57.5,37,57.08,37l-.2,0-.61-.05-.41,0h-.19a1.82,1.82,0,0,1-.51-.08.74.74,0,0,1-.32-.22,1,1,0,0,1-.15-.87s0-.3.07-.6.06-.61.06-.61,0-.3,0-.61,0-.63,0-.63a1.16,1.16,0,0,0-.34-.92.82.82,0,0,0-.4-.18,2.05,2.05,0,0,0-.55,0l-.38.08-.84.19-.43.12a2.9,2.9,0,0,0-.38.11l-.36.11a1.47,1.47,0,0,1-.5.1.76.76,0,0,1-.38-.09.69.69,0,0,1-.27-.29,1.67,1.67,0,0,1-.17-.48l-.08-.37c0-.22-.12-.52-.2-.81L49.35,30l-.09-.27,0-.1a1,1,0,0,0-1.57-.58l-.1.05-.24.16-.72.46c-.25.17-.5.36-.68.49l-.3.24a1.11,1.11,0,0,1-.83.31.86.86,0,0,1-.34-.18,1.72,1.72,0,0,1-.33-.4l-.2-.32-.22-.33-.26-.36c-.18-.25-.36-.5-.51-.69a2.7,2.7,0,0,0-.18-.22l-.07-.08a1.19,1.19,0,0,0-.83-.49,1.23,1.23,0,0,0-.85.49l-.13.15-.26.34-.37.5-.11.16-.24.34-.32.51a2,2,0,0,1-.33.4.69.69,0,0,1-.35.18,1.08,1.08,0,0,1-.82-.32l-.49-.36-.34-.25-.16-.1-.51-.35-.37-.23-.17-.1a1.18,1.18,0,0,0-1-.17,1.16,1.16,0,0,0-.63.75l-.07.18-.13.42c-.09.3-.17.59-.17.59L34,31l-.11.41c-.07.3-.13.59-.13.59a1.67,1.67,0,0,1-.17.48.74.74,0,0,1-.26.29l.93,1.62a.52.52,0,0,0,.23-.27,1.32,1.32,0,0,0,.13-.46l.1-.57.08-.4,0-.17L35,32l.1-.4.06-.18a1,1,0,0,1,.55-.72,1.06,1.06,0,0,1,.88.19l.15.11.34.24.48.35.14.11.32.26.44.37c.29.25.53.37.74.33a.64.64,0,0,0,.31-.17,1.64,1.64,0,0,0,.29-.39l.28-.51.21-.34.1-.15.33-.5.24-.34.11-.15a.84.84,0,0,1,1.52,0l.06.08.16.22c.14.19.3.44.46.68l.23.37.19.32.18.32a1.64,1.64,0,0,0,.28.39.64.64,0,0,0,.31.17,1,1,0,0,0,.75-.33l.27-.23c.17-.14.4-.34.63-.51s.48-.35.66-.48l.23-.16.08-.05a1,1,0,0,1,.88-.2,1,1,0,0,1,.54.71l0,.1.08.27c.06.21.13.5.19.79s.12.58.16.79l.06.36a1.59,1.59,0,0,0,.13.46.54.54,0,0,0,.58.34,1.57,1.57,0,0,0,.46-.12l.34-.13.36-.13L51.3,34c.28-.08.57-.17.79-.22l.36-.09a1.37,1.37,0,0,1,.52,0,.66.66,0,0,1,.37.16,1,1,0,0,1,.28.86s0,.3,0,.6-.07.59-.07.59,0,.29-.09.58l-.1.56a1,1,0,0,0,.09.82.69.69,0,0,0,.3.18,1.68,1.68,0,0,0,.48.05h.59l.58,0h.19l.41,0,.59.06a1.35,1.35,0,0,1,.5.13.74.74,0,0,1,.3.28.76.76,0,0,1,.09.4,1.28,1.28,0,0,1-.13.5l-.24.55c-.07.13-.13.26-.19.36l-.08.17-.28.52-.19.34-.1.16a.92.92,0,0,0-.19.79c.07.2.29.36.65.48h0l.13,0,.37.13.54.22.17.07.38.17.54.25a.94.94,0,0,1,.6.68.71.71,0,0,1,0,.4,1.53,1.53,0,0,1-.3.43l-.42.42a2.5,2.5,0,0,1-.3.28l-.13.13-.44.39-.3.26-.15.11c-.3.24-.45.46-.44.68h1.87a1,1,0,0,1,.44-.76l.15-.12.3-.29Z" transform="translate(-18.67 -15.92)"/><path class="cls-3" d="M62,45.73l.14-.15.29-.34.4-.51a1.7,1.7,0,0,0,.3-.51,1,1,0,0,0,0-.48,1.22,1.22,0,0,0-.65-.83L62,42.57l-.38-.22-.18-.09-.57-.3-.39-.2-.13-.06,0,0a1.13,1.13,0,0,1-.71-.63,1.12,1.12,0,0,1,.14-.94l.08-.18.18-.4.24-.59.07-.19c0-.12.1-.26.16-.42l.2-.61a1.61,1.61,0,0,0,.1-.58,1.07,1.07,0,0,0-.13-.48,1,1,0,0,0-.34-.34,1.7,1.7,0,0,0-.55-.2L59.05,36l-.44-.07-.2,0-.63-.09-.43,0h-.2a2,2,0,0,1-.54-.11,1,1,0,0,1-.35-.24,1.24,1.24,0,0,1-.19-1s0-.61.08-1.26,0-1.29,0-1.29a1.35,1.35,0,0,0-.39-1,.94.94,0,0,0-.44-.2,1.65,1.65,0,0,0-.59,0l-.2,0-.21,0-.23,0-.64.12-.2,0-.42.1c-.31.07-.61.16-.61.16a2,2,0,0,1-.54.08.93.93,0,0,1-.42-.11.81.81,0,0,1-.3-.31,1.87,1.87,0,0,1-.2-.51s-.08-.3-.17-.61c0-.15-.09-.3-.13-.41l-.06-.19s-.1-.3-.22-.61c-.05-.15-.11-.31-.16-.42l-.08-.19a1.1,1.1,0,0,0-1.73-.63l-.05,0-.13.07-.39.22c-.29.16-.56.33-.56.33l-.17.1-.37.24-.51.36a1.26,1.26,0,0,1-.92.3.78.78,0,0,1-.38-.18,1.87,1.87,0,0,1-.37-.41s-.17-.26-.36-.52-.19-.25-.27-.34l-.12-.16-.41-.5-.3-.34-.14-.15a1.28,1.28,0,0,0-.91-.5,1.32,1.32,0,0,0-.93.5l-.08.08-.19.23c-.16.18-.37.43-.57.68l-.29.37-.24.33-.22.32a2.57,2.57,0,0,1-.37.41,1,1,0,0,1-.39.19,1.31,1.31,0,0,1-.91-.31l-.52-.36L36.76,28l-.17-.1L36,27.61l-.39-.22-.18-.09a1.1,1.1,0,0,0-1.74.63l-.08.19-.16.42c-.11.3-.21.6-.21.6l-.07.19c0,.11-.08.27-.13.42-.09.31-.17.61-.17.61a1.87,1.87,0,0,1-.2.51.87.87,0,0,1-.29.31l.93,1.61a.74.74,0,0,0,.26-.29,1.67,1.67,0,0,0,.17-.48s.06-.29.13-.59L34,31l0-.18s.08-.29.17-.59l.13-.42.07-.18a1.16,1.16,0,0,1,.63-.75,1.18,1.18,0,0,1,1,.17l.17.1.37.23.51.35.16.1.34.25.49.36a1.08,1.08,0,0,0,.82.32.69.69,0,0,0,.35-.18,2,2,0,0,0,.33-.4l.32-.51.24-.34.11-.16.37-.5.26-.34L41,28.2a1.23,1.23,0,0,1,.85-.49,1.19,1.19,0,0,1,.83.49l.07.08a2.7,2.7,0,0,1,.18.22c.15.19.33.44.51.69l.26.36.22.33.2.32a1.72,1.72,0,0,0,.33.4.86.86,0,0,0,.34.18,1.11,1.11,0,0,0,.83-.31l.3-.24c.18-.13.43-.32.68-.49l.72-.46.24-.16.1-.05a1,1,0,0,1,1.57.58l0,.1.09.27.25.82c.08.29.15.59.2.81l.08.37a1.67,1.67,0,0,0,.17.48.69.69,0,0,0,.27.29.76.76,0,0,0,.38.09,1.47,1.47,0,0,0,.5-.1l.36-.11a2.9,2.9,0,0,1,.38-.11l.43-.12.84-.19.38-.08a2.05,2.05,0,0,1,.55,0,.82.82,0,0,1,.4.18,1.16,1.16,0,0,1,.34.92s0,.32,0,.63,0,.61,0,.61,0,.31-.06.61-.07.6-.07.6a1,1,0,0,0,.15.87.74.74,0,0,0,.32.22,1.82,1.82,0,0,0,.51.08h.19l.41,0,.61.05.2,0,.42.05.62.09a1.52,1.52,0,0,1,.52.17.87.87,0,0,1,.32.31.93.93,0,0,1,.11.44,1.44,1.44,0,0,1-.11.54s-.11.29-.23.58l-.17.39-.08.18s-.12.28-.26.55-.13.27-.18.37l-.09.17a1,1,0,0,0-.16.87,1,1,0,0,0,.68.55l.05,0,.12.05.38.17.56.26.18.08.37.19.56.3a1.1,1.1,0,0,1,.62.75,1,1,0,0,1,0,.44A1.71,1.71,0,0,1,61,45l-.42.47-.29.31-.14.14-.43.43-.3.29-.15.12a1,1,0,0,0-.44.76h1.86a1.16,1.16,0,0,1,.45-.84l.15-.14c.08-.08.19-.19.29-.31S62,45.73,62,45.73Z" transform="translate(-18.67 -15.92)"/><path class="cls-4" d="M64.68,44.49a2,2,0,0,0,.28-.55,1.31,1.31,0,0,0,0-.52,1.41,1.41,0,0,0-.65-.91L64,42.27c-.21-.14-.49-.33-.78-.5s-.58-.34-.8-.45l-.26-.15-.1-.05a1.18,1.18,0,0,1-.63-1.73l0-.1c0-.07.07-.16.11-.28s.21-.54.32-.86.21-.64.28-.88l.12-.42a1.66,1.66,0,0,0,.07-.61,1.31,1.31,0,0,0-.15-.51,1.43,1.43,0,0,0-.36-.38,2.13,2.13,0,0,0-.57-.24l-.41-.1-.42-.1-.49-.1-.9-.15-.41-.06a1.7,1.7,0,0,1-.56-.14,1.14,1.14,0,0,1-.37-.27,1.37,1.37,0,0,1-.26-1l0-.66c0-.33,0-.67,0-.67l0-.67c0-.34-.05-.68-.05-.68a1.44,1.44,0,0,0-.46-1,1.05,1.05,0,0,0-.47-.24,2,2,0,0,0-.61,0l-.21,0-.22,0-.25,0-.67.09-.2,0-.45.09c-.33.06-.65.14-.65.14a1.94,1.94,0,0,1-.57.05,1,1,0,0,1-.45-.13.89.89,0,0,1-.34-.33,1.93,1.93,0,0,1-.24-.52l-.2-.63c-.06-.16-.11-.32-.15-.43l-.08-.2s-.12-.31-.25-.62l-.19-.44-.09-.19a1.27,1.27,0,0,0-1.88-.69l-.06,0-.14.06-.42.22-.6.31-.18.1-.39.24c-.29.17-.56.35-.56.35a1.4,1.4,0,0,1-1,.28,1.12,1.12,0,0,1-.42-.19,2,2,0,0,1-.41-.41s-.19-.26-.4-.52l-.29-.36-.14-.15-.45-.5L43,24.62l-.15-.15a1.46,1.46,0,0,0-1-.49,1.53,1.53,0,0,0-1,.49l-.15.15-.32.35-.45.5-.14.15-.29.36c-.21.26-.4.52-.4.52a2,2,0,0,1-.42.41.93.93,0,0,1-.42.19,1.39,1.39,0,0,1-1-.28l-.34-.22c-.22-.13-.5-.31-.8-.46l-.82-.44L35,25.56l-.11,0A1.29,1.29,0,0,0,33,26.2l0,.11c0,.06-.07.16-.12.28s-.23.56-.36.87-.23.63-.3.86l-.13.4a1.72,1.72,0,0,1-.24.51.87.87,0,0,1-.33.33l.94,1.62a.87.87,0,0,0,.29-.31,1.87,1.87,0,0,0,.2-.51s.08-.3.17-.61c.05-.15.1-.31.13-.42l.07-.19s.1-.3.21-.6l.16-.42.08-.19a1.1,1.1,0,0,1,1.74-.63l.18.09.39.22.55.33.17.1.37.24.52.36a1.31,1.31,0,0,0,.91.31,1,1,0,0,0,.39-.19,2.57,2.57,0,0,0,.37-.41l.22-.32.24-.33.29-.37c.2-.25.41-.5.57-.68l.19-.23.08-.08a1.32,1.32,0,0,1,.93-.5,1.28,1.28,0,0,1,.91.5l.14.15.3.34.41.5.12.16c.08.09.17.21.27.34s.36.52.36.52a1.87,1.87,0,0,0,.37.41.78.78,0,0,0,.38.18,1.26,1.26,0,0,0,.92-.3l.51-.36L46.9,28l.17-.1s.27-.17.56-.33l.39-.22.13-.07.05,0a1.1,1.1,0,0,1,1.73.63l.08.19c.05.11.11.27.16.42.12.31.22.61.22.61l.06.19c0,.11.09.26.13.41.09.31.17.61.17.61a1.87,1.87,0,0,0,.2.51.81.81,0,0,0,.3.31.93.93,0,0,0,.42.11,2,2,0,0,0,.54-.08s.3-.09.61-.16l.42-.1.2,0,.64-.12.23,0,.21,0,.2,0a1.65,1.65,0,0,1,.59,0,.94.94,0,0,1,.44.2,1.35,1.35,0,0,1,.39,1s0,.66,0,1.29-.08,1.26-.08,1.26a1.24,1.24,0,0,0,.19,1,1,1,0,0,0,.35.24,2,2,0,0,0,.54.11h.2l.43,0,.63.09.2,0,.44.07.64.13a1.7,1.7,0,0,1,.55.2,1,1,0,0,1,.34.34,1.07,1.07,0,0,1,.13.48,1.61,1.61,0,0,1-.1.58l-.2.61c-.06.16-.11.3-.16.42l-.07.19-.24.59-.18.4-.08.18a1.12,1.12,0,0,0-.14.94,1.13,1.13,0,0,0,.71.63l0,0,.13.06.39.2.57.3.18.09.38.22.55.34a1.22,1.22,0,0,1,.65.83,1,1,0,0,1,0,.48,1.7,1.7,0,0,1-.3.51l-.4.51-.29.34-.14.15s-.21.24-.43.47-.21.23-.29.31l-.15.14a1.16,1.16,0,0,0-.45.84h1.87a1.32,1.32,0,0,1,.44-.92l.08-.08.2-.22c.16-.19.38-.44.59-.7l.32-.39.25-.34Z" transform="translate(-18.67 -15.92)"/><path class="cls-5" d="M52.58,46.25l-.11-.14-.25-.29c-.18-.2-.38-.39-.38-.39l-.1-.1-.26-.25-.39-.33-.45-.34-.47-.3-.41-.23-.3-.14-.11-.06a1.63,1.63,0,0,1-.37-.21,1.23,1.23,0,0,1-.23-.28.46.46,0,0,1-.07-.16.84.84,0,0,1,0-.17,1.54,1.54,0,0,1,0-.43v-.16c0-.11,0-.26,0-.44a7.91,7.91,0,0,0-.08-1.39A9.47,9.47,0,0,0,48.25,39l-.09-.27-.07-.21L48,38.35a1.6,1.6,0,0,0-.27-.46,1.37,1.37,0,0,0-.17-.17.9.9,0,0,0-.2-.14,1.41,1.41,0,0,0-.46-.17,1.81,1.81,0,0,0-.52,0l-.19,0-.5.1a5.67,5.67,0,0,0-.67.18,7.16,7.16,0,0,0-.74.25l-.68.31c-.22.11-.4.21-.56.31l-.37.24-.14.1a2,2,0,0,1-.37.21.86.86,0,0,1-.35.06.89.89,0,0,1-.35-.06,2,2,0,0,1-.37-.21l-.1-.08-.28-.18c-.11-.07-.25-.16-.4-.24l-.5-.25a8.94,8.94,0,0,0-1-.4l-.49-.14-.16,0-.37-.09-.37-.07-.18,0a1.56,1.56,0,0,0-.53,0,1.2,1.2,0,0,0-.46.16l-.2.14a1,1,0,0,0-.17.18,1.68,1.68,0,0,0-.27.45l-.12.33c-.07.2-.15.46-.22.72s-.13.52-.16.72-.06.32-.06.32,0,.26,0,.51,0,.51,0,.51v.15c0,.1,0,.22,0,.34s0,.24,0,.33l0,.15a2,2,0,0,1,0,.43A1.16,1.16,0,0,1,35,43a1.11,1.11,0,0,1-.07.16,1.2,1.2,0,0,1-.24.27,2.13,2.13,0,0,1-.37.22l-.13.06-.3.15-.29.16-.14.08-.42.27-.42.31-.12.1-.28.24-.27.25-.12.12s-.19.19-.37.4-.19.21-.26.29l-.11.13a1.93,1.93,0,0,0-.26.46,1.37,1.37,0,0,0-.09.49,1.27,1.27,0,0,0,.09.47,1.93,1.93,0,0,0,.26.46l.11.13a3.22,3.22,0,0,0,.26.29c.18.21.37.4.37.4l.12.12.27.25.28.24.12.1L33,50l.42.27.14.08.29.17.3.15.13.06a1.81,1.81,0,0,1,.37.22,1,1,0,0,1,.24.26,1.11,1.11,0,0,1,.07.16,1.16,1.16,0,0,1,0,.18A2,2,0,0,1,35,52l0,.15c0,.09,0,.21,0,.33s0,.24,0,.34v.15s0,.25,0,.51,0,.51,0,.51,0,.25.1.52.12.52.12.52v0s0,.07,0,.12a2.36,2.36,0,0,0,.11.36,3,3,0,0,0,.12.36l.06.17a1.54,1.54,0,0,0,.27.45,1,1,0,0,0,.17.18l.2.14a1.41,1.41,0,0,0,.46.17,1.57,1.57,0,0,0,.53,0l.18,0,.37-.07.37-.09.16,0,.52-.15c.26-.08.5-.18.5-.18h0l.11,0,.32-.15.31-.15.14-.08s.21-.11.42-.25l.28-.18.12-.09a1.51,1.51,0,0,1,.37-.2.76.76,0,0,1,.35-.07.71.71,0,0,1,.35.07,1.51,1.51,0,0,1,.37.2l.13.09a2.77,2.77,0,0,0,.28.18,3.81,3.81,0,0,0,.42.25l.14.08.31.15.32.15.15.06.31.12c.19.07.44.14.7.22s.54.13.74.16l.35.06a1.88,1.88,0,0,0,.53,0,1.44,1.44,0,0,0,.45-.17,1.37,1.37,0,0,0,.2-.13l.18-.18A1.93,1.93,0,0,0,48,56l.06-.16c0-.1.08-.23.12-.36s.08-.26.11-.36l0-.17s.05-.19.11-.48.06-.32.09-.5,0-.38.07-.56,0-.38,0-.56,0-.33,0-.47,0-.25,0-.33V52a1.54,1.54,0,0,1,0-.43,1.21,1.21,0,0,1,0-.18,1.11,1.11,0,0,1,.07-.16,1,1,0,0,1,.24-.27,1.37,1.37,0,0,1,.36-.21l.15-.07.39-.2.26-.15.29-.18c.2-.13.41-.28.61-.44a7.46,7.46,0,0,0,.59-.51c.18-.17.35-.34.49-.5s.25-.28.33-.38l.12-.15a1.38,1.38,0,0,0,.26-.45,1.36,1.36,0,0,0,.09-.48H50.44a.81.81,0,0,1-.09.37,1.14,1.14,0,0,1-.25.35L50,48l-.24.22a3.41,3.41,0,0,1-.36.29l-.11.09-.26.17c-.09.07-.19.12-.26.17l-.12.06-.38.21-.39.17a.9.9,0,0,1-.68,0,.43.43,0,0,1-.21-.19.71.71,0,0,1-.09-.31v-.12c0-.07,0-.17,0-.26s0-.18-.05-.25a1,1,0,0,1,0-.11.55.55,0,0,0-.15-.27.44.44,0,0,0-.26-.11.64.64,0,0,0-.28,0,.6.6,0,0,0-.22.17,1.66,1.66,0,0,0-.32.55l-.08.2a3.21,3.21,0,0,1-.21.41c0,.08-.09.15-.13.22l-.13.18-.09.12,0,0h0a1.47,1.47,0,0,0-.32.55.35.35,0,0,0,0,.14.66.66,0,0,0,0,.14.61.61,0,0,0,.12.26.38.38,0,0,0,.22.16A.26.26,0,0,0,45,51l.16,0,.11,0,.25-.08.24-.09.11,0a.52.52,0,0,1,.16-.06l.15,0a.49.49,0,0,1,.28.09.9.9,0,0,1,.32.6s0,.21,0,.42,0,.44,0,.44,0,.21,0,.44l0,.45s0,.06,0,.14,0,.2,0,.31-.05.23-.07.32l0,.14a1.13,1.13,0,0,1-.18.4.61.61,0,0,1-.12.15.57.57,0,0,1-.16.11.7.7,0,0,1-.36.12,1.36,1.36,0,0,1-.43,0l-.14,0-.31-.1-.3-.11-.13-.05-.41-.2c-.21-.1-.39-.21-.39-.21l-.12-.07-.25-.16-.23-.17L43,53.52a.88.88,0,0,1-.36-.58.46.46,0,0,1,.06-.28.63.63,0,0,1,.23-.23l.09-.07.21-.16.19-.17.08-.08a.51.51,0,0,0,.16-.27.42.42,0,0,0,0-.27.51.51,0,0,0-.17-.23.56.56,0,0,0-.26-.11,1.66,1.66,0,0,0-.63,0l-.21,0a3.33,3.33,0,0,1-.48,0,3.28,3.28,0,0,1-.47,0l-.21,0a1.89,1.89,0,0,0-.63,0,.56.56,0,0,0-.26.11.51.51,0,0,0-.17.23.42.42,0,0,0,0,.27.48.48,0,0,0,.16.27l.08.08.19.17.2.16.07,0,0,0a.84.84,0,0,1,.23.23.39.39,0,0,1,0,.28.9.9,0,0,1-.35.58l-.09.07-.23.17-.35.22c-.14.08-.28.16-.43.23l-.45.21-.42.16-.3.1-.12,0a1.12,1.12,0,0,1-.43,0,.77.77,0,0,1-.37-.12.91.91,0,0,1-.16-.11l-.12-.15a1.17,1.17,0,0,1-.18-.39l0-.12a2.74,2.74,0,0,1-.07-.32,4.3,4.3,0,0,1-.07-.43c0-.17,0-.33,0-.5s0-.33,0-.49,0-.29,0-.41,0-.4,0-.4a.88.88,0,0,1,.32-.6.44.44,0,0,1,.27-.09l.15,0,.17.06.11,0,.24.09.24.09.11,0,.17,0a.22.22,0,0,0,.14,0,.41.41,0,0,0,.23-.16.54.54,0,0,0,.11-.26.33.33,0,0,0,0-.14l0-.14a1.8,1.8,0,0,0-.32-.55h0l0,0-.1-.12-.12-.18c0-.07-.1-.14-.14-.22a4.1,4.1,0,0,1-.21-.42l-.05-.14,0-.05a1.49,1.49,0,0,0-.31-.55.76.76,0,0,0-.23-.17.62.62,0,0,0-.28,0,.47.47,0,0,0-.26.11.58.58,0,0,0-.14.27v0l0,.08c0,.07,0,.16-.05.25s0,.19,0,.26v.12a.81.81,0,0,1-.09.31.41.41,0,0,1-.22.19.9.9,0,0,1-.68,0l-.36-.16a5.65,5.65,0,0,1-.79-.45l-.4-.28-.35-.29L33.66,48l-.09-.09a1.38,1.38,0,0,1-.26-.35.94.94,0,0,1-.08-.36,1,1,0,0,1,.08-.38,1.38,1.38,0,0,1,.26-.35l.09-.09.23-.21a3.57,3.57,0,0,1,.35-.28c.13-.1.26-.2.4-.29a6.89,6.89,0,0,1,.79-.45l.36-.16a.9.9,0,0,1,.68,0,.41.41,0,0,1,.22.19.72.72,0,0,1,.08.32l0,.11a1.38,1.38,0,0,0,0,.26c0,.09,0,.18.05.25l0,.08v0a.58.58,0,0,0,.14.27.47.47,0,0,0,.26.11.51.51,0,0,0,.28,0,.63.63,0,0,0,.23-.17,1.44,1.44,0,0,0,.31-.54l0-.06.05-.14a4.1,4.1,0,0,1,.21-.42c0-.08.1-.15.14-.22l.12-.18.1-.12,0,0h0a1.8,1.8,0,0,0,.32-.55l0-.14a.33.33,0,0,0,0-.14.54.54,0,0,0-.11-.26.41.41,0,0,0-.23-.16.32.32,0,0,0-.14,0l-.17,0-.11,0-.24.08-.24.09-.11.05-.17.06a.39.39,0,0,1-.15,0,.34.34,0,0,1-.27-.09.83.83,0,0,1-.32-.6s0-.21,0-.42,0-.43,0-.43,0-.22,0-.45,0-.45,0-.45,0-.05,0-.14,0-.2.06-.31.05-.23.07-.32l0-.14a1.13,1.13,0,0,1,.18-.4,1,1,0,0,1,.12-.15.91.91,0,0,1,.16-.11.8.8,0,0,1,.36-.11,1.36,1.36,0,0,1,.44,0l.14,0,.31.1.29.11.14.06.41.19c.2.1.38.21.38.21l.12.07.25.16.24.17.11.08a.9.9,0,0,1,.35.58.39.39,0,0,1,0,.28.84.84,0,0,1-.23.23l0,0-.07.05a2.61,2.61,0,0,0-.2.17l-.19.16-.08.08a.55.55,0,0,0-.16.27.42.42,0,0,0,0,.27.54.54,0,0,0,.43.34,1.66,1.66,0,0,0,.63,0l.21,0a3.18,3.18,0,0,1,.47,0,3.33,3.33,0,0,1,.48,0l.15,0h.06a1.9,1.9,0,0,0,.63,0,.77.77,0,0,0,.26-.12.5.5,0,0,0,.16-.23.43.43,0,0,0,0-.27.55.55,0,0,0-.16-.27l-.08-.08-.19-.16L43,42,42.88,42a.63.63,0,0,1-.23-.23.46.46,0,0,1-.06-.28.88.88,0,0,1,.36-.58l.1-.08.24-.17.25-.16.12-.07s.18-.11.39-.21l.41-.2.13,0,.3-.11.31-.1.14,0a1.3,1.3,0,0,1,.43,0,.61.61,0,0,1,.36.11.91.91,0,0,1,.16.11,1,1,0,0,1,.12.15,1.17,1.17,0,0,1,.18.39l0,.15c0,.08.05.2.07.31s0,.23.06.32,0,.08,0,.1v0l0,.45c0,.23,0,.44,0,.44s0,.23,0,.44,0,.42,0,.42a.9.9,0,0,1-.32.6.49.49,0,0,1-.28.09l-.15,0a.52.52,0,0,1-.16-.06l-.11-.05-.25-.1-.24-.08-.11,0-.16,0a.26.26,0,0,0-.15,0,.38.38,0,0,0-.22.16.61.61,0,0,0-.12.26V44a.74.74,0,0,0,0,.14,1.72,1.72,0,0,0,.32.55v0l0,0,.09.12.13.18c0,.07.09.14.13.22a2.74,2.74,0,0,1,.21.42l.08.19a1.66,1.66,0,0,0,.32.55.6.6,0,0,0,.22.17.64.64,0,0,0,.28,0,.44.44,0,0,0,.26-.11.58.58,0,0,0,.15-.28v-.11c0-.06,0-.15.06-.24s0-.19,0-.26v-.12a.71.71,0,0,1,.09-.31.43.43,0,0,1,.21-.19.9.9,0,0,1,.68,0l.39.17.38.21.12.07.26.16.26.17.11.09a3.41,3.41,0,0,1,.36.29l.24.21.11.1a1.3,1.3,0,0,1,.25.36.84.84,0,0,1,.09.37h2.49a1.36,1.36,0,0,0-.09-.48A1.64,1.64,0,0,0,52.58,46.25Z" transform="translate(-18.67 -15.92)"/><path class="cls-4" d="M50.9,52.43c-.15.27-.15.45,0,.56s.35,0,.52-.25.14-.47-.05-.57S51.06,52.17,50.9,52.43Z" transform="translate(-18.67 -15.92)"/><path class="cls-4" d="M41.84,57.66c-.31,0-.46.1-.47.31s.14.32.47.32.47-.11.46-.32S42.14,57.66,41.84,57.66Z" transform="translate(-18.67 -15.92)"/><path class="cls-4" d="M32.76,52.43c-.15-.26-.31-.35-.5-.25s-.2.29,0,.56.34.36.51.25S32.91,52.69,32.76,52.43Z" transform="translate(-18.67 -15.92)"/><path class="cls-4" d="M32.76,42c.15-.26.15-.44,0-.56s-.35,0-.51.25-.14.47,0,.56S32.61,42.21,32.76,42Z" transform="translate(-18.67 -15.92)"/><path class="cls-4" d="M41.84,36.72c.29,0,.45-.1.46-.31s-.15-.32-.46-.32-.49.12-.48.32S41.52,36.72,41.84,36.72Z" transform="translate(-18.67 -15.92)"/><path class="cls-4" d="M50.9,42c.16.27.31.36.5.26s.21-.29,0-.58-.34-.35-.51-.24S50.75,41.68,50.9,42Z" transform="translate(-18.67 -15.92)"/><path class="cls-4" d="M48,47.19h-.63c0,.16.1.24.31.25S48,47.37,48,47.19Z" transform="translate(-18.67 -15.92)"/><path class="cls-4" d="M44.58,52c-.14.08-.16.2-.07.39s.23.24.38.15.17-.23.06-.41S44.71,51.87,44.58,52Z" transform="translate(-18.67 -15.92)"/><path class="cls-4" d="M39.09,52c-.14-.08-.26,0-.37.13s-.1.32.05.41.29,0,.39-.15S39.23,52,39.09,52Z" transform="translate(-18.67 -15.92)"/><path class="cls-4" d="M36.34,47.19c0-.16-.1-.25-.3-.26s-.32.08-.33.26.11.27.33.26S36.35,47.35,36.34,47.19Z" transform="translate(-18.67 -15.92)"/><path class="cls-4" d="M39.09,42.44c.13-.09.16-.21.06-.39s-.22-.25-.38-.16-.17.23-.05.41S39,42.51,39.09,42.44Z" transform="translate(-18.67 -15.92)"/><path class="cls-4" d="M44.58,42.43c.13.08.25,0,.37-.13s.1-.32-.06-.41-.28,0-.38.15S44.44,42.35,44.58,42.43Z" transform="translate(-18.67 -15.92)"/><path class="cls-4" d="M47.63,46.94c-.21,0-.31.09-.31.25H48C48,47,47.84,46.93,47.63,46.94Z" transform="translate(-18.67 -15.92)"/><polygon class="cls-4" points="23.2 28.14 24.41 29.41 26.12 29.83 25.62 31.52 26.12 33.21 24.41 33.62 23.2 34.9 21.98 33.62 20.27 33.21 20.77 31.52 20.27 29.83 21.98 29.41 23.2 28.14"/><polygon class="cls-6" points="23.2 29.16 24.04 30.05 25.23 30.34 24.89 31.52 25.23 32.7 24.04 32.98 23.2 33.87 22.35 32.98 21.15 32.7 21.5 31.52 21.15 30.34 22.35 30.05 23.2 29.16"/><path class="cls-2" d="M42.26,47.51a.45.45,0,1,1-.44-.45A.44.44,0,0,1,42.26,47.51Z" transform="translate(-18.67 -15.92)"/><path class="cls-2" d="M34.74,158.15s.08.3.17.6l.13.41.07.18a1.15,1.15,0,0,0,.62.75,1.17,1.17,0,0,0,1-.17,1.06,1.06,0,0,0,.17-.1l.37-.23.51-.34.16-.11.34-.25.49-.36a1.07,1.07,0,0,1,.82-.31.67.67,0,0,1,.34.18,1.68,1.68,0,0,1,.33.39l.33.51a3.86,3.86,0,0,0,.24.34l.11.16.37.5.26.34.12.15a1.19,1.19,0,0,0,.85.49,1.17,1.17,0,0,0,.84-.49l.12-.15c.08-.09.17-.22.27-.34l.37-.5.11-.16.24-.34.33-.51a1.45,1.45,0,0,1,.32-.39.69.69,0,0,1,.35-.18,1.1,1.1,0,0,1,.83.31l.48.36c.12.09.24.19.34.25l.15.11.52.34.36.23.17.1a1.2,1.2,0,0,0,1,.17,1.18,1.18,0,0,0,.62-.74l0-.1c0-.07.06-.16.1-.28s.16-.52.24-.81.16-.6.21-.82l.08-.37a1.67,1.67,0,0,1,.17-.48.67.67,0,0,1,.26-.29.7.7,0,0,1,.39-.08,1.43,1.43,0,0,1,.5.09l.36.11.38.12.43.11.83.2.39.07a1.65,1.65,0,0,0,.54,0,.9.9,0,0,0,.41-.18,1.1,1.1,0,0,0,.33-.91s0-.64,0-1.24-.13-1.22-.13-1.22a1,1,0,0,1,.15-.87.76.76,0,0,1,.32-.22,2.09,2.09,0,0,1,.5-.08h.39l.83-.06.46,0,.39-.06.39-.06a1.52,1.52,0,0,0,.52-.17.84.84,0,0,0,.31-.31.86.86,0,0,0,.12-.43,1.73,1.73,0,0,0-.11-.55s-.11-.29-.23-.58l-.17-.39-.08-.18-.26-.55-.19-.36-.09-.17a1.05,1.05,0,0,1-.15-.87,1,1,0,0,1,.68-.56l0,0,.12,0,.38-.17.56-.26.17-.08.38-.19.55-.3a1.11,1.11,0,0,0,.62-.74.78.78,0,0,0,0-.45,1.34,1.34,0,0,0-.29-.47s-.2-.24-.41-.47l-.3-.31-.13-.14-.44-.43c-.11-.1-.21-.21-.3-.28l-.14-.13a1,1,0,0,1-.44-.76H57.61c0,.22.14.44.44.68l.15.11.3.26.43.39.14.13.3.28.42.43a1.4,1.4,0,0,1,.3.43.8.8,0,0,1,0,.4,1,1,0,0,1-.6.67l-.55.25a2.92,2.92,0,0,1-.37.17l-.17.07-.55.22-.37.14-.12,0,0,0c-.37.12-.58.27-.65.48a.9.9,0,0,0,.19.79l.09.16.2.34c.14.25.27.51.27.51l.09.17a4,4,0,0,1,.18.36c.13.27.25.55.25.55a1.37,1.37,0,0,1,.13.51.71.71,0,0,1-.1.39.66.66,0,0,1-.29.28,1.57,1.57,0,0,1-.5.14l-.37,0-.38,0L56,151c-.3,0-.59,0-.8,0h-.37a1.68,1.68,0,0,0-.48.05.69.69,0,0,0-.3.18A.93.93,0,0,0,54,152s.11.56.19,1.15.11,1.19.11,1.19a1.05,1.05,0,0,1-.27.86.76.76,0,0,1-.38.15,1.32,1.32,0,0,1-.51,0l-.37-.08L52,155l-.4-.13-.36-.13-.34-.13a1.32,1.32,0,0,0-.47-.11.67.67,0,0,0-.35.06.6.6,0,0,0-.22.27,1.57,1.57,0,0,0-.14.46l0,.36c0,.22-.09.51-.16.79s-.14.58-.19.8-.06.2-.08.26l0,.1a1,1,0,0,1-.54.71,1.08,1.08,0,0,1-.89-.19l-.15-.11-.34-.24c-.25-.17-.48-.35-.48-.35l-.14-.11-.32-.26-.43-.37a1,1,0,0,0-.76-.33.6.6,0,0,0-.3.18,1.34,1.34,0,0,0-.28.38l-.29.51-.21.34-.1.15-.33.5-.24.34-.11.15a.84.84,0,0,1-1.53,0l-.11-.15-.23-.34-.33-.5-.1-.15c-.06-.09-.14-.21-.21-.34l-.29-.51a1.56,1.56,0,0,0-.28-.38.59.59,0,0,0-.31-.18,1,1,0,0,0-.74.33l-.44.37-.32.26-.15.11-.47.35-.34.24-.16.11a.84.84,0,0,1-1.43-.52l0-.18-.1-.41c-.08-.29-.14-.57-.14-.57l0-.18c0-.11-.05-.25-.08-.4s-.1-.57-.1-.57a1.59,1.59,0,0,0-.13-.46.57.57,0,0,0-.23-.27L34,156.2a.69.69,0,0,1,.27.29,1.42,1.42,0,0,1,.16.48l.14.59c0,.15.07.3.11.41Z" transform="translate(-18.67 -15.92)"/><path class="cls-3" d="M34,159.85s.1.3.21.6l.16.42.07.19a1.31,1.31,0,0,0,.7.78,1.28,1.28,0,0,0,1-.14l.18-.1.39-.22c.29-.16.56-.33.56-.33l.17-.1.37-.24.52-.36a1.24,1.24,0,0,1,.91-.3.72.72,0,0,1,.38.19,1.42,1.42,0,0,1,.36.4l.37.52.27.35.13.15.41.5.29.34.13.15a1.32,1.32,0,0,0,.93.5,1.3,1.3,0,0,0,.92-.5l.14-.15.29-.34.41-.5.12-.15.27-.35.37-.52a1.8,1.8,0,0,1,.36-.4.75.75,0,0,1,.39-.19,1.25,1.25,0,0,1,.91.3l.32.23c.2.13.47.31.74.47s.55.33.76.45l.26.15.1,0a1.37,1.37,0,0,0,1,.15,1.29,1.29,0,0,0,.69-.79l.08-.18c0-.12.1-.27.16-.43l.22-.61.06-.18c0-.11.08-.27.13-.42.09-.31.17-.61.17-.61a1.88,1.88,0,0,1,.19-.51.89.89,0,0,1,.3-.31.82.82,0,0,1,.42-.1,1.66,1.66,0,0,1,.55.08l.61.16.42.09.2,0,.63.12.24,0,.21,0,.2,0a1.87,1.87,0,0,0,.58,0,.86.86,0,0,0,.44-.21,1.25,1.25,0,0,0,.39-1s0-.33,0-.65,0-.65,0-.65,0-.32,0-.64l0-.62a1.17,1.17,0,0,1,.19-1,.91.91,0,0,1,.35-.24,2,2,0,0,1,.54-.11H58l.2,0,.23,0,.63-.09.2,0,.44-.07.63-.14a1.68,1.68,0,0,0,.56-.2,1,1,0,0,0,.33-.34,1,1,0,0,0,.14-.47,1.7,1.7,0,0,0-.1-.59l-.13-.38c-.08-.23-.18-.53-.3-.83s-.25-.59-.34-.81l-.12-.26,0-.09a1.25,1.25,0,0,1-.14-1,1.18,1.18,0,0,1,.72-.63l0,0,.13-.06.39-.2.56-.3.18-.09.38-.22.56-.34a1.23,1.23,0,0,0,.65-.82,1.18,1.18,0,0,0,0-.49,1.66,1.66,0,0,0-.29-.51s-.2-.26-.41-.51-.2-.24-.29-.33l-.13-.15s-.21-.25-.43-.48-.21-.23-.3-.31l-.14-.14a1.14,1.14,0,0,1-.45-.84H59.48a1,1,0,0,0,.44.76l.14.13c.09.07.19.18.3.28l.44.43.13.14.3.31c.21.23.41.47.41.47a1.34,1.34,0,0,1,.29.47.78.78,0,0,1,0,.45,1.11,1.11,0,0,1-.62.74l-.55.3-.38.19-.17.08-.56.26-.38.17-.12,0,0,0a1,1,0,0,0-.68.56,1.05,1.05,0,0,0,.15.87l.09.17.19.36.26.55.08.18.17.39c.12.29.23.58.23.58a1.73,1.73,0,0,1,.11.55.86.86,0,0,1-.12.43.84.84,0,0,1-.31.31,1.52,1.52,0,0,1-.52.17l-.39.06L58,152l-.46,0-.83.06h-.39a2.09,2.09,0,0,0-.5.08.76.76,0,0,0-.32.22,1,1,0,0,0-.15.87s.08.59.13,1.22,0,1.24,0,1.24a1.1,1.1,0,0,1-.33.91.9.9,0,0,1-.41.18,1.65,1.65,0,0,1-.54,0l-.39-.07-.83-.2-.43-.11-.38-.12-.36-.11a1.43,1.43,0,0,0-.5-.09.7.7,0,0,0-.39.08.67.67,0,0,0-.26.29,1.67,1.67,0,0,0-.17.48l-.08.37c0,.22-.12.53-.21.82s-.17.59-.24.81-.07.21-.1.28l0,.1a1.18,1.18,0,0,1-.62.74,1.2,1.2,0,0,1-1-.17l-.17-.1-.36-.23-.52-.34-.15-.11c-.1-.06-.22-.16-.34-.25l-.48-.36a1.1,1.1,0,0,0-.83-.31.69.69,0,0,0-.35.18,1.45,1.45,0,0,0-.32.39l-.33.51-.24.34-.11.16-.37.5c-.1.12-.19.25-.27.34l-.12.15a1.17,1.17,0,0,1-.84.49,1.19,1.19,0,0,1-.85-.49l-.12-.15-.26-.34-.37-.5-.11-.16a3.86,3.86,0,0,1-.24-.34l-.33-.51a1.68,1.68,0,0,0-.33-.39.67.67,0,0,0-.34-.18,1.07,1.07,0,0,0-.82.31l-.49.36-.34.25-.16.11-.51.34-.37.23a1.06,1.06,0,0,1-.17.1,1.17,1.17,0,0,1-1,.17,1.15,1.15,0,0,1-.62-.75l-.07-.18-.13-.41c-.09-.3-.17-.6-.17-.6l-.05-.18c0-.11-.07-.26-.11-.41l-.14-.59a1.42,1.42,0,0,0-.16-.48.69.69,0,0,0-.27-.29l-.93,1.61a.81.81,0,0,1,.3.31,1.87,1.87,0,0,1,.2.51s.08.3.17.61c0,.15.09.31.13.42Z" transform="translate(-18.67 -15.92)"/><path class="cls-4" d="M33.68,162.79a1.28,1.28,0,0,0,1.89.69l.11,0,.28-.14.82-.43c.29-.16.58-.34.79-.47l.35-.22a1.42,1.42,0,0,1,1-.28,1.09,1.09,0,0,1,.43.19,1.74,1.74,0,0,1,.4.41l.25.32.27.34.32.37.63.69c.08.1.16.17.21.23l.08.08a1.28,1.28,0,0,0,2,0l.08-.08.22-.23.62-.69.32-.37.27-.34.25-.32a2.24,2.24,0,0,1,.4-.41,1.09,1.09,0,0,1,.43-.19,1.44,1.44,0,0,1,1,.28l.56.35.4.24.18.1.59.32.42.21.19.09a1.51,1.51,0,0,0,1.12.11,1.49,1.49,0,0,0,.78-.8l.09-.19.18-.43c.14-.32.26-.63.26-.63l.07-.2a4.18,4.18,0,0,0,.15-.43l.21-.63a1.67,1.67,0,0,1,.24-.52,1,1,0,0,1,.33-.33,1.08,1.08,0,0,1,.46-.13,2.44,2.44,0,0,1,.57,0l.64.15.45.08.21,0,.67.1.25,0,.22,0h.21a1.73,1.73,0,0,0,.61,0,1.22,1.22,0,0,0,.47-.23,1.43,1.43,0,0,0,.45-1s0-.34,0-.68,0-.67,0-.67,0-.34,0-.68l0-.65a1.37,1.37,0,0,1,.25-1,1.11,1.11,0,0,1,.38-.28,1.7,1.7,0,0,1,.55-.14l.21,0,.21,0,.24,0,.66-.11.2,0,.46-.1.66-.17a2.13,2.13,0,0,0,.57-.24,1.15,1.15,0,0,0,.35-.38,1.23,1.23,0,0,0,.16-.5,1.72,1.72,0,0,0-.07-.62s-.09-.33-.19-.65l-.14-.44-.07-.2s-.11-.32-.23-.63l-.17-.42-.08-.19a1.42,1.42,0,0,1-.1-1,1.36,1.36,0,0,1,.73-.71l.11-.05.26-.14.8-.46c.29-.17.57-.35.78-.5l.36-.24a1.37,1.37,0,0,0,.65-.9,1.2,1.2,0,0,0,0-.53,1.69,1.69,0,0,0-.28-.55l-.25-.35-.26-.34-.31-.39c-.21-.26-.43-.51-.59-.7l-.2-.22-.08-.08a1.32,1.32,0,0,1-.44-.92H61.34a1.14,1.14,0,0,0,.45.84l.14.14c.09.08.19.2.3.31s.43.48.43.48l.13.15c.09.09.19.21.29.33s.41.51.41.51a1.66,1.66,0,0,1,.29.51,1.18,1.18,0,0,1,0,.49,1.23,1.23,0,0,1-.65.82l-.56.34-.38.22-.18.09-.56.3-.39.2-.13.06,0,0a1.18,1.18,0,0,0-.72.63,1.25,1.25,0,0,0,.14,1l0,.09.12.26c.09.22.22.51.34.81s.22.6.3.83l.13.38a1.7,1.7,0,0,1,.1.59,1,1,0,0,1-.14.47,1,1,0,0,1-.33.34,1.68,1.68,0,0,1-.56.2l-.63.14-.44.07-.2,0-.63.09-.23,0-.2,0h-.2a2,2,0,0,0-.54.11.91.91,0,0,0-.35.24,1.17,1.17,0,0,0-.19,1l0,.62c0,.32,0,.64,0,.64s0,.32,0,.65,0,.65,0,.65a1.25,1.25,0,0,1-.39,1,.86.86,0,0,1-.44.21,1.87,1.87,0,0,1-.58,0l-.2,0-.21,0-.24,0-.63-.12-.2,0-.42-.09-.61-.16a1.66,1.66,0,0,0-.55-.08.82.82,0,0,0-.42.1.89.89,0,0,0-.3.31,1.88,1.88,0,0,0-.19.51s-.08.3-.17.61c0,.15-.09.31-.13.42l-.06.18-.22.61c-.06.16-.12.31-.16.43l-.08.18a1.29,1.29,0,0,1-.69.79,1.37,1.37,0,0,1-1-.15l-.1,0-.26-.15c-.21-.12-.49-.28-.76-.45s-.54-.34-.74-.47l-.32-.23a1.25,1.25,0,0,0-.91-.3.75.75,0,0,0-.39.19,1.8,1.8,0,0,0-.36.4l-.37.52-.27.35-.12.15-.41.5-.29.34-.14.15a1.3,1.3,0,0,1-.92.5,1.32,1.32,0,0,1-.93-.5l-.13-.15-.29-.34-.41-.5-.13-.15-.27-.35-.37-.52a1.42,1.42,0,0,0-.36-.4.72.72,0,0,0-.38-.19,1.24,1.24,0,0,0-.91.3l-.52.36-.37.24-.17.1s-.27.17-.56.33l-.39.22-.18.1a1.28,1.28,0,0,1-1,.14,1.31,1.31,0,0,1-.7-.78l-.07-.19-.16-.42c-.11-.3-.21-.6-.21-.6l-.07-.19c0-.11-.08-.27-.13-.42-.09-.31-.17-.61-.17-.61a1.87,1.87,0,0,0-.2-.51.81.81,0,0,0-.3-.31l-.93,1.62a1,1,0,0,1,.33.33,2.3,2.3,0,0,1,.24.52l.12.39c.08.24.19.56.31.86s.25.63.35.87.1.22.13.28Z" transform="translate(-18.67 -15.92)"/><path class="cls-2" d="M32,126.45l-.6-.14-.42-.09-.19,0a1.47,1.47,0,0,0-.55,0,.81.81,0,0,0-.41.18,1.15,1.15,0,0,0-.34.91s0,.32,0,.63,0,.62,0,.62l.06.61c0,.3.07.6.07.6a1.06,1.06,0,0,1-.14.87.85.85,0,0,1-.33.21,1.41,1.41,0,0,1-.5.08h-.61l-.61.06h-.19l-.43.05-.61.09a1.83,1.83,0,0,0-.53.18,1,1,0,0,0-.32.31.89.89,0,0,0-.11.43,1.62,1.62,0,0,0,.11.54s.11.3.23.58.12.29.17.39l.08.18.26.56.18.37.09.17a1,1,0,0,1,.16.86c-.07.23-.3.41-.68.57l-.17.07-.38.16-.56.25-.17.09-.38.19-.55.29a1.11,1.11,0,0,0-.62.76.75.75,0,0,0,0,.44,1.43,1.43,0,0,0,.29.47l.25.29.27.3.32.33c.21.22.43.43.6.58l.2.19.08.07a.88.88,0,0,1,0,1.52l-.08.07-.2.19c-.17.15-.39.36-.6.58l-.32.33-.27.3-.25.29a1.43,1.43,0,0,0-.29.47.75.75,0,0,0,0,.44,1.11,1.11,0,0,0,.61.75l.35.19c.21.11.47.25.76.38s.56.26.76.35l.25.11.1,0a1,1,0,0,1,.68.57,1,1,0,0,1-.16.86l-.05.1-.12.24c-.1.2-.24.47-.37.76s-.24.56-.33.78l-.14.37a1.62,1.62,0,0,0-.11.54.89.89,0,0,0,.11.43,1,1,0,0,0,.32.31,1.73,1.73,0,0,0,.53.18l.61.09.43.05h.19l.61.05.41,0h.19a1.73,1.73,0,0,1,.51.09.85.85,0,0,1,.33.21,1.06,1.06,0,0,1,.14.87s0,.3-.07.6l-.06.61s0,.31,0,.62,0,.63,0,.63a1.15,1.15,0,0,0,.34.91.9.9,0,0,0,.41.18,1.47,1.47,0,0,0,.55,0l.19,0,.42-.09.6-.14.19-.05.4-.11.58-.18a1.71,1.71,0,0,1,.5-.09.65.65,0,0,1,.38.08l.94-1.62a.61.61,0,0,0-.34-.06,1.32,1.32,0,0,0-.47.11l-.55.21-.38.12L33,155l-.57.18-.4.1-.18.05a1.59,1.59,0,0,1-.52,0,.69.69,0,0,1-.38-.16,1,1,0,0,1-.27-.85s0-.31.05-.6l.06-.59s0-.3.09-.59L31,152a.9.9,0,0,0-.09-.81.65.65,0,0,0-.3-.19,1.68,1.68,0,0,0-.48-.05h-.58L29,151H28.8l-.41,0-.6-.06a1.57,1.57,0,0,1-.5-.14.82.82,0,0,1-.3-.28.83.83,0,0,1-.09-.39,1.37,1.37,0,0,1,.13-.51l.15-.34c.09-.21.22-.47.36-.74l.39-.7a2.09,2.09,0,0,1,.13-.23l.05-.08a.9.9,0,0,0,.19-.79c-.07-.21-.28-.37-.65-.49l-.1,0-.24-.09c-.21-.07-.48-.18-.76-.29s-.53-.24-.74-.33l-.34-.17a.94.94,0,0,1-.6-.66.8.8,0,0,1,0-.4,1.53,1.53,0,0,1,.3-.43l.26-.27.27-.27.32-.3.61-.53.2-.16.08-.07c.3-.24.45-.46.44-.68s-.14-.44-.44-.68l-.08-.07-.2-.16-.61-.53-.32-.3-.27-.27-.26-.27a1.53,1.53,0,0,1-.3-.43.8.8,0,0,1,0-.4,1,1,0,0,1,.6-.67l.55-.26.37-.16.17-.07.55-.22.37-.13.17-.06c.37-.13.58-.28.65-.49a.9.9,0,0,0-.19-.79l-.09-.15-.2-.35c-.14-.25-.27-.52-.27-.52l-.09-.16c-.05-.1-.12-.23-.18-.37s-.25-.54-.25-.54a1.37,1.37,0,0,1-.13-.51.8.8,0,0,1,.09-.39.81.81,0,0,1,.3-.28,1.4,1.4,0,0,1,.5-.14l.6-.06.41,0H29l.59,0h.58a1.72,1.72,0,0,0,.48,0,.65.65,0,0,0,.3-.19A.9.9,0,0,0,31,131l-.1-.56c-.05-.29-.09-.59-.09-.59l-.06-.59c0-.29-.05-.6-.05-.6a1,1,0,0,1,.28-.86.57.57,0,0,1,.37-.15,1.59,1.59,0,0,1,.52,0l.18,0,.4.1L33,128l.17,0,.38.12.55.21a1.32,1.32,0,0,0,.47.11.61.61,0,0,0,.34-.06L34,126.8a.65.65,0,0,1-.38.08,1.71,1.71,0,0,1-.5-.09l-.58-.18-.4-.11Z" transform="translate(-18.67 -15.92)"/><path class="cls-3" d="M30.89,124.92l-.63-.12-.45-.07-.2,0a1.86,1.86,0,0,0-.58,0,.94.94,0,0,0-.44.2,1.3,1.3,0,0,0-.39,1s0,.33,0,.65,0,.64,0,.64,0,.33,0,.65,0,.63,0,.63a1.15,1.15,0,0,1-.19.93.93.93,0,0,1-.35.25,1.86,1.86,0,0,1-.54.1l-.19,0-.21,0-.23,0-.63.09-.2,0-.44.07-.63.13a1.76,1.76,0,0,0-.56.2,1.16,1.16,0,0,0-.34.36,1.12,1.12,0,0,0-.13.46,1.61,1.61,0,0,0,.1.58s.1.31.21.62c.05.15.11.3.15.41l.08.19s.11.3.24.59l.17.4.08.18a1.17,1.17,0,0,1,.15.94,1.19,1.19,0,0,1-.72.64l-.1.05-.26.12-.77.4c-.29.15-.56.31-.77.44l-.35.21a1.29,1.29,0,0,0-.65.83,1,1,0,0,0,0,.49,1.92,1.92,0,0,0,.29.51s.2.26.41.51l.28.34.14.15s.21.24.43.47l.3.31.14.14a1,1,0,0,1,0,1.68l-.14.14-.3.31c-.22.23-.43.47-.43.47l-.14.15-.28.34c-.21.25-.41.51-.41.51a1.92,1.92,0,0,0-.29.51,1,1,0,0,0,0,.49,1.25,1.25,0,0,0,.65.82l.56.34.38.22.18.1.56.29.39.19.18.09a1,1,0,0,1,.57,1.58l-.08.18-.17.39c-.13.29-.25.59-.25.59l-.07.19c0,.11-.1.27-.15.42-.11.3-.21.62-.21.62a1.61,1.61,0,0,0-.1.58,1,1,0,0,0,.13.46,1,1,0,0,0,.34.35,1.93,1.93,0,0,0,.56.21l.4.08.4.08.47.07.86.11.4,0a2,2,0,0,1,.54.11.93.93,0,0,1,.35.25,1.15,1.15,0,0,1,.19.93l0,.63c0,.32,0,.65,0,.65s0,.31,0,.64,0,.65,0,.65a1.3,1.3,0,0,0,.38,1,.94.94,0,0,0,.45.21,1.86,1.86,0,0,0,.58,0l.2,0,.45-.07.63-.12.19,0,.43-.09.62-.16a1.57,1.57,0,0,1,.54-.08.76.76,0,0,1,.41.1L34,156.2a.65.65,0,0,0-.38-.08,1.71,1.71,0,0,0-.5.09l-.58.18-.4.11-.19.05-.6.14-.42.09-.19,0a1.47,1.47,0,0,1-.55,0,.9.9,0,0,1-.41-.18,1.15,1.15,0,0,1-.34-.91s0-.32,0-.63,0-.62,0-.62l.06-.61c0-.3.07-.6.07-.6a1.06,1.06,0,0,0-.14-.87.85.85,0,0,0-.33-.21,1.73,1.73,0,0,0-.51-.09h-.19l-.41,0-.61-.05h-.19l-.43-.05-.61-.09a1.73,1.73,0,0,1-.53-.18,1,1,0,0,1-.32-.31.89.89,0,0,1-.11-.43,1.62,1.62,0,0,1,.11-.54l.14-.37c.09-.22.2-.5.33-.78s.27-.56.37-.76l.12-.24.05-.1a1,1,0,0,0,.16-.86,1,1,0,0,0-.68-.57l-.1,0-.25-.11c-.2-.09-.48-.21-.76-.35s-.55-.27-.76-.38l-.35-.19a1.11,1.11,0,0,1-.61-.75.75.75,0,0,1,0-.44,1.43,1.43,0,0,1,.29-.47l.25-.29.27-.3.32-.33c.21-.22.43-.43.6-.58l.2-.19.08-.07a.88.88,0,0,0,0-1.52l-.08-.07-.2-.19c-.17-.15-.39-.36-.6-.58l-.32-.33-.27-.3-.25-.29a1.43,1.43,0,0,1-.29-.47.75.75,0,0,1,0-.44,1.11,1.11,0,0,1,.62-.76l.55-.29.38-.19.17-.09.56-.25.38-.16.17-.07c.38-.16.61-.34.68-.57a1,1,0,0,0-.16-.86l-.09-.17-.18-.37-.26-.56-.08-.18c-.05-.1-.11-.24-.17-.39s-.23-.58-.23-.58a1.62,1.62,0,0,1-.11-.54.89.89,0,0,1,.11-.43,1,1,0,0,1,.32-.31,1.83,1.83,0,0,1,.53-.18l.61-.09.43-.05h.19l.61-.06h.61a1.41,1.41,0,0,0,.5-.08.85.85,0,0,0,.33-.21,1.06,1.06,0,0,0,.14-.87s0-.3-.07-.6l-.06-.61s0-.31,0-.62,0-.63,0-.63a1.15,1.15,0,0,1,.34-.91.81.81,0,0,1,.41-.18,1.47,1.47,0,0,1,.55,0l.19,0,.42.09.6.14.19,0,.4.11.58.18a1.71,1.71,0,0,0,.5.09.65.65,0,0,0,.38-.08l-.93-1.61a.76.76,0,0,1-.41.1,1.57,1.57,0,0,1-.54-.08l-.62-.16-.43-.09Z" transform="translate(-18.67 -15.92)"/><path class="cls-4" d="M28.47,123.22a1.73,1.73,0,0,0-.61,0,1.09,1.09,0,0,0-.47.23,1.48,1.48,0,0,0-.46,1s-.05.7-.06,1.36,0,1.33,0,1.33a1.36,1.36,0,0,1-.25,1,1.09,1.09,0,0,1-.38.27,1.9,1.9,0,0,1-.55.15l-.41,0c-.24,0-.57.09-.9.16l-.49.09-.42.1-.42.1a1.86,1.86,0,0,0-.57.25,1.12,1.12,0,0,0-.36.39,1.28,1.28,0,0,0-.15.49,1.72,1.72,0,0,0,.07.62l.12.41c.07.24.17.56.28.88s.23.64.32.86l.11.28.05.11a1.32,1.32,0,0,1,.1,1,1.38,1.38,0,0,1-.74.73l-.18.09-.4.22-.58.33-.18.1-.39.25-.57.38a1.46,1.46,0,0,0-.65.91,1.15,1.15,0,0,0,0,.52,1.59,1.59,0,0,0,.28.55l.4.56a4.15,4.15,0,0,0,.28.36l.13.17.44.51c.11.12.21.25.3.34l.14.15a1.18,1.18,0,0,1,0,1.84l-.14.15-.3.34-.44.51-.13.17a4.15,4.15,0,0,0-.28.36l-.4.56a1.65,1.65,0,0,0-.28.54,1.2,1.2,0,0,0,0,.53,1.41,1.41,0,0,0,.65.9l.57.38a4.07,4.07,0,0,0,.39.25l.18.11.58.33.4.22.18.09a1.35,1.35,0,0,1,.74.73,1.37,1.37,0,0,1-.1,1l-.09.19-.16.42c-.12.31-.23.63-.23.63l-.07.2-.14.45c-.1.32-.19.65-.19.65a1.69,1.69,0,0,0-.07.61,1.28,1.28,0,0,0,.15.5,1.33,1.33,0,0,0,.36.39,2.51,2.51,0,0,0,.57.25l.66.16.45.09.21,0,.66.12.45.06.2,0a2,2,0,0,1,.56.15,1.25,1.25,0,0,1,.38.28,1.36,1.36,0,0,1,.25,1s0,.65,0,1.33.06,1.36.06,1.36a1.44,1.44,0,0,0,.46,1,1,1,0,0,0,.47.24,1.73,1.73,0,0,0,.61,0l.43,0,.92-.13.48-.08.42-.09.41-.08a1.65,1.65,0,0,1,.57-.05.94.94,0,0,1,.45.12l.93-1.62a.76.76,0,0,0-.41-.1,1.57,1.57,0,0,0-.54.08l-.62.16-.43.09-.19,0-.63.12-.45.07-.2,0a1.86,1.86,0,0,1-.58,0,.94.94,0,0,1-.45-.21,1.3,1.3,0,0,1-.38-1s0-.33,0-.65,0-.64,0-.64,0-.33,0-.65l0-.63a1.15,1.15,0,0,0-.19-.93.93.93,0,0,0-.35-.25,2,2,0,0,0-.54-.11l-.4,0-.86-.11-.47-.07-.4-.08-.4-.08a1.93,1.93,0,0,1-.56-.21,1,1,0,0,1-.34-.35,1,1,0,0,1-.13-.46,1.61,1.61,0,0,1,.1-.58s.1-.32.21-.62c.05-.15.1-.31.15-.42l.07-.19s.12-.3.25-.59l.17-.39.08-.18a1,1,0,0,0-.57-1.58l-.18-.09-.39-.19-.56-.29-.18-.1-.38-.22-.56-.34a1.25,1.25,0,0,1-.65-.82,1,1,0,0,1,0-.49,1.92,1.92,0,0,1,.29-.51s.2-.26.41-.51l.28-.34.14-.15s.21-.24.43-.47l.3-.31.14-.14a1,1,0,0,0,0-1.68l-.14-.14-.3-.31c-.22-.23-.43-.47-.43-.47l-.14-.15-.28-.34c-.21-.25-.41-.51-.41-.51a1.92,1.92,0,0,1-.29-.51,1,1,0,0,1,0-.49,1.29,1.29,0,0,1,.65-.83l.35-.21c.21-.13.48-.29.77-.44l.77-.4.26-.12.1-.05a1.19,1.19,0,0,0,.72-.64,1.17,1.17,0,0,0-.15-.94l-.08-.18-.17-.4c-.13-.29-.24-.59-.24-.59l-.08-.19c0-.11-.1-.26-.15-.41-.11-.31-.21-.62-.21-.62a1.61,1.61,0,0,1-.1-.58,1.12,1.12,0,0,1,.13-.46,1.16,1.16,0,0,1,.34-.36,1.76,1.76,0,0,1,.56-.2l.63-.13.44-.07.2,0,.63-.09.23,0,.21,0,.19,0a1.86,1.86,0,0,0,.54-.1.93.93,0,0,0,.35-.25,1.15,1.15,0,0,0,.19-.93s0-.31,0-.63,0-.65,0-.65,0-.31,0-.64,0-.65,0-.65a1.3,1.3,0,0,1,.39-1,.94.94,0,0,1,.44-.2,1.86,1.86,0,0,1,.58,0l.2,0,.45.07.63.12.19,0,.43.09.62.16a1.57,1.57,0,0,0,.54.08.76.76,0,0,0,.41-.1l-.93-1.62a.94.94,0,0,1-.45.12,1.65,1.65,0,0,1-.57,0l-.41-.08-.42-.09-.48-.08-.92-.13Z" transform="translate(-18.67 -15.92)"/><path class="cls-2" d="M60.8,139.9l.13-.14.3-.31c.21-.23.41-.47.41-.47a1.34,1.34,0,0,0,.29-.47.85.85,0,0,0,0-.44,1.15,1.15,0,0,0-.63-.75l-.55-.3-.38-.19-.17-.08-.56-.26-.38-.17-.12,0,0,0a.86.86,0,0,1-.52-1.42l.09-.17.18-.37.26-.55.08-.18.17-.39c.12-.29.23-.58.23-.58a1.44,1.44,0,0,0,.11-.54.81.81,0,0,0-.12-.44.84.84,0,0,0-.31-.31,1.52,1.52,0,0,0-.52-.17l-.62-.09a3.8,3.8,0,0,0-.43,0l-.19,0-.61-.05-.42,0h-.19a2.18,2.18,0,0,1-.5-.08.76.76,0,0,1-.32-.22,1,1,0,0,1-.15-.87s0-.3.07-.6l.06-.61,0-.61,0-.63a1.15,1.15,0,0,0-.34-.92.9.9,0,0,0-.41-.18,1.65,1.65,0,0,0-.54,0l-.39.07-.83.2-.43.11-.38.12-.36.11a1.43,1.43,0,0,1-.5.09.65.65,0,0,1-.38-.08.69.69,0,0,1-.27-.29,1.67,1.67,0,0,1-.17-.48l-.08-.37c0-.22-.12-.53-.21-.82s-.17-.59-.24-.82-.07-.2-.1-.27l0-.1a1.18,1.18,0,0,0-.62-.74,1.17,1.17,0,0,0-1,.17l-.09,0-.24.15-.72.47c-.25.17-.5.36-.68.49l-.3.23a1.07,1.07,0,0,1-.83.31.69.69,0,0,1-.35-.18,1.45,1.45,0,0,1-.32-.39l-.2-.32-.22-.33-.26-.36-.51-.69-.18-.22-.07-.08a1.17,1.17,0,0,0-.84-.49,1.23,1.23,0,0,0-.85.49l-.12.15-.26.34-.37.5-.11.16a3.86,3.86,0,0,0-.24.34c-.17.26-.32.51-.32.51a1.49,1.49,0,0,1-.34.39.67.67,0,0,1-.34.18,1.07,1.07,0,0,1-.82-.31l-.49-.36-.34-.25-.16-.11-.51-.34-.37-.23a1.06,1.06,0,0,0-.17-.1,1.15,1.15,0,0,0-.95-.17,1.13,1.13,0,0,0-.63.75l-.07.18-.13.41c-.09.3-.17.6-.17.6l-.05.18c0,.11-.07.26-.11.41l-.14.59a1.42,1.42,0,0,1-.16.48.69.69,0,0,1-.27.29l.94,1.62a.57.57,0,0,0,.23-.27,1.59,1.59,0,0,0,.13-.46s0-.28.1-.57.05-.29.08-.4l0-.18s.06-.28.14-.57l.1-.41,0-.18a.85.85,0,0,1,1.43-.52l.16.11.34.24.47.35.15.11.31.26.45.37a1,1,0,0,0,.74.33.59.59,0,0,0,.31-.18,1.56,1.56,0,0,0,.29-.38s.13-.25.28-.51l.21-.34.1-.15.33-.5.23-.34.11-.15a1.07,1.07,0,0,1,.77-.49,1,1,0,0,1,.76.49l.06.08.16.22c.13.19.3.43.46.68l.23.36.19.33.18.32a1.34,1.34,0,0,0,.28.38.6.6,0,0,0,.3.18,1,1,0,0,0,.76-.33l.27-.24c.16-.14.39-.33.63-.5s.47-.35.66-.48l.22-.16.09-.06a1.05,1.05,0,0,1,.88-.19,1,1,0,0,1,.54.71l0,.1c0,.06,0,.15.08.26s.13.51.19.8.12.57.16.79l0,.36a1.57,1.57,0,0,0,.14.46.57.57,0,0,0,.23.27.65.65,0,0,0,.35.06,1.32,1.32,0,0,0,.46-.11l.34-.13.36-.13L52,128l.79-.23.37-.08a1.32,1.32,0,0,1,.51,0,.76.76,0,0,1,.38.15,1.06,1.06,0,0,1,.27.87s0,.3-.05.6l-.06.58s0,.3-.09.59L54,131a1,1,0,0,0,.09.82.69.69,0,0,0,.3.18,1.68,1.68,0,0,0,.48.05h.58l.59,0h.18l.41,0,.6,0a1.57,1.57,0,0,1,.5.14.71.71,0,0,1,.29.28.74.74,0,0,1,.1.4,1.28,1.28,0,0,1-.13.5s-.12.28-.25.55a4,4,0,0,1-.18.36l-.09.17-.27.52c-.07.12-.14.25-.2.34l-.09.16a.87.87,0,0,0-.19.78c.07.21.28.37.65.48l0,0,.12,0,.37.14.55.22.17.07a2.92,2.92,0,0,1,.37.17l.55.25a1,1,0,0,1,.6.67.79.79,0,0,1,0,.4,1.4,1.4,0,0,1-.3.43l-.42.43-.3.28-.14.13-.43.39-.3.26-.15.11c-.3.24-.45.46-.44.68h1.87a1,1,0,0,1,.44-.76l.14-.13c.09-.07.19-.18.3-.28Z" transform="translate(-18.67 -15.92)"/><path class="cls-3" d="M62.66,139.73l.13-.15c.09-.09.19-.21.29-.33s.41-.51.41-.51a1.66,1.66,0,0,0,.29-.51,1,1,0,0,0,0-.48,1.22,1.22,0,0,0-.65-.83l-.56-.34-.38-.22-.18-.09-.56-.3-.39-.2-.13-.06,0,0a1,1,0,0,1-.57-1.58l.08-.18c0-.1.11-.25.17-.39s.25-.6.25-.6l.07-.18c0-.12.1-.27.15-.42.11-.3.21-.61.21-.61a1.61,1.61,0,0,0,.1-.58,1.08,1.08,0,0,0-.14-.48,1,1,0,0,0-.33-.34,1.68,1.68,0,0,0-.56-.2l-.63-.13-.44-.07-.2,0-.63-.09-.43-.05h-.2a1.9,1.9,0,0,1-.54-.11.91.91,0,0,1-.35-.24,1.2,1.2,0,0,1-.19-1s0-.61.07-1.26,0-1.29,0-1.29a1.3,1.3,0,0,0-.4-1,.87.87,0,0,0-.43-.21,1.94,1.94,0,0,0-.59,0l-.2,0-.21,0-.24,0-.63.12-.2,0-.42.09-.61.16a1.64,1.64,0,0,1-.54.08.77.77,0,0,1-.72-.41,1.6,1.6,0,0,1-.2-.51s-.08-.3-.17-.61c0-.15-.09-.31-.13-.42l-.06-.18-.22-.61c-.06-.16-.12-.31-.16-.43l-.08-.18a1.29,1.29,0,0,0-.69-.79,1.3,1.3,0,0,0-1,.16l0,0-.13.07-.39.22c-.29.16-.56.33-.56.33l-.17.1-.37.24-.52.36a1.24,1.24,0,0,1-.91.3.75.75,0,0,1-.39-.19,1.8,1.8,0,0,1-.36-.4l-.36-.52-.27-.35-.12-.15s-.2-.25-.42-.5l-.29-.34-.14-.15a1.28,1.28,0,0,0-.92-.5,1.36,1.36,0,0,0-.93.5l-.07.08-.2.22-.56.69-.29.36-.24.33-.23.33a1.61,1.61,0,0,1-.37.4.72.72,0,0,1-.38.19,1.24,1.24,0,0,1-.91-.3l-.52-.36-.37-.24-.17-.1s-.27-.17-.56-.33l-.39-.22-.18-.1a1.31,1.31,0,0,0-1-.15,1.34,1.34,0,0,0-.71.79l-.07.19-.16.42c-.11.3-.21.6-.21.6l-.07.19c0,.11-.08.27-.13.42-.09.31-.17.61-.17.61a1.87,1.87,0,0,1-.2.51.81.81,0,0,1-.3.31L34,126.8a.69.69,0,0,0,.27-.29,1.42,1.42,0,0,0,.16-.48l.14-.59c0-.15.07-.3.11-.41l.05-.18s.08-.3.17-.6l.13-.41.07-.18a1.13,1.13,0,0,1,.63-.75,1.15,1.15,0,0,1,.95.17,1.06,1.06,0,0,1,.17.1l.37.23.51.34.16.11.34.25.49.36a1.07,1.07,0,0,0,.82.31.67.67,0,0,0,.34-.18,1.49,1.49,0,0,0,.34-.39s.15-.25.32-.51a3.86,3.86,0,0,1,.24-.34l.11-.16.37-.5.26-.34.12-.15a1.23,1.23,0,0,1,.85-.49,1.17,1.17,0,0,1,.84.49l.07.08.18.22.51.69.26.36.22.33.2.32a1.45,1.45,0,0,0,.32.39.69.69,0,0,0,.35.18,1.07,1.07,0,0,0,.83-.31l.3-.23c.18-.13.43-.32.68-.49l.72-.47.24-.15.09,0a1.17,1.17,0,0,1,1-.17,1.18,1.18,0,0,1,.62.74l0,.1c0,.07.06.16.1.27s.16.53.24.82.16.6.21.82l.08.37a1.67,1.67,0,0,0,.17.48.69.69,0,0,0,.27.29.65.65,0,0,0,.38.08,1.43,1.43,0,0,0,.5-.09l.36-.11.38-.12.43-.11.83-.2.39-.07a1.65,1.65,0,0,1,.54,0,.9.9,0,0,1,.41.18,1.15,1.15,0,0,1,.34.92l0,.63,0,.61-.06.61c0,.3-.07.6-.07.6a1,1,0,0,0,.15.87.76.76,0,0,0,.32.22,2.18,2.18,0,0,0,.5.08h.19l.42,0,.61.05.19,0a3.8,3.8,0,0,1,.43,0l.62.09a1.52,1.52,0,0,1,.52.17.84.84,0,0,1,.31.31.81.81,0,0,1,.12.44,1.44,1.44,0,0,1-.11.54s-.11.29-.23.58l-.17.39-.08.18-.26.55-.18.37-.09.17a.86.86,0,0,0,.52,1.42l0,0,.12,0,.38.17.56.26.17.08.38.19.55.3a1.15,1.15,0,0,1,.63.75.85.85,0,0,1,0,.44,1.34,1.34,0,0,1-.29.47s-.2.24-.41.47l-.3.31-.13.14-.44.43c-.11.1-.21.21-.3.28l-.14.13a1,1,0,0,0-.44.76h1.86a1.16,1.16,0,0,1,.45-.84l.14-.14c.09-.08.19-.2.3-.31S62.66,139.73,62.66,139.73Z" transform="translate(-18.67 -15.92)"/><path class="cls-4" d="M65.34,138.5a1.69,1.69,0,0,0,.28-.55,1.15,1.15,0,0,0,0-.52,1.36,1.36,0,0,0-.65-.91l-.36-.24c-.21-.15-.49-.33-.78-.5l-.8-.46-.26-.14-.11-.05a1.36,1.36,0,0,1-.73-.71,1.4,1.4,0,0,1,.1-1l0-.1.11-.28c.09-.23.21-.54.32-.86s.21-.64.28-.89l.12-.41a1.69,1.69,0,0,0,.07-.61,1.22,1.22,0,0,0-.16-.51,1.15,1.15,0,0,0-.35-.38,2.13,2.13,0,0,0-.57-.24l-.41-.1-.43-.1-.48-.1-.91-.16-.41,0a1.7,1.7,0,0,1-.55-.14,1,1,0,0,1-.38-.28,1.35,1.35,0,0,1-.25-1l0-.65c0-.34,0-.68,0-.68s0-.33,0-.66,0-.68,0-.68a1.49,1.49,0,0,0-.46-1,1.22,1.22,0,0,0-.47-.23,1.73,1.73,0,0,0-.61,0h-.21l-.22,0-.25,0-.67.1-.21,0-.45.08-.64.15a2.44,2.44,0,0,1-.57,0,1,1,0,0,1-.45-.13.83.83,0,0,1-.34-.33,1.67,1.67,0,0,1-.24-.52s-.1-.31-.21-.63c0-.16-.1-.32-.15-.44l-.07-.19s-.12-.31-.26-.63l-.18-.43-.09-.19a1.46,1.46,0,0,0-.78-.8,1.48,1.48,0,0,0-1.11.11l0,0-.14.06-.42.21-.6.32-.18.1-.4.24-.56.35a1.43,1.43,0,0,1-1,.28,1,1,0,0,1-.42-.19,2,2,0,0,1-.41-.41l-.4-.52-.29-.36-.14-.16L44,119l-.33-.34-.15-.15a1.48,1.48,0,0,0-1-.49,1.53,1.53,0,0,0-1,.49l-.15.15L41,119c-.23.25-.44.5-.44.5l-.14.16c-.08.1-.19.22-.29.36l-.41.52a2,2,0,0,1-.41.41,1.09,1.09,0,0,1-.43.19,1.43,1.43,0,0,1-1-.28l-.35-.22c-.21-.13-.5-.31-.79-.47l-.82-.43-.28-.14-.11,0a1.27,1.27,0,0,0-1.89.69l0,.11c0,.06-.08.16-.13.28s-.23.55-.35.87-.23.62-.31.86l-.12.39a1.93,1.93,0,0,1-.24.52,1,1,0,0,1-.33.33l.93,1.62a.81.81,0,0,0,.3-.31,1.87,1.87,0,0,0,.2-.51s.08-.3.17-.61c0-.15.09-.31.13-.42l.07-.19s.1-.3.21-.6l.16-.42.07-.19a1.34,1.34,0,0,1,.71-.79,1.31,1.31,0,0,1,1,.15l.18.1.39.22c.29.16.56.33.56.33l.17.1.37.24.52.36a1.24,1.24,0,0,0,.91.3.72.72,0,0,0,.38-.19,1.61,1.61,0,0,0,.37-.4l.23-.33.24-.33.29-.36.56-.69.2-.22.07-.08a1.36,1.36,0,0,1,.93-.5,1.28,1.28,0,0,1,.92.5l.14.15.29.34c.22.25.42.5.42.5l.12.15.27.35.36.52a1.8,1.8,0,0,0,.36.4.75.75,0,0,0,.39.19,1.24,1.24,0,0,0,.91-.3l.52-.36.37-.24.17-.1s.27-.17.56-.33l.39-.22.13-.07,0,0a1.3,1.3,0,0,1,1-.16,1.29,1.29,0,0,1,.69.79l.08.18c0,.12.1.27.16.43l.22.61.06.18c0,.11.08.27.13.42.09.31.17.61.17.61a1.6,1.6,0,0,0,.2.51.77.77,0,0,0,.72.41,1.64,1.64,0,0,0,.54-.08l.61-.16.42-.09.2,0,.63-.12.24,0,.21,0,.2,0a1.94,1.94,0,0,1,.59,0,.87.87,0,0,1,.43.21,1.3,1.3,0,0,1,.4,1s0,.66,0,1.29-.07,1.26-.07,1.26a1.2,1.2,0,0,0,.19,1,.91.91,0,0,0,.35.24,1.9,1.9,0,0,0,.54.11H58l.43.05.63.09.2,0,.44.07.63.13a1.68,1.68,0,0,1,.56.2,1,1,0,0,1,.33.34,1.08,1.08,0,0,1,.14.48,1.61,1.61,0,0,1-.1.58s-.1.31-.21.61c0,.15-.1.3-.15.42l-.07.18s-.12.31-.25.6-.12.29-.17.39l-.08.18a1,1,0,0,0,.57,1.58l0,0,.13.06.39.2.56.3.18.09.38.22.56.34a1.22,1.22,0,0,1,.65.83,1,1,0,0,1,0,.48,1.66,1.66,0,0,1-.29.51s-.2.26-.41.51-.2.24-.29.33l-.13.15s-.21.25-.43.48-.21.23-.3.31l-.14.14a1.16,1.16,0,0,0-.45.84h1.87a1.32,1.32,0,0,1,.44-.92l.08-.08.2-.22c.16-.19.38-.44.59-.7l.31-.39.26-.34Z" transform="translate(-18.67 -15.92)"/><path class="cls-5" d="M53.25,140.25l-.11-.13-.25-.29c-.18-.21-.38-.4-.38-.4l-.1-.09c-.06-.06-.15-.15-.27-.25l-.38-.33-.46-.34-.46-.3-.41-.23-.3-.15-.11-.05a2.12,2.12,0,0,1-.37-.21,1.23,1.23,0,0,1-.24-.28.77.77,0,0,1-.07-.16.8.8,0,0,1,0-.18,1.9,1.9,0,0,1,0-.42l0-.17c0-.1,0-.25,0-.44a8.9,8.9,0,0,0-.08-1.38,9.91,9.91,0,0,0-.33-1.44l-.09-.27-.08-.2-.06-.18a1.6,1.6,0,0,0-.27-.46l-.17-.18a1.37,1.37,0,0,0-.2-.13,1.41,1.41,0,0,0-.46-.17,1.88,1.88,0,0,0-.53,0l-.19,0-.49.1-.68.17A7.09,7.09,0,0,0,45,132c-.24.1-.48.2-.69.31s-.4.21-.55.31l-.37.24-.14.09a1.57,1.57,0,0,1-.37.21.91.91,0,0,1-.7,0,2,2,0,0,1-.38-.2l-.1-.08-.27-.18c-.12-.07-.25-.16-.41-.24l-.49-.25a8.32,8.32,0,0,0-1-.4l-.48-.14-.16-.05-.37-.08-.38-.07-.17,0a2,2,0,0,0-.54,0,1.5,1.5,0,0,0-.46.17,1.21,1.21,0,0,0-.2.14l-.17.17a1.84,1.84,0,0,0-.26.46l-.12.33c-.07.2-.16.46-.23.72s-.12.52-.16.72l0,.32s0,.26,0,.51,0,.51,0,.51V136a3.08,3.08,0,0,0,0,.33v.15a1.54,1.54,0,0,1,0,.43.84.84,0,0,1-.05.17.46.46,0,0,1-.07.16.74.74,0,0,1-.23.27,1.66,1.66,0,0,1-.37.23l-.14.06-.29.15-.3.16-.13.08-.42.27-.42.31-.13.1-.27.24-.27.25-.12.12s-.2.19-.38.4l-.25.28-.11.14a1.64,1.64,0,0,0-.26.46,1.32,1.32,0,0,0,0,1,1.64,1.64,0,0,0,.26.46l.11.13.25.29c.18.21.38.4.38.4l.12.12.27.25.27.24.13.1.42.31.42.27.13.08.3.16.3.16.13.06a2.12,2.12,0,0,1,.37.21.83.83,0,0,1,.23.27.56.56,0,0,1,.07.16,1.21,1.21,0,0,1,.05.18,1.48,1.48,0,0,1,0,.42v.15a3.28,3.28,0,0,0,0,.34v.49s0,.25,0,.5,0,.52,0,.52,0,.25.09.51.13.53.13.53v0a1,1,0,0,1,0,.12l.11.36c0,.13.09.26.13.36l.06.17a2,2,0,0,0,.26.45,1,1,0,0,0,.18.18,1.33,1.33,0,0,0,.19.14,1.56,1.56,0,0,0,.47.17,1.88,1.88,0,0,0,.53,0l.17,0,.38-.07.37-.09.16,0,.52-.15.5-.18,0,0,.1,0,.33-.15.31-.16L41,150l.43-.25.27-.18.12-.09a2.47,2.47,0,0,1,.38-.21.89.89,0,0,1,.35-.06.86.86,0,0,1,.35.06,2,2,0,0,1,.37.21l.12.09.28.18.43.25.14.07a2.2,2.2,0,0,0,.31.16l.32.15.15.06.31.11a4.89,4.89,0,0,0,.7.22c.26.07.53.13.74.17l.34.06a1.56,1.56,0,0,0,.53,0,1.2,1.2,0,0,0,.46-.16.9.9,0,0,0,.2-.14,1,1,0,0,0,.17-.18,1.6,1.6,0,0,0,.27-.46l.07-.16.12-.36.11-.36a1.29,1.29,0,0,0,0-.17s.06-.2.12-.49.06-.31.09-.49a5.23,5.23,0,0,0,.06-.57,5.36,5.36,0,0,0,0-.55v-.47q0-.21,0-.33V146a2,2,0,0,1,0-.43,1.16,1.16,0,0,1,0-.18.8.8,0,0,1,.08-.16,1,1,0,0,1,.23-.27,1.63,1.63,0,0,1,.37-.21l.15-.07.39-.21.26-.14.29-.18c.2-.13.4-.28.61-.44l.59-.51.49-.5c.14-.15.25-.28.33-.38l.12-.15a1.59,1.59,0,0,0,.26-.45,1.36,1.36,0,0,0,.09-.48H51.11a1.25,1.25,0,0,1-.09.37,1.18,1.18,0,0,1-.26.35l-.1.1-.24.22-.36.29-.12.09-.25.17-.26.16-.12.07-.38.21-.39.17a.9.9,0,0,1-.68,0,.39.39,0,0,1-.21-.19.71.71,0,0,1-.09-.31l0-.12c0-.07,0-.17,0-.26s0-.18-.06-.25,0-.11,0-.11a.58.58,0,0,0-.15-.27.47.47,0,0,0-.26-.11.62.62,0,0,0-.28,0,.72.72,0,0,0-.23.17,1.64,1.64,0,0,0-.31.55l-.08.19a2.74,2.74,0,0,1-.21.42c0,.08-.09.15-.13.22l-.13.18-.1.12,0,0h0a1.79,1.79,0,0,0-.31.55.83.83,0,0,0,0,.15v.14a.51.51,0,0,0,.12.26.44.44,0,0,0,.22.16.34.34,0,0,0,.15,0l.16,0,.11,0,.24-.08.25-.09.1-.05.17-.06a.39.39,0,0,1,.15,0,.44.44,0,0,1,.27.09.87.87,0,0,1,.33.6l0,.42c0,.21,0,.44,0,.44s0,.21,0,.44,0,.45,0,.45a1.25,1.25,0,0,1,0,.14c0,.08,0,.2-.06.31s0,.23-.06.32l0,.14a1.13,1.13,0,0,1-.18.4.64.64,0,0,1-.13.15.58.58,0,0,1-.15.11.89.89,0,0,1-.36.11,1.28,1.28,0,0,1-.43,0l-.15,0-.3-.1-.3-.11-.14-.05-.41-.2-.39-.21-.11-.07-.25-.16-.24-.17-.1-.08a.84.84,0,0,1-.36-.58.39.39,0,0,1,.05-.28.84.84,0,0,1,.23-.23l.1-.07a2.61,2.61,0,0,0,.2-.17L44,146l.09-.09a.66.66,0,0,0,.16-.26.46.46,0,0,0,0-.28.66.66,0,0,0-.17-.23,1,1,0,0,0-.26-.11,1.67,1.67,0,0,0-.63,0l-.21,0a3.33,3.33,0,0,1-.48,0,3.43,3.43,0,0,1-.48,0l-.21,0a1.67,1.67,0,0,0-.63,0,.65.65,0,0,0-.25.12.56.56,0,0,0-.18.22.45.45,0,0,0,0,.28.55.55,0,0,0,.16.27L41,146l.19.16a1.27,1.27,0,0,0,.2.16l.07.06,0,0a.76.76,0,0,1,.24.23.52.52,0,0,1,.05.28.88.88,0,0,1-.36.58l-.08.07-.24.16-.35.23c-.13.07-.27.16-.42.23l-.46.21-.41.16-.31.09-.11,0a1.13,1.13,0,0,1-.44,0,.8.8,0,0,1-.37-.11l-.15-.11a.61.61,0,0,1-.12-.15,1.13,1.13,0,0,1-.18-.4l0-.12c0-.07,0-.18-.06-.31a4.38,4.38,0,0,1-.08-.44c0-.16,0-.33,0-.49a4.09,4.09,0,0,1,0-.49c0-.15,0-.29,0-.41a3.8,3.8,0,0,1,0-.4.86.86,0,0,1,.32-.6.44.44,0,0,1,.27-.09.41.41,0,0,1,.15,0,.52.52,0,0,1,.16.06l.11.05.24.09.25.08.11,0,.16,0a.36.36,0,0,0,.15,0,.44.44,0,0,0,.23-.16.58.58,0,0,0,.11-.26v-.14a.57.57,0,0,0,0-.14,1.59,1.59,0,0,0-.31-.55v0l0,0-.1-.12-.13-.18c0-.07-.09-.14-.13-.22a2.74,2.74,0,0,1-.21-.42l-.06-.14,0-.06a1.59,1.59,0,0,0-.31-.54.72.72,0,0,0-.23-.17.52.52,0,0,0-.28,0,.47.47,0,0,0-.26.11.64.64,0,0,0-.15.27v.11c0,.07,0,.16-.06.25s0,.19,0,.26l0,.12a.67.67,0,0,1-.09.31.48.48,0,0,1-.21.19.9.9,0,0,1-.68,0l-.37-.16a7.83,7.83,0,0,1-.78-.45c-.14-.09-.27-.19-.4-.29a3.57,3.57,0,0,1-.35-.28l-.24-.21-.08-.09a1,1,0,0,1-.26-.35.81.81,0,0,1,0-.74.94.94,0,0,1,.26-.35l.08-.09.24-.21.35-.29.4-.29a7.53,7.53,0,0,1,.78-.44l.37-.16a.9.9,0,0,1,.68,0,.43.43,0,0,1,.21.19.67.67,0,0,1,.09.31v.12c0,.07,0,.17,0,.26s0,.18.06.25v.11a.7.7,0,0,0,.15.27.47.47,0,0,0,.26.11.64.64,0,0,0,.28,0,.91.91,0,0,0,.23-.17,1.64,1.64,0,0,0,.31-.55l0,0,.06-.15a4.08,4.08,0,0,1,.21-.42l.13-.21.13-.18.1-.12,0,0h0a1.68,1.68,0,0,0,.31-.55,1,1,0,0,0,0-.14v-.14a.54.54,0,0,0-.11-.26.53.53,0,0,0-.23-.17l-.15,0-.16,0-.11,0-.25.08-.24.1-.11.05a.52.52,0,0,1-.16.06l-.15,0a.49.49,0,0,1-.28-.09.85.85,0,0,1-.31-.6s0-.21,0-.42l0-.44s0-.21,0-.44l0-.45,0-.14c0-.09,0-.2.06-.32a2.05,2.05,0,0,1,.07-.31l0-.15a1.17,1.17,0,0,1,.18-.39.61.61,0,0,1,.12-.15l.15-.11a.76.76,0,0,1,.37-.11,1.15,1.15,0,0,1,.44,0l.14,0,.3.1.3.11.13,0,.41.2.39.21.12.07.25.16.24.17.1.08a.88.88,0,0,1,.36.58.46.46,0,0,1-.06.28.72.72,0,0,1-.23.23l0,0-.07.05-.2.16-.19.17-.08.08a.54.54,0,0,0-.17.27.5.5,0,0,0,0,.27.54.54,0,0,0,.43.34,1.89,1.89,0,0,0,.63,0l.21,0,.48,0,.47,0,.16,0,0,0a2,2,0,0,0,.64,0,.54.54,0,0,0,.42-.34.42.42,0,0,0,0-.27.52.52,0,0,0-.15-.27l-.09-.08-.19-.17-.2-.16-.1-.07a.84.84,0,0,1-.23-.23.39.39,0,0,1-.05-.28.86.86,0,0,1,.35-.58l.11-.08.24-.17.25-.16.11-.07.39-.22.41-.19.14,0,.3-.11.3-.1.15,0a1.08,1.08,0,0,1,.43-.05.77.77,0,0,1,.36.12.42.42,0,0,1,.15.11.64.64,0,0,1,.13.15.93.93,0,0,1,.17.39l0,.15c0,.08.05.2.07.31s0,.23,0,.32a.44.44,0,0,1,0,.1v0s0,.23,0,.45,0,.44,0,.44,0,.22,0,.44l0,.42a.89.89,0,0,1-.33.6.44.44,0,0,1-.27.09l-.15,0-.17-.06-.11-.05-.24-.1-.24-.08-.11,0-.17,0-.14,0a.46.46,0,0,0-.22.17.48.48,0,0,0-.12.26.66.66,0,0,0,0,.14l0,.14a1.93,1.93,0,0,0,.32.55h0l0,0,.1.12.13.18.13.21a4.08,4.08,0,0,1,.21.42l.08.2a1.59,1.59,0,0,0,.31.54.6.6,0,0,0,.23.17.5.5,0,0,0,.28,0,.56.56,0,0,0,.26-.11.68.68,0,0,0,.15-.28v0l0-.08a1.22,1.22,0,0,0,0-.25,1.29,1.29,0,0,0,0-.25l0-.12a.67.67,0,0,1,.09-.31.39.39,0,0,1,.21-.19.85.85,0,0,1,.68,0l.39.17.38.21.12.06.26.16.25.18.12.08.36.29.24.22.1.1a1.36,1.36,0,0,1,.26.36,1.18,1.18,0,0,1,.09.37H53.6a1.36,1.36,0,0,0-.09-.48A1.84,1.84,0,0,0,53.25,140.25Z" transform="translate(-18.67 -15.92)"/><path class="cls-4" d="M51.57,146.43c-.15.28-.16.46,0,.57s.35,0,.51-.25.14-.47,0-.57S51.72,146.17,51.57,146.43Z" transform="translate(-18.67 -15.92)"/><path class="cls-4" d="M42.5,151.67c-.3,0-.45.1-.46.31s.14.31.46.32.48-.12.47-.32S42.8,151.67,42.5,151.67Z" transform="translate(-18.67 -15.92)"/><path class="cls-4" d="M33.43,146.44c-.15-.26-.31-.35-.5-.25s-.21.28,0,.56.34.36.51.25S33.58,146.7,33.43,146.44Z" transform="translate(-18.67 -15.92)"/><path class="cls-4" d="M33.43,136c.15-.27.15-.44,0-.56s-.35,0-.51.24-.14.48,0,.57S33.28,136.22,33.43,136Z" transform="translate(-18.67 -15.92)"/><path class="cls-4" d="M42.5,130.72c.3,0,.46-.09.47-.3s-.15-.32-.47-.32-.49.11-.48.32S42.19,130.73,42.5,130.72Z" transform="translate(-18.67 -15.92)"/><path class="cls-4" d="M51.56,136c.16.27.32.36.51.27s.21-.29,0-.58-.34-.36-.51-.25S51.42,135.69,51.56,136Z" transform="translate(-18.67 -15.92)"/><path class="cls-4" d="M48.62,141.2H48c0,.16.1.24.3.25S48.61,141.38,48.62,141.2Z" transform="translate(-18.67 -15.92)"/><path class="cls-4" d="M45.24,146c-.13.08-.16.2-.06.39s.22.24.38.15.17-.23,0-.41S45.38,145.88,45.24,146Z" transform="translate(-18.67 -15.92)"/><path class="cls-4" d="M39.75,146c-.13-.07-.25,0-.37.14s-.1.32.06.41.29,0,.38-.15S39.89,146,39.75,146Z" transform="translate(-18.67 -15.92)"/><path class="cls-4" d="M37,141.2c0-.16-.1-.25-.31-.26s-.31.08-.32.26.11.27.32.25S37,141.36,37,141.2Z" transform="translate(-18.67 -15.92)"/><path class="cls-4" d="M39.75,136.44c.14-.08.16-.2.07-.39s-.23-.24-.38-.15-.17.23-.06.41S39.62,136.52,39.75,136.44Z" transform="translate(-18.67 -15.92)"/><path class="cls-4" d="M45.24,136.44c.14.08.26,0,.37-.14s.1-.32,0-.4-.29,0-.38.15S45.11,136.36,45.24,136.44Z" transform="translate(-18.67 -15.92)"/><path class="cls-4" d="M48.29,141c-.2,0-.3.09-.3.25h.63C48.61,141,48.51,140.94,48.29,141Z" transform="translate(-18.67 -15.92)"/><polygon class="cls-4" points="23.86 122.14 25.08 123.42 26.79 123.83 26.29 125.53 26.79 127.22 25.08 127.63 23.86 128.91 22.65 127.63 20.93 127.22 21.43 125.53 20.93 123.83 22.65 123.42 23.86 122.14"/><polygon class="cls-6" points="23.86 123.17 24.71 124.06 25.9 124.35 25.55 125.53 25.9 126.7 24.71 126.99 23.86 127.88 23.02 126.99 21.82 126.7 22.17 125.53 21.82 124.35 23.02 124.06 23.86 123.17"/><path class="cls-2" d="M42.93,141.51a.45.45,0,0,1-.45.45.45.45,0,1,1,0-.89A.45.45,0,0,1,42.93,141.51Z" transform="translate(-18.67 -15.92)"/></svg>