<svg id="Camada_1" data-name="Camada 1" xmlns="http://www.w3.org/2000/svg" viewBox="0 0 719.86 327.36"><defs><style>.cls-1{fill:#58595b;}.cls-2{fill:#cbe8d8;}.cls-3{fill:#c9e6d5;}.cls-4{fill:#c3e3d1;}.cls-5{fill:#c6e4d3;}.cls-6{fill:#c2e3d0;}.cls-7{fill:#feebeb;}</style></defs><path class="cls-1" d="M73,66.83l19.23-47h3l19.31,47h-3.41l-6.75-16.7H83.05l-6.71,16.7ZM103.2,47.32l-1.8-4.54q-5.87-14.58-7.56-19.3H93.7q-1.44,4-4.74,11.92-1,2.43-4.85,11.92Z" transform="translate(-26.07 -15.23)"/><path class="cls-1" d="M124.39,34l.5,5.84H125a14.79,14.79,0,0,1,5.5-4.78,15.38,15.38,0,0,1,7.33-1.9h.91v2.78h-.91A14.39,14.39,0,0,0,130.35,38,14,14,0,0,0,125,43.56V66.83h-2.82V34Z" transform="translate(-26.07 -15.23)"/><path class="cls-1" d="M146.65,59V36.67h-6.51V34h6.51V25.2h2.81V34h10.06v2.68H149.46V58.18q0,3.8,1.48,5.36a6.08,6.08,0,0,0,4.64,1.57,13.6,13.6,0,0,0,4.46-.6V67a15.37,15.37,0,0,1-5,.74,8.48,8.48,0,0,1-6.17-2.18Q146.64,63.36,146.65,59Z" transform="translate(-26.07 -15.23)"/><path class="cls-1" d="M166.16,50.06a21,21,0,0,1,1.79-9,13.85,13.85,0,0,1,4.93-5.89,12.49,12.49,0,0,1,7-2.06,11.86,11.86,0,0,1,9.21,3.78q3.44,3.78,3.44,11.9v1.23H169.11q0,7.77,3.41,11.41t9.6,3.64a21.66,21.66,0,0,0,9.28-1.87v2.64q-3.27,1.83-9.28,1.83-7.67,0-11.81-4.61T166.16,50.06Zm13.75-14.41A9.48,9.48,0,0,0,172.56,39a13.94,13.94,0,0,0-3.38,8.56h20.5q-.1-5.84-2.57-8.86C185.47,36.65,183.07,35.65,179.91,35.65Z" transform="translate(-26.07 -15.23)"/><path class="cls-1" d="M200.82,66V63.1a18.3,18.3,0,0,0,8.93,2.08,10.34,10.34,0,0,0,6.63-2,6.6,6.6,0,0,0,2.44-5.47,5.2,5.2,0,0,0-1.61-4.11,12.83,12.83,0,0,0-5.42-2.36,39.21,39.21,0,0,1-5.69-1.76,8.82,8.82,0,0,1-3.62-2.67,7.19,7.19,0,0,1-1.41-4.64q0-4.61,3.09-6.84a13.19,13.19,0,0,1,7.91-2.23,18.43,18.43,0,0,1,8.2,1.86v2.75a22.6,22.6,0,0,0-4-1.57,16.48,16.48,0,0,0-4.45-.54,9.48,9.48,0,0,0-6,1.65A5.65,5.65,0,0,0,203.78,42a5.06,5.06,0,0,0,1,3.29,6.09,6.09,0,0,0,2.66,1.81,48.5,48.5,0,0,0,5.1,1.48q4.74,1.2,6.9,3.22a7.48,7.48,0,0,1,2.17,5.78A9.33,9.33,0,0,1,218.4,65q-3.17,2.76-8.65,2.76Q203.86,67.71,200.82,66Z" transform="translate(-26.07 -15.23)"/><path class="cls-1" d="M228.63,57.41a9.06,9.06,0,0,1,3.18-7.21A12.14,12.14,0,0,1,240,47.46a29.63,29.63,0,0,1,10.09,1.93V45.17c0-3.11-.81-5.47-2.42-7.06s-4.2-2.39-7.74-2.39a27.48,27.48,0,0,0-8.43,1.65V34.73a11.7,11.7,0,0,1,3.53-1.11,26.56,26.56,0,0,1,4.9-.47c4.39,0,7.64,1,9.78,3s3.2,5,3.2,9V56.32q0,3.48.28,10.51h-2.53l-.5-3.83H250a13.69,13.69,0,0,1-4.71,3.3,14.28,14.28,0,0,1-6,1.41,11.36,11.36,0,0,1-7.75-2.57Q228.63,62.58,228.63,57.41ZM250.11,60V51.85a30.38,30.38,0,0,0-4.73-1.39,32.45,32.45,0,0,0-5.71-.4,8.71,8.71,0,0,0-6,1.92,6.86,6.86,0,0,0-2.16,5.43q0,3.93,2.14,5.85a8.17,8.17,0,0,0,5.66,1.92,12.27,12.27,0,0,0,6.36-1.51A18.9,18.9,0,0,0,250.11,60Z" transform="translate(-26.07 -15.23)"/><path class="cls-1" d="M267.69,34l.49,5.35h.07a15.27,15.27,0,0,1,4.87-4.56,12.06,12.06,0,0,1,6.14-1.63q5.21,0,7.86,3.06c1.76,2,2.65,5,2.65,9V66.83H287V45.52q0-4.92-1.9-7.36t-6.18-2.44a10.4,10.4,0,0,0-5.8,1.84,16.64,16.64,0,0,0-4.86,5V66.83h-2.81V34Z" transform="translate(-26.07 -15.23)"/><path class="cls-1" d="M299.33,57.41a9.06,9.06,0,0,1,3.18-7.21,12.12,12.12,0,0,1,8.21-2.74,29.63,29.63,0,0,1,10.09,1.93V45.17c0-3.11-.81-5.47-2.42-7.06s-4.2-2.39-7.74-2.39a27.59,27.59,0,0,0-8.44,1.65V34.73a11.88,11.88,0,0,1,3.54-1.11,26.56,26.56,0,0,1,4.9-.47c4.39,0,7.64,1,9.78,3s3.2,5,3.2,9V56.32q0,3.48.28,10.51h-2.53l-.5-3.83h-.14A13.69,13.69,0,0,1,316,66.3a14.28,14.28,0,0,1-6,1.41,11.34,11.34,0,0,1-7.75-2.57Q299.33,62.58,299.33,57.41ZM320.81,60V51.85a30.7,30.7,0,0,0-4.73-1.39,32.45,32.45,0,0,0-5.71-.4,8.71,8.71,0,0,0-6,1.92,6.86,6.86,0,0,0-2.17,5.43q0,3.93,2.15,5.85A8.17,8.17,0,0,0,310,65.18a12.29,12.29,0,0,0,6.36-1.51A18.9,18.9,0,0,0,320.81,60Z" transform="translate(-26.07 -15.23)"/><path class="cls-1" d="M336.14,15.92H339V66.83h-2.81Z" transform="translate(-26.07 -15.23)"/><path class="cls-1" d="M73,153.23l19.23-47h3l19.31,47h-3.41l-6.75-16.7H83.05l-6.71,16.7Zm30.24-19.51-1.8-4.54q-5.87-14.58-7.56-19.3H93.7q-1.44,4-4.74,11.92-1,2.43-4.85,11.92Z" transform="translate(-26.07 -15.23)"/><path class="cls-1" d="M121.44,140.64V120.39h2.81v21q0,5.42,2.52,7.78a9.51,9.51,0,0,0,6.84,2.38,10.58,10.58,0,0,0,5.18-1.16,7.48,7.48,0,0,0,3.13-3.2,13.49,13.49,0,0,0,1-5.94V120.39h2.81v20.32a21.53,21.53,0,0,1-.7,6.19,9.74,9.74,0,0,1-2.39,4,10.16,10.16,0,0,1-3.91,2.47,16.54,16.54,0,0,1-10.4-.12,10.81,10.81,0,0,1-3.92-2.49,9.67,9.67,0,0,1-2.29-3.75A21.08,21.08,0,0,1,121.44,140.64Z" transform="translate(-26.07 -15.23)"/><path class="cls-1" d="M158.53,145.39V123.07H152v-2.68h6.5V111.6h2.81v8.79H171.4v2.68H161.34v21.51c0,2.53.5,4.32,1.48,5.36a6.08,6.08,0,0,0,4.64,1.57,13.7,13.7,0,0,0,4.47-.6v2.46a15.44,15.44,0,0,1-5,.74,8.48,8.48,0,0,1-6.17-2.18C159.28,150.48,158.53,148.3,158.53,145.39Z" transform="translate(-26.07 -15.23)"/><path class="cls-1" d="M178,136.88q0-7.87,4-12.6a13.35,13.35,0,0,1,10.7-4.73,13.2,13.2,0,0,1,10.67,4.71q4,4.71,4,12.62,0,7.69-4,12.46a13.23,13.23,0,0,1-10.59,4.77,13.41,13.41,0,0,1-10.72-4.69Q178,144.73,178,136.88Zm26.41,0q0-6.78-3.17-10.77a10.29,10.29,0,0,0-8.51-4,10.41,10.41,0,0,0-8.59,4q-3.18,4-3.18,10.79t3.14,10.69a11.35,11.35,0,0,0,17.18,0C203.4,145,204.45,141.41,204.45,136.88Z" transform="translate(-26.07 -15.23)"/><path class="cls-1" d="M219.74,120.39l.49,5.84h.07a14.79,14.79,0,0,1,5.5-4.78,15.41,15.41,0,0,1,7.33-1.9h.92v2.78h-.92a14.35,14.35,0,0,0-7.43,2.11,14,14,0,0,0-5.4,5.52v23.27h-2.81V120.39Z" transform="translate(-26.07 -15.23)"/><path class="cls-1" d="M238.44,143.81a9.06,9.06,0,0,1,3.18-7.21,12.12,12.12,0,0,1,8.21-2.74,29.63,29.63,0,0,1,10.09,1.93v-4.22c0-3.11-.81-5.47-2.42-7.06s-4.2-2.39-7.74-2.39a27.59,27.59,0,0,0-8.44,1.65v-2.64a11.88,11.88,0,0,1,3.54-1.11,26.47,26.47,0,0,1,4.9-.47q6.57,0,9.78,3t3.19,9v11.15q0,3.48.29,10.51h-2.54L260,149.4h-.14a13.69,13.69,0,0,1-4.71,3.3,14.28,14.28,0,0,1-6,1.41,11.34,11.34,0,0,1-7.75-2.57Q238.44,149,238.44,143.81Zm21.48,2.63v-8.19a30.7,30.7,0,0,0-4.73-1.39,32.53,32.53,0,0,0-5.71-.4,8.71,8.71,0,0,0-6,1.92,6.83,6.83,0,0,0-2.17,5.43q0,3.93,2.15,5.85a8.17,8.17,0,0,0,5.66,1.92,12.32,12.32,0,0,0,6.36-1.51A18.9,18.9,0,0,0,259.92,146.44Z" transform="translate(-26.07 -15.23)"/><path class="cls-1" d="M275.25,102.32h2.81v50.91h-2.81Z" transform="translate(-26.07 -15.23)"/><path class="cls-1" d="M77.85,192.63h26.79v2.81H80.94v18.7h21.69V217H80.94v19.87H106v2.81H77.85Z" transform="translate(-26.07 -15.23)"/><path class="cls-1" d="M122.71,223l-11.82-16.21h3.2L124.29,221l10.16-14.21h3l-11.42,16.14,12,16.7h-3.2L124.29,225l-10.44,14.63h-3.1Z" transform="translate(-26.07 -15.23)"/><path class="cls-1" d="M142.46,223.49a20.22,20.22,0,0,1,2.27-10.18,13.77,13.77,0,0,1,5.72-5.64,15.7,15.7,0,0,1,7.13-1.72,22.39,22.39,0,0,1,4.82.51,13.71,13.71,0,0,1,3.8,1.35v2.89a18.09,18.09,0,0,0-4.21-1.59,18.72,18.72,0,0,0-4.48-.59,12,12,0,0,0-5.82,1.49,11.17,11.17,0,0,0-4.51,4.87,18.63,18.63,0,0,0-1.76,8.68q0,6.58,3.44,10.46a11.79,11.79,0,0,0,9.28,3.89,22.42,22.42,0,0,0,8.58-2v2.64a19.38,19.38,0,0,1-8.79,2,16.39,16.39,0,0,1-7.82-1.86,13.63,13.63,0,0,1-5.57-5.68A19.69,19.69,0,0,1,142.46,223.49Z" transform="translate(-26.07 -15.23)"/><path class="cls-1" d="M176.29,188.72h2.81v50.91h-2.81Z" transform="translate(-26.07 -15.23)"/><path class="cls-1" d="M190.91,227V206.79h2.81v21q0,5.42,2.52,7.78a9.5,9.5,0,0,0,6.83,2.38,10.6,10.6,0,0,0,5.19-1.16,7.54,7.54,0,0,0,3.13-3.2,13.49,13.49,0,0,0,1-5.94V206.79h2.81v20.32a21.89,21.89,0,0,1-.7,6.19,9.66,9.66,0,0,1-2.4,4,10,10,0,0,1-3.9,2.47,16.54,16.54,0,0,1-10.4-.12,10.81,10.81,0,0,1-3.92-2.49,9.67,9.67,0,0,1-2.29-3.75A21.08,21.08,0,0,1,190.91,227Z" transform="translate(-26.07 -15.23)"/><path class="cls-1" d="M224.45,238.82V235.9a18.27,18.27,0,0,0,8.93,2.08A10.34,10.34,0,0,0,240,236a6.63,6.63,0,0,0,2.44-5.47,5.21,5.21,0,0,0-1.62-4.11,12.65,12.65,0,0,0-5.41-2.36,39.79,39.79,0,0,1-5.7-1.76,9,9,0,0,1-3.62-2.67,7.19,7.19,0,0,1-1.4-4.64q0-4.61,3.09-6.84A13.17,13.17,0,0,1,235.7,206a18.36,18.36,0,0,1,8.19,1.86v2.75a22.82,22.82,0,0,0-3.95-1.57,16.48,16.48,0,0,0-4.45-.54,9.46,9.46,0,0,0-6,1.65,5.65,5.65,0,0,0-2.06,4.67,5,5,0,0,0,1,3.29,6.05,6.05,0,0,0,2.65,1.81,50,50,0,0,0,5.1,1.48,15.84,15.84,0,0,1,6.91,3.21,7.55,7.55,0,0,1,2.16,5.79,9.33,9.33,0,0,1-3.16,7.4q-3.17,2.76-8.65,2.76Q227.47,240.51,224.45,238.82Z" transform="translate(-26.07 -15.23)"/><path class="cls-1" d="M254.65,195.72h3.23v3.37h-3.23Zm.21,11.07h2.81v32.84h-2.81Z" transform="translate(-26.07 -15.23)"/><path class="cls-1" d="M268.61,206.79l8.57,23.49q1.38,3.58,2.29,6.61h.14l11-30.1h3l-12.48,32.84H278l-12.45-32.84Z" transform="translate(-26.07 -15.23)"/><path class="cls-1" d="M299.09,223.28q0-7.87,4-12.6A13.36,13.36,0,0,1,313.82,206a13.22,13.22,0,0,1,10.67,4.71q3.94,4.71,3.95,12.62,0,7.69-4,12.46a13.21,13.21,0,0,1-10.58,4.77,13.41,13.41,0,0,1-10.73-4.7Q299.09,231.13,299.09,223.28Zm26.4,0q0-6.78-3.17-10.77a10.28,10.28,0,0,0-8.5-4,10.43,10.43,0,0,0-8.6,4q-3.18,4-3.18,10.79T305.19,234a11.34,11.34,0,0,0,17.17,0C324.45,231.37,325.49,227.81,325.49,223.28Z" transform="translate(-26.07 -15.23)"/><path class="cls-1" d="M76.55,338.86v-2.74a40.8,40.8,0,0,0,4.67,1.41,20.76,20.76,0,0,0,4.47.45A14.25,14.25,0,0,0,93,336.29a10.32,10.32,0,0,0,4.2-4.35,12.89,12.89,0,0,0,1.32-5.77,9.15,9.15,0,0,0-3.89-8q-3.88-2.71-11.37-2.72a41.61,41.61,0,0,0-4.81.21l3.09-22.47h19.93v2.68H84.11l-2.36,16.76h2.14q8.34,0,13,3.52a11.5,11.5,0,0,1,4.66,9.74q0,6.75-4.25,10.72t-11.43,4A24,24,0,0,1,76.55,338.86Z" transform="translate(-26.07 -15.23)"/><path class="cls-1" d="M123.45,309.82q0-8,3.86-12.74a12.72,12.72,0,0,1,10.37-4.73,14.12,14.12,0,0,1,5.86,1.12,11.18,11.18,0,0,1,4.3,3.56H148l-.14-4V275.12h2.82v44.44q0,4.08.21,6.47h-2.11L148,322.2h-.14a11.24,11.24,0,0,1-4.37,3.3,13.58,13.58,0,0,1-5.86,1.41,14.16,14.16,0,0,1-7.06-1.81,13,13,0,0,1-5.15-5.64A21.18,21.18,0,0,1,123.45,309.82Zm24.39,8.79V300q-4.32-5.07-10.09-5.06a9.83,9.83,0,0,0-8.31,4q-3,4-3,11,0,6.72,3,10.53a10,10,0,0,0,8.28,3.82,11.83,11.83,0,0,0,6-1.6A10.85,10.85,0,0,0,147.84,318.61Z" transform="translate(-26.07 -15.23)"/><path class="cls-1" d="M163,282.12h3.24v3.37H163Zm.21,11.07H166V326h-2.81Z" transform="translate(-26.07 -15.23)"/><path class="cls-1" d="M175.9,316.61a9.06,9.06,0,0,1,3.18-7.21,12.12,12.12,0,0,1,8.21-2.74,29.68,29.68,0,0,1,10.09,1.93v-4.22c0-3.11-.81-5.47-2.43-7.06s-4.19-2.39-7.73-2.39a27.59,27.59,0,0,0-8.44,1.65v-2.64a11.7,11.7,0,0,1,3.53-1.11,26.66,26.66,0,0,1,4.91-.47q6.57,0,9.77,3t3.2,9v11.15c0,2.32.1,5.82.28,10.51h-2.53l-.49-3.83h-.14a13.69,13.69,0,0,1-4.71,3.3,14.31,14.31,0,0,1-6,1.41,11.39,11.39,0,0,1-7.76-2.57Q175.9,321.77,175.9,316.61Zm21.48,2.63v-8.19a31,31,0,0,0-4.73-1.39,32.53,32.53,0,0,0-5.71-.4,8.72,8.72,0,0,0-6,1.92,6.86,6.86,0,0,0-2.16,5.43q0,3.93,2.15,5.85a8.16,8.16,0,0,0,5.66,1.92,12.32,12.32,0,0,0,6.36-1.51A19.1,19.1,0,0,0,197.38,319.24Z" transform="translate(-26.07 -15.23)"/><path class="cls-1" d="M210.11,325.22V322.3a18.24,18.24,0,0,0,8.93,2.08,10.33,10.33,0,0,0,6.62-1.95,6.61,6.61,0,0,0,2.45-5.47,5.21,5.21,0,0,0-1.62-4.11,12.65,12.65,0,0,0-5.42-2.36,39.61,39.61,0,0,1-5.69-1.76,8.89,8.89,0,0,1-3.62-2.67,7.19,7.19,0,0,1-1.41-4.64q0-4.6,3.1-6.84a13.15,13.15,0,0,1,7.91-2.23,18.36,18.36,0,0,1,8.19,1.86V297a22.6,22.6,0,0,0-4-1.57,16.48,16.48,0,0,0-4.45-.54,9.45,9.45,0,0,0-6,1.65,5.63,5.63,0,0,0-2.06,4.67,5,5,0,0,0,1,3.29,6,6,0,0,0,2.65,1.81,48.5,48.5,0,0,0,5.1,1.48,15.84,15.84,0,0,1,6.91,3.21,7.55,7.55,0,0,1,2.16,5.79,9.33,9.33,0,0,1-3.17,7.4q-3.17,2.76-8.64,2.76Q213.13,326.91,210.11,325.22Z" transform="translate(-26.07 -15.23)"/><path class="cls-1" d="M256.48,293.19l.88,3.84h.07a12.6,12.6,0,0,1,4.55-3.36,13.35,13.35,0,0,1,5.61-1.32q6.89,0,10.53,4.45t3.63,12.53q0,7-2.39,10.88a12.65,12.65,0,0,1-5.57,5.31,15.38,15.38,0,0,1-6.2,1.39q-6.48,0-10.23-4h-.07l.07,6.39v13.12h-2.82V293.19ZM278.8,309.4q0-6.88-2.95-10.69a9.87,9.87,0,0,0-8.26-3.79,12.46,12.46,0,0,0-10.23,5.48V320a16.25,16.25,0,0,0,4.76,3.31,13.54,13.54,0,0,0,5.4,1,11.91,11.91,0,0,0,7.69-2.94C277.61,319.42,278.8,315.42,278.8,309.4Z" transform="translate(-26.07 -15.23)"/><path class="cls-1" d="M289.24,316.61a9.06,9.06,0,0,1,3.18-7.21,12.12,12.12,0,0,1,8.21-2.74,29.63,29.63,0,0,1,10.09,1.93v-4.22c0-3.11-.81-5.47-2.42-7.06s-4.2-2.39-7.74-2.39a27.48,27.48,0,0,0-8.43,1.65v-2.64a11.7,11.7,0,0,1,3.53-1.11,26.56,26.56,0,0,1,4.9-.47c4.39,0,7.64,1,9.78,3s3.2,5,3.2,9v11.15q0,3.48.28,10.51h-2.53l-.5-3.83h-.14a13.69,13.69,0,0,1-4.71,3.3,14.28,14.28,0,0,1-6,1.41,11.34,11.34,0,0,1-7.75-2.57Q289.24,321.77,289.24,316.61Zm21.48,2.63v-8.19a30.7,30.7,0,0,0-4.73-1.39,32.45,32.45,0,0,0-5.71-.4,8.71,8.71,0,0,0-6,1.92,6.86,6.86,0,0,0-2.16,5.43q0,3.93,2.14,5.85a8.17,8.17,0,0,0,5.66,1.92,12.29,12.29,0,0,0,6.36-1.51A18.9,18.9,0,0,0,310.72,319.24Z" transform="translate(-26.07 -15.23)"/><path class="cls-1" d="M328.3,293.19l.49,5.84h.07a14.83,14.83,0,0,1,5.51-4.78,15.35,15.35,0,0,1,7.33-1.9h.91v2.78h-.91a14.39,14.39,0,0,0-7.44,2.11,14,14,0,0,0-5.4,5.52V326h-2.81V293.19Z" transform="translate(-26.07 -15.23)"/><path class="cls-1" d="M347,316.61a9,9,0,0,1,3.19-7.21,12.09,12.09,0,0,1,8.2-2.74,29.63,29.63,0,0,1,10.09,1.93v-4.22c0-3.11-.8-5.47-2.42-7.06s-4.2-2.39-7.74-2.39a27.48,27.48,0,0,0-8.43,1.65v-2.64a11.7,11.7,0,0,1,3.53-1.11,26.56,26.56,0,0,1,4.9-.47c4.39,0,7.64,1,9.78,3s3.2,5,3.2,9v11.15q0,3.48.28,10.51h-2.53l-.5-3.83h-.14a13.69,13.69,0,0,1-4.71,3.3,14.28,14.28,0,0,1-6,1.41,11.36,11.36,0,0,1-7.75-2.57Q347,321.77,347,316.61Zm21.48,2.63v-8.19a30.61,30.61,0,0,0-4.72-1.39,32.66,32.66,0,0,0-5.72-.4,8.71,8.71,0,0,0-6,1.92,6.86,6.86,0,0,0-2.16,5.43q0,3.93,2.14,5.85a8.17,8.17,0,0,0,5.66,1.92,12.27,12.27,0,0,0,6.36-1.51A18.9,18.9,0,0,0,368.48,319.24Z" transform="translate(-26.07 -15.23)"/><path class="cls-1" d="M393.23,295.87v-2.68h6v-6q0-6.61,3.29-9.76a11.89,11.89,0,0,1,8.59-3.15,23.51,23.51,0,0,1,4,.32v2.64a22.57,22.57,0,0,0-3.77-.35q-4.6,0-6.94,2.53T402,287.5v5.69h10.44v2.68H402V326h-2.81V295.87Z" transform="translate(-26.07 -15.23)"/><path class="cls-1" d="M417.49,316.61a9.06,9.06,0,0,1,3.18-7.21,12.12,12.12,0,0,1,8.21-2.74A29.63,29.63,0,0,1,439,308.59v-4.22c0-3.11-.81-5.47-2.42-7.06s-4.2-2.39-7.74-2.39a27.48,27.48,0,0,0-8.43,1.65v-2.64a11.7,11.7,0,0,1,3.53-1.11,26.56,26.56,0,0,1,4.9-.47c4.39,0,7.64,1,9.78,3s3.2,5,3.2,9v11.15q0,3.48.28,10.51h-2.53l-.5-3.83h-.14a13.69,13.69,0,0,1-4.71,3.3,14.28,14.28,0,0,1-6,1.41,11.34,11.34,0,0,1-7.75-2.57Q417.49,321.77,417.49,316.61ZM439,319.24v-8.19a30.7,30.7,0,0,0-4.73-1.39,32.45,32.45,0,0,0-5.71-.4,8.71,8.71,0,0,0-6,1.92,6.86,6.86,0,0,0-2.16,5.43q0,3.93,2.14,5.85a8.17,8.17,0,0,0,5.66,1.92,12.29,12.29,0,0,0,6.36-1.51A18.9,18.9,0,0,0,439,319.24Z" transform="translate(-26.07 -15.23)"/><path class="cls-1" d="M457,322.2H457l-.35,3.83h-2.53q.21-5.17.21-10.3V275.12h2.81v22.19h.07a12.87,12.87,0,0,1,4.5-3.62,13,13,0,0,1,5.87-1.34q6.72,0,10.34,4.34t3.62,12.85a21.47,21.47,0,0,1-1.95,9.62,13.24,13.24,0,0,1-12.29,7.75,12.08,12.08,0,0,1-5.92-1.34A17.32,17.32,0,0,1,457,322.2Zm21.52-12.66q0-14.62-10.93-14.62-6.17,0-10.52,5.41V319.1a14,14,0,0,0,3.92,3.57,11.08,11.08,0,0,0,6.1,1.64,10,10,0,0,0,8.35-4Q478.55,316.37,478.56,309.54Z" transform="translate(-26.07 -15.23)"/><path class="cls-1" d="M493.85,293.19l.49,5.84h.07a14.83,14.83,0,0,1,5.51-4.78,15.35,15.35,0,0,1,7.33-1.9h.91v2.78h-.91a14.39,14.39,0,0,0-7.44,2.11,14,14,0,0,0-5.4,5.52V326H491.6V293.19Z" transform="translate(-26.07 -15.23)"/><path class="cls-1" d="M515,282.12h3.23v3.37H515Zm.21,11.07H518V326h-2.81Z" transform="translate(-26.07 -15.23)"/><path class="cls-1" d="M528.06,309.89a20.12,20.12,0,0,1,2.27-10.18,13.75,13.75,0,0,1,5.71-5.64,15.74,15.74,0,0,1,7.14-1.72,22.3,22.3,0,0,1,4.81.51,13.71,13.71,0,0,1,3.8,1.35v2.89a18.18,18.18,0,0,0-4.2-1.59,18.78,18.78,0,0,0-4.48-.59,12,12,0,0,0-5.82,1.49,11.19,11.19,0,0,0-4.52,4.87A18.76,18.76,0,0,0,531,310q0,6.59,3.45,10.46a11.77,11.77,0,0,0,9.28,3.89,22.5,22.5,0,0,0,8.58-2v2.64a19.44,19.44,0,0,1-8.79,2,16.25,16.25,0,0,1-7.82-1.87,13.57,13.57,0,0,1-5.58-5.67A19.7,19.7,0,0,1,528.06,309.89Z" transform="translate(-26.07 -15.23)"/><path class="cls-1" d="M559.28,316.61a9.06,9.06,0,0,1,3.18-7.21,12.12,12.12,0,0,1,8.21-2.74,29.68,29.68,0,0,1,10.09,1.93v-4.22c0-3.11-.81-5.47-2.43-7.06s-4.19-2.39-7.73-2.39a27.53,27.53,0,0,0-8.44,1.65v-2.64a11.7,11.7,0,0,1,3.53-1.11,26.66,26.66,0,0,1,4.91-.47q6.57,0,9.77,3t3.2,9v11.15q0,3.48.28,10.51h-2.53l-.49-3.83h-.14a13.69,13.69,0,0,1-4.71,3.3,14.32,14.32,0,0,1-6,1.41,11.36,11.36,0,0,1-7.75-2.57Q559.29,321.77,559.28,316.61Zm21.48,2.63v-8.19a31,31,0,0,0-4.73-1.39,32.61,32.61,0,0,0-5.71-.4,8.72,8.72,0,0,0-6,1.92,6.86,6.86,0,0,0-2.16,5.43c0,2.62.72,4.57,2.14,5.85a8.17,8.17,0,0,0,5.66,1.92,12.33,12.33,0,0,0,6.37-1.51A19.1,19.1,0,0,0,580.76,319.24Z" transform="translate(-26.07 -15.23)"/><path class="cls-1" d="M602.94,342v-2.33a11.8,11.8,0,0,0,4,.57,9.73,9.73,0,0,0,4.48-.9,3,3,0,0,0,1.74-2.83q0-3.9-7.42-3.9l1.73-5.73a14.14,14.14,0,0,1-10.16-5.08q-3.66-4.49-3.66-11.87a20.22,20.22,0,0,1,2.27-10.18,13.75,13.75,0,0,1,5.71-5.64,15.77,15.77,0,0,1,7.14-1.72,22.3,22.3,0,0,1,4.81.51,13.59,13.59,0,0,1,3.8,1.35v2.89a18.18,18.18,0,0,0-4.2-1.59,18.78,18.78,0,0,0-4.48-.59,12,12,0,0,0-5.82,1.49,11.19,11.19,0,0,0-4.52,4.87,18.76,18.76,0,0,0-1.76,8.68q0,6.59,3.45,10.46a11.79,11.79,0,0,0,9.28,3.89,22.5,22.5,0,0,0,8.58-2v2.64a20.15,20.15,0,0,1-7.95,2l-1.19,3.65a10.55,10.55,0,0,1,5.22,1.71,4.74,4.74,0,0,1,2,4.13,5.26,5.26,0,0,1-2.25,4.62,11.13,11.13,0,0,1-6.43,1.57A11.92,11.92,0,0,1,602.94,342Z" transform="translate(-26.07 -15.23)"/><path class="cls-1" d="M624.88,316.61a9.06,9.06,0,0,1,3.18-7.21,12.12,12.12,0,0,1,8.21-2.74,29.68,29.68,0,0,1,10.09,1.93v-4.22c0-3.11-.81-5.47-2.43-7.06s-4.19-2.39-7.73-2.39a27.59,27.59,0,0,0-8.44,1.65v-2.64a11.7,11.7,0,0,1,3.53-1.11,26.66,26.66,0,0,1,4.91-.47q6.57,0,9.77,3t3.2,9v11.15c0,2.32.1,5.82.28,10.51h-2.53l-.49-3.83h-.14a13.69,13.69,0,0,1-4.71,3.3,14.28,14.28,0,0,1-6,1.41,11.39,11.39,0,0,1-7.76-2.57Q624.89,321.77,624.88,316.61Zm7.45-36.28a2.85,2.85,0,0,0-2.27,1,4.27,4.27,0,0,0-.82,2.83h-2.39v-.21a6.85,6.85,0,0,1,1.32-4.22,4.93,4.93,0,0,1,4.23-1.75,6.74,6.74,0,0,1,2.83.59,27,27,0,0,1,3.11,1.73,22.45,22.45,0,0,0,2.2,1.3,3.88,3.88,0,0,0,1.71.42,2.61,2.61,0,0,0,2.35-1.13,5,5,0,0,0,.74-2.77h2.46v.35a6.87,6.87,0,0,1-1.23,4.15q-1.23,1.68-4.39,1.68a7,7,0,0,1-2.9-.59A23.55,23.55,0,0,1,636.2,282a21.25,21.25,0,0,0-2.2-1.25A3.89,3.89,0,0,0,632.33,280.33Zm14,38.91v-8.19a30.7,30.7,0,0,0-4.73-1.39,32.53,32.53,0,0,0-5.71-.4,8.74,8.74,0,0,0-6,1.92,6.86,6.86,0,0,0-2.16,5.43q0,3.93,2.15,5.85a8.16,8.16,0,0,0,5.66,1.92,12.32,12.32,0,0,0,6.36-1.51A19.1,19.1,0,0,0,646.36,319.24Z" transform="translate(-26.07 -15.23)"/><path class="cls-1" d="M659.26,309.68q0-7.87,4-12.6a13.35,13.35,0,0,1,10.7-4.73,13.2,13.2,0,0,1,10.67,4.71q4,4.71,4,12.62,0,7.69-4,12.46A13.19,13.19,0,0,1,674,326.91a13.39,13.39,0,0,1-10.72-4.7Q659.27,317.53,659.26,309.68Zm26.4,0q0-6.78-3.16-10.77a10.3,10.3,0,0,0-8.51-4,10.41,10.41,0,0,0-8.59,4q-3.18,4-3.19,10.79t3.15,10.69a11.35,11.35,0,0,0,17.18,0C684.62,317.77,685.66,314.21,685.66,309.68Z" transform="translate(-26.07 -15.23)"/><path class="cls-2" d="M714.32,299.76a6,6,0,0,1,1.78-3.87c.08,0,.21,0,.24-.06,2.25-2.95,5-5,8.93-4.65,1.89.16,3.3-1.22,5.07-1.5,1.6-.25,3.18.14,4.77,0s2.86,1.22,4.44,1.34c.64.75,1.8.25,2.45,1a4,4,0,0,0,2.4,1c.19.71,1.74,0,1.35,1.29l-7.15,4.43c-.63.56-1.3,1.08-1.9,1.68-1.31.87-2.06,2.46-3.71,2.89-.89-.67-1.81-.19-2.69,0a33.73,33.73,0,0,1-9.36,0C718.26,303,716.34,301.28,714.32,299.76Z" transform="translate(-26.07 -15.23)"/><path class="cls-2" d="M696.93,308.44c-4-9.54-2.26-17.11,5.51-23.65,1.71-1.43,4-1.36,5.83-2.46,1.17.4.44,1.25.39,1.87-.18,2-1,3.89-.87,5.94l-.06.24,0,.25a24.21,24.21,0,0,1-1.46,7.57c-.81,3.8-2.91,6.46-6.71,7.63-.83.86-.45,1.9-.39,2.88a.92.92,0,0,1-.57.39A2.6,2.6,0,0,1,696.93,308.44Z" transform="translate(-26.07 -15.23)"/><path class="cls-3" d="M720.62,321.38c1.13.79,3,1.55,2.71,2.87-.22,1.15-2.25.5-3.4.92a6.17,6.17,0,0,1-3.73.09c-1.43.41-2.74-.72-4.16-.29l-2.46-.54c1.16-1.67,2.68-.73,3.86-.61-5.22-2.75-10-6.27-12.75-12-.38-.81-.78-1.49-1.71-1.71-.45-.41-.55-.83,0-1.26l0,0c2.13-.33,4.07,1,6.19.67,1.12.44,2.53,0,3.4,1.17-1.46,1.55-.87,3.22-.07,4.74s2.25,1.48,3.79,1.52a6.63,6.63,0,0,1,4.75,2.21A6.17,6.17,0,0,0,720.62,321.38Z" transform="translate(-26.07 -15.23)"/><path class="cls-4" d="M714.32,299.76c.45,0,.83-.95,1.28-.3,2.81,4.07,7.17,3.18,11.11,3.46a9.23,9.23,0,0,0,4.5-.63c.81-.35,1.76-.31,1.78,1l-1.79,1.27c-1.79.15-3.57.39-5.37.54h0c-1.24.24-2.51.12-3.74.33h0c-1.24.47-2.41-.63-3.65-.17l-3.48-.68c-.8-.84-2.18-.21-2.94-1.15C712.35,301.93,713.45,300.92,714.32,299.76Z" transform="translate(-26.07 -15.23)"/><path class="cls-4" d="M720.62,321.38c-1.23.5-2.64,0-3.82-1.43-.74-.89-2.12-1.15-2.61-1.57-1.67-1.41-3.61-.3-5.23-1.31-1.86-1.16-1.49-3.12-2.14-4.67-.32-.77.52-1.73,1.71-1.71a17.07,17.07,0,0,1,5.77,4.45C716.32,317.32,718.43,319.38,720.62,321.38Z" transform="translate(-26.07 -15.23)"/><path class="cls-5" d="M735.11,289.69c-.75,1.89-2.09.29-3.08.38-2.57.24-4.71,1.88-7.29,2-.64,0-1.33.67-2,.24-1.28-.9-2-.17-2.79.73-.94,1.09-2,2.12-2.94,3.18-.51.54-1,.91-1-.3.24-1.72,1.93-2.6,2.41-4.18a9.36,9.36,0,0,1,5.23-2.68h0c.89-.3,1.85-.27,2.76-.52l4.19-.26a4.76,4.76,0,0,1,3.94,1.25A4.09,4.09,0,0,1,735.11,289.69Z" transform="translate(-26.07 -15.23)"/><path class="cls-6" d="M699.24,310c1-.76,1.54-.16,1.87.78,1.67,4.9,5.29,8.13,9.54,10.66,1.2.72,2.12,1.64,3.51,2.65-1.73.2-3.22-.21-4.58.37a1,1,0,0,1-1-.63,60.1,60.1,0,0,1-5.69-5.82c-.27-.4-.54-.8-.8-1.2-.38-1-1.18-1.87-1.52-2.93h0C700.44,312.46,698.38,311.74,699.24,310Z" transform="translate(-26.07 -15.23)"/><path class="cls-7" d="M702.94,318a32.66,32.66,0,0,1,5.69,5.82A14.18,14.18,0,0,1,702.94,318Z" transform="translate(-26.07 -15.23)"/><path class="cls-7" d="M699.24,310c-.25,1.55,1.59,2.35,1.39,3.89-1.79-1.43-2.24-3.77-3.7-5.42l2,.39A1.12,1.12,0,0,0,699.24,310Z" transform="translate(-26.07 -15.23)"/><path class="cls-7" d="M705.13,309.52c-2.15.64-4.12-.5-6.19-.67-.19-1.09-.61-2.21.59-3-.63,1.95.22,2.81,2.13,3C702.83,309,704,309.29,705.13,309.52Z" transform="translate(-26.07 -15.23)"/><path class="cls-7" d="M707.79,290.14c-.68-1.62.31-3.1.39-4.65.06-1.05.82-2.08.09-3.16,1.37-.46.9.57.81,1.09C708.69,285.67,708.23,287.9,707.79,290.14Z" transform="translate(-26.07 -15.23)"/><path class="cls-7" d="M706.24,298.2c.49-2.52,1-5.05,1.46-7.57A12,12,0,0,1,706.24,298.2Z" transform="translate(-26.07 -15.23)"/><path class="cls-7" d="M723.74,289l-5.23,2.68C719.63,289.59,721.54,289,723.74,289Z" transform="translate(-26.07 -15.23)"/><path class="cls-7" d="M725.83,305.12a10.68,10.68,0,0,1,5.37-.54A9.57,9.57,0,0,1,725.83,305.12Z" transform="translate(-26.07 -15.23)"/><path class="cls-7" d="M734.62,289.51c-1.37-.23-2.48-1.28-3.94-1.25C732.22,288,733.81,287.49,734.62,289.51Z" transform="translate(-26.07 -15.23)"/><path class="cls-7" d="M722.11,305.44a5.73,5.73,0,0,1,3.74-.33A4.83,4.83,0,0,1,722.11,305.44Z" transform="translate(-26.07 -15.23)"/><path class="cls-7" d="M700.62,313.85c.77.84,1.61,1.65,1.52,2.93C701.32,316,700.44,315.18,700.62,313.85Z" transform="translate(-26.07 -15.23)"/><path class="cls-7" d="M712,325c1.44-.67,2.77.21,4.16.29C714.75,326,713.43,325,712,325Z" transform="translate(-26.07 -15.23)"/><path class="cls-7" d="M718.47,305.27c1.25-.68,2.43.11,3.65.17C720.86,306.24,719.68,305.31,718.47,305.27Z" transform="translate(-26.07 -15.23)"/><path class="cls-7" d="M712.05,303.44c1,.44,2.2.14,2.94,1.15C714,304.22,712.7,304.65,712.05,303.44Z" transform="translate(-26.07 -15.23)"/><path class="cls-7" d="M736.7,300.42a2.36,2.36,0,0,1,1.9-1.68A2.44,2.44,0,0,1,736.7,300.42Z" transform="translate(-26.07 -15.23)"/><path class="cls-7" d="M726.49,288.52a3.43,3.43,0,0,1-2.76.52A2.8,2.8,0,0,1,726.49,288.52Z" transform="translate(-26.07 -15.23)"/><path class="cls-7" d="M742,292c-.85-.26-1.87-.07-2.45-1C740.39,291.31,741.45,291,742,292Z" transform="translate(-26.07 -15.23)"/><path class="cls-7" d="M745.75,294.31,744.4,293C744.92,293.38,746.44,292.69,745.75,294.31Z" transform="translate(-26.07 -15.23)"/><path class="cls-1" d="M697.5,308.81c3.08-1.3,6.14-2.57,9.17-3.9a12.69,12.69,0,0,0,5.69-5.15c1.76-2.87,3.62-5.72,6.35-7.64s6-3.7,9.84-3.26c3.66.42,7.28.9,10.67,2.46,1.75.81,3.52,1.6,5.26,2.44.25.12.58.46.56.66s-.37.52-.64.61a13,13,0,0,0-5.09,3.58,18.53,18.53,0,0,1-4.11,3.09c-2,1.09-4.1,1.92-6.17,2.84a14.93,14.93,0,0,1-9.43.66c-3.64-.79-7.3-1.23-10.88.62-1.2.63-2.74.56-4.05,1-2.06.73-4,1.64-5.85,2.38,2.36.69,4.88,1.47,7.42,2.14a12.18,12.18,0,0,1,5.45,3.49c2.86,2.84,5.7,5.69,8.61,8.49a17.6,17.6,0,0,0,2.26,1.48,1.13,1.13,0,0,1,.41.66c0,.12-.3.38-.49.42-1.94.35-3.88.69-5.83,1a11,11,0,0,1-10-2.85,43.32,43.32,0,0,1-8.2-10.41,4.8,4.8,0,0,0-.83-1.07c-1.94-1.86-2.41-4.4-3.17-6.79a51.45,51.45,0,0,1-1.74-6.17,12.5,12.5,0,0,1,3.77-11.72,34.07,34.07,0,0,1,9.87-6.47,5.33,5.33,0,0,1,1.62-.2,5.47,5.47,0,0,1-.42,1.66c-1.56,2.51-1.59,5.32-1.75,8.13s0,5.63-1.39,8.22a4.6,4.6,0,0,1-.38.77c-2.07,2.72-4.15,5.42-6.22,8.13A4,4,0,0,0,697.5,308.81Zm45.22-14.59c-3-1.61-6.18-3.34-9.82-3.8-3-.39-6.06-1.27-9.09.14-2.21,1-4.51,1.86-6.07,3.86-1.94,2.48-3.87,5-5.91,7.59,3.28-1.64,6.22-3.38,9.36-4.59,3.34-1.3,9-1.43,10-.6a95.33,95.33,0,0,0-10,1.65,24.8,24.8,0,0,0-8.76,5c.79.07,1.44.1,2.09.19,2.36.33,4.73.66,7.09,1a11.89,11.89,0,0,0,6.52-.85,52.23,52.23,0,0,0,8.2-4C738.7,298.28,740.61,296.12,742.72,294.22Zm-44.87,12.36a6.27,6.27,0,0,0,.54-.57c1.47-2,3-4,4.38-6.12a7.89,7.89,0,0,0,1.38-2.84c.36-2.09.4-4.24.65-6.36.31-2.59.7-5.18,1.05-7.75.06,0-.1,0-.24.05a27.17,27.17,0,0,0-8.53,5.82c-2.74,2.77-4.17,6.11-3.49,10.08a39.89,39.89,0,0,0,1.14,4.68c.42,1.39,1,2.73,1.5,4.09a6,6,0,0,0,.7-2.29c.33-3.22.06-6.49,1.15-9.65a13.48,13.48,0,0,1,3.24-5.45c.26-.25.78-.22,1.18-.32a5.61,5.61,0,0,1-.44,1,36.55,36.55,0,0,0-2.57,4C697.85,298.56,698.15,302.46,697.85,306.58ZM720.59,325c-2.26-2.21-4.43-4.22-6.46-6.37-3-3.2-6-6.35-10.62-7.24-1.72-.33-3.42-.84-5.13-1.27l-.15.51c.47.17.93.39,1.42.52a9.17,9.17,0,0,1,5,3,39.23,39.23,0,0,0,6.49,6.58,3.57,3.57,0,0,1,.58.87l-.28.31a6.83,6.83,0,0,1-1.51-.89c-2-2-4-3.94-5.84-6-1.45-1.63-3.81-3-5.4-2.8a10,10,0,0,1,.69,1,35,35,0,0,0,9.29,11.23,7.6,7.6,0,0,0,2.89,1.58C714.59,326.66,717.51,325.77,720.59,325Z" transform="translate(-26.07 -15.23)"/><path class="cls-2" d="M57.68,33.76a6,6,0,0,0-1.78-3.87c-.08,0-.21,0-.24-.06-2.25-2.95-5-5-8.93-4.65-1.89.16-3.3-1.22-5.07-1.5-1.6-.25-3.18.14-4.77,0S34,24.91,32.45,25c-.64.75-1.8.25-2.45,1a4,4,0,0,1-2.4,1c-.19.71-1.74,0-1.35,1.29l7.15,4.43c.63.56,1.3,1.08,1.9,1.68,1.31.87,2.06,2.46,3.71,2.89.89-.67,1.81-.19,2.69,0a33.73,33.73,0,0,0,9.36,0C53.74,37,55.66,35.28,57.68,33.76Z" transform="translate(-26.07 -15.23)"/><path class="cls-2" d="M75.07,42.44c4-9.54,2.26-17.11-5.51-23.65-1.71-1.43-4-1.36-5.83-2.46-1.17.4-.44,1.25-.39,1.87.18,2,1,3.89.87,5.94l.06.24,0,.25a24.21,24.21,0,0,0,1.46,7.57c.81,3.8,2.91,6.46,6.71,7.63.83.86.45,1.9.39,2.88a.92.92,0,0,0,.57.39A2.6,2.6,0,0,0,75.07,42.44Z" transform="translate(-26.07 -15.23)"/><path class="cls-3" d="M51.38,55.38c-1.13.79-3,1.55-2.71,2.87.22,1.15,2.25.5,3.4.92a6.17,6.17,0,0,0,3.73.09c1.43.41,2.74-.72,4.16-.29l2.46-.54c-1.16-1.67-2.68-.73-3.86-.61,5.22-2.75,10-6.27,12.75-12,.38-.81.78-1.49,1.71-1.71.45-.41.55-.83,0-1.26l0,0c-2.13-.33-4.07,1-6.19.67-1.12.44-2.53,0-3.4,1.17,1.46,1.55.87,3.22.07,4.74S61.29,50.91,59.75,51A6.63,6.63,0,0,0,55,53.16,6.17,6.17,0,0,1,51.38,55.38Z" transform="translate(-26.07 -15.23)"/><path class="cls-4" d="M57.68,33.76c-.45,0-.83-.95-1.28-.3-2.81,4.07-7.17,3.18-11.11,3.46a9.23,9.23,0,0,1-4.5-.63C40,35.94,39,36,39,37.31l1.79,1.27c1.79.15,3.57.39,5.37.54h0c1.24.24,2.51.12,3.74.33h0c1.24.47,2.41-.63,3.65-.17L57,38.59c.8-.84,2.18-.21,2.94-1.15C59.65,35.93,58.55,34.92,57.68,33.76Z" transform="translate(-26.07 -15.23)"/><path class="cls-4" d="M51.38,55.38c1.23.5,2.64,0,3.82-1.43.74-.89,2.12-1.15,2.61-1.57,1.67-1.41,3.61-.3,5.23-1.31,1.86-1.16,1.49-3.12,2.14-4.67.32-.77-.52-1.73-1.71-1.71a17.07,17.07,0,0,0-5.77,4.45C55.68,51.32,53.56,53.38,51.38,55.38Z" transform="translate(-26.07 -15.23)"/><path class="cls-5" d="M36.89,23.69c.75,1.89,2.09.29,3.08.38,2.57.24,4.71,1.88,7.29,2,.64,0,1.33.67,2,.24,1.28-.9,2-.17,2.79.73.94,1.09,2,2.12,2.94,3.18.51.54,1,.91,1-.3-.24-1.72-1.93-2.6-2.41-4.18A9.36,9.36,0,0,0,48.26,23h0c-.89-.3-1.85-.27-2.76-.52l-4.19-.26a4.76,4.76,0,0,0-3.94,1.25A4.09,4.09,0,0,0,36.89,23.69Z" transform="translate(-26.07 -15.23)"/><path class="cls-6" d="M72.76,44c-1.05-.76-1.54-.16-1.87.78-1.67,4.9-5.29,8.13-9.54,10.66-1.2.72-2.12,1.64-3.51,2.65,1.73.2,3.22-.21,4.58.37a1,1,0,0,0,.95-.63A60.1,60.1,0,0,0,69.06,52l.8-1.2c.38-1,1.18-1.87,1.52-2.93h0C71.56,46.46,73.62,45.74,72.76,44Z" transform="translate(-26.07 -15.23)"/><path class="cls-7" d="M69.06,52a32.66,32.66,0,0,0-5.69,5.82A14.18,14.18,0,0,0,69.06,52Z" transform="translate(-26.07 -15.23)"/><path class="cls-7" d="M72.76,44c.25,1.55-1.59,2.35-1.39,3.89,1.79-1.43,2.24-3.77,3.7-5.42l-2,.39A1.12,1.12,0,0,1,72.76,44Z" transform="translate(-26.07 -15.23)"/><path class="cls-7" d="M66.87,43.52c2.15.64,4.12-.5,6.19-.67.19-1.09.61-2.21-.59-3,.63,2-.22,2.81-2.13,3C69.17,43,68,43.29,66.87,43.52Z" transform="translate(-26.07 -15.23)"/><path class="cls-7" d="M64.21,24.14c.68-1.62-.31-3.1-.39-4.65-.06-1-.82-2.08-.09-3.16-1.37-.46-.9.57-.81,1.09C63.31,19.67,63.77,21.9,64.21,24.14Z" transform="translate(-26.07 -15.23)"/><path class="cls-7" d="M65.76,32.2c-.49-2.52-1-5.05-1.46-7.57A12,12,0,0,0,65.76,32.2Z" transform="translate(-26.07 -15.23)"/><path class="cls-7" d="M48.26,23l5.23,2.68C52.37,23.59,50.46,23,48.26,23Z" transform="translate(-26.07 -15.23)"/><path class="cls-7" d="M46.17,39.12a10.68,10.68,0,0,0-5.37-.54A9.57,9.57,0,0,0,46.17,39.12Z" transform="translate(-26.07 -15.23)"/><path class="cls-7" d="M37.38,23.51c1.37-.23,2.48-1.28,3.94-1.25C39.78,22,38.19,21.49,37.38,23.51Z" transform="translate(-26.07 -15.23)"/><path class="cls-7" d="M49.89,39.44a5.73,5.73,0,0,0-3.74-.33A4.83,4.83,0,0,0,49.89,39.44Z" transform="translate(-26.07 -15.23)"/><path class="cls-7" d="M71.38,47.85c-.77.84-1.61,1.65-1.52,2.93C70.68,50,71.56,49.18,71.38,47.85Z" transform="translate(-26.07 -15.23)"/><path class="cls-7" d="M60,59c-1.44-.67-2.77.21-4.16.29C57.25,60,58.57,59,60,59Z" transform="translate(-26.07 -15.23)"/><path class="cls-7" d="M53.53,39.27c-1.25-.68-2.43.11-3.65.17C51.14,40.24,52.32,39.31,53.53,39.27Z" transform="translate(-26.07 -15.23)"/><path class="cls-7" d="M60,37.44c-1,.44-2.2.14-2.94,1.15C58,38.22,59.3,38.65,60,37.44Z" transform="translate(-26.07 -15.23)"/><path class="cls-7" d="M35.3,34.42a2.36,2.36,0,0,0-1.9-1.68A2.44,2.44,0,0,0,35.3,34.42Z" transform="translate(-26.07 -15.23)"/><path class="cls-7" d="M45.51,22.52a3.43,3.43,0,0,0,2.76.52A2.8,2.8,0,0,0,45.51,22.52Z" transform="translate(-26.07 -15.23)"/><path class="cls-7" d="M30,26c.85-.26,1.87-.07,2.45-1C31.61,25.31,30.55,25,30,26Z" transform="translate(-26.07 -15.23)"/><path class="cls-7" d="M26.25,28.31,27.6,27C27.08,27.38,25.56,26.69,26.25,28.31Z" transform="translate(-26.07 -15.23)"/><path class="cls-1" d="M74.18,42.14C72.11,39.43,70,36.73,68,34a4.6,4.6,0,0,1-.38-.77c-1.34-2.59-1.22-5.43-1.39-8.22S66,19.4,64.44,16.89A5.47,5.47,0,0,1,64,15.23a5.33,5.33,0,0,1,1.62.2,34.07,34.07,0,0,1,9.87,6.47,12.5,12.5,0,0,1,3.77,11.72,51.45,51.45,0,0,1-1.74,6.17c-.76,2.39-1.23,4.93-3.17,6.79a4.8,4.8,0,0,0-.83,1.07,43.32,43.32,0,0,1-8.2,10.41,11,11,0,0,1-10,2.85c-2-.31-3.89-.65-5.83-1-.19,0-.5-.3-.49-.42a1.13,1.13,0,0,1,.41-.66,17.6,17.6,0,0,0,2.26-1.48c2.91-2.8,5.75-5.65,8.61-8.49a12.18,12.18,0,0,1,5.45-3.49c2.54-.67,5.06-1.45,7.42-2.14-1.8-.74-3.79-1.65-5.85-2.38-1.31-.47-2.85-.4-4-1C59.7,38,56,38.41,52.4,39.2A14.93,14.93,0,0,1,43,38.54c-2.07-.92-4.2-1.75-6.17-2.84a18.53,18.53,0,0,1-4.11-3.09A13,13,0,0,0,27.6,29c-.27-.09-.62-.38-.64-.61s.31-.54.56-.66c1.74-.84,3.51-1.63,5.26-2.44,3.39-1.56,7-2,10.67-2.46,3.83-.44,7,1.24,9.84,3.26s4.59,4.77,6.35,7.64a12.69,12.69,0,0,0,5.69,5.15c3,1.33,6.09,2.6,9.17,3.9A4,4,0,0,0,74.18,42.14ZM35.63,33.81a52.23,52.23,0,0,0,8.2,4,11.89,11.89,0,0,0,6.52.85c2.36-.37,4.73-.7,7.09-1,.65-.09,1.3-.12,2.09-.19a24.8,24.8,0,0,0-8.76-5,95.33,95.33,0,0,0-10-1.65c1-.83,6.66-.7,10,.6C54,32.63,56.89,34.37,60.17,36c-2-2.63-4-5.11-5.91-7.59-1.56-2-3.86-2.83-6.07-3.86-3-1.41-6.06-.53-9.09-.14-3.64.46-6.78,2.19-9.82,3.8C31.39,30.12,33.3,32.28,35.63,33.81ZM72.51,29a36.55,36.55,0,0,0-2.57-4,5.61,5.61,0,0,1-.44-1c.4.1.92.07,1.18.32a13.48,13.48,0,0,1,3.24,5.45c1.09,3.16.82,6.43,1.15,9.65a6,6,0,0,0,.7,2.29c.51-1.36,1.08-2.7,1.5-4.09a39.89,39.89,0,0,0,1.14-4.68c.68-4-.75-7.31-3.49-10.08A27.17,27.17,0,0,0,66.39,17c-.14-.06-.3-.07-.24,0,.35,2.57.74,5.16,1,7.75.25,2.12.29,4.27.65,6.36a7.89,7.89,0,0,0,1.38,2.84C70.63,36,72.14,38,73.61,40a6.27,6.27,0,0,0,.54.57C73.85,36.46,74.15,32.56,72.51,29ZM60.43,60a7.6,7.6,0,0,0,2.89-1.58A35,35,0,0,0,72.61,47.2a10,10,0,0,1,.69-1c-1.59-.18-4,1.17-5.4,2.8C66,51.07,64,53,62.06,55a6.83,6.83,0,0,1-1.51.89l-.28-.31a3.57,3.57,0,0,1,.58-.87,39.23,39.23,0,0,0,6.49-6.58,9.17,9.17,0,0,1,5-3c.49-.13,1-.35,1.42-.52l-.15-.51c-1.71.43-3.41.94-5.13,1.27-4.6.89-7.6,4-10.62,7.24-2,2.15-4.2,4.16-6.46,6.37C54.49,59.77,57.41,60.66,60.43,60Z" transform="translate(-26.07 -15.23)"/><path class="cls-1" d="M259.86,194.73c.75-.84,1.24-1.45,1.79-2a16.92,16.92,0,0,1,2.33-2.08c1.11-.75,2-.44,2.32.86.59,2.42.31,3.83-1.84,4.74-.22.09-.44.22-.73.37,1.1,1,3.58,1,2.67,3.4-.52,1.4-1.29,1.57-3.49,1a6.74,6.74,0,0,1,.33,2.38,3.41,3.41,0,0,1-1.34,2,1.89,1.89,0,0,1-2.48-.69,30.4,30.4,0,0,1-1.58-2.71c-1.82,2.68-3.56,3.41-5.34,2.2-1.33-.89-1-2.59.81-5a12.75,12.75,0,0,1-3-1.92c-.4-.44-.19-1.63,0-2.4.49-1.76,1.56-1.88,4.53-.68a7.17,7.17,0,0,1-.33-2.42,3.68,3.68,0,0,1,1.3-2.11c.78-.55,1.66-.12,2.39.55A5.46,5.46,0,0,1,259.86,194.73ZM257,198a40.59,40.59,0,0,0-3.87,3.23c-.38.41-.39,1.92-.13,2a3,3,0,0,0,2.39.19C257,202.66,257.7,200,257,198Zm1.86-.29-.4.25a8.16,8.16,0,0,0,1.61,6,1.89,1.89,0,0,0,1.63.62,1.33,1.33,0,0,0,.65-2C261.25,200.87,260,199.3,258.86,197.69Zm1.33-1.62c1.13-.15,2.19-.27,3.25-.43a3.17,3.17,0,0,0,.82-.32,2.45,2.45,0,0,0,.72-4A11.23,11.23,0,0,0,260.19,196.07Zm-3.42.59c-1.33-.74-2.53-1.42-3.74-2.07-.94-.52-1.5-.09-1.85.8a1.62,1.62,0,0,0,1.19,2.41C253.81,198,255.4,198.32,256.77,196.66Zm1.73,0a4.58,4.58,0,0,0-.94-5.49c-.33-.29-1-.59-1.28-.45a1.79,1.79,0,0,0-.81,1.28,3,3,0,0,0,.52,1.76C256.73,194.72,257.61,195.61,258.5,196.61Zm1.82.39c.68,2.08,2.3,2.81,3.94,3.39.35.12,1-.54,1.46-.84-.23-.37-.38-1-.71-1.08C263.47,197.91,261.89,197.48,260.32,197Z" transform="translate(-26.07 -15.23)"/><path class="cls-1" d="M166.37,279.63c.75-.85,1.24-1.45,1.79-2a16.92,16.92,0,0,1,2.33-2.08c1.11-.75,2-.44,2.32.86.58,2.42.31,3.83-1.84,4.74-.23.09-.44.22-.73.36,1.1,1.05,3.58,1,2.67,3.41-.53,1.4-1.29,1.57-3.5,1a6.73,6.73,0,0,1,.34,2.38,3.38,3.38,0,0,1-1.35,2,1.88,1.88,0,0,1-2.47-.69,30.4,30.4,0,0,1-1.58-2.71c-1.83,2.68-3.57,3.41-5.35,2.2-1.32-.89-1-2.59.81-5a12.15,12.15,0,0,1-3-1.91c-.4-.44-.19-1.63,0-2.4.49-1.76,1.55-1.89,4.53-.68a7.45,7.45,0,0,1-.34-2.42,3.64,3.64,0,0,1,1.31-2.11c.77-.55,1.66-.12,2.39.55A5.52,5.52,0,0,1,166.37,279.63Zm-2.86,3.25a39.16,39.16,0,0,0-3.87,3.23c-.39.41-.4,1.92-.13,2.05a3,3,0,0,0,2.39.19C163.46,287.56,164.2,284.91,163.51,282.88Zm1.86-.29-.4.25a8.11,8.11,0,0,0,1.6,6,1.9,1.9,0,0,0,1.63.62,1.33,1.33,0,0,0,.65-2C167.76,285.77,166.54,284.2,165.37,282.59Zm1.32-1.62c1.13-.15,2.2-.27,3.25-.44a2.72,2.72,0,0,0,.82-.31,2.45,2.45,0,0,0,.72-4A11.31,11.31,0,0,0,166.69,281Zm-3.41.59c-1.33-.74-2.53-1.42-3.74-2.07-.95-.52-1.51-.09-1.86.8a1.62,1.62,0,0,0,1.19,2.41C160.32,282.93,161.9,283.22,163.28,281.56Zm1.73-.05a4.58,4.58,0,0,0-.95-5.49c-.32-.29-1-.59-1.27-.45a1.79,1.79,0,0,0-.81,1.28,2.91,2.91,0,0,0,.52,1.76C163.23,279.62,164.12,280.5,165,281.51Zm1.81.39c.68,2.07,2.3,2.8,4,3.39.34.12,1-.54,1.46-.84-.23-.37-.39-1-.71-1.08C170,282.81,168.39,282.38,166.82,281.9Z" transform="translate(-26.07 -15.23)"/><path class="cls-1" d="M517.74,279.14c.76-.84,1.25-1.45,1.8-2a16.43,16.43,0,0,1,2.33-2.09c1.11-.74,2-.43,2.32.86.58,2.43.3,3.84-1.84,4.74-.23.09-.44.22-.73.37,1.09,1,3.57,1,2.67,3.4-.53,1.4-1.29,1.58-3.5,1a6.76,6.76,0,0,1,.34,2.38,3.44,3.44,0,0,1-1.35,2.05,1.89,1.89,0,0,1-2.47-.69,29.42,29.42,0,0,1-1.58-2.71c-1.83,2.68-3.57,3.4-5.35,2.2-1.32-.9-1-2.59.81-5a12.45,12.45,0,0,1-3-1.91c-.4-.45-.19-1.64,0-2.41.49-1.75,1.55-1.88,4.53-.68a7.45,7.45,0,0,1-.34-2.42,3.62,3.62,0,0,1,1.31-2.1c.77-.55,1.66-.13,2.39.54A5.48,5.48,0,0,1,517.74,279.14Zm-2.85,3.25a42.14,42.14,0,0,0-3.87,3.23c-.39.41-.4,1.92-.13,2.06a3,3,0,0,0,2.39.19C514.84,287.07,515.58,284.42,514.89,282.39Zm1.86-.28-.41.25a8.18,8.18,0,0,0,1.61,6,2,2,0,0,0,1.63.62,1.33,1.33,0,0,0,.65-2C519.14,285.28,517.92,283.71,516.75,282.11Zm1.32-1.62c1.13-.15,2.2-.28,3.25-.44a3,3,0,0,0,.82-.31,2.45,2.45,0,0,0,.72-4A11.31,11.31,0,0,0,518.07,280.49Zm-3.41.59c-1.33-.75-2.53-1.42-3.74-2.08-.95-.52-1.51-.09-1.86.8a1.61,1.61,0,0,0,1.19,2.41C511.7,282.45,513.28,282.74,514.66,281.08Zm1.73-.06a4.6,4.6,0,0,0-.95-5.49c-.33-.29-1-.59-1.27-.44a1.77,1.77,0,0,0-.81,1.27,2.94,2.94,0,0,0,.52,1.77C514.61,279.13,515.5,280,516.39,281Zm1.81.39c.68,2.08,2.3,2.81,3.95,3.39.34.12,1-.54,1.46-.84-.23-.37-.39-.95-.71-1.07C521.36,282.33,519.77,281.89,518.2,281.41Z" transform="translate(-26.07 -15.23)"/></svg>