<svg id="Camada_1" data-name="Camada 1" xmlns="http://www.w3.org/2000/svg" xmlns:xlink="http://www.w3.org/1999/xlink" viewBox="0 0 493 493"><defs><clipPath id="clip-path" transform="translate(127 60)"><path d="M221.17,192.75C183.72,174,235,128.26,231.35,89.1S194.81,60.6,196.6,72.4s23.07-8.64,8.09-23.32-25.77-3.17-27.56-1.44c-.9-16.41-68.9-46.93-101.55-2C56.4,21.15,27.7,76.51,52.21,73.27c18.5-2.46-38.95-39.45-32.35,21.88s33,65.64,9.88,97.6c25.76,32.54-24.87,87-6.3,117.77s34.75,8.92,30,3.45-21.55,12.68-6.28,27.37,26,2.45,29.65-3.76c-6.59,30.52,86.88,44.06,100.36,2.6,21.57,17.56,49.39-23.78,22.17-27.36-23.38-3.08,19.48,37.43,29.36-2.88s-46.93-82.12-7.49-117.19" style="fill:none"/></clipPath><clipPath id="clip-path-2" transform="translate(127 60)"><rect x="-127" y="-60" width="493" height="493" style="fill:none"/></clipPath></defs><g style="clip-path:url(#clip-path)"><g style="clip-path:url(#clip-path-2)"><image width="2953" height="2953" transform="scale(0.17)" xlink:href="spray60ml1.png"/></g></g><path d="M226.35,193.11l-1.8-.85-1.8-1a35.81,35.81,0,0,1-3.37-2.3,23,23,0,0,1-5.53-6.12,22.68,22.68,0,0,1-1.8-3.79,23.8,23.8,0,0,1-1-4.07,32.36,32.36,0,0,1-.15-8.28,69.49,69.49,0,0,1,4-15.72c1.84-5,3.95-9.93,6.11-14.78,4.3-9.7,8.73-19.3,11.76-29.31a74.38,74.38,0,0,0,3.08-15.24,48.42,48.42,0,0,0,.07-7.71l0-.48,0-.19,0-.25-.11-1-.23-2c-.18-1.3-.44-2.52-.65-3.79-1.1-5-2.86-9.94-6-13.86a17,17,0,0,0-19.73-6,16.09,16.09,0,0,0-3.25,1.67,11.81,11.81,0,0,0-2.61,2.42,7.47,7.47,0,0,0-1.4,3c0,.27-.07.54-.09.81l.05.81v.05s0,.12,0,0l0,.12,0,.24.11.49a1.13,1.13,0,0,0,.12.38l.12.32a5.66,5.66,0,0,0,.34.59l.22.21.1.11.13.06a1.85,1.85,0,0,0,1.18.26,6.4,6.4,0,0,0,3-1.34A16.43,16.43,0,0,0,211.84,61a17.53,17.53,0,0,0,1.88-7.18,15.34,15.34,0,0,0-.3-3.7,15.62,15.62,0,0,0-1.22-3.52,19.19,19.19,0,0,0-4.63-6,26.63,26.63,0,0,0-3-2.52L203,37,201.36,36l-.84-.47c-.29-.14-.59-.24-.88-.36-.6-.23-1.18-.49-1.79-.69L196,34.08a14.62,14.62,0,0,0-1.88-.22,15.59,15.59,0,0,0-7.41,1.4,21.7,21.7,0,0,0-6.31,4.46.51.51,0,0,1-.71,0,.51.51,0,0,1-.13-.3v0h0c-.25-2.43-1.74-4.6-3.39-6.47a34.39,34.39,0,0,0-5.74-5,68.36,68.36,0,0,0-13.5-7.28A87.83,87.83,0,0,0,142.26,16a84.84,84.84,0,0,0-15.2-2,71.81,71.81,0,0,0-15.23.89,61.29,61.29,0,0,0-14.54,4.31,56.15,56.15,0,0,0-12.87,7.9c-2,1.6-3.86,3.28-5.73,5s-3.64,3.58-5.52,5.4l-.11.11a.45.45,0,0,1-.63,0,.47.47,0,0,1-.06-.09h0a18.65,18.65,0,0,0-5.79-5,11.72,11.72,0,0,0-7.28-1.15,16.74,16.74,0,0,0-6.9,3,29.38,29.38,0,0,0-5.58,5.28,36.3,36.3,0,0,0-7.07,13.58,16.39,16.39,0,0,0-.41,7.37,5.62,5.62,0,0,0,4.38,4.62,10.93,10.93,0,0,0,3.58.17l.46,0,.19,0,.24-.05a5.25,5.25,0,0,0,.89-.19,3.41,3.41,0,0,0,1.34-.63,1.13,1.13,0,0,0,.46-.89,2.87,2.87,0,0,0-.42-1.33,10.48,10.48,0,0,0-2.32-2.67,27,27,0,0,0-13.72-5.86,18.59,18.59,0,0,0-7.33.55A14.09,14.09,0,0,0,21,58a18.61,18.61,0,0,0-3.84,6.25,33,33,0,0,0-1.87,7.34A68.34,68.34,0,0,0,15,87.1c.22,2.58.59,5.18.9,7.8s.71,5.17,1.19,7.75A183.59,183.59,0,0,0,25,133c1.72,4.95,3.66,9.82,5.57,14.75s3.77,10,4.57,15.43a31.13,31.13,0,0,1,.13,8.24,33.93,33.93,0,0,1-2.12,7.92A57.24,57.24,0,0,1,24.75,193h0l0-.6a35.76,35.76,0,0,1,7,14.45,51.55,51.55,0,0,1,.9,16.05,100.07,100.07,0,0,1-2.83,15.79c-1.31,5.18-2.88,10.28-4.52,15.34-3.25,10.12-6.87,20.13-9.16,30.43A70.34,70.34,0,0,0,14.25,300a32.85,32.85,0,0,0,3.47,14.92l.88,1.68,1.07,1.68c.7,1.15,1.47,2.17,2.21,3.24A43.94,43.94,0,0,0,27,327.4a23.32,23.32,0,0,0,6.19,4.36,12.07,12.07,0,0,0,7.13,1.11,10.92,10.92,0,0,0,6.2-3.49,11.28,11.28,0,0,0,2-3,7,7,0,0,0,.66-3.33,3,3,0,0,0-.46-1.35l-.1-.13,0-.07,0,0,0,0-.36-.34c-.12-.1-.16-.06-.24-.12l-.09-.06-.16,0a4,4,0,0,0-3,.55,14.28,14.28,0,0,0-5.07,5.22,17.93,17.93,0,0,0-2.35,7.06,16.22,16.22,0,0,0,.94,7.33,20,20,0,0,0,3.93,6.38l1.33,1.37,1.45,1.32,1.47,1.21c.52.37,1,.77,1.55,1.12a19.53,19.53,0,0,0,6.82,3.09,13.63,13.63,0,0,0,7.3-.35,18.31,18.31,0,0,0,6.45-3.88,29.82,29.82,0,0,0,5.07-5.89h0a.5.5,0,0,1,.68-.17.49.49,0,0,1,.24.52v0a14.3,14.3,0,0,0,.64,7.78,18.73,18.73,0,0,0,4.38,6.55,42.21,42.21,0,0,0,13.62,8.45A78.75,78.75,0,0,0,108.77,373,104.63,104.63,0,0,0,125,374.66a93.4,93.4,0,0,0,16.21-1,69.42,69.42,0,0,0,15.59-4.17,53.33,53.33,0,0,0,7.18-3.57,43,43,0,0,0,6.43-4.69,35.62,35.62,0,0,0,5.33-5.91,37.22,37.22,0,0,0,3.89-7h0a.51.51,0,0,1,.64-.31l.14.07h0a21,21,0,0,0,7,3.63,17.33,17.33,0,0,0,7.81.38,24.23,24.23,0,0,0,13.37-8,25.58,25.58,0,0,0,4.31-6.59,16.56,16.56,0,0,0,1.55-7.49,9.2,9.2,0,0,0-3.22-6.42,14.19,14.19,0,0,0-7-2.83l-.94-.16-1-.1a14.59,14.59,0,0,0-1.87,0,7.19,7.19,0,0,0-1.73.29,2.28,2.28,0,0,0-1.11.72c-.43.55-.23,1.7.32,2.75a13.06,13.06,0,0,0,2.26,3,24.27,24.27,0,0,0,6.3,4.57,22.42,22.42,0,0,0,7.37,2.38A14.6,14.6,0,0,0,227.4,329a24.87,24.87,0,0,0,3.95-6.7,38,38,0,0,0,2.29-7.59l.39-2a19.59,19.59,0,0,0,.24-2l.2-1.95c.07-.65,0-1.33.05-2l0-2c0-.66-.07-1.33-.11-2l-.13-2c-.05-.67-.17-1.33-.25-2a83,83,0,0,0-3.86-15.65c-3.49-10.24-8.25-20.08-12.29-30.26a124.09,124.09,0,0,1-5.23-15.63A52.52,52.52,0,0,1,211,220.81,37.25,37.25,0,0,1,215.7,205a50.24,50.24,0,0,1,10.55-12.66.48.48,0,0,1,.7,0,.49.49,0,0,1,0,.7h0a49.21,49.21,0,0,0-10,12.56,35.75,35.75,0,0,0-4.26,15.31,52.06,52.06,0,0,0,1.87,15.92,122.47,122.47,0,0,0,5.32,15.33c4.15,10,9,19.88,12.55,30.29a85.5,85.5,0,0,1,4,16.07c.09.69.21,1.38.27,2.07l.15,2.08c0,.7.12,1.39.12,2.09l0,2.1c0,.7,0,1.39-.06,2.1l-.21,2.11a20.09,20.09,0,0,1-.25,2.1l-.38,2a41.47,41.47,0,0,1-2.4,8.06,27.05,27.05,0,0,1-4.38,7.31,16.93,16.93,0,0,1-15.69,5.9,25.16,25.16,0,0,1-8.11-2.64,26.65,26.65,0,0,1-6.86-5,15.1,15.1,0,0,1-2.63-3.54,7.15,7.15,0,0,1-.75-2.3,3.8,3.8,0,0,1,.61-2.72,4.34,4.34,0,0,1,2.21-1.54,9.09,9.09,0,0,1,2.3-.39,18.29,18.29,0,0,1,2.22.06l1,.11c.4.06.72.13,1.08.2a16.12,16.12,0,0,1,7.93,3.37,11.11,11.11,0,0,1,3.83,7.85,18.3,18.3,0,0,1-1.8,8.36,27.45,27.45,0,0,1-4.69,7,25.64,25.64,0,0,1-14.41,8.2,18.59,18.59,0,0,1-8.39-.58,22,22,0,0,1-7.31-4l.79-.23h0a28.12,28.12,0,0,1-3.19,7.8,31.67,31.67,0,0,1-5.29,6.64,37.94,37.94,0,0,1-6.74,5.17,50.21,50.21,0,0,1-7.57,3.74,71.89,71.89,0,0,1-16.2,4.24,98.1,98.1,0,0,1-33.2-.95,81.2,81.2,0,0,1-15.94-4.85,41.92,41.92,0,0,1-14-9.18A20,20,0,0,1,73.92,354a15.26,15.26,0,0,1-.39-8.44l.92.37h0a28.19,28.19,0,0,1-4.81,6.56,19.84,19.84,0,0,1-6.91,4.58,15.07,15.07,0,0,1-8.41.64,21.67,21.67,0,0,1-7.65-3.36c-.57-.39-1.11-.81-1.67-1.22l-1.61-1.33-1.49-1.36L40.45,349a22.32,22.32,0,0,1-4.36-7.12,18.34,18.34,0,0,1-1-8.34,20.19,20.19,0,0,1,2.66-7.95,16.38,16.38,0,0,1,5.95-6,6.39,6.39,0,0,1,1-.47,6.74,6.74,0,0,1,1.13-.34,4.78,4.78,0,0,1,2.53.12,4,4,0,0,1,1.27.69l.36.33.05,0,.13.13.1.13.19.28a4.84,4.84,0,0,1,.83,2.36,9,9,0,0,1-.83,4.42,13.48,13.48,0,0,1-2.36,3.61A13.07,13.07,0,0,1,40.64,335a14.16,14.16,0,0,1-8.38-1.29,25.34,25.34,0,0,1-6.76-4.77,45.21,45.21,0,0,1-5.32-6.18c-.78-1.11-1.6-2.22-2.28-3.35l-1.06-1.68c-.35-.64-.65-1.23-1-1.85A34.75,34.75,0,0,1,12.26,300a72.13,72.13,0,0,1,2-16c2.39-10.46,6.09-20.46,9.39-30.55,1.66-5,3.28-10.08,4.65-15.19a99.38,99.38,0,0,0,3-15.53,50.15,50.15,0,0,0-.7-15.66A34.68,34.68,0,0,0,23.94,193a.51.51,0,0,1,0-.6h0v0A67.76,67.76,0,0,0,31,178.52a32.8,32.8,0,0,0,1.64-7.4,29.66,29.66,0,0,0-.33-7.52c-.81-5-2.68-9.89-4.52-14.8S24,139,22.27,134a186.2,186.2,0,0,1-7.9-30.83c-.48-2.6-.81-5.26-1.19-7.88s-.67-5.24-.88-7.91a71,71,0,0,1,.27-16.09,35.22,35.22,0,0,1,2.06-7.93,21.51,21.51,0,0,1,4.47-7.07,16.63,16.63,0,0,1,7.27-4.34,21,21,0,0,1,8.33-.54,29.16,29.16,0,0,1,7.92,2.22,27.44,27.44,0,0,1,7,4.33,12.57,12.57,0,0,1,2.78,3.32,5,5,0,0,1,.67,2.43,3.35,3.35,0,0,1-1.26,2.51,5.62,5.62,0,0,1-2.2,1,9.24,9.24,0,0,1-1.05.21l-.24,0-.3,0-.53,0a13.17,13.17,0,0,1-4.27-.26,7.62,7.62,0,0,1-3.89-2.24,8.44,8.44,0,0,1-2-4,18,18,0,0,1,.55-8.27,38.15,38.15,0,0,1,7.65-14.14,31.62,31.62,0,0,1,6-5.46,18.34,18.34,0,0,1,7.55-3.1,12.85,12.85,0,0,1,8,1.43,20,20,0,0,1,6,5.38h-.79a37.28,37.28,0,0,1,4.39-6.62,44.42,44.42,0,0,1,5.63-5.68A58.48,58.48,0,0,1,88.91,20,57.69,57.69,0,0,1,96,16.3a61.67,61.67,0,0,1,15.32-4.43,73.92,73.92,0,0,1,15.86-.75,85.79,85.79,0,0,1,15.64,2.39,91.45,91.45,0,0,1,14.95,5.09,66.73,66.73,0,0,1,13.63,8A36.37,36.37,0,0,1,177.21,32a18.11,18.11,0,0,1,2.22,3.36,9.78,9.78,0,0,1,1.12,4h0l-.84-.34a23,23,0,0,1,6.48-4.83,16.6,16.6,0,0,1,8-1.72,17.52,17.52,0,0,1,2.06.2l2,.44c.66.2,1.29.47,1.94.7.32.12.65.23,1,.37l.91.48,1.81,1,1.69,1.18a26.49,26.49,0,0,1,3.14,2.53,20.92,20.92,0,0,1,5.18,6.42,17.21,17.21,0,0,1,1.46,3.93,17,17,0,0,1,.43,4.2,19,19,0,0,1-2,8.1,18.59,18.59,0,0,1-5.22,6.59,8.65,8.65,0,0,1-4.18,1.84,4.19,4.19,0,0,1-2.63-.58l-.3-.18-.26-.23-.49-.49a7,7,0,0,1-.68-1.11l-.24-.61a3,3,0,0,1-.17-.55l-.11-.49-.06-.24,0-.12a1.19,1.19,0,0,1,0-.16v-.07l-.07-1.18c0-.39.07-.77.11-1.16a9.82,9.82,0,0,1,1.82-4.14,15.88,15.88,0,0,1,6.93-5,19.88,19.88,0,0,1,8.36-1.28,19,19,0,0,1,8.15,2.38,22,22,0,0,1,6.43,5.48,28.93,28.93,0,0,1,4.17,7.21,45.55,45.55,0,0,1,2.43,7.84c.24,1.35.52,2.72.71,4l.24,2,.12,1,0,.25,0,.29,0,.51a51.93,51.93,0,0,1,0,8.18,77.35,77.35,0,0,1-3.13,15.89c-3.08,10.32-7.53,20-11.77,29.73-2.12,4.85-4.25,9.68-6.09,14.58a72.68,72.68,0,0,0-4.14,15c-.69,5-.38,10.27,2,14.7a21.8,21.8,0,0,0,4.69,6,32.39,32.39,0,0,0,3,2.4l1.61,1.07,1.72,1a.5.5,0,0,1,.17.68A.49.49,0,0,1,226.35,193.11Z" transform="translate(127 60)" style="fill:#58595b"/></svg>